<svg width="477" height="119" viewBox="0 0 477 119" fill="none" xmlns="http://www.w3.org/2000/svg">
<rect x="0.320312" y="0.388184" width="475.697" height="118.344" rx="59.1721" fill="#1EB7C6"/>
<path d="M161.957 39.5134L160.797 39.8334H133.517V44.5134H156.717C154.717 46.6734 152.237 48.9134 149.797 50.6334H147.117V68.7534C147.117 69.4334 146.837 69.6334 145.957 69.6334C145.037 69.6734 141.757 69.6734 138.957 69.5134C139.677 70.8334 140.557 72.9534 140.837 74.3934C144.677 74.3934 147.517 74.3134 149.517 73.5934C151.477 72.8734 152.157 71.5934 152.157 68.8334V54.6334C156.997 51.5934 162.157 46.5934 165.677 42.2734L161.957 39.5134ZM192.797 50.5534C193.557 51.3534 194.357 52.4734 194.717 53.2734C194.997 53.1534 195.277 52.9934 195.557 52.8734C195.077 55.7134 194.117 58.5934 192.797 60.6734V50.5534ZM186.637 60.4334V57.1134H188.917V60.4334H186.637ZM181.237 57.1134H183.477V60.4334H181.197C181.237 59.5134 181.237 58.6334 181.237 57.7934V57.1134ZM185.437 44.3534C185.077 45.3534 184.717 46.3934 184.317 47.2734H180.877C181.357 46.3534 181.797 45.3534 182.237 44.3534H185.437ZM186.637 50.7534H188.917V53.7534H186.637V50.7534ZM181.237 50.7534H183.477V53.7534H181.237V50.7534ZM212.157 63.5534H205.357V59.9534H211.357V55.9534H205.357V52.3534H200.837V55.9534H198.877C199.117 55.1134 199.277 54.2334 199.437 53.3934L195.877 52.6734C199.957 50.4334 201.477 47.1134 202.157 42.9534H206.797C206.637 46.2734 206.437 47.6334 206.077 48.0734C205.797 48.4334 205.477 48.5134 204.997 48.5134C204.437 48.5134 203.357 48.4734 202.117 48.3534C202.717 49.3534 203.117 50.9534 203.197 52.1934C204.797 52.2334 206.357 52.1934 207.237 52.0734C208.237 51.9134 208.997 51.5934 209.677 50.7534C210.517 49.7134 210.877 46.9534 211.077 40.5934C211.117 40.0734 211.157 39.0734 211.157 39.0734H193.397V42.9534H197.877C197.317 45.8734 196.117 48.1934 192.797 49.7134V47.2734H188.317C189.157 45.6334 189.957 43.7934 190.517 42.2334L187.797 40.5534L187.197 40.7534H183.557C183.877 39.8334 184.157 38.8734 184.397 37.9134L180.197 37.0334C179.117 41.7134 176.997 46.3934 174.277 49.3134C175.117 49.8734 176.597 51.0734 177.397 51.8734V57.7934C177.397 62.2734 177.197 68.2334 174.517 72.3534C175.397 72.7534 177.117 73.8334 177.797 74.4734C179.637 71.5934 180.557 67.7134 180.957 63.9534H188.917V69.7134C188.917 70.2334 188.717 70.3934 188.237 70.3934C187.757 70.3934 186.197 70.3934 184.597 70.3134C185.197 71.3934 185.837 73.1934 185.957 74.3534C188.397 74.3534 190.037 74.2334 191.277 73.5534C192.477 72.8734 192.797 71.6734 192.797 69.7934V61.3534C193.797 61.7934 195.237 62.5534 195.917 63.0334C196.517 62.1534 197.037 61.1134 197.517 59.9534H200.837V63.5534H193.437V67.6334H200.837V74.2334H205.357V67.6334H212.157V63.5534ZM225.157 76.4334C230.117 74.9534 233.037 71.2734 233.037 66.7134C233.037 63.3534 231.557 61.2334 228.717 61.2334C226.597 61.2334 224.797 62.5934 224.797 64.8334C224.797 67.1134 226.597 68.3934 228.597 68.3934C228.757 68.3934 228.917 68.3934 229.037 68.3534C228.797 70.4734 226.997 72.1934 223.877 73.1934L225.157 76.4334ZM273.957 38.2734H264.437V41.8734H273.957V38.2734ZM274.917 43.6334H262.717V47.3934H274.917V43.6334ZM273.957 49.1934H264.237V52.8334H273.957V49.1934ZM264.237 58.2334H273.957V54.6734H264.237V58.2334ZM279.917 55.3534H283.237V57.5134L279.917 58.1534V55.3534ZM283.237 49.7934V51.9134H279.917V49.7934H283.237ZM283.237 44.2734V46.3534H279.917V44.2734H283.237ZM270.357 68.5134H267.717V63.9134H270.357V68.5134ZM293.677 62.8334C293.517 60.1134 292.757 55.9934 291.637 52.7934L288.317 53.5534C288.557 54.2734 288.757 55.0334 288.957 55.8334L287.077 55.1934V40.8334H283.517C283.917 39.8334 284.357 38.7534 284.757 37.6734L280.157 36.9934C279.997 38.0734 279.677 39.5534 279.357 40.8334H276.197V58.8334L274.357 59.1534L275.357 62.8734C276.997 62.5134 278.797 62.1134 280.677 61.6734C278.717 63.8734 276.397 65.7534 274.037 67.2334V60.1934H264.117V73.8334H267.717V72.2334H274.037V68.3134C274.837 69.2334 275.757 70.4334 276.157 71.1134C278.637 69.5134 281.037 67.3934 283.237 64.9934V69.8334C283.237 70.3534 283.077 70.5534 282.517 70.5934C281.997 70.5934 280.397 70.5934 278.797 70.5134C279.357 71.5534 279.957 73.3134 280.117 74.4334C282.637 74.4334 284.277 74.2734 285.477 73.6334C286.677 72.9534 287.077 71.7934 287.077 69.9134V60.1134C287.837 58.9934 288.517 57.8334 289.157 56.6734C289.717 59.1534 290.077 61.7534 290.117 63.6734L293.677 62.8334ZM300.117 46.0334H298.237V37.2734H293.957V46.0334H287.717V50.4334H293.957V69.4334C293.957 69.9934 293.757 70.1534 293.237 70.1934C292.677 70.1934 291.037 70.2334 289.317 70.1534C289.877 71.4334 290.477 73.3534 290.597 74.5134C293.357 74.5134 295.277 74.3934 296.557 73.6334C297.837 72.9134 298.237 71.7134 298.237 69.4334V50.4334H300.117V46.0334ZM317.957 38.2734H308.437V41.8734H317.957V38.2734ZM318.917 43.6334H306.717V47.3934H318.917V43.6334ZM317.957 49.1934H308.237V52.8334H317.957V49.1934ZM308.237 58.2334H317.957V54.6734H308.237V58.2334ZM323.917 55.3534H327.237V57.5134L323.917 58.1534V55.3534ZM327.237 49.7934V51.9134H323.917V49.7934H327.237ZM327.237 44.2734V46.3534H323.917V44.2734H327.237ZM314.357 68.5134H311.717V63.9134H314.357V68.5134ZM337.677 62.8334C337.517 60.1134 336.757 55.9934 335.637 52.7934L332.317 53.5534C332.557 54.2734 332.757 55.0334 332.957 55.8334L331.077 55.1934V40.8334H327.517C327.917 39.8334 328.357 38.7534 328.757 37.6734L324.157 36.9934C323.997 38.0734 323.677 39.5534 323.357 40.8334H320.197V58.8334L318.357 59.1534L319.357 62.8734C320.997 62.5134 322.797 62.1134 324.677 61.6734C322.717 63.8734 320.397 65.7534 318.037 67.2334V60.1934H308.117V73.8334H311.717V72.2334H318.037V68.3134C318.837 69.2334 319.757 70.4334 320.157 71.1134C322.637 69.5134 325.037 67.3934 327.237 64.9934V69.8334C327.237 70.3534 327.077 70.5534 326.517 70.5934C325.997 70.5934 324.397 70.5934 322.797 70.5134C323.357 71.5534 323.957 73.3134 324.117 74.4334C326.637 74.4334 328.277 74.2734 329.477 73.6334C330.677 72.9534 331.077 71.7934 331.077 69.9134V60.1134C331.837 58.9934 332.517 57.8334 333.157 56.6734C333.717 59.1534 334.077 61.7534 334.117 63.6734L337.677 62.8334ZM344.117 46.0334H342.237V37.2734H337.957V46.0334H331.717V50.4334H337.957V69.4334C337.957 69.9934 337.757 70.1534 337.237 70.1934C336.677 70.1934 335.037 70.2334 333.317 70.1534C333.877 71.4334 334.477 73.3534 334.597 74.5134C337.357 74.5134 339.277 74.3934 340.557 73.6334C341.837 72.9134 342.237 71.7134 342.237 69.4334V50.4334H344.117V46.0334Z" fill="white"/>
</svg>
