<svg width="477" height="119" viewBox="0 0 477 119" fill="none" xmlns="http://www.w3.org/2000/svg">
<rect x="0.875" y="0.388123" width="475.697" height="118.344" rx="59.1721" fill="#FFA400"/>
<path d="M192.951 47.9933L193.351 50.7533C195.591 50.5933 197.951 50.4733 200.511 50.3133C200.631 50.6733 200.751 51.0333 200.831 51.3533L202.431 50.3533L202.511 50.7533C204.831 50.5933 207.391 50.4733 210.031 50.3133C210.191 50.6733 210.311 50.9933 210.431 51.3133L212.631 49.9133C212.111 48.5933 210.951 46.4733 209.791 44.9933L207.711 46.1533C208.071 46.6733 208.431 47.2733 208.751 47.8333L206.071 47.9133C207.831 45.9933 209.751 43.5133 211.391 41.3533L208.831 40.2733C208.231 41.3133 207.431 42.5533 206.551 43.7933C206.271 43.4733 205.991 43.1533 205.631 42.7933C206.471 41.5933 207.471 39.9533 208.391 38.4733L205.631 37.5133C205.271 38.5933 204.591 40.0333 203.951 41.2733C203.711 41.0333 203.431 40.8333 203.191 40.6333L201.871 42.8333C202.951 43.7133 204.111 44.9133 204.951 45.9533C204.351 46.6733 203.791 47.3533 203.271 47.9533L202.231 47.9933C201.751 47.0333 201.191 45.9533 200.631 45.0733L198.591 46.1933C198.911 46.7133 199.191 47.2733 199.471 47.8733L197.151 47.9133C198.791 45.9933 200.591 43.4333 202.111 41.2733L199.591 40.1933C199.031 41.2333 198.311 42.5133 197.511 43.7533C197.231 43.4333 196.951 43.1133 196.631 42.7933C197.431 41.5533 198.351 39.9533 199.231 38.4733L196.391 37.5133C196.111 38.5533 195.551 39.9133 194.991 41.1533L194.391 40.6333L192.991 42.7933C193.991 43.7133 195.151 44.9533 195.951 45.9933C195.431 46.7133 194.951 47.3933 194.471 47.9533L192.951 47.9933ZM176.391 60.4333C176.191 63.7933 175.791 67.3533 174.791 69.7133C175.671 70.0333 177.271 70.7533 178.031 71.2333C178.991 68.7133 179.671 64.7533 179.991 60.9933L176.391 60.4333ZM199.631 57.6333C199.071 58.7133 198.311 59.9933 197.511 61.3133C197.271 60.9533 196.951 60.5933 196.591 60.2333C197.391 58.9933 198.311 57.3133 199.231 55.8733L197.351 55.2333H205.591C205.151 56.2733 204.551 57.5933 203.951 58.7533L203.231 58.1533L201.871 60.3133C202.951 61.2733 204.151 62.5133 204.991 63.5933C204.431 64.3133 203.871 65.0333 203.351 65.5933L202.271 65.6333C201.791 64.6333 201.231 63.5933 200.671 62.7133L198.631 63.8333C198.911 64.3533 199.231 64.9133 199.511 65.5133L197.191 65.5533C198.831 63.5133 200.631 60.9133 202.151 58.6733L199.631 57.6333ZM181.351 54.1933C181.911 53.3533 182.511 52.4733 183.071 51.5533C183.431 52.3533 183.791 53.1933 184.151 54.0333L181.351 54.1933ZM192.911 65.6333L193.271 68.5133C195.551 68.3533 197.951 68.1933 200.551 67.9533C200.711 68.3933 200.871 68.7933 200.951 69.1533L202.391 68.3133L202.431 68.5133C204.791 68.3533 207.351 68.1933 210.071 67.9933C210.231 68.3933 210.391 68.7533 210.511 69.0733L212.631 67.5933C212.151 66.2333 210.871 64.1533 209.671 62.5133L207.671 63.8733C208.031 64.3533 208.391 64.9133 208.711 65.4733L206.191 65.5533C207.911 63.5533 209.831 60.9933 211.431 58.7933L208.871 57.7133C208.271 58.8333 207.471 60.1133 206.591 61.3933C206.351 61.0733 206.031 60.7533 205.671 60.3933C206.551 59.1133 207.551 57.3933 208.431 55.8733L206.631 55.2333H212.311V51.6733H192.631V37.1933H188.431V55.5533C187.831 53.7133 186.951 51.7133 186.071 49.9933L183.431 50.9933C185.031 48.5133 186.631 45.8333 187.991 43.4733L184.271 41.8733C183.551 43.6333 182.551 45.6733 181.471 47.7133C181.151 47.2733 180.791 46.7933 180.391 46.3533C181.551 44.1133 182.911 41.0333 184.111 38.3533L180.111 37.0733C179.631 39.0333 178.791 41.4733 177.911 43.5933C177.631 43.3133 177.391 43.0333 177.111 42.7933L175.151 46.1533C176.631 47.7133 178.271 49.7133 179.351 51.4333C178.711 52.4733 178.111 53.4733 177.511 54.3533L174.911 54.4733L175.311 58.6333C176.791 58.5133 178.431 58.3933 180.151 58.2333V74.3933H184.071V57.8733L185.391 57.7533C185.591 58.5133 185.751 59.2333 185.831 59.8733L188.431 58.7933V64.0733C188.071 62.7933 187.671 61.4733 187.271 60.3133L184.111 61.2733C184.871 63.6333 185.671 66.6733 185.911 68.7133L188.431 67.8733V74.3933H192.631V72.9933H212.511V69.3933H192.631V55.2333H196.311C195.991 56.2333 195.471 57.4733 194.991 58.5933L194.431 58.1133L192.991 60.2733C194.031 61.2333 195.191 62.5133 195.991 63.6333C195.511 64.3533 194.991 64.9933 194.551 65.5933L192.911 65.6333ZM242.231 43.2733H235.191V45.9933H254.591V43.2733H246.871V41.9933H256.111V39.1133H246.871V37.0333H242.231V39.1133H233.271V41.9933H242.231V43.2733ZM240.991 49.4733C240.591 50.3133 239.671 50.8333 237.711 51.1133V49.4733H240.991ZM251.751 50.4733C251.671 50.4733 251.511 50.4733 251.311 50.4733H249.471C248.911 50.4733 248.791 50.3933 248.791 49.6733V49.4733H251.751V50.4733ZM237.711 52.9933V51.1933C238.271 51.6333 238.871 52.3933 239.151 52.9133C242.151 52.2733 243.431 51.2733 243.871 49.4733H245.511V49.5933C245.511 51.7133 246.111 52.1933 248.991 52.1933H251.751V52.9933H237.711ZM234.071 55.3533H255.591V47.1933H234.071V55.3533ZM220.591 60.4333C220.271 63.7933 219.751 67.3533 218.591 69.7133C219.511 70.0333 221.191 70.8333 221.991 71.3133C223.111 68.7533 223.911 64.8333 224.311 61.0333L220.591 60.4333ZM225.871 54.3933C226.591 53.3933 227.351 52.3133 228.111 51.1533C228.551 52.1133 228.991 53.1533 229.351 54.2333L225.871 54.3933ZM230.471 57.9133C230.631 58.5533 230.711 59.1933 230.791 59.7133L234.151 58.3933C233.831 56.1533 232.551 52.5933 231.151 49.8333L228.351 50.8333C229.991 48.3933 231.671 45.7533 233.071 43.3933L229.191 41.7533C228.351 43.6733 227.191 45.9133 225.951 48.1133C225.591 47.5933 225.151 47.0333 224.671 46.4733C226.071 44.2333 227.711 41.1133 229.111 38.3933L225.031 37.0733C224.391 39.0733 223.311 41.7133 222.191 43.9133L221.431 43.1933L219.111 46.3533C220.671 48.0333 222.551 50.1933 223.631 51.9533C223.031 52.9133 222.431 53.7933 221.831 54.5933L219.151 54.7133L219.591 58.7133C221.151 58.5933 222.911 58.4733 224.751 58.3133V74.3933H228.751V58.0333L230.471 57.9133ZM228.871 61.1133C229.591 63.1933 230.311 65.9133 230.591 67.7133L233.831 66.5933C233.511 64.8733 232.751 62.2333 232.031 60.2333L228.871 61.1133ZM239.591 65.2333H249.911V66.5933H239.591V65.2333ZM239.591 62.0333H249.911V63.3533H239.591V62.0333ZM239.591 58.8733H249.911V60.1133H239.591V58.8733ZM254.191 68.8333V56.5933H235.471V68.8333H238.671C236.631 69.9133 233.791 71.0333 231.351 71.6733C232.311 72.3533 233.631 73.5533 234.311 74.3533C237.231 73.5133 241.031 71.9533 243.471 70.3933L241.111 68.8333H247.751L245.711 70.4733C248.351 71.7133 251.351 73.3533 252.951 74.4333L256.991 72.0333C255.431 71.1133 252.911 69.9133 250.471 68.8333H254.191ZM277.031 38.2733H265.271V41.8733H277.031V38.2733ZM278.471 43.6333H263.271V47.3933H278.471V43.6333ZM277.151 54.6733H265.151V58.2333H277.151V54.6733ZM291.791 42.4333C292.551 44.3133 293.511 46.1933 294.591 47.9133H283.471C284.431 46.2733 285.271 44.5133 285.951 42.8333L284.391 42.4333H291.791ZM293.391 56.2333H284.751V51.9933H293.391V56.2333ZM273.151 68.5533H269.031V63.9533H273.151V68.5533ZM294.791 69.9133C294.191 69.9133 294.111 69.7533 294.111 68.6733V60.2733H297.991V50.5933C298.951 49.7533 300.271 48.8333 301.191 48.3533C298.671 45.9533 296.191 41.9133 295.031 38.1133H284.111V42.3533L281.311 41.6333C280.551 44.1533 278.991 47.2333 277.031 49.1933H265.151V52.8333H277.151V49.7133C278.191 50.3133 279.591 51.3133 280.391 52.0333V60.2733H282.951C282.591 64.7533 281.751 68.0733 277.191 70.1933V60.1933H265.031V73.8333H269.031V72.2733H277.191V72.1933C277.751 72.9533 278.271 73.8333 278.551 74.4733C285.591 71.6333 287.071 66.8333 287.591 60.2733H289.631V68.7133C289.631 72.7533 290.391 74.0733 294.031 74.0733H296.751C299.671 74.0733 300.751 72.5933 301.151 66.6733C299.911 66.3933 298.031 65.6333 297.191 64.8733C297.071 69.2733 296.951 69.9133 296.231 69.9133H294.791Z" fill="white"/>
</svg>
