<svg width="482" height="91" viewBox="0 0 482 91" fill="none" xmlns="http://www.w3.org/2000/svg">
<path d="M1.72604 15.708V18.088H17.91V15.708H1.72604ZM20.188 9.486V28.288H22.67V9.486H20.188ZM8.86604 8.33V36.686H11.382V8.33H8.86604ZM28.552 6.086V33.354C28.552 34 28.28 34.204 27.634 34.204C26.988 34.238 24.88 34.238 22.432 34.17C22.84 34.918 23.248 36.04 23.384 36.754C26.512 36.788 28.416 36.72 29.538 36.278C30.626 35.87 31.068 35.088 31.068 33.32V6.086H28.552ZM15.632 5.644C12.436 7.072 6.52004 8.228 1.48804 8.942C1.79404 9.486 2.16804 10.37 2.27004 10.982C7.43804 10.302 13.592 9.18 17.536 7.616L15.632 5.644ZM8.76404 16.796C7.26804 21.352 3.97004 26.758 0.978043 29.614C1.42004 30.26 2.06604 31.28 2.37204 32.028C5.53404 28.798 8.86604 22.712 10.6 17.544L8.76404 16.796ZM11.042 20.298L9.64804 21.658C11.212 22.984 14.918 26.554 16.312 28.118L17.808 25.976C16.72 25.024 12.334 21.216 11.042 20.298ZM46.47 7.854V10.302H68.468V7.854H46.47ZM46.47 15.776V18.19H68.434V15.776H46.47ZM46.3 23.902V26.316H68.502V23.902H46.3ZM45.042 7.854V20.162C45.042 24.956 44.668 31.008 40.928 35.224C41.472 35.564 42.492 36.414 42.9 36.924C46.946 32.402 47.558 25.364 47.558 20.196V7.854H45.042ZM67.448 7.854V33.252C67.448 33.898 67.21 34.102 66.564 34.136C65.918 34.136 63.606 34.17 61.192 34.068C61.566 34.748 61.974 35.87 62.076 36.55C65.306 36.584 67.278 36.55 68.434 36.142C69.556 35.7 69.964 34.918 69.964 33.252V7.854H67.448ZM55.718 8.772V36.414H58.302V8.772H55.718ZM336.184 8.636V33.014C336.184 33.728 335.946 33.966 335.198 34C334.382 34.034 331.628 34.068 328.874 33.932C329.282 34.68 329.792 35.938 329.962 36.686C333.328 36.686 335.708 36.652 337.068 36.21C338.394 35.802 338.836 34.918 338.836 33.082V8.636H336.184ZM316.192 15.436V30.838H318.674V15.436H316.192ZM317.246 15.436V17.85H327.582V25.67H317.246V28.118H330.132V15.436H317.246ZM312.69 7.854V10.438H343.018V7.854H312.69ZM362.976 10.812C365.152 13.328 367.362 16.83 368.246 19.176L370.694 17.85C369.708 15.538 367.532 12.172 365.254 9.69L362.976 10.812ZM351.79 30.396L352.708 33.048C356.482 31.416 361.65 29.138 366.376 26.962L365.798 24.48C360.698 26.724 355.258 29.036 351.79 30.396ZM372.19 25.908C375.454 29.24 379.534 33.83 381.438 36.652L383.614 34.646C381.608 31.858 377.392 27.438 374.162 24.242L372.19 25.908ZM376.916 7.208C375.386 21.998 371.782 30.328 360.018 34.612C360.664 35.156 361.684 36.278 362.058 36.822C373.958 31.858 377.936 23.188 379.67 7.48L376.916 7.208ZM355.938 7.31L356.516 29.784L359.134 29.682L358.556 7.208L355.938 7.31ZM412.208 5.474C410.712 8.092 407.754 11.118 403.504 13.26C404.048 13.634 404.796 14.45 405.136 14.994C409.726 12.478 412.786 9.214 414.758 5.916L412.208 5.474ZM411.392 8.432L409.896 10.54H419.654V8.432H411.392ZM418.77 8.432V8.84C416.526 14.79 410.406 18.632 404.116 20.162C404.558 20.672 405.204 21.624 405.442 22.236C412.276 20.264 418.634 16.218 421.32 9.078L419.688 8.296L419.246 8.432H418.77ZM407.856 12.954C409.692 14.11 411.936 15.912 412.956 17.136L414.656 15.708C413.568 14.45 411.358 12.75 409.488 11.662L407.856 12.954ZM414.01 18.258C412.344 21.25 408.944 24.65 403.946 26.996C404.49 27.37 405.238 28.186 405.578 28.764C410.882 26.044 414.418 22.406 416.594 18.7L414.01 18.258ZM413.058 21.488L411.528 23.664H421.184V21.488H413.058ZM420.436 21.488V21.896C418.022 29.172 411.086 33.116 403.402 34.578C403.844 35.122 404.422 36.108 404.694 36.754C412.922 34.884 420.164 30.702 423.054 22.1L421.422 21.386L420.946 21.488H420.436ZM408.604 26.588C410.78 27.88 413.296 29.818 414.486 31.246L416.288 29.648C415.064 28.254 412.514 26.35 410.338 25.16L408.604 26.588ZM397.588 8.262V36.652H400.07V8.262H397.588ZM392.012 15.028V17.442H404.354V15.028H392.012ZM397.724 15.946C396.5 20.162 393.78 25.466 391.332 28.186C391.774 28.764 392.386 29.818 392.624 30.532C395.242 27.37 397.962 21.42 399.322 16.626L397.724 15.946ZM402.62 5.95C400.138 7.106 395.65 8.058 391.808 8.704C392.114 9.282 392.454 10.098 392.59 10.676C396.534 10.132 401.294 9.18 404.422 7.922L402.62 5.95ZM399.968 19.414L398.778 20.434C399.832 21.624 402.382 24.854 403.198 26.248L404.694 24.242C404.014 23.392 400.818 20.162 399.968 19.414ZM432.506 27.676V29.614H448.01V27.676H432.506ZM431.588 11.288V13.26H448.554V11.288H431.588ZM438.966 8.194V33.218H441.312V8.194H438.966ZM431.554 33.286L431.928 35.496C436.246 35.054 442.4 34.34 448.18 33.66L448.146 31.654C442.06 32.3 435.702 32.912 431.554 33.286ZM434.716 21.318H445.732V23.834H434.716V21.318ZM434.716 17.17H445.732V19.618H434.716V17.17ZM432.574 15.402V25.602H447.908V15.402H432.574ZM446.684 5.78C443.182 6.596 436.994 7.208 431.928 7.48C432.2 7.99 432.438 8.84 432.54 9.384C437.64 9.214 443.964 8.636 447.976 7.752L446.684 5.78ZM448.316 13.396V15.776H460.59V13.396H448.316ZM459.604 13.396V14.008C459.23 27.778 458.856 32.674 458.006 33.728C457.7 34.17 457.36 34.272 456.816 34.272C456.136 34.272 454.64 34.238 452.974 34.102C453.382 34.782 453.654 35.836 453.722 36.55C455.286 36.652 456.918 36.652 457.87 36.55C458.89 36.448 459.57 36.142 460.182 35.258C461.304 33.796 461.644 29.036 462.018 14.688C462.018 14.348 462.052 13.396 462.052 13.396H459.604ZM452.43 5.882C452.396 18.734 452.566 29.512 444.78 35.088C445.392 35.496 446.276 36.312 446.684 36.924C454.81 30.838 454.844 19.414 454.878 5.882H452.43ZM475.278 37.638C478.848 36.414 481.16 33.626 481.16 29.954C481.16 27.574 480.14 26.01 478.236 26.01C476.876 26.01 475.652 26.86 475.652 28.458C475.652 30.09 476.808 30.906 478.202 30.906C478.848 30.906 479.528 30.736 480.004 30.124L478.168 27.54L478.814 30.43C478.814 32.98 477.284 34.714 474.496 35.87L475.278 37.638ZM39.2915 59.61C38.1695 64.608 36.1975 69.504 33.6815 72.666C34.2595 73.04 35.2795 73.856 35.7215 74.298C38.3395 70.83 40.4815 65.594 41.8075 60.154L39.2915 59.61ZM38.7135 74.026C37.7615 78.106 36.1295 82.152 34.0215 84.77C34.6335 85.076 35.7215 85.756 36.2315 86.164C38.3055 83.308 40.1415 78.99 41.1955 74.536L38.7135 74.026ZM38.9855 66.002L37.9995 68.382H54.2855V66.002H38.9855ZM44.2555 66.988V87.626C44.2555 88.068 44.1195 88.204 43.6775 88.204C43.2015 88.204 41.7395 88.238 40.1415 88.17C40.5155 88.918 40.8895 90.04 41.0595 90.754C43.1675 90.754 44.6295 90.686 45.5475 90.244C46.4995 89.836 46.8055 89.088 46.8055 87.626V66.988H44.2555ZM49.2535 74.536C51.1235 78.106 52.8235 82.9 53.3675 86.028L55.7815 85.212C55.2035 82.05 53.5035 77.358 51.5315 73.788L49.2535 74.536ZM53.5375 66.002V66.376C53.1975 68.62 52.7555 71.476 52.3815 73.176L54.5915 73.584C55.0335 71.748 55.6115 68.824 56.0875 66.308L54.3195 65.934L53.8775 66.002H53.5375ZM32.4575 59.576C30.5535 64.744 27.3575 69.844 23.9915 73.142C24.4675 73.72 25.1815 75.08 25.4535 75.658C29.1255 71.85 32.6275 66.104 34.8715 60.324L32.4575 59.576ZM28.9215 68.348V90.686H31.3695V65.968L31.3015 65.934L28.9215 68.348ZM83.3555 75.862V86.538C83.3555 89.36 84.1035 90.21 87.1295 90.21C87.7755 90.21 91.2775 90.21 91.9235 90.21C94.6775 90.21 95.4255 88.85 95.6975 83.682C94.9835 83.512 93.8955 83.104 93.3175 82.662C93.1815 87.082 93.0115 87.762 91.7535 87.762C90.9375 87.762 88.0135 87.762 87.4355 87.762C86.1435 87.762 85.9055 87.592 85.9055 86.572V75.862H83.3555ZM65.3355 74.094V76.542H95.2215V74.094H65.3355ZM70.9115 64.744V67.226H92.7735V64.744H70.9115ZM74.2775 75.964C73.6995 81.88 72.3055 86.436 64.8595 88.748C65.4375 89.258 66.1855 90.244 66.4915 90.924C74.4815 88.17 76.2495 82.9 76.9295 75.964H74.2775ZM71.5915 60.256C70.7755 63.792 69.0415 68.348 66.7295 71.204C67.3415 71.476 68.3615 72.02 68.9395 72.428C71.3195 69.402 73.1215 64.642 74.1755 60.766L71.5915 60.256ZM78.9695 59.474V74.876H81.5535V59.474H78.9695ZM116.573 86.13L117.151 88.51C120.109 87.83 123.951 86.946 127.657 86.096L127.453 83.954C123.441 84.804 119.327 85.654 116.573 86.13ZM117.219 73.312V75.556H126.671V73.312H117.219ZM116.947 66.24V68.586H135.375V66.24H116.947ZM130.479 60.63C131.771 62.024 133.267 63.894 133.913 65.152L135.783 64.064C135.103 62.84 133.573 61.004 132.281 59.712L130.479 60.63ZM120.823 74.128V86.47L123.203 85.926V74.128H120.823ZM127.589 59.474C127.725 78.072 128.167 90.584 133.199 90.754C134.355 90.788 135.579 89.53 136.225 84.566C135.817 84.328 134.763 83.648 134.321 83.104C134.151 85.892 133.777 87.626 133.267 87.592C130.717 87.422 129.901 75.76 130.037 59.474H127.589ZM105.863 69.742V71.782H115.553V69.742H105.863ZM105.999 60.664V62.704H115.383V60.664H105.999ZM105.863 74.298V76.338H115.553V74.298H105.863ZM104.333 65.118V67.226H116.403V65.118H104.333ZM106.985 78.888V80.996H113.309V86.674H106.985V88.816H115.519V78.888H106.985ZM105.829 78.888V90.38H108.005V78.888H105.829ZM156.353 86.13L156.931 88.51C159.889 87.83 163.731 86.946 167.437 86.096L167.233 83.954C163.221 84.804 159.107 85.654 156.353 86.13ZM156.999 73.312V75.556H166.451V73.312H156.999ZM156.727 66.24V68.586H175.155V66.24H156.727ZM170.259 60.63C171.551 62.024 173.047 63.894 173.693 65.152L175.563 64.064C174.883 62.84 173.353 61.004 172.061 59.712L170.259 60.63ZM160.603 74.128V86.47L162.983 85.926V74.128H160.603ZM167.369 59.474C167.505 78.072 167.947 90.584 172.979 90.754C174.135 90.788 175.359 89.53 176.005 84.566C175.597 84.328 174.543 83.648 174.101 83.104C173.931 85.892 173.557 87.626 173.047 87.592C170.497 87.422 169.681 75.76 169.817 59.474H167.369ZM145.643 69.742V71.782H155.333V69.742H145.643ZM145.779 60.664V62.704H155.163V60.664H145.779ZM145.643 74.298V76.338H155.333V74.298H145.643ZM144.113 65.118V67.226H156.183V65.118H144.113ZM146.765 78.888V80.996H153.089V86.674H146.765V88.816H155.299V78.888H146.765ZM145.609 78.888V90.38H147.785V78.888H145.609ZM191.407 74.57V90.822H193.855V76.61H208.679V90.822H211.229V74.57H191.407ZM184.573 70.082V72.19H214.595V70.082H184.573ZM187.055 65.526V67.566H212.623V65.526H187.055ZM193.073 78.922V80.724H209.767V78.922H193.073ZM193.073 83.138V84.906H209.767V83.138H193.073ZM192.835 87.422V89.462H209.767V87.422H192.835ZM210.651 59.712C205.245 60.834 194.875 61.31 186.579 61.378C186.817 61.922 187.055 62.806 187.123 63.384C195.521 63.35 205.959 62.84 212.283 61.582L210.651 59.712ZM196.711 62.058C194.909 69.572 190.931 77.018 183.723 81.166C184.233 81.642 184.981 82.594 185.321 83.138C192.937 78.616 197.085 70.83 199.363 62.602L196.711 62.058ZM239.381 78.276V80.622H251.961V78.276H239.381ZM231.221 79.126L229.215 79.976C232.377 88.578 238.429 90.312 246.827 90.312H254.171C254.307 89.598 254.749 88.408 255.123 87.796C253.627 87.83 248.085 87.864 246.963 87.83C239.687 87.83 233.839 86.504 231.221 79.126ZM227.447 63.452V65.798H251.689V63.452H227.447ZM224.489 70.524V72.904H254.205V70.524H224.489ZM237.953 59.508V71.748H240.571V59.508H237.953ZM237.987 71.816V87.524L240.605 88.408V71.816H237.987ZM229.793 74.978C229.317 79.976 227.685 85.96 223.537 89.156C224.081 89.53 224.999 90.312 225.441 90.788C229.793 87.354 231.697 80.928 232.479 75.284L229.793 74.978ZM270.491 72.87H263.725V75.25H268.043V84.906H270.491V72.87ZM270.491 83.886H268.281C266.683 85.348 264.847 86.878 263.351 87.966L264.677 90.448C266.377 88.952 267.941 87.49 269.437 86.028C271.545 88.714 274.639 89.904 279.127 90.074C282.935 90.244 290.212 90.176 294.053 90.006C294.156 89.258 294.564 88.068 294.87 87.49C290.755 87.762 282.901 87.864 279.127 87.694C275.081 87.558 272.089 86.402 270.491 83.886ZM264.031 61.718C266.105 63.384 268.451 65.764 269.403 67.464L271.511 65.866C270.457 64.2 268.077 61.854 265.969 60.324L264.031 61.718ZM273.789 71.17V85.926H276.067V73.21H292.183V71.17H273.789ZM282.018 65.424V72.02H283.956V67.226H289.158V65.424H282.018ZM276.441 60.63V71.85H278.719V62.636H288.138V71.85H290.449V60.63H276.441ZM280.079 75.386V77.222H285.792V80.826H280.079V82.594H287.763V75.386H280.079ZM290.755 71.17V83.41C290.755 83.75 290.619 83.852 290.246 83.886C289.872 83.886 288.579 83.886 287.151 83.852C287.457 84.43 287.763 85.314 287.866 85.926C289.872 85.926 291.198 85.926 292.013 85.552C292.898 85.212 293.101 84.566 293.101 83.41V71.17H290.755ZM278.924 75.386V83.954H280.895V75.386H278.924ZM304.389 64.2V66.682H333.731V64.2H304.389ZM317.513 59.474V90.72H320.165V59.474H317.513ZM317.819 74.57C314.759 79.738 308.877 84.702 303.199 87.014C303.777 87.524 304.593 88.544 305.001 89.19C310.747 86.504 316.629 81.234 319.961 75.42L317.819 74.57ZM320.029 74.638L317.887 75.522C321.185 81.336 326.965 86.64 332.813 89.258C333.255 88.544 334.071 87.524 334.717 86.98C328.835 84.736 323.021 79.84 320.029 74.638ZM308.911 72.802C310.543 74.23 312.583 76.27 313.637 77.494L315.371 75.76C314.317 74.536 312.209 72.598 310.611 71.238L308.911 72.802ZM310.339 67.498C309.319 71.884 307.177 75.59 304.083 77.902C304.695 78.31 305.681 79.126 306.089 79.568C309.251 76.95 311.631 72.904 312.821 67.94L310.339 67.498ZM325.265 72.87C327.577 74.74 330.637 77.358 332.099 78.99L333.901 77.222C332.371 75.658 329.243 73.108 326.965 71.374L325.265 72.87ZM326.455 67.498C325.707 71.306 324.075 74.638 321.593 76.712C322.205 77.018 323.293 77.732 323.769 78.14C326.183 75.76 328.019 72.19 328.903 67.906L326.455 67.498ZM342.843 77.46L343.591 79.908C346.855 78.99 351.139 77.698 355.117 76.508L354.811 74.162C350.493 75.42 345.903 76.712 342.843 77.46ZM343.251 66.308V68.722H354.777V66.308H343.251ZM348.147 59.474V87.49C348.147 87.966 347.943 88.136 347.467 88.136C347.025 88.136 345.563 88.17 343.965 88.102C344.271 88.782 344.645 89.836 344.747 90.482C347.093 90.482 348.487 90.414 349.405 90.006C350.255 89.632 350.629 88.918 350.629 87.49V59.474H348.147ZM355.185 69.062L355.457 71.51L373.715 69.538L373.443 67.158L355.185 69.062ZM364.671 61.548C366.337 63.044 368.377 65.186 369.261 66.614L371.301 65.152C370.349 63.758 368.309 61.684 366.609 60.256L364.671 61.548ZM359.775 59.576C360.591 76.916 363.277 90.006 370.859 90.584C372.593 90.686 373.953 88.986 374.735 83.444C374.191 83.206 373.069 82.56 372.559 82.05C372.219 85.79 371.675 87.66 370.757 87.592C365.691 87.082 362.937 74.842 362.359 59.576H359.775ZM369.873 72.19C367.051 78.616 360.931 84.872 354.165 87.558C354.879 88.068 355.695 88.884 356.171 89.564C362.801 86.572 368.921 80.146 371.981 73.482L369.873 72.19ZM394.421 61.786V64.166H414.243V61.786H394.421ZM408.871 62.976V87.524C408.871 88.204 408.599 88.408 407.885 88.442C407.137 88.476 404.621 88.476 401.935 88.408C402.275 89.088 402.683 90.074 402.819 90.72C406.321 90.754 408.395 90.72 409.619 90.346C410.809 89.972 411.319 89.292 411.319 87.524V62.976H408.871ZM396.733 68.994V71.204H402.955V79.126H396.733V81.336H405.233V68.994H396.733ZM395.577 68.994V83.92H397.821V68.994H395.577ZM384.221 60.936V90.754H386.533V63.248H392.143V60.936H384.221ZM391.531 60.936V61.616C390.817 63.928 389.559 67.838 388.301 70.932C390.783 73.618 391.395 75.998 391.395 77.868C391.395 78.888 391.191 79.84 390.681 80.214C390.375 80.418 390.035 80.486 389.593 80.52C389.049 80.588 388.403 80.554 387.621 80.486C387.995 81.132 388.233 82.118 388.267 82.73C389.015 82.764 389.865 82.764 390.545 82.696C391.259 82.594 391.837 82.39 392.313 82.05C393.265 81.37 393.673 79.908 393.673 78.072C393.673 75.964 393.095 73.482 390.613 70.66C391.769 67.94 393.027 64.608 394.013 61.82L392.347 60.834L391.973 60.936H391.531ZM435.459 71.782C433.861 76.576 430.903 83.206 428.489 87.388L430.835 88.136C433.351 84.022 436.309 77.664 438.451 72.53L435.459 71.782ZM424.307 86.606L424.647 89.292C431.039 89.02 440.559 88.51 449.467 88L449.535 85.552C440.423 85.994 430.529 86.402 424.307 86.606ZM441.987 79.228C445.013 82.832 448.549 87.796 450.147 90.89L452.731 89.496C451.031 86.402 447.529 81.676 444.435 78.106L441.987 79.228ZM432.025 60.46C430.053 65.492 426.687 70.388 422.947 73.448C423.661 73.856 424.851 74.774 425.395 75.284C428.999 71.918 432.569 66.716 434.847 61.242L432.025 60.46ZM444.197 60.426L441.681 61.48C444.299 66.24 448.549 72.02 451.711 75.25C452.221 74.604 453.173 73.618 453.853 73.074C450.725 70.252 446.441 64.88 444.197 60.426ZM470.207 77.154C469.391 76.7913 468.711 76.5533 468.167 76.44C467.646 76.304 467.136 76.236 466.637 76.236C466.003 76.236 465.334 76.4287 464.631 76.814C463.929 77.1993 463.305 77.6753 462.761 78.242V75.59C463.305 75.0007 463.917 74.5587 464.597 74.264C465.277 73.9467 466.025 73.788 466.841 73.788C467.499 73.788 468.145 73.856 468.779 73.992C469.437 74.128 470.287 74.4227 471.329 74.876C472.145 75.2387 472.814 75.488 473.335 75.624C473.879 75.7373 474.389 75.794 474.865 75.794C475.523 75.794 476.203 75.6013 476.905 75.216C477.608 74.8307 478.231 74.3547 478.775 73.788V76.406C478.231 76.9953 477.619 77.4487 476.939 77.766C476.259 78.0833 475.511 78.242 474.695 78.242C474.061 78.242 473.403 78.174 472.723 78.038C472.066 77.8793 471.227 77.5847 470.207 77.154Z" fill="#276A70"/>
<path d="M117.333 6.154L110.235 34H103.527L99.744 19.375C99.666 19.089 99.562 18.66 99.432 18.088C99.328 17.516 99.198 16.892 99.042 16.216C98.912 15.54 98.795 14.903 98.691 14.305C98.587 13.681 98.509 13.2 98.457 12.862C98.431 13.2 98.353 13.681 98.223 14.305C98.119 14.903 98.002 15.54 97.872 16.216C97.742 16.866 97.612 17.49 97.482 18.088C97.352 18.66 97.248 19.102 97.17 19.414L93.426 34H86.718L79.62 6.154H85.431L88.98 21.364C89.084 21.806 89.201 22.352 89.331 23.002C89.461 23.626 89.591 24.289 89.721 24.991C89.851 25.667 89.968 26.33 90.072 26.98C90.202 27.63 90.293 28.189 90.345 28.657C90.397 28.163 90.475 27.604 90.579 26.98C90.683 26.33 90.8 25.68 90.93 25.03C91.06 24.354 91.177 23.73 91.281 23.158C91.411 22.56 91.528 22.092 91.632 21.754L95.688 6.154H101.265L105.321 21.754C105.399 22.092 105.503 22.56 105.633 23.158C105.763 23.73 105.893 24.354 106.023 25.03C106.153 25.706 106.27 26.369 106.374 27.019C106.478 27.643 106.556 28.189 106.608 28.657C106.686 28.007 106.803 27.24 106.959 26.356C107.115 25.446 107.284 24.536 107.466 23.626C107.674 22.716 107.843 21.962 107.973 21.364L111.522 6.154H117.333ZM142.947 34L140.919 27.37H130.779L128.751 34H122.394L132.222 6.037H139.437L149.304 34H142.947ZM137.487 15.943C137.357 15.501 137.188 14.942 136.98 14.266C136.772 13.59 136.564 12.901 136.356 12.199C136.148 11.497 135.979 10.886 135.849 10.366C135.719 10.886 135.537 11.536 135.303 12.316C135.095 13.07 134.887 13.798 134.679 14.5C134.497 15.176 134.354 15.657 134.25 15.943L132.261 22.417H139.515L137.487 15.943ZM175.879 26.278C175.879 27.916 175.476 29.346 174.67 30.568C173.864 31.79 172.694 32.739 171.16 33.415C169.652 34.065 167.806 34.39 165.622 34.39C164.66 34.39 163.711 34.325 162.775 34.195C161.865 34.065 160.981 33.883 160.123 33.649C159.291 33.389 158.498 33.077 157.744 32.713V27.214C159.07 27.786 160.435 28.319 161.839 28.813C163.269 29.281 164.686 29.515 166.09 29.515C167.052 29.515 167.819 29.385 168.391 29.125C168.989 28.865 169.418 28.514 169.678 28.072C169.964 27.63 170.107 27.123 170.107 26.551C170.107 25.849 169.86 25.251 169.366 24.757C168.898 24.263 168.261 23.808 167.455 23.392C166.649 22.95 165.726 22.482 164.686 21.988C164.036 21.676 163.334 21.312 162.58 20.896C161.826 20.454 161.098 19.921 160.396 19.297C159.72 18.647 159.161 17.867 158.719 16.957C158.277 16.047 158.056 14.955 158.056 13.681C158.056 12.017 158.433 10.6 159.187 9.43C159.967 8.234 161.059 7.324 162.463 6.7C163.893 6.076 165.57 5.764 167.494 5.764C168.95 5.764 170.328 5.933 171.628 6.271C172.954 6.609 174.332 7.09 175.762 7.714L173.851 12.316C172.577 11.796 171.433 11.393 170.419 11.107C169.405 10.821 168.365 10.678 167.299 10.678C166.571 10.678 165.947 10.795 165.427 11.029C164.907 11.263 164.504 11.588 164.218 12.004C163.958 12.42 163.828 12.914 163.828 13.486C163.828 14.136 164.023 14.695 164.413 15.163C164.803 15.605 165.388 16.034 166.168 16.45C166.948 16.866 167.923 17.36 169.093 17.932C170.523 18.608 171.732 19.31 172.72 20.038C173.734 20.766 174.514 21.624 175.06 22.612C175.606 23.6 175.879 24.822 175.879 26.278ZM210.659 19.804C210.659 22.924 210.061 25.537 208.865 27.643C207.669 29.749 205.927 31.335 203.639 32.401C201.377 33.467 198.647 34 195.449 34H187.571V6.154H196.307C199.219 6.154 201.741 6.674 203.873 7.714C206.031 8.754 207.695 10.288 208.865 12.316C210.061 14.318 210.659 16.814 210.659 19.804ZM204.536 19.96C204.536 17.906 204.237 16.216 203.639 14.89C203.041 13.564 202.144 12.589 200.948 11.965C199.778 11.315 198.335 10.99 196.619 10.99H193.46V29.125H195.995C198.881 29.125 201.026 28.358 202.43 26.824C203.834 25.29 204.536 23.002 204.536 19.96ZM242.921 0.888999V7.792H247.64V0.888999H242.921ZM234.536 5.92V14.227H238.904V10.015H252.437V14.227H257V5.92H234.536ZM241.829 10.834C240.23 16.45 237.695 23.782 235.784 28.267L239.996 29.632C241.946 24.835 244.598 17.503 246.47 11.536L241.829 10.834ZM234.263 16.372V20.584H257.429V16.372H234.263ZM249.239 19.063C248.225 28.384 243.194 32.05 232.781 33.532C233.561 34.507 234.692 36.457 235.004 37.549C246.626 35.287 252.281 30.724 254.231 19.219L249.239 19.063ZM238.241 27.799C244.091 30.1 251.189 34.156 254.504 37.393L257.468 33.493C253.919 30.256 246.626 26.473 240.932 24.406L238.241 27.799ZM220.34 20.857L221.51 25.342C225.215 24.367 229.934 23.08 234.38 21.832L233.834 17.62C228.959 18.829 223.811 20.116 220.34 20.857ZM220.925 8.26V12.589H233.912V8.26H220.925ZM225.644 0.888999V32.596C225.644 33.142 225.449 33.337 224.903 33.337C224.396 33.337 222.797 33.337 221.276 33.298C221.861 34.468 222.446 36.34 222.563 37.51C225.293 37.51 227.165 37.393 228.452 36.691C229.739 35.989 230.168 34.819 230.168 32.635V0.888999H225.644ZM280.166 3.619V7.714H285.236V3.619H280.166ZM287.576 9.04V12.589H299.861V9.04H287.576ZM299.822 8.767V12.862H303.332V8.767H299.822ZM288.824 19.531V23.236H301.889V19.531H288.824ZM288.044 25.108V28.93H302.591V25.108H288.044ZM292.607 1.084V32.128H296.39V1.084H292.607ZM284.261 3.619V4.048C283.325 7.519 281.336 14.188 279.62 19.024L283.208 19.726C284.846 14.851 286.796 8.533 288.005 4.009L285.353 3.463L284.729 3.619H284.261ZM289.214 3.97V7.402H298.379V14.266H289.253V17.698H301.694V3.97H289.214ZM283.013 20.74L279.971 21.559C282.116 34.546 286.718 36.886 294.284 36.886H302.24C302.396 35.755 302.942 33.883 303.527 32.947C301.694 32.986 296 32.986 294.518 32.986C288.668 32.986 284.69 31.27 283.013 20.74ZM282.662 14.968L281.57 18.673H286.445V14.968H282.662ZM285.197 14.968V15.631C284.534 26.122 282.038 31.972 277.124 35.014C277.943 35.521 279.464 36.847 280.088 37.588C285.119 34.156 287.966 27.331 288.824 15.28L286.562 14.89L285.899 14.968H285.197ZM266.477 32.635L267.413 36.652C271.079 35.95 275.798 35.053 280.244 34.156L279.893 30.295C275.018 31.231 269.87 32.128 266.477 32.635ZM268.427 10.678V14.461H279.113V10.678H268.427ZM267.101 17.269V21.169H279.581V17.269H267.101ZM267.335 23.509C267.881 25.654 268.388 28.501 268.466 30.373L271.352 29.632C271.196 27.799 270.689 25.03 270.065 22.846L267.335 23.509ZM276.89 22.456C276.656 24.328 276.071 27.097 275.603 28.813L278.138 29.437C278.645 27.799 279.191 25.342 279.776 23.119L276.89 22.456ZM271.703 12.238V33.142L275.447 32.557V12.238H271.703ZM272.054 0.888999C270.884 3.97 268.739 7.714 265.541 10.522C266.399 11.146 267.725 12.55 268.31 13.486C272.054 9.976 274.316 5.92 275.759 2.917V1.747H274.472V0.888999H272.054ZM272.366 0.888999V3.892H273.068C274.979 5.764 277.28 9.157 278.294 11.107L281.219 7.753C280.049 5.725 277.553 2.878 275.486 0.888999H272.366Z" fill="#FEA30B"/>
</svg>
