<svg width="409" height="138" viewBox="0 0 409 138" fill="none" xmlns="http://www.w3.org/2000/svg">
<path d="M13.77 2.242V26.008C13.77 29.918 14.994 30.87 19.04 30.87C19.958 30.87 26.894 30.87 27.88 30.87C31.654 30.87 32.538 29.204 32.98 24.41C32.198 24.24 31.11 23.798 30.498 23.39C30.226 27.436 29.886 28.456 27.778 28.456C26.35 28.456 20.332 28.456 19.176 28.456C16.796 28.456 16.354 28.014 16.354 26.042V2.242H13.77ZM14.994 2.242V4.724H28.424V20.228H31.076V2.242H14.994ZM14.892 15.536V17.984H29.444V15.536H14.892ZM21.182 3.126V16.386H23.562V3.126H21.182ZM1.19 18.494L1.904 20.942C4.896 20.058 8.806 18.902 12.478 17.78L12.172 15.4C8.126 16.556 3.978 17.78 1.19 18.494ZM1.734 7.308V9.722H11.866V7.308H1.734ZM5.814 0.473998V28.796C5.814 29.238 5.644 29.374 5.27 29.374C4.896 29.408 3.672 29.408 2.38 29.374C2.686 30.02 3.026 31.074 3.128 31.686C5.134 31.72 6.358 31.652 7.208 31.244C8.024 30.836 8.33 30.19 8.33 28.796V0.473998H5.814ZM57.324 19.854V26.688H59.704V19.854H57.324ZM43.384 28.932V30.768H73.95V28.932H43.384ZM43.452 5.88V7.478H73.848V5.88H43.452ZM43.384 16.08V17.882H73.95V16.08H43.384ZM46.002 12.714V14.312H71.502V12.714H46.002ZM47.056 2.548V4.146H67.592V9.348H46.852V10.946H70.142V2.548H47.056ZM57.222 0.439999V16.794H59.806V0.439999H57.222ZM49.776 24.036H67.626V25.838H49.776V24.036ZM49.776 20.874H67.626V22.608H49.776V20.874ZM47.26 19.344V27.334H70.21V19.344H47.26ZM95.37 15.57V17.678H104.686V15.57H95.37ZM95.37 21.486V23.594H104.788V21.486H95.37ZM88.366 27.572V29.952H112.37V27.572H88.366ZM86.802 9.416V31.754H89.284V11.796H111.18V31.754H113.764V9.416H86.802ZM94.18 10.912V28.66H96.492V10.912H94.18ZM103.7 10.912V28.558H106.046V10.912H103.7ZM98.6 3.84C98.362 5.812 97.682 8.634 97.138 10.47L99.45 11.116C100.13 9.416 100.844 6.798 101.558 4.52L98.6 3.84ZM85.272 2.718V5.166H115.396V2.718H85.272ZM128.214 6.526V22.71H130.764V9.042H152.966V22.54H155.618V6.526H128.214ZM129.574 18.086V20.568H154.496V18.086H129.574ZM140.522 0.439999V31.686H143.174V0.439999H140.522ZM176.936 9.96V27.028C176.936 30.36 177.99 31.278 181.594 31.278C182.376 31.278 187.442 31.278 188.258 31.278C191.964 31.278 192.746 29.374 193.12 22.948C192.372 22.778 191.318 22.302 190.706 21.792C190.434 27.674 190.128 28.932 188.122 28.932C186.966 28.932 182.682 28.932 181.832 28.932C179.962 28.932 179.554 28.626 179.554 27.028V9.96H176.936ZM177.208 2.548C181.322 4.01 186.286 6.56 188.904 8.532L190.536 6.288C187.85 4.452 182.92 2.004 178.806 0.609999L177.208 2.548ZM171.258 12.68C170.782 17.1 169.66 22.064 167.382 25.056L169.694 26.45C172.142 23.186 173.196 17.746 173.706 13.19L171.258 12.68ZM191.08 12.714C193.97 16.556 196.52 21.86 197.268 25.43L199.818 24.206C198.968 20.602 196.418 15.468 193.358 11.592L191.08 12.714ZM226.78 9.62V12H240.89V9.62H226.78ZM209.678 7.682V9.858H227.154V7.682H209.678ZM210.902 15.128V17.27H225.896V15.128H210.902ZM211.82 20.738V22.88H225.216V20.738H211.82ZM234.804 0.677998V28.592C234.804 29.17 234.566 29.374 233.988 29.374C233.444 29.408 231.574 29.408 229.534 29.34C229.874 30.02 230.316 31.108 230.452 31.754C233.206 31.788 234.872 31.72 235.892 31.278C236.844 30.87 237.252 30.156 237.252 28.592V0.677998H234.804ZM227.868 15.434C229.228 17.95 230.52 21.214 230.86 23.254L233.138 22.438C232.798 20.364 231.472 17.168 230.01 14.686L227.868 15.434ZM210.018 2.242C211.072 3.874 212.058 6.05 212.398 7.478L214.37 6.56C213.996 5.166 212.976 3.058 211.854 1.46L210.018 2.242ZM212.5 10.606C213.316 12.034 214.064 14.006 214.268 15.23L216.41 14.448C216.172 13.224 215.39 11.354 214.54 9.926L212.5 10.606ZM215.016 0.609999V8.736H217.09V0.609999H215.016ZM217.192 15.808V28.082H219.606V15.808H217.192ZM219.708 0.609999V8.736H221.816V0.609999H219.708ZM209.78 27.844L210.154 30.258C214.506 29.646 220.898 28.796 226.882 27.912L226.814 25.668C220.592 26.518 214.03 27.334 209.78 27.844ZM225.046 1.256C224.468 2.888 223.278 5.302 222.36 6.73L224.128 7.512C225.08 6.118 226.304 3.976 227.324 2.14L225.046 1.256ZM222.156 9.858C221.748 11.252 220.898 13.326 220.218 14.584L222.258 15.162C222.938 13.972 223.788 12.17 224.502 10.504L222.156 9.858ZM253.776 2.378C255.646 3.126 258.026 4.35 259.216 5.2L260.576 3.228C259.352 2.378 256.938 1.256 255.068 0.643998L253.776 2.378ZM251.226 8.056C253.13 8.702 255.544 9.79 256.802 10.572L258.06 8.566C256.802 7.818 254.354 6.832 252.484 6.254L251.226 8.056ZM252.212 18.868L253.98 20.84C256.088 18.63 258.332 15.978 260.27 13.598L258.91 11.898C256.7 14.448 254.014 17.236 252.212 18.868ZM265.438 19.922V31.754H268.056V19.922H265.438ZM251.668 22.744V25.056H282.234V22.744H251.668ZM265.132 0.303999C263.602 3.67 260.984 6.934 258.196 9.042C258.808 9.45 259.794 10.334 260.202 10.81C262.99 8.43 265.812 4.792 267.58 1.018L265.132 0.303999ZM262.514 6.356V18.358H264.996V4.248L262.514 6.356ZM264.044 4.18L262.786 6.288H280.704V4.18H264.044ZM262.514 17.61V19.718H281.622V17.61H262.514ZM263.534 8.77V10.674H279.684V8.77H263.534ZM263.534 13.122V15.06H279.786V13.122H263.534ZM270.504 4.996V18.426H272.952V4.996H270.504ZM272.306 0.473998C271.796 1.834 270.844 3.84 269.994 5.132L272.102 5.676C272.986 4.486 274.074 2.684 275.06 0.983998L272.306 0.473998ZM299.642 16.454H317.764V20.432H299.642V16.454ZM299.642 10.436H317.764V14.38H299.642V10.436ZM297.194 8.26V22.608H320.314V8.26H297.194ZM307.224 9.008V21.588H309.706V9.008H307.224ZM303.076 2.65L301.58 4.758H312.46V2.65H303.076ZM302.804 0.337998C301.002 3.636 297.636 7.75 293.046 10.708C293.624 11.15 294.508 12.034 294.882 12.646C299.778 9.178 303.28 4.826 305.626 0.881999L302.804 0.337998ZM311.644 2.65V3.126C310.93 4.724 309.366 7.104 307.972 8.566C308.618 8.872 309.502 9.416 310.046 9.79C311.542 8.226 313.378 5.778 314.398 3.636L312.596 2.514L312.222 2.65H311.644ZM303.314 24.852C303.722 26.96 303.994 29.748 303.994 31.38L306.612 31.04C306.578 29.442 306.204 26.756 305.728 24.648L303.314 24.852ZM310.114 24.92C311.1 26.96 312.086 29.714 312.426 31.38L314.908 30.734C314.5 29.068 313.446 26.382 312.426 24.376L310.114 24.92ZM316.812 24.682C318.75 26.824 320.994 29.85 321.878 31.754L324.326 30.632C323.34 28.626 321.062 25.736 319.09 23.662L316.812 24.682ZM297.67 23.968C296.65 26.518 294.848 29.102 292.876 30.53L295.154 31.822C297.228 30.156 298.996 27.334 300.084 24.614L297.67 23.968ZM350.03 2.174V4.486H365.024V2.174H350.03ZM349.214 2.174V14.55C349.214 19.48 348.942 25.906 345.848 30.462C346.426 30.7 347.446 31.38 347.888 31.822C351.152 27.028 351.56 19.82 351.56 14.55V2.174H349.214ZM362.032 10.81V11.286C360.638 20.874 356.014 27.062 349.962 29.646C350.472 30.122 351.118 31.108 351.458 31.72C358.054 28.558 362.882 22.2 364.446 11.15L362.95 10.742L362.508 10.81H362.032ZM353.872 12.34L351.73 12.816C353.702 21.86 357.51 28.524 364.412 31.788C364.786 31.176 365.534 30.224 366.112 29.748C359.414 26.994 355.606 20.602 353.872 12.34ZM350.608 10.81V13.088H362.746V10.81H350.608ZM337.892 23.866C337.212 26.314 335.92 28.728 334.288 30.36C334.866 30.666 335.886 31.414 336.328 31.788C337.96 29.986 339.422 27.232 340.272 24.41L337.892 23.866ZM342.278 24.75C343.23 26.144 344.284 28.014 344.726 29.204L346.834 28.15C346.358 26.96 345.27 25.192 344.284 23.866L342.278 24.75ZM338.368 10.232H343.978V14.618H338.368V10.232ZM338.368 16.59H343.978V21.044H338.368V16.59ZM338.368 3.874H343.978V8.226H338.368V3.874ZM336.056 1.766V23.152H346.358V1.766H336.056ZM376.618 2.31V4.69H390.014V2.31H376.618ZM379.78 10.028H386.886V14.992H379.78V10.028ZM377.57 7.92V17.066H389.232V7.92H377.57ZM385.798 18.052C385.526 20.126 384.88 23.118 384.302 24.988L386.274 25.566C386.886 23.798 387.634 21.044 388.28 18.698L385.798 18.052ZM378.352 18.868C379.1 20.908 379.61 23.526 379.678 25.226L381.888 24.682C381.786 22.948 381.242 20.364 380.426 18.358L378.352 18.868ZM376.108 27.47L376.754 29.884C380.494 29.034 385.628 27.912 390.456 26.79L390.252 24.58C385.05 25.702 379.644 26.824 376.108 27.47ZM390.932 2.072V4.282H407.354V2.072H390.932ZM394.332 14.686H403.818V18.018H394.332V14.686ZM394.332 19.922H403.818V23.288H394.332V19.922ZM394.332 9.518H403.818V12.816H394.332V9.518ZM391.986 7.546V25.26H406.3V7.546H391.986ZM397.562 3.16C397.358 4.758 396.882 7.104 396.474 8.634L398.718 9.076C399.262 7.648 399.874 5.506 400.418 3.534L397.562 3.16ZM395.182 25.974C393.788 27.436 390.83 29.17 388.212 30.088C388.79 30.53 389.572 31.312 389.946 31.788C392.564 30.802 395.59 29.034 397.426 27.3L395.182 25.974ZM400.282 27.402C402.288 28.66 404.838 30.564 406.028 31.788L408.102 30.394C406.776 29.136 404.192 27.368 402.22 26.144L400.282 27.402ZM15.98 64.456V67.006H29.954V64.456H15.98ZM1.734 80.572V83.122H32.266V80.572H1.734ZM14.518 53.95V81.932H17.204V53.95H14.518ZM46.104 58.914V61.192H54.06V78.838H46.104V81.15H56.44V58.914H46.104ZM44.574 58.914V83.87H46.954V58.914H44.574ZM45.934 68.366V70.644H55.318V68.366H45.934ZM49.776 53.372C49.504 55.14 48.858 57.724 48.28 59.356L50.32 59.866C51 58.336 51.85 55.99 52.53 53.882L49.776 53.372ZM61.268 58.812V61.192H71.706V58.812H61.268ZM70.822 58.812V59.356C70.346 74.35 69.802 79.994 68.68 81.218C68.306 81.66 67.898 81.762 67.218 81.762C66.436 81.762 64.396 81.728 62.186 81.558C62.662 82.238 62.968 83.292 63.036 84.04C64.94 84.142 66.946 84.21 68.102 84.074C69.292 83.972 70.074 83.666 70.822 82.68C72.182 81.014 72.658 75.744 73.202 60.138C73.202 59.764 73.202 58.812 73.202 58.812H70.822ZM61.982 53.304C60.894 58.03 59.024 62.722 56.712 65.714C57.324 66.054 58.378 66.768 58.82 67.176C61.166 63.946 63.172 58.948 64.43 53.882L61.982 53.304ZM60.418 67.652C62.288 70.134 64.566 73.5 65.586 75.574L67.762 74.214C66.674 72.208 64.328 68.91 62.39 66.496L60.418 67.652ZM99.042 53.95V81.184C99.042 81.864 98.804 82.102 98.09 82.102C97.41 82.136 94.962 82.17 92.446 82.068C92.888 82.816 93.364 84.006 93.5 84.754C96.73 84.754 98.838 84.686 100.062 84.244C101.286 83.836 101.796 83.088 101.796 81.184V53.95H99.042ZM107.27 62.62C110.16 67.482 112.914 73.874 113.73 77.886L116.45 76.798C115.566 72.684 112.676 66.462 109.718 61.668L107.27 62.62ZM90.134 61.906C89.284 66.496 87.414 72.378 84.388 75.982C85.068 76.254 86.19 76.866 86.802 77.342C89.896 73.534 91.868 67.38 92.99 62.382L90.134 61.906ZM142.834 66.462V68.876H154.564V66.462H142.834ZM141.712 66.462V80.3C141.712 83.564 142.766 84.38 146.302 84.38C147.084 84.38 152.286 84.38 153.136 84.38C156.536 84.38 157.318 82.85 157.692 77.376C156.978 77.206 155.89 76.764 155.278 76.322C155.074 81.048 154.802 81.932 152.966 81.932C151.81 81.932 147.39 81.932 146.506 81.932C144.636 81.932 144.262 81.66 144.262 80.334V66.462H141.712ZM141.338 55.378V57.792H153.306V70.78H155.89V55.378H141.338ZM127.84 63.742V65.782H138.448V63.742H127.84ZM128.044 54.664V56.704H138.584V54.664H128.044ZM127.84 68.298V70.338H138.448V68.298H127.84ZM126.242 59.118V61.226H139.774V59.118H126.242ZM129.03 72.888V74.996H136.068V80.674H129.03V82.816H138.346V72.888H129.03ZM127.806 72.888V84.38H130.084V72.888H127.806ZM171.836 56.874H176.902V62.042H171.836V56.874ZM169.524 54.732V64.218H179.316V54.732H169.524ZM167.96 66.598V68.842H180.778V66.598H167.96ZM171.156 67.618C170.646 70.202 169.864 73.602 169.184 75.778L171.496 76.22C172.108 73.976 172.924 70.44 173.502 67.618H171.156ZM171.428 71.868L170.85 74.044H177.752V71.868H171.428ZM176.8 71.868V72.276C176.392 78.974 175.882 81.592 175.202 82.272C174.93 82.578 174.59 82.646 174.08 82.612C173.536 82.612 172.21 82.612 170.748 82.476C171.156 83.088 171.428 84.074 171.462 84.72C172.89 84.788 174.284 84.788 175.032 84.754C175.95 84.652 176.528 84.448 177.106 83.836C178.058 82.816 178.568 80.028 179.112 72.922C179.146 72.548 179.18 71.868 179.18 71.868H176.8ZM189.618 55.786V57.894H197.744V55.786H189.618ZM182.784 60.206V62.28H197.778V60.206H182.784ZM188.394 53.44V61.294H190.842V53.44H188.394ZM181.696 60.206V68.91C181.696 73.296 181.39 79.212 178.432 83.53C179.01 83.768 179.962 84.482 180.37 84.924C183.532 80.402 184.008 73.67 184.008 68.91V60.206H181.696ZM184.824 65.816L185.062 67.686L195.126 66.598L194.888 64.83L184.824 65.816ZM188.53 62.518V68.604C188.53 70.78 189.142 71.324 191.59 71.324C192.1 71.324 194.82 71.324 195.33 71.324C197.166 71.324 197.812 70.644 198.016 68.026C197.404 67.89 196.52 67.584 196.044 67.278C195.942 69.182 195.806 69.42 195.058 69.42C194.48 69.42 192.304 69.42 191.896 69.42C190.944 69.42 190.808 69.318 190.808 68.604V62.518H188.53ZM197.064 60.206V60.546C196.86 62.348 196.452 64.66 196.112 66.088L198.084 66.564C198.492 65.034 199.036 62.586 199.444 60.512L197.846 60.104L197.438 60.206H197.064ZM186.762 72.82C186.558 77.818 185.81 81.116 182.104 83.02C182.614 83.428 183.294 84.278 183.6 84.856C187.748 82.578 188.734 78.6 188.972 72.82H186.762ZM191.76 72.786V81.116C191.76 82.68 191.896 83.19 192.44 83.666C192.95 84.074 193.732 84.21 194.48 84.21C194.854 84.21 195.976 84.21 196.418 84.21C197.064 84.21 197.812 84.074 198.22 83.87C198.73 83.564 199.104 83.19 199.308 82.544C199.478 81.966 199.648 80.266 199.682 78.668C199.036 78.464 198.186 78.022 197.744 77.614C197.744 79.144 197.71 80.47 197.608 81.014C197.54 81.388 197.37 81.626 197.166 81.728C196.996 81.83 196.554 81.898 196.248 81.898C195.84 81.898 195.296 81.898 195.024 81.898C194.684 81.898 194.412 81.83 194.208 81.728C194.038 81.66 193.97 81.422 193.97 81.184V72.786H191.76ZM226.202 69.624V84.72H228.548V71.97H237.116V84.584H239.564V69.624H226.202ZM231.132 53.508V70.372H233.648V53.508H231.132ZM232.594 60.886V63.266H240.924V60.886H232.594ZM227.426 80.776V83.122H238.306V80.776H227.426ZM212.874 56.568H222.224V64.796H212.874V56.568ZM210.868 54.698V66.666H224.298V54.698H210.868ZM213.35 58.234C213.928 59.9 214.37 62.042 214.438 63.47L215.764 63.062C215.662 61.702 215.22 59.56 214.642 57.894L213.35 58.234ZM214.506 77.716C214.982 79.586 215.322 82.034 215.322 83.632L217.09 83.394C217.056 81.796 216.716 79.348 216.172 77.478L214.506 77.716ZM217.77 77.512C218.518 79.246 219.232 81.524 219.436 83.02L221.17 82.646C220.932 81.15 220.184 78.872 219.402 77.172L217.77 77.512ZM221 77.036C222.156 78.634 223.346 80.81 223.856 82.272L225.556 81.49C225.046 80.096 223.822 77.988 222.598 76.424L221 77.036ZM211.616 77.58C211.31 79.926 210.664 82.408 209.338 83.802L211.072 84.754C212.534 83.224 213.078 80.572 213.418 78.056L211.616 77.58ZM220.32 57.792C220.014 59.356 219.334 61.77 218.824 63.232L219.946 63.674C220.524 62.314 221.204 60.104 221.816 58.37L220.32 57.792ZM209.882 73.976L210.018 76.22C213.928 75.982 219.572 75.642 225.012 75.234L225.08 73.194C219.436 73.534 213.656 73.806 209.882 73.976ZM210.63 68.978V71.052H224.536V68.978H210.63ZM216.58 55.582V65.782H216.308V74.554H218.586V65.782H218.314V55.582H216.58ZM251.77 55.956V58.54H282.03V55.956H251.77ZM264.86 57.996V84.686H267.546V57.996H264.86ZM266.356 66.054C270.47 68.162 275.774 71.392 278.392 73.5L280.194 71.188C277.474 69.148 272.102 66.054 268.022 64.082L266.356 66.054ZM295.97 58.574V61.158H321.368V58.574H295.97ZM293.318 67.55V70.1H323.884V67.55H293.318ZM307.088 53.44V68.978H309.774V53.44H307.088ZM304.334 69.216C303.11 72.854 300.764 77.988 298.86 81.218L301.24 82.034C303.212 78.872 305.558 74.01 307.326 69.998L304.334 69.216ZM294.542 80.606L294.882 83.326C301.308 83.054 311.066 82.544 320.212 82.034L320.314 79.552C310.998 79.994 300.934 80.436 294.542 80.606ZM313.276 73.976C316.234 77.342 319.566 82 321.028 85.026L323.544 83.666C321.98 80.674 318.682 76.22 315.622 72.888L313.276 73.976ZM338.538 85.638C342.108 84.414 344.42 81.626 344.42 77.954C344.42 75.574 343.4 74.01 341.496 74.01C340.136 74.01 338.912 74.86 338.912 76.458C338.912 78.09 340.068 78.906 341.462 78.906C342.108 78.906 342.788 78.736 343.264 78.124L341.428 75.54L342.074 78.43C342.074 80.98 340.544 82.714 337.756 83.87L338.538 85.638ZM395.896 53.508V77.138H398.31V53.508H395.896ZM384.064 67.516L385.016 69.76L405.484 61.804L404.498 59.594L384.064 67.516ZM388.348 56.84V79.552C388.348 83.326 389.538 84.278 393.652 84.278C394.57 84.278 401.574 84.278 402.56 84.278C406.334 84.278 407.15 82.748 407.592 78.056C406.844 77.886 405.824 77.444 405.212 77.002C404.94 81.014 404.566 81.966 402.492 81.966C400.996 81.966 394.91 81.966 393.754 81.966C391.34 81.966 390.864 81.524 390.864 79.586V56.84H388.348ZM403.648 60.172C403.648 66.802 403.58 71.256 403.308 72.344C403.07 73.228 402.696 73.364 402.118 73.364C401.676 73.364 400.452 73.364 399.5 73.33C399.806 73.908 400.078 74.962 400.146 75.676C401.166 75.71 402.662 75.676 403.58 75.438C404.634 75.166 405.348 74.52 405.62 72.956C405.96 71.494 406.028 66.598 406.062 60.41L406.164 60.002L404.396 59.254L403.954 59.662L403.342 60.172H403.648ZM383.894 53.576C381.99 58.744 378.828 63.844 375.462 67.142C375.904 67.72 376.618 69.046 376.89 69.624C380.528 65.816 384.03 60.036 386.24 54.324L383.894 53.576ZM380.29 62.348V84.686H382.772V59.9L382.738 59.866L380.29 62.348ZM12.206 113.546V115.484H19.074V113.546H12.206ZM22.984 113.546V115.484H29.92V113.546H22.984ZM29.104 108.412V134.388C29.104 135.034 28.866 135.238 28.22 135.272C27.54 135.306 25.16 135.306 22.746 135.238C23.086 135.918 23.494 137.04 23.63 137.72C26.86 137.72 28.866 137.686 29.988 137.244C31.144 136.836 31.552 136.054 31.552 134.388V108.412H29.104ZM10.778 108.412V137.652H13.158V108.412H10.778ZM12.342 108.412V110.452H17.918V118.782H12.342V120.822H19.924V108.412H12.342ZM30.328 108.412H21.964V120.822H30.328V118.782H24.072V110.452H30.328V108.412ZM7.888 106.644C6.256 111.88 3.57 117.116 0.578 120.516C1.02 121.162 1.7 122.522 1.938 123.134C5.304 119.156 8.33 113.172 10.268 107.29L7.888 106.644ZM5.168 114.974V137.72H7.582V112.696L7.514 112.628L5.168 114.974ZM50.32 106.44V112.152H52.904V106.44H50.32ZM43.418 110.792V113.138H59.602V110.792H43.418ZM59.364 115.45V117.864H74.154V115.45H59.364ZM47.634 118H55.556V122.556H47.634V118ZM45.254 115.79V124.732H58.038V115.79H45.254ZM50.456 123.814V134.796C50.456 135.17 50.32 135.272 49.946 135.306C49.504 135.34 48.178 135.34 46.614 135.306C46.954 135.952 47.328 136.938 47.43 137.618C49.504 137.618 50.898 137.618 51.782 137.21C52.666 136.802 52.904 136.088 52.904 134.83V123.814H50.456ZM45.9 126.534C45.288 129.254 44.2 131.94 42.738 133.742C43.316 134.082 44.268 134.796 44.71 135.204C46.24 133.198 47.532 130.104 48.246 127.044L45.9 126.534ZM54.672 126.976C55.624 128.778 56.61 131.226 57.018 132.79L59.16 132.008C58.752 130.444 57.732 128.064 56.712 126.262L54.672 126.976ZM67.83 108.446C69.462 110.112 71.06 112.492 71.74 114.124L73.848 113.036C73.168 111.404 71.536 109.126 69.802 107.494L67.83 108.446ZM64.294 106.44V113.58C64.294 120.21 63.682 129.696 56.406 136.326C57.052 136.632 58.106 137.312 58.582 137.788C66.062 130.818 66.776 120.822 66.776 113.58V106.44H64.294ZM65.926 119.564V134.15C65.926 135.884 66.096 136.428 66.708 136.938C67.286 137.38 68.136 137.516 68.918 137.516C69.36 137.516 70.55 137.516 71.06 137.516C71.808 137.516 72.624 137.38 73.1 137.142C73.678 136.802 74.018 136.326 74.256 135.544C74.426 134.83 74.562 132.756 74.596 130.954C73.95 130.75 73.1 130.308 72.59 129.866C72.624 131.736 72.556 133.368 72.488 134.014C72.42 134.422 72.216 134.762 71.978 134.898C71.74 135.034 71.298 135.102 70.89 135.102C70.448 135.102 69.836 135.102 69.496 135.102C69.122 135.102 68.816 135.034 68.612 134.864C68.374 134.762 68.272 134.524 68.272 134.252V119.564H65.926ZM91.018 118.068H109.684V123.202H91.018V118.068ZM88.842 116.334V124.936H111.996V116.334H88.842ZM94.418 112.662V114.464H106.284V112.662H94.418ZM99.076 116.878V123.984H101.252V116.878H99.076ZM100.13 108.514C103.598 111.846 109.718 115.212 114.716 116.946C115.09 116.3 115.668 115.382 116.212 114.838C110.942 113.274 105.026 110.146 101.184 106.44H98.77C95.948 109.738 90.202 113.206 84.422 115.178C84.898 115.722 85.476 116.606 85.782 117.184C91.426 115.076 97.104 111.608 100.13 108.514ZM93.092 119.088C93.942 120.312 94.724 121.978 94.996 123.066L96.968 122.352C96.628 121.264 95.812 119.666 94.928 118.476L93.092 119.088ZM105.332 118.34C104.924 119.496 104.04 121.298 103.394 122.454L105.196 123.066C105.876 122.046 106.726 120.482 107.508 119.02L105.332 118.34ZM90.848 126.568V137.72H93.364V128.37H107.474V137.686H110.058V126.568H90.848ZM92.344 130.648V132.518H108.596V130.648H92.344ZM92.344 134.83V136.666H108.596V134.83H92.344ZM130.118 110.146H136.238V116.198H130.118V110.146ZM127.84 107.936V118.408H138.55V107.936H127.84ZM132.362 117.286V132.824H134.64V117.286H132.362ZM127.874 121.57V133.878H130.016V121.57H127.874ZM126.14 133.572L126.786 135.986C130.356 134.966 135.286 133.572 139.944 132.212L139.638 130.036C134.674 131.396 129.472 132.79 126.14 133.572ZM133.416 123.066V125.344H139.468V123.066H133.416ZM141.304 107.97V135.442L143.786 134.864V107.97H141.304ZM142.63 107.97V110.248H153.204V120.856H142.63V123.134H155.686V107.97H142.63ZM142.664 114.328V116.572H154.19V114.328H142.664ZM138.55 134.796L139.128 137.21C142.154 136.462 146.2 135.442 150.042 134.456L149.838 132.212C145.656 133.198 141.372 134.218 138.55 134.796ZM148.886 121.842L146.608 122.216C148.07 129.492 150.926 135.068 156.264 137.72C156.638 137.04 157.386 136.054 157.964 135.544C152.966 133.402 150.144 128.2 148.886 121.842ZM155.482 124.086C153.986 125.548 151.368 127.52 149.566 128.71L150.994 130.24C152.898 129.118 155.346 127.452 157.284 125.82L155.482 124.086ZM182.41 106.61C181.288 111.608 179.316 116.504 176.8 119.666C177.378 120.04 178.398 120.856 178.84 121.298C181.458 117.83 183.6 112.594 184.926 107.154L182.41 106.61ZM181.832 121.026C180.88 125.106 179.248 129.152 177.14 131.77C177.752 132.076 178.84 132.756 179.35 133.164C181.424 130.308 183.26 125.99 184.314 121.536L181.832 121.026ZM182.104 113.002L181.118 115.382H197.404V113.002H182.104ZM187.374 113.988V134.626C187.374 135.068 187.238 135.204 186.796 135.204C186.32 135.204 184.858 135.238 183.26 135.17C183.634 135.918 184.008 137.04 184.178 137.754C186.286 137.754 187.748 137.686 188.666 137.244C189.618 136.836 189.924 136.088 189.924 134.626V113.988H187.374ZM192.372 121.536C194.242 125.106 195.942 129.9 196.486 133.028L198.9 132.212C198.322 129.05 196.622 124.358 194.65 120.788L192.372 121.536ZM196.656 113.002V113.376C196.316 115.62 195.874 118.476 195.5 120.176L197.71 120.584C198.152 118.748 198.73 115.824 199.206 113.308L197.438 112.934L196.996 113.002H196.656ZM175.576 106.576C173.672 111.744 170.476 116.844 167.11 120.142C167.586 120.72 168.3 122.08 168.572 122.658C172.244 118.85 175.746 113.104 177.99 107.324L175.576 106.576ZM172.04 115.348V137.686H174.488V112.968L174.42 112.934L172.04 115.348ZM225.114 109.058C228.14 113.852 233.988 118.884 239.428 121.774C239.87 121.026 240.482 120.108 241.128 119.496C235.688 117.014 229.772 112.016 226.304 106.44H223.618C221.068 111.268 215.492 116.776 209.474 119.904C210.052 120.448 210.766 121.366 211.072 122.012C216.92 118.748 222.394 113.614 225.114 109.058ZM229.908 118.442V137.686H232.526V118.442H229.908ZM217.77 118.578V123.27C217.77 127.486 217.158 132.314 210.766 135.952C211.412 136.36 212.398 137.21 212.806 137.754C219.64 133.742 220.388 128.166 220.388 123.338V118.578H217.77ZM267.138 133.674V135.986H279.786V133.674H267.138ZM265.948 123.678V137.72H268.328V125.99H278.562V137.584H281.044V123.678H265.948ZM264.656 108.242V110.588H280.432V108.242H264.656ZM279.344 108.242V108.616C279.106 115.45 278.8 118 278.256 118.612C277.984 118.884 277.678 118.952 277.168 118.952C276.59 118.952 275.128 118.952 273.564 118.782C273.972 119.462 274.244 120.448 274.312 121.162C275.876 121.23 277.406 121.23 278.188 121.162C279.174 121.094 279.752 120.89 280.33 120.21C281.146 119.224 281.418 116.538 281.69 109.296C281.724 108.922 281.724 108.242 281.724 108.242H279.344ZM270.334 109.126C269.892 113.954 268.634 118 263.364 120.142C263.908 120.55 264.622 121.434 264.928 122.012C270.708 119.462 272.306 114.872 272.884 109.126H270.334ZM256.53 106.474C255.646 108.718 254.082 111.982 252.79 113.92L254.558 114.736C255.884 112.866 257.482 109.84 258.774 107.358L256.53 106.474ZM260.338 110.35C258.536 114.022 255.34 119.19 252.824 122.25L254.388 123.134C256.904 120.142 260.168 115.212 262.48 111.302L260.338 110.35ZM251.158 113.614C252.994 115.246 255.136 117.626 256.054 119.224L257.414 117.286C256.496 115.756 254.354 113.546 252.45 111.948L251.158 113.614ZM259.148 118.238C260.508 120.482 261.766 123.474 262.242 125.378L264.146 124.494C263.67 122.624 262.31 119.7 260.916 117.524L259.148 118.238ZM251.056 121.706L251.26 124.018C254.354 123.814 258.468 123.576 262.548 123.304L262.582 121.196C258.264 121.434 254.014 121.604 251.056 121.706ZM260.032 126.262C260.882 128.234 261.8 130.852 262.106 132.552L264.078 131.872C263.738 130.172 262.82 127.588 261.868 125.684L260.032 126.262ZM252.96 125.888C252.552 128.88 251.872 131.906 250.75 133.98C251.294 134.218 252.314 134.694 252.756 134.966C253.844 132.79 254.694 129.492 255.17 126.296L252.96 125.888ZM256.632 122.658V137.822H258.91V122.658H256.632ZM295.46 109.398V111.71H300.22V125.276H295.46V127.588H302.464V109.398H295.46ZM294.066 109.398V130.546H296.242V109.398H294.066ZM316.948 121.06C318.954 122.794 321.062 125.276 322.014 126.942L323.884 125.752C322.932 124.086 320.688 121.74 318.716 120.074L316.948 121.06ZM305.626 134.864V136.87H324.224V134.864H305.626ZM306.136 117.66V119.666H323.748V117.66H306.136ZM307.564 129.084V131.09H322.796V129.084H307.564ZM304.81 107.596V117.388C304.81 123.032 304.436 130.886 300.594 136.394C301.172 136.632 302.192 137.244 302.634 137.618C306.612 131.94 307.19 123.338 307.19 117.388V107.596H304.81ZM305.898 107.596V109.704H320.688V113.206H305.898V115.348H323.102V107.596H305.898ZM313.684 126.024V135.816H316.064V126.024H313.684ZM306.986 123.882L307.156 125.956C310.896 125.786 316.234 125.582 321.402 125.276L321.436 123.406C316.064 123.576 310.59 123.78 306.986 123.882ZM311.984 118.714C311.372 120.346 310.25 122.726 309.332 124.256L311.27 124.766C312.29 123.304 313.48 121.128 314.432 119.19L311.984 118.714ZM339.193 110.828L338.977 128.177H336.205L335.972 110.828H339.193ZM335.873 133.456C335.873 132.958 336.022 132.537 336.321 132.194C336.631 131.851 337.085 131.68 337.682 131.68C338.269 131.68 338.717 131.851 339.027 132.194C339.348 132.537 339.509 132.958 339.509 133.456C339.509 133.932 339.348 134.341 339.027 134.685C338.717 135.028 338.269 135.199 337.682 135.199C337.085 135.199 336.631 135.028 336.321 134.685C336.022 134.341 335.873 133.932 335.873 133.456Z" fill="#276A70"/>
</svg>
