<svg width="425" height="139" viewBox="0 0 425 139" fill="none" xmlns="http://www.w3.org/2000/svg">
<path d="M8.534 16.284H1.564V18.63H6.018V26.212H8.534V16.284ZM8.534 24.852H6.256C4.59 26.314 2.652 27.81 1.122 28.898L2.448 31.448C4.182 29.952 5.848 28.49 7.412 27.028C9.622 29.714 12.716 30.904 17.17 31.108C20.978 31.21 28.152 31.142 31.926 31.006C32.062 30.224 32.436 29.034 32.776 28.456C28.696 28.728 20.91 28.796 17.17 28.694C13.158 28.524 10.166 27.334 8.534 24.852ZM3.026 2.446C5.1 3.602 7.48 5.37 8.602 6.696L10.37 4.962C9.214 3.636 6.766 1.936 4.726 0.881999L3.026 2.446ZM1.7 9.382C3.876 10.436 6.392 12.17 7.582 13.462L9.35 11.66C8.092 10.334 5.508 8.702 3.4 7.716L1.7 9.382ZM10.506 6.118V8.022H32.572V6.118H10.506ZM13.158 14.244V16.08H30.158V14.244H13.158ZM13.158 10.232V12.068H30.158V10.232H13.158ZM13.634 2.038V3.874H29.784V2.038H13.634ZM15.368 20.228H27.88V24.24H15.368V20.228ZM13.022 18.358V26.11H30.294V18.358H13.022ZM48.96 28.762L49.13 30.938C54.706 30.836 63.172 30.53 71.196 30.258L71.298 28.286C63.07 28.524 54.4 28.694 48.96 28.762ZM65.076 19.854C62.22 22.778 57.426 26.722 53.754 29.034L55.386 30.156C59.058 27.912 63.818 24.206 67.252 21.078L65.076 19.854ZM58.65 17.678C57.426 19.242 55.25 21.418 53.584 22.744L55.182 23.73C56.882 22.506 58.99 20.568 60.724 18.834L58.65 17.678ZM50.966 22.37C53.38 23.764 56.44 25.906 57.902 27.266L59.67 25.6C58.106 24.206 55.012 22.2 52.632 20.874L50.966 22.37ZM65.008 25.09C67.524 27.096 70.414 29.952 71.808 31.822L73.95 30.7C72.488 28.762 69.496 25.974 67.014 24.07L65.008 25.09ZM49.47 8.294V10.198H60.078V8.294H49.47ZM61.268 8.294V10.198H73.168V8.294H61.268ZM53.856 5.846V18.29H55.828V5.846H53.856ZM57.698 11.32V16.59H59.296V11.32H57.698ZM65.586 5.846V18.392H67.592V5.846H65.586ZM50.49 11.32V12.612C50.49 14.142 50.286 16.216 48.824 17.542C49.266 17.78 49.946 18.256 50.218 18.63C51.85 16.896 52.088 14.652 52.088 12.68V11.32H50.49ZM62.186 11.252V12.476C62.186 13.87 61.982 15.808 60.588 16.998C61.03 17.236 61.71 17.746 62.016 18.12C63.546 16.522 63.784 14.38 63.784 12.578V11.252H62.186ZM69.462 11.252V15.638C69.462 16.998 69.564 17.44 69.904 17.78C70.21 18.086 70.754 18.188 71.264 18.188C71.502 18.188 72.148 18.188 72.42 18.188C72.726 18.188 73.168 18.154 73.406 18.018C73.712 17.882 73.984 17.644 74.12 17.304C74.29 16.964 74.358 15.944 74.392 15.06C73.984 14.958 73.44 14.686 73.1 14.448C73.066 15.264 73.032 15.944 72.964 16.216C72.896 16.488 72.828 16.658 72.726 16.726C72.658 16.794 72.42 16.794 72.25 16.794C72.012 16.794 71.74 16.794 71.604 16.794C71.434 16.794 71.298 16.76 71.23 16.692C71.162 16.59 71.162 16.318 71.162 15.876V11.252H69.462ZM58.31 0.473998V4.452H60.928V0.473998H58.31ZM46.784 3.33V5.54H73.916V3.33H46.784ZM45.356 3.33V13.836C45.356 18.732 45.152 25.532 42.738 30.36C43.282 30.632 44.302 31.38 44.71 31.822C47.328 26.688 47.736 19.038 47.736 13.836V3.33H45.356ZM89.08 0.439999V31.686H91.596V0.439999H89.08ZM86.02 7.002C85.782 9.756 85.136 13.496 84.252 15.774L86.258 16.454C87.142 13.972 87.788 10.062 87.958 7.308L86.02 7.002ZM91.664 6.696C92.684 8.736 93.806 11.456 94.18 13.088L96.118 12.102C95.676 10.538 94.554 7.92 93.5 5.914L91.664 6.696ZM96.322 5.88V8.294H110.636V17.44H113.152V5.88H96.322ZM94.52 16.08V18.528H116.076V16.08H94.52ZM105.944 16.59L103.666 17.066C105.502 23.9 108.902 29.374 114.546 31.822C114.954 31.108 115.77 30.02 116.382 29.476C111.044 27.504 107.542 22.472 105.944 16.59ZM102.986 0.439999V11.796C102.986 17.746 102.646 25.26 93.398 29.884C93.976 30.394 94.826 31.312 95.166 31.856C104.686 26.654 105.536 18.46 105.536 11.796V0.439999H102.986ZM133.62 0.439999V6.152H136.204V0.439999H133.62ZM126.718 4.792V7.138H142.902V4.792H126.718ZM142.664 9.45V11.864H157.454V9.45H142.664ZM130.934 12H138.856V16.556H130.934V12ZM128.554 9.79V18.732H141.338V9.79H128.554ZM133.756 17.814V28.796C133.756 29.17 133.62 29.272 133.246 29.306C132.804 29.34 131.478 29.34 129.914 29.306C130.254 29.952 130.628 30.938 130.73 31.618C132.804 31.618 134.198 31.618 135.082 31.21C135.966 30.802 136.204 30.088 136.204 28.83V17.814H133.756ZM129.2 20.534C128.588 23.254 127.5 25.94 126.038 27.742C126.616 28.082 127.568 28.796 128.01 29.204C129.54 27.198 130.832 24.104 131.546 21.044L129.2 20.534ZM137.972 20.976C138.924 22.778 139.91 25.226 140.318 26.79L142.46 26.008C142.052 24.444 141.032 22.064 140.012 20.262L137.972 20.976ZM151.13 2.446C152.762 4.112 154.36 6.492 155.04 8.124L157.148 7.036C156.468 5.404 154.836 3.126 153.102 1.494L151.13 2.446ZM147.594 0.439999V7.58C147.594 14.21 146.982 23.696 139.706 30.326C140.352 30.632 141.406 31.312 141.882 31.788C149.362 24.818 150.076 14.822 150.076 7.58V0.439999H147.594ZM149.226 13.564V28.15C149.226 29.884 149.396 30.428 150.008 30.938C150.586 31.38 151.436 31.516 152.218 31.516C152.66 31.516 153.85 31.516 154.36 31.516C155.108 31.516 155.924 31.38 156.4 31.142C156.978 30.802 157.318 30.326 157.556 29.544C157.726 28.83 157.862 26.756 157.896 24.954C157.25 24.75 156.4 24.308 155.89 23.866C155.924 25.736 155.856 27.368 155.788 28.014C155.72 28.422 155.516 28.762 155.278 28.898C155.04 29.034 154.598 29.102 154.19 29.102C153.748 29.102 153.136 29.102 152.796 29.102C152.422 29.102 152.116 29.034 151.912 28.864C151.674 28.762 151.572 28.524 151.572 28.252V13.564H149.226ZM175.406 15.57V31.822H177.854V17.61H192.678V31.822H195.228V15.57H175.406ZM168.572 11.082V13.19H198.594V11.082H168.572ZM171.054 6.526V8.566H196.622V6.526H171.054ZM177.072 19.922V21.724H193.766V19.922H177.072ZM177.072 24.138V25.906H193.766V24.138H177.072ZM176.834 28.422V30.462H193.766V28.422H176.834ZM194.65 0.711999C189.244 1.834 178.874 2.31 170.578 2.378C170.816 2.922 171.054 3.806 171.122 4.384C179.52 4.35 189.958 3.84 196.282 2.582L194.65 0.711999ZM180.71 3.058C178.908 10.572 174.93 18.018 167.722 22.166C168.232 22.642 168.98 23.594 169.32 24.138C176.936 19.616 181.084 11.83 183.362 3.602L180.71 3.058ZM215.968 10.334V12.646H234.464V10.334H215.968ZM210.154 16.59V19.004H240.312V16.59H210.154ZM219.096 18.256C218.518 23.798 217.056 27.708 209.406 29.612C209.95 30.122 210.63 31.142 210.902 31.788C219.198 29.476 221.102 24.886 221.816 18.256H219.096ZM227.698 18.052V27.64C227.698 30.36 228.514 31.142 231.642 31.142C232.322 31.142 236.232 31.142 236.912 31.142C239.632 31.142 240.38 29.952 240.652 25.294C239.972 25.09 238.884 24.682 238.34 24.274C238.238 28.184 238 28.796 236.708 28.796C235.824 28.796 232.594 28.796 231.914 28.796C230.486 28.796 230.248 28.626 230.248 27.606V18.052H227.698ZM223.822 0.473998V5.88H226.508V0.473998H223.822ZM210.936 4.112V11.32H213.52V6.526H236.844V11.32H239.53V4.112H210.936ZM274.448 0.542V7.852H276.862V0.542H274.448ZM269.892 6.662V8.94H281.996V6.662H269.892ZM270.64 11.252C271.592 16.42 272.238 23.152 272.306 26.994L274.516 26.382C274.482 22.676 273.7 16.08 272.68 10.844L270.64 11.252ZM278.596 10.436C278.154 15.366 277.168 22.438 276.216 26.586L278.188 27.096C279.208 22.948 280.296 16.114 280.976 10.912L278.596 10.436ZM268.362 28.32V30.598H282.54V28.32H268.362ZM253.606 4.044V6.356H258.026V20.33H253.606V22.676H260.202V4.044H253.606ZM252.246 4.044V25.6H254.422V4.044H252.246ZM260.814 7.41V9.688H269.144V7.41H260.814ZM260.372 18.358L261.154 20.704C263.602 19.718 266.628 18.426 269.484 17.202L269.076 15.128C265.88 16.352 262.616 17.61 260.372 18.358ZM264.01 0.542V28.864C264.01 29.306 263.908 29.408 263.5 29.442C263.092 29.442 261.936 29.442 260.61 29.408C260.95 30.088 261.256 31.142 261.324 31.72C263.228 31.754 264.452 31.652 265.2 31.244C265.982 30.87 266.288 30.19 266.288 28.864V0.542H264.01ZM297.092 22.166H295.154L294.304 4.724H297.942L297.092 22.166ZM293.998 27.164C293.998 26.3253 294.202 25.736 294.61 25.396C295.018 25.056 295.517 24.886 296.106 24.886C296.673 24.886 297.16 25.056 297.568 25.396C297.999 25.736 298.214 26.3253 298.214 27.164C298.214 27.98 297.999 28.5693 297.568 28.932C297.16 29.2947 296.673 29.476 296.106 29.476C295.517 29.476 295.018 29.2947 294.61 28.932C294.202 28.5693 293.998 27.98 293.998 27.164ZM315.369 8.804V10.64H328.425V8.804H315.369ZM315.981 12.952V14.822H327.881V12.952H315.981ZM329.003 12.068V14.278H340.835V12.068H329.003ZM318.429 18.29H325.297V21.078H318.429V18.29ZM316.287 16.658V22.71H327.507V16.658H316.287ZM335.905 6.594V28.796C335.905 29.306 335.735 29.442 335.225 29.442C334.715 29.476 332.981 29.476 331.077 29.408C331.417 30.088 331.791 31.108 331.859 31.72C334.409 31.754 336.007 31.686 336.959 31.312C337.945 30.938 338.285 30.258 338.285 28.762V6.594H335.905ZM314.417 29.136L314.825 31.278C318.599 30.802 323.971 30.122 329.071 29.476L329.003 27.47C323.597 28.116 318.089 28.762 314.417 29.136ZM317.069 23.934C317.681 25.328 318.225 27.13 318.361 28.286L320.469 27.776C320.367 26.654 319.755 24.852 319.075 23.492L317.069 23.934ZM329.377 17.44C330.567 19.718 331.689 22.676 332.029 24.58L334.171 23.832C333.797 21.962 332.607 19.038 331.383 16.794L329.377 17.44ZM324.243 23.186C323.937 24.478 323.291 26.416 322.815 27.606L324.685 28.082C325.195 26.96 325.807 25.26 326.419 23.696L324.243 23.186ZM320.673 6.458V13.938H322.985V6.458H320.673ZM324.991 0.473998V4.452H327.609V0.473998H324.991ZM313.465 3.33V5.54H340.597V3.33H313.465ZM312.037 3.33V13.836C312.037 18.732 311.833 25.532 309.419 30.36C309.963 30.632 310.983 31.38 311.391 31.822C314.009 26.688 314.417 19.038 314.417 13.836V3.33H312.037ZM353.721 5.574V7.784H360.623V12.782H353.721V15.026H362.935V5.574H353.721ZM353.755 18.154V20.364H360.963V26.212H353.755V28.388H363.241V18.154H353.755ZM352.701 5.574V30.7H355.013V5.574H352.701ZM364.261 2.242V4.588H382.451V2.242H364.261ZM357.019 0.439999C356.679 2.14 355.931 4.622 355.319 6.254L357.325 6.696C358.141 5.2 359.059 2.854 359.807 0.847998L357.019 0.439999ZM372.115 3.228V31.686H374.529V3.228H372.115ZM365.553 8.77V26.62H367.899V11.082H380.275V8.77H365.553ZM379.051 8.77V23.9C379.051 24.24 378.949 24.376 378.575 24.376C378.269 24.376 377.181 24.376 375.889 24.342C376.229 24.988 376.569 25.94 376.637 26.586C378.473 26.586 379.663 26.586 380.445 26.178C381.261 25.77 381.465 25.09 381.465 23.934V8.77H379.051ZM392.617 14.414L393.331 16.726L420.225 8.396L419.579 6.152L392.617 14.414ZM418.797 6.662C418.763 12.816 418.559 16.794 417.981 18.494C417.505 19.82 416.961 20.058 416.179 20.058C415.567 20.058 414.003 20.058 412.779 19.956C413.085 20.568 413.391 21.69 413.425 22.336C414.649 22.37 416.383 22.336 417.471 22.166C418.593 21.996 419.579 21.35 420.191 19.616C420.939 17.61 421.211 13.462 421.313 7.07L421.449 6.56L419.647 5.744L419.103 6.152L418.457 6.662H418.797ZM408.461 0.507998V24.478H410.977V0.507998H408.461ZM398.873 2.786V25.634C398.873 29.952 400.437 31.04 405.503 31.04C406.693 31.04 416.213 31.04 417.471 31.04C422.469 31.04 423.455 29.238 423.999 23.696C423.285 23.526 422.231 23.118 421.619 22.676C421.143 27.572 420.633 28.694 417.437 28.694C415.397 28.694 407.033 28.694 405.401 28.694C402.035 28.694 401.389 28.15 401.389 25.702V2.786H398.873ZM3.434 58.03V60.274H30.77V58.03H3.434ZM5.066 63.266V65.442H29.07V63.266H5.066ZM8.228 81.626V83.904H31.382V81.626H8.228ZM1.87 68.536V70.814H32.062V68.536H1.87ZM11.492 73.398V75.642H29.138V73.398H11.492ZM15.64 59.152V70.134H18.258V59.152H15.64ZM18.36 74.486V82.612H20.944V74.486H18.36ZM8.058 54.426C9.146 55.786 10.268 57.588 10.71 58.846L13.022 57.792C12.512 56.602 11.39 54.834 10.268 53.542L8.058 54.426ZM23.46 53.406C22.916 54.732 21.828 56.67 20.978 57.928L23.12 58.676C24.038 57.52 25.16 55.82 26.18 54.188L23.46 53.406ZM9.112 69.488C7.922 75.37 5.372 80.13 1.292 82.986C1.938 83.394 2.992 84.278 3.434 84.754C7.548 81.524 10.37 76.424 11.764 69.896L9.112 69.488ZM43.996 55.854V58.438H73.27V55.854H43.996ZM60.656 65.748C64.702 68.502 69.802 72.48 72.182 75.098L74.256 73.16C71.74 70.542 66.538 66.7 62.56 64.116L60.656 65.748ZM60.01 56.738C56.848 63.13 50.524 69.658 43.146 73.364C43.656 73.908 44.472 74.928 44.88 75.574C52.564 71.528 58.922 64.796 62.798 57.758L60.01 56.738ZM57.222 63.538V84.686H59.976V60.818L57.222 63.538ZM91.834 60.954C94.384 62.212 97.478 64.218 98.94 65.646L100.742 63.98C99.212 62.552 96.084 60.648 93.534 59.458L91.834 60.954ZM107.542 56.33V56.738C103.836 63.436 94.044 68.026 85.476 69.624C85.952 70.168 86.462 71.222 86.7 71.868C95.676 69.896 105.74 65.136 110.16 57.214L108.494 56.194L108.052 56.33H107.542ZM96.186 56.33V58.472H108.188V56.33H96.186ZM98.702 53.406C96.356 56.262 91.868 59.458 85.748 61.6C86.326 62.042 87.108 62.892 87.482 63.504C93.806 60.988 98.43 57.622 101.558 54.018L98.702 53.406ZM96.186 73.432C98.872 74.894 102.102 77.172 103.632 78.77L105.638 77.138C104.006 75.506 100.742 73.364 98.056 71.97L96.186 73.432ZM112.506 68.23V68.604C108.834 77.172 98.566 81.218 88.06 82.476C88.468 83.054 88.978 84.108 89.148 84.822C100.266 83.19 110.874 78.94 115.158 69.012L113.492 68.094L113.016 68.23H112.506ZM101.456 68.23V70.406H113.186V68.23H101.456ZM104.21 65.034C101.558 68.264 96.39 71.8 89.182 74.044C89.726 74.52 90.474 75.438 90.78 76.016C98.226 73.398 103.598 69.692 107.032 65.68L104.21 65.034ZM138.482 53.474V62.688H141.066V53.474H138.482ZM129.88 56.126V58.302H148.716V56.126H129.88ZM126.888 61.566V63.742H157.046V61.566H126.888ZM152.898 54.562C146.88 61.09 136.204 65.748 125.8 68.23C126.242 68.774 126.888 69.896 127.126 70.474C137.564 67.652 148.376 62.892 155.006 55.82L152.898 54.562ZM135.32 72.582H150.246V75.268H135.32V72.582ZM135.32 68.094H150.246V70.78H135.32V68.094ZM132.838 66.224V77.138H152.83V66.224H132.838ZM136.476 78.77C136.85 80.606 137.122 82.986 137.122 84.414L139.638 84.074C139.604 82.68 139.264 80.368 138.856 78.566L136.476 78.77ZM143.616 78.736C144.432 80.504 145.248 82.85 145.52 84.346L148.036 83.768C147.73 82.34 146.812 80.028 145.962 78.294L143.616 78.736ZM150.654 78.6C152.218 80.47 154.054 83.054 154.836 84.686L157.216 83.666C156.4 82.034 154.496 79.518 152.932 77.716L150.654 78.6ZM130.866 77.716C129.88 79.892 128.248 82.17 126.548 83.462L128.894 84.618C130.628 83.122 132.26 80.674 133.28 78.396L130.866 77.716ZM181.798 55.208V57.588H196.724V55.208H181.798ZM180.642 67.142V69.59H199.342V67.142H180.642ZM188.666 62.62V81.49C188.666 82 188.496 82.17 187.918 82.204C187.306 82.238 185.402 82.238 183.26 82.17C183.6 82.85 184.042 83.972 184.178 84.652C186.898 84.686 188.666 84.618 189.788 84.21C190.842 83.802 191.216 83.054 191.216 81.524V62.62H188.666ZM195.806 55.208V55.786C194.446 57.996 191.624 61.192 189.176 63.028C189.618 63.368 190.332 64.048 190.706 64.524C193.426 62.484 196.588 59.186 198.628 56.296L196.962 55.072L196.418 55.208H195.806ZM168.062 60.478V62.858H179.248V60.478H168.062ZM173.196 53.474C172.04 59.934 170 69.046 168.504 74.248L170.646 75.37C172.176 69.726 174.318 60.546 175.61 53.746L173.196 53.474ZM169.762 73.16C173.57 75.37 177.956 78.838 179.996 81.388L181.526 79.314C179.486 76.798 174.998 73.534 171.19 71.392L169.762 73.16ZM178.398 60.478V60.988C177.548 72.548 174.012 79.756 168.334 82.748C168.878 83.258 169.592 84.176 169.932 84.788C176.188 81.048 179.894 73.84 180.812 60.682L179.282 60.376L178.806 60.478H178.398ZM223.958 65.034V81.388C223.958 82 223.72 82.204 222.972 82.238C222.19 82.272 219.572 82.272 216.75 82.17C217.158 82.918 217.634 84.006 217.804 84.754C221.238 84.754 223.516 84.72 224.842 84.312C226.168 83.938 226.61 83.156 226.61 81.456V65.034H223.958ZM211.582 56.126V58.608H236.13V56.126H211.582ZM235.212 56.126V56.738C233.07 59.56 228.582 63.47 224.706 65.612C225.25 65.986 226.066 66.836 226.44 67.38C230.656 65 235.45 60.988 238.476 57.384L236.504 55.956L235.892 56.126H235.212ZM255.238 85.638C258.808 84.414 261.12 81.626 261.12 77.954C261.12 75.574 260.1 74.01 258.196 74.01C256.836 74.01 255.612 74.86 255.612 76.458C255.612 78.09 256.768 78.906 258.162 78.906C258.808 78.906 259.488 78.736 259.964 78.124L258.128 75.54L258.774 78.43C258.774 80.98 257.244 82.714 254.456 83.87L255.238 85.638ZM308.55 72.276V74.622H321.13V72.276H308.55ZM300.39 73.126L298.384 73.976C301.546 82.578 307.598 84.312 315.996 84.312H323.34C323.476 83.598 323.918 82.408 324.292 81.796C322.796 81.83 317.254 81.864 316.132 81.83C308.856 81.83 303.008 80.504 300.39 73.126ZM296.616 57.452V59.798H320.858V57.452H296.616ZM293.658 64.524V66.904H323.374V64.524H293.658ZM307.122 53.508V65.748H309.74V53.508H307.122ZM307.156 65.816V81.524L309.774 82.408V65.816H307.156ZM298.962 68.978C298.486 73.976 296.854 79.96 292.706 83.156C293.25 83.53 294.168 84.312 294.61 84.788C298.962 81.354 300.866 74.928 301.648 69.284L298.962 68.978ZM337.314 56.704V59.05H342.516V73.33H337.314V75.71H344.896V56.704H337.314ZM335.818 56.704V78.974H338.198V56.704H335.818ZM347.888 55.65V79.314C347.888 83.156 349.112 84.074 352.92 84.074C353.804 84.074 360.332 84.074 361.25 84.074C364.82 84.074 365.636 82.51 366.044 77.852C365.33 77.716 364.31 77.308 363.698 76.866C363.426 80.742 363.086 81.694 361.148 81.694C359.788 81.694 354.11 81.694 353.022 81.694C350.778 81.694 350.404 81.286 350.404 79.348V55.65H347.888ZM349.112 55.65V58.03H362.202V73.534H364.684V55.65H349.112ZM349.044 69.012V71.358H363.12V69.012H349.044ZM355.028 56.5V69.76H357.374V56.5H355.028ZM380.392 75.166H378.454L377.604 57.724H381.242L380.392 75.166ZM377.298 80.164C377.298 79.3253 377.502 78.736 377.91 78.396C378.318 78.056 378.817 77.886 379.406 77.886C379.973 77.886 380.46 78.056 380.868 78.396C381.299 78.736 381.514 79.3253 381.514 80.164C381.514 80.98 381.299 81.5693 380.868 81.932C380.46 82.2947 379.973 82.476 379.406 82.476C378.817 82.476 378.318 82.2947 377.91 81.932C377.502 81.5693 377.298 80.98 377.298 80.164ZM415.533 55.684C417.539 57.452 419.851 59.9 420.871 61.532L422.979 60.036C421.857 58.472 419.477 56.058 417.471 54.358L415.533 55.684ZM393.501 63.504V65.952H423.795V63.504H393.501ZM392.991 73.5L393.739 76.05C398.023 75.098 404.041 73.704 409.617 72.412L409.413 70.1C403.429 71.392 397.037 72.752 392.991 73.5ZM400.811 56.908V81.422C400.811 82.034 400.607 82.204 399.995 82.204C399.383 82.238 397.377 82.272 395.201 82.17C395.575 82.918 396.017 84.074 396.153 84.754C398.975 84.788 400.777 84.686 401.865 84.278C402.953 83.87 403.361 83.122 403.361 81.456V56.908H400.811ZM407.271 53.848C404.007 55.072 398.499 56.228 393.705 56.976C394.045 57.554 394.351 58.506 394.487 59.084C399.349 58.404 405.129 57.35 409.073 55.99L407.271 53.848ZM410.671 53.746C410.807 69.93 413.833 84.856 420.497 84.856C423.047 84.856 423.965 83.19 424.441 77.546C423.727 77.274 422.809 76.696 422.265 76.118C422.061 80.504 421.653 82.272 420.735 82.272C416.587 82.272 413.255 69.352 413.323 53.746H410.671ZM419.885 67.516C416.859 73.262 411.249 78.498 405.197 81.422C405.843 82 406.557 82.816 406.965 83.462C413.221 80.164 418.831 74.69 422.163 68.468L419.885 67.516ZM12.206 113.546V115.484H19.074V113.546H12.206ZM22.984 113.546V115.484H29.92V113.546H22.984ZM29.104 108.412V134.388C29.104 135.034 28.866 135.238 28.22 135.272C27.54 135.306 25.16 135.306 22.746 135.238C23.086 135.918 23.494 137.04 23.63 137.72C26.86 137.72 28.866 137.686 29.988 137.244C31.144 136.836 31.552 136.054 31.552 134.388V108.412H29.104ZM10.778 108.412V137.652H13.158V108.412H10.778ZM12.342 108.412V110.452H17.918V118.782H12.342V120.822H19.924V108.412H12.342ZM30.328 108.412H21.964V120.822H30.328V118.782H24.072V110.452H30.328V108.412ZM7.888 106.644C6.256 111.88 3.57 117.116 0.578 120.516C1.02 121.162 1.7 122.522 1.938 123.134C5.304 119.156 8.33 113.172 10.268 107.29L7.888 106.644ZM5.168 114.974V137.72H7.582V112.696L7.514 112.628L5.168 114.974ZM46.07 111.574V114.158H71.468V111.574H46.07ZM43.418 120.55V123.1H73.984V120.55H43.418ZM57.188 106.44V121.978H59.874V106.44H57.188ZM54.434 122.216C53.21 125.854 50.864 130.988 48.96 134.218L51.34 135.034C53.312 131.872 55.658 127.01 57.426 122.998L54.434 122.216ZM44.642 133.606L44.982 136.326C51.408 136.054 61.166 135.544 70.312 135.034L70.414 132.552C61.098 132.994 51.034 133.436 44.642 133.606ZM63.376 126.976C66.334 130.342 69.666 135 71.128 138.026L73.644 136.666C72.08 133.674 68.782 129.22 65.722 125.888L63.376 126.976ZM87.176 109.568V112.016H92.548V126.908H87.176V129.356H94.894V109.568H87.176ZM85.884 109.568V132.042H88.23V109.568H85.884ZM99.926 111.676V114.09H115.43V111.676H99.926ZM99.178 118.714V121.094H111.384V118.714H99.178ZM101.354 106.44C100.164 110.826 98.056 115.076 95.438 117.796C96.05 118.17 97.07 119.02 97.546 119.462C100.164 116.47 102.476 111.88 103.904 107.018L101.354 106.44ZM111.01 118.714C97.614 129.764 97.036 131.94 97.036 133.742C97.036 135.918 98.668 137.21 102.306 137.21H111.69C114.75 137.21 115.804 136.258 116.144 130.444C115.396 130.308 114.478 129.968 113.798 129.594C113.662 134.082 113.288 134.694 111.826 134.694H102.204C100.674 134.694 99.688 134.32 99.688 133.402C99.688 132.28 100.572 130.512 113.356 120.074C113.526 119.904 113.662 119.734 113.764 119.564L112.03 118.612L111.418 118.714H111.01ZM147.05 106.27V128.234H149.566V108.616H157.76V106.27H147.05ZM172.38 119.19V121.57H180.846V119.19H172.38ZM179.826 119.19V119.632C179.724 126.976 179.554 129.526 179.044 130.138C178.806 130.444 178.466 130.478 177.99 130.478C177.412 130.478 175.916 130.478 174.386 130.342C174.76 130.988 175.032 131.974 175.1 132.722C176.766 132.79 178.296 132.824 179.18 132.722C180.132 132.62 180.676 132.382 181.22 131.77C181.934 130.818 182.138 127.962 182.308 120.278C182.308 119.938 182.308 119.19 182.308 119.19H179.826ZM189.414 108.174C191.556 109.296 194.174 111.03 195.466 112.22L197.064 110.486C195.738 109.296 193.052 107.664 190.944 106.576L189.414 108.174ZM194.276 117.388C191.726 125.582 186.932 131.804 180.03 135.476C180.574 135.986 181.526 137.04 181.9 137.55C188.87 133.436 193.936 126.874 196.826 118L194.276 117.388ZM172.584 112.22V114.736H198.9V112.22H172.584ZM170.952 112.22V121.774C170.952 126.228 170.646 132.076 167.824 136.258C168.436 136.564 169.524 137.448 169.966 137.958C173.06 133.504 173.604 126.636 173.604 121.808V112.22H170.952ZM185.062 106.508C185.198 122.794 188.258 137.482 195.194 137.482C197.778 137.482 198.73 135.816 199.206 130.002C198.526 129.764 197.574 129.186 196.996 128.608C196.792 133.13 196.35 134.898 195.398 134.898C190.978 134.898 187.646 122.148 187.714 106.508H185.062ZM209.984 110.486V112.9H222.462V110.486H209.984ZM222.734 114.226V116.674H238.884V114.226H222.734ZM215.016 111.438V128.472H217.498V111.438H215.016ZM237.694 114.226V114.77C237.218 128.302 236.674 133.334 235.62 134.49C235.246 134.898 234.872 135 234.192 135C233.444 135 231.506 135 229.432 134.796C229.874 135.51 230.146 136.598 230.214 137.312C232.152 137.448 234.124 137.482 235.246 137.38C236.402 137.244 237.116 136.972 237.864 136.02C239.156 134.49 239.632 129.56 240.176 115.518C240.21 115.144 240.21 114.226 240.21 114.226H237.694ZM209.508 128.846L210.154 131.464C213.758 130.478 218.688 129.084 223.312 127.758L222.972 125.344C218.042 126.67 212.874 128.064 209.508 128.846ZM228.514 107.018C228.446 119.428 228.65 130.444 218.688 135.748C219.3 136.224 220.15 137.142 220.524 137.754C230.928 131.906 231.03 120.142 231.098 107.018H228.514ZM261.766 137.924V115.96H259.25V135.578H251.056V137.924H261.766ZM293.658 116.232V118.816H323.544V116.232H293.658ZM310.216 117.252L307.666 117.864C310.216 127.01 314.84 134.184 322.184 137.652C322.626 136.938 323.476 135.85 324.122 135.272C317.05 132.348 312.426 125.48 310.216 117.252ZM307.224 106.474C307.156 114.634 307.428 129.288 292.978 135.578C293.692 136.088 294.508 137.006 294.916 137.686C309.774 130.886 309.842 115.382 309.978 106.474H307.224ZM342.21 106.44V112.05H344.386V106.44H342.21ZM343.094 107.936V109.636H350.2V107.936H343.094ZM340.374 111.302L338.98 113.002H348.16V111.302H340.374ZM347.548 111.302V111.676C345.44 115.858 339.762 118.68 334.526 119.836C334.934 120.278 335.444 121.026 335.716 121.57C341.36 120.108 347.208 117.082 349.758 111.982L348.398 111.234L347.99 111.302H347.548ZM337.552 114.634C339.32 115.45 341.496 116.742 342.55 117.626L343.91 116.368C342.788 115.416 340.612 114.226 338.878 113.478L337.552 114.634ZM339.626 110.792C338.402 112.424 336.226 113.92 334.05 114.94C334.526 115.246 335.308 115.926 335.648 116.266C337.79 115.11 340.136 113.274 341.564 111.37L339.626 110.792ZM351.594 107.936V109.806H362.168V107.936H351.594ZM361.556 107.936V108.276C359.958 112.424 355.708 115.518 351.424 116.81C351.866 117.252 352.444 118.102 352.716 118.646C357.374 117.014 361.93 113.648 363.868 108.48L362.406 107.834L362.032 107.936H361.556ZM351.492 112.492C355.742 114.498 360.91 117.694 363.426 120.006L364.99 118.34C362.372 116.062 357.17 112.968 352.954 111.064L351.492 112.492ZM350.03 118.544C353.6 121.502 359.72 124.222 364.718 125.48C364.99 124.936 365.5 124.086 365.976 123.542C360.774 122.454 354.824 120.006 350.948 116.844H348.874C345.95 119.666 340.272 122.42 334.526 123.95C334.934 124.426 335.41 125.208 335.648 125.752C341.292 124.086 346.97 121.264 350.03 118.544ZM342.38 123.95V125.514H357.204V130.206H342.38V131.77H359.618V123.95H342.38ZM341.054 123.95V136.02L343.468 135.816V123.95H341.054ZM360.91 130.24C359.312 131.464 356.49 133.13 354.382 134.082L355.776 135.102C357.918 134.218 360.638 132.79 362.78 131.43L360.91 130.24ZM350.472 130.818L348.568 131.396C351.424 135.17 357.204 137.108 364.106 137.754C364.378 137.142 364.922 136.292 365.398 135.85C358.734 135.408 352.988 133.878 350.472 130.818ZM342.38 127.078V128.506H358.02V127.078H342.38ZM345.712 121.196V122.76H354.586V121.196H345.712ZM337.212 135.306L337.518 137.346C341.292 136.972 346.698 136.394 351.798 135.85V133.912C346.392 134.49 340.816 135 337.212 135.306ZM380.392 128.166H378.454L377.604 110.724H381.242L380.392 128.166ZM377.298 133.164C377.298 132.325 377.502 131.736 377.91 131.396C378.318 131.056 378.817 130.886 379.406 130.886C379.973 130.886 380.46 131.056 380.868 131.396C381.299 131.736 381.514 132.325 381.514 133.164C381.514 133.98 381.299 134.569 380.868 134.932C380.46 135.295 379.973 135.476 379.406 135.476C378.817 135.476 378.318 135.295 377.91 134.932C377.502 134.569 377.298 133.98 377.298 133.164Z" fill="#276A70"/>
</svg>
