<svg width="822" height="91" viewBox="0 0 822 91" fill="none" xmlns="http://www.w3.org/2000/svg">
<path d="M8.376 17.536H0.995996V20.02H5.712V28.048H8.376V17.536ZM8.376 26.608H5.964C4.2 28.156 2.148 29.74 0.527996 30.892L1.932 33.592C3.768 32.008 5.532 30.46 7.188 28.912C9.528 31.756 12.804 33.016 17.52 33.232C21.552 33.34 29.148 33.268 33.144 33.124C33.288 32.296 33.684 31.036 34.044 30.424C29.724 30.712 21.48 30.784 17.52 30.676C13.272 30.496 10.104 29.236 8.376 26.608ZM2.544 2.884C4.74 4.108 7.26 5.98 8.448 7.384L10.32 5.548C9.096 4.144 6.504 2.344 4.344 1.228L2.544 2.884ZM1.14 10.228C3.444 11.344 6.108 13.18 7.368 14.548L9.24 12.64C7.908 11.236 5.172 9.508 2.94 8.464L1.14 10.228ZM10.464 6.772V8.788H33.828V6.772H10.464ZM13.272 15.376V17.32H31.272V15.376H13.272ZM13.272 11.128V13.072H31.272V11.128H13.272ZM13.776 2.452V4.396H30.876V2.452H13.776ZM15.612 21.712H28.86V25.96H15.612V21.712ZM13.128 19.732V27.94H31.416V19.732H13.128ZM61.26 7.492V9.508H74.688V7.492H61.26ZM61.26 12.532V14.548H74.688V12.532H61.26ZM57.048 17.608V20.02H77.64V17.608H57.048ZM60 2.128V18.868H62.592V4.504H76.092V2.128H60ZM57.012 30.82L57.516 33.412C60.9 32.8 65.328 32.008 69.612 31.18L69.504 28.804C64.896 29.596 60.144 30.388 57.012 30.82ZM67.992 18.76L65.724 19.192C67.452 26.104 70.8 31.432 76.344 33.952C76.74 33.232 77.532 32.152 78.144 31.612C72.852 29.596 69.504 24.772 67.992 18.76ZM75.3 21.028C73.824 22.468 71.196 24.556 69.252 25.78L70.944 26.86C72.924 25.744 75.48 23.98 77.532 22.324L75.3 21.028ZM60.072 18.436V31.396L62.664 30.892V18.436H60.072ZM46.248 18.364V20.812H55.5V18.364H46.248ZM54.312 18.364V18.796C53.808 27.076 53.196 30.244 52.368 31.072C52.08 31.396 51.72 31.468 51.108 31.468C50.496 31.468 48.912 31.468 47.256 31.288C47.652 31.972 47.94 33.052 47.976 33.808C49.704 33.916 51.396 33.916 52.26 33.844C53.34 33.772 53.988 33.484 54.672 32.8C55.752 31.612 56.328 28.264 56.904 19.516C56.976 19.156 57.012 18.364 57.012 18.364H54.312ZM46.356 10.912C46.032 14.44 45.348 19.156 44.772 22.036L47.292 22.324C47.832 19.408 48.444 14.62 48.84 10.912H46.356ZM46.716 10.912V13.432H56.4V2.668H45.24V5.152H53.916V10.912H46.716ZM103.488 16.42V18.4H121.2V16.42H103.488ZM102.84 31.18V33.232H121.452V31.18H102.84ZM108.852 0.795998V5.296H110.904V0.795998H108.852ZM113.46 0.795998V5.296H115.512V0.795998H113.46ZM107.52 21.892H116.952V25.06H107.52V21.892ZM105.288 20.128V26.824H119.292V20.128H105.288ZM106.692 10.228H117.78V12.712H106.692V10.228ZM106.692 5.98H117.78V8.428H106.692V5.98ZM104.568 4.108V14.62H119.976V4.108H104.568ZM106.98 27.544C107.7 28.84 108.276 30.604 108.456 31.792L110.544 31.036C110.328 29.848 109.716 28.156 108.924 26.896L106.98 27.544ZM115.332 26.86C114.972 28.048 114.252 29.884 113.676 31.108L115.44 31.72C116.052 30.604 116.88 28.984 117.636 27.508L115.332 26.86ZM92.364 20.956V22.9H100.392V20.956H92.364ZM92.364 25.564V27.544H100.392V25.564H92.364ZM91.104 16.42V33.916H93.408V18.4H100.284V16.42H91.104ZM98.844 16.42V31.324C98.844 31.684 98.7 31.792 98.34 31.792C98.016 31.828 96.864 31.828 95.604 31.792C95.892 32.368 96.216 33.268 96.324 33.88C98.232 33.88 99.42 33.88 100.176 33.484C100.968 33.124 101.184 32.512 101.184 31.36V16.42H98.844ZM91.068 2.056V13H93.156V4.108H99.096V13H101.22V2.056H91.068ZM89.016 12.064V17.248H91.068V14.044H101.22V17.248H103.344V12.064H89.016ZM95.028 6.448V12.82H96.756V8.176H100.464V6.448H95.028ZM109.212 4.828V13.684H110.904V4.828H109.212ZM113.46 4.828V13.684H115.152V4.828H113.46ZM150.396 9.436V11.524H160.332V9.436H150.396ZM149.172 15.664H152.484V20.272H149.172V15.664ZM147.264 13.792V22.144H154.5V13.792H147.264ZM158.244 15.664H161.772V20.272H158.244V15.664ZM156.336 13.792V22.144H163.824V13.792H156.336ZM149.964 23.116C149.424 27.22 147.948 30.424 145.104 32.404C145.644 32.764 146.508 33.592 146.832 34.024C149.892 31.684 151.62 28.084 152.304 23.26L149.964 23.116ZM149.568 27.76C151.044 29.128 152.844 31.036 153.708 32.26L155.256 30.676C154.392 29.488 152.52 27.688 151.08 26.392L149.568 27.76ZM158.964 23.08C158.388 27.148 156.84 30.316 153.996 32.296C154.572 32.656 155.436 33.52 155.76 33.916C158.82 31.576 160.656 28.012 161.34 23.224L158.964 23.08ZM158.424 27.904C160.296 29.74 162.528 32.296 163.572 33.88L165.336 32.512C164.256 30.964 161.988 28.48 160.152 26.716L158.424 27.904ZM155.148 3.316C157.2 6.628 160.8 10.192 164.22 12.28C164.544 11.596 165.12 10.588 165.624 9.94C162.204 8.14 158.568 4.576 156.3 0.903999H153.816C152.16 4.324 148.668 8.14 144.996 10.264C145.464 10.84 146.04 11.812 146.328 12.46C149.964 10.192 153.348 6.52 155.148 3.316ZM134.916 7.744V9.868H144.924V7.744H134.916ZM134.916 13.18V15.268H144.996V13.18H134.916ZM133.548 18.652V20.812H144.564V18.652H133.548ZM138.984 3.46V19.768H141.144V3.46H138.984ZM140.064 22.792C140.928 24.268 141.792 26.212 142.152 27.508L143.448 26.968C143.088 25.708 142.188 23.764 141.288 22.36L140.064 22.792ZM137.868 23.296C138.552 25.132 139.128 27.544 139.272 29.128L140.676 28.804C140.532 27.256 139.884 24.844 139.164 23.008L137.868 23.296ZM135.672 23.656C135.996 25.78 136.176 28.444 136.104 30.208L137.58 30.028C137.616 28.264 137.436 25.6 137.076 23.476L135.672 23.656ZM133.296 23.008C133.188 26.032 132.828 29.236 131.604 31.036L133.116 31.9C134.448 29.92 134.808 26.5 134.952 23.296L133.296 23.008ZM133.548 2.236V19.84H135.78V4.432H145.608V2.236H133.548ZM143.7 18.652V19.048C143.376 27.688 143.052 30.784 142.44 31.468C142.188 31.828 141.936 31.9 141.504 31.9C141.036 31.9 139.992 31.9 138.804 31.756C139.092 32.332 139.308 33.268 139.38 33.88C140.568 33.952 141.792 33.952 142.476 33.88C143.304 33.808 143.844 33.592 144.348 32.908C145.212 31.864 145.536 28.696 145.896 19.696C145.932 19.336 145.932 18.652 145.932 18.652H143.7ZM185.244 18.904V21.136H198.312V18.904H185.244ZM183.696 18.904V29.452C183.696 32.8 185.028 33.556 189.564 33.556C190.536 33.556 198.24 33.556 199.32 33.556C203.244 33.556 204.18 32.332 204.576 27.58C203.856 27.436 202.668 27.04 202.056 26.572C201.804 30.424 201.444 31.036 199.176 31.036C197.448 31.036 190.896 31.036 189.6 31.036C186.864 31.036 186.36 30.748 186.36 29.452V18.904H183.696ZM197.448 18.904V19.228C197.196 22.972 196.944 24.484 196.512 24.916C196.26 25.168 195.936 25.204 195.324 25.204C194.712 25.204 192.912 25.204 191.076 25.024C191.436 25.636 191.724 26.5 191.76 27.148C193.704 27.256 195.576 27.256 196.476 27.22C197.484 27.148 198.168 26.968 198.744 26.392C199.464 25.672 199.824 23.944 200.076 19.912C200.148 19.552 200.148 18.904 200.148 18.904H197.448ZM176.28 12.892V15.304H208.32V12.892H176.28ZM182.22 6.484V8.86H202.308V6.484H182.22ZM196.512 7.636L194.208 8.392C196.836 14.62 201.66 20.056 207.24 22.756C207.636 22.072 208.464 21.064 209.112 20.524C203.676 18.256 198.852 13.18 196.512 7.636ZM198.024 2.704C200.904 5.044 204.288 8.356 205.8 10.48L208.068 9.004C206.412 6.844 202.956 3.64 200.112 1.408L198.024 2.704ZM183.444 1.48C181.896 4.36 179.268 7.096 176.532 8.896C177.108 9.292 178.08 10.156 178.548 10.624C181.284 8.608 184.164 5.476 185.964 2.2L183.444 1.48ZM190.356 0.795998C188.088 10.552 183.444 17.32 175.38 21.172C175.992 21.676 177.036 22.72 177.432 23.26C185.532 18.904 190.5 11.812 193.056 1.264L190.356 0.795998ZM234.78 0.939999C233.592 6.232 231.504 11.416 228.84 14.764C229.452 15.16 230.532 16.024 231 16.492C233.772 12.82 236.04 7.276 237.444 1.516L234.78 0.939999ZM234.168 16.204C233.16 20.524 231.432 24.808 229.2 27.58C229.848 27.904 231 28.624 231.54 29.056C233.736 26.032 235.68 21.46 236.796 16.744L234.168 16.204ZM234.456 7.708L233.412 10.228H250.656V7.708H234.456ZM240.036 8.752V30.604C240.036 31.072 239.892 31.216 239.424 31.216C238.92 31.216 237.372 31.252 235.68 31.18C236.076 31.972 236.472 33.16 236.652 33.916C238.884 33.916 240.432 33.844 241.404 33.376C242.412 32.944 242.736 32.152 242.736 30.604V8.752H240.036ZM245.328 16.744C247.308 20.524 249.108 25.6 249.684 28.912L252.24 28.048C251.628 24.7 249.828 19.732 247.74 15.952L245.328 16.744ZM249.864 7.708V8.104C249.504 10.48 249.036 13.504 248.64 15.304L250.98 15.736C251.448 13.792 252.06 10.696 252.564 8.032L250.692 7.636L250.224 7.708H249.864ZM227.544 0.903999C225.528 6.376 222.144 11.776 218.58 15.268C219.084 15.88 219.84 17.32 220.128 17.932C224.016 13.9 227.724 7.816 230.1 1.696L227.544 0.903999ZM223.8 10.192V33.844H226.392V7.672L226.32 7.636L223.8 10.192ZM263.004 24.16L263.904 26.86C266.856 25.996 270.672 24.808 274.344 23.656L274.02 21.244C269.916 22.36 265.776 23.512 263.004 24.16ZM272.832 0.939999V33.88H275.46V0.939999H272.832ZM265.452 4.936V24.484H268.044V4.936H265.452ZM281.256 7.456V10.012H296.448V7.456H281.256ZM282.228 0.759999C280.896 6.772 278.556 12.604 275.352 16.276C276 16.708 277.116 17.68 277.548 18.22C280.86 14.152 283.416 7.924 285 1.3L282.228 0.759999ZM291.768 8.68C289.572 20.128 285.036 27.436 275.784 31.576C276.288 32.152 277.116 33.376 277.368 33.988C287.016 29.272 291.948 21.46 294.468 9.112L291.768 8.68ZM282.228 9.544L279.78 10.012C282.156 21.244 286.62 29.956 295.008 33.988C295.404 33.268 296.268 32.224 296.88 31.684C288.816 28.228 284.316 19.804 282.228 9.544ZM307.608 15.484V17.896H339.504V15.484H307.608ZM310.632 9.904V12.208H331.26V9.904H310.632ZM316.464 25.708V27.58H334.176V25.708H316.464ZM316.5 30.604V32.764H334.14V30.604H316.5ZM319.848 7.276V16.96H322.512V7.276H319.848ZM335.292 7.852C328.92 15.196 317.94 20.524 306.708 23.368C307.176 23.908 307.896 25.096 308.184 25.672C319.38 22.432 330.54 17.068 337.524 9.184L335.292 7.852ZM315.852 0.795998V8.536H318.516V0.795998H315.852ZM328.272 0.795998V8.536H330.9V0.795998H328.272ZM307.644 3.424V5.836H339.324V3.424H307.644ZM317.328 20.704H316.284L314.628 22.288V33.916H317.328V22.828H334.572V20.704H317.328ZM333.42 20.704V33.88H336.084V20.704H333.42ZM354.912 34.852C358.692 33.556 361.14 30.604 361.14 26.716C361.14 24.196 360.06 22.54 358.044 22.54C356.604 22.54 355.308 23.44 355.308 25.132C355.308 26.86 356.532 27.724 358.008 27.724C358.692 27.724 359.412 27.544 359.916 26.896L357.972 24.16L358.656 27.22C358.656 29.92 357.036 31.756 354.084 32.98L354.912 34.852ZM409.668 16.42V18.4H427.38V16.42H409.668ZM409.02 31.18V33.232H427.632V31.18H409.02ZM415.032 0.795998V5.296H417.084V0.795998H415.032ZM419.64 0.795998V5.296H421.692V0.795998H419.64ZM413.7 21.892H423.132V25.06H413.7V21.892ZM411.468 20.128V26.824H425.472V20.128H411.468ZM412.872 10.228H423.96V12.712H412.872V10.228ZM412.872 5.98H423.96V8.428H412.872V5.98ZM410.748 4.108V14.62H426.156V4.108H410.748ZM413.16 27.544C413.88 28.84 414.456 30.604 414.636 31.792L416.724 31.036C416.508 29.848 415.896 28.156 415.104 26.896L413.16 27.544ZM421.512 26.86C421.152 28.048 420.432 29.884 419.856 31.108L421.62 31.72C422.232 30.604 423.06 28.984 423.816 27.508L421.512 26.86ZM398.544 20.956V22.9H406.572V20.956H398.544ZM398.544 25.564V27.544H406.572V25.564H398.544ZM397.284 16.42V33.916H399.588V18.4H406.464V16.42H397.284ZM405.024 16.42V31.324C405.024 31.684 404.88 31.792 404.52 31.792C404.196 31.828 403.044 31.828 401.784 31.792C402.072 32.368 402.396 33.268 402.504 33.88C404.412 33.88 405.6 33.88 406.356 33.484C407.148 33.124 407.364 32.512 407.364 31.36V16.42H405.024ZM397.248 2.056V13H399.336V4.108H405.276V13H407.4V2.056H397.248ZM395.196 12.064V17.248H397.248V14.044H407.4V17.248H409.524V12.064H395.196ZM401.208 6.448V12.82H402.936V8.176H406.644V6.448H401.208ZM415.392 4.828V13.684H417.084V4.828H415.392ZM419.64 4.828V13.684H421.332V4.828H419.64ZM456.576 9.436V11.524H466.512V9.436H456.576ZM455.352 15.664H458.664V20.272H455.352V15.664ZM453.444 13.792V22.144H460.68V13.792H453.444ZM464.424 15.664H467.952V20.272H464.424V15.664ZM462.516 13.792V22.144H470.004V13.792H462.516ZM456.144 23.116C455.604 27.22 454.128 30.424 451.284 32.404C451.824 32.764 452.688 33.592 453.012 34.024C456.072 31.684 457.8 28.084 458.484 23.26L456.144 23.116ZM455.748 27.76C457.224 29.128 459.024 31.036 459.888 32.26L461.436 30.676C460.572 29.488 458.7 27.688 457.26 26.392L455.748 27.76ZM465.144 23.08C464.568 27.148 463.02 30.316 460.176 32.296C460.752 32.656 461.616 33.52 461.94 33.916C465 31.576 466.836 28.012 467.52 23.224L465.144 23.08ZM464.604 27.904C466.476 29.74 468.708 32.296 469.752 33.88L471.516 32.512C470.436 30.964 468.168 28.48 466.332 26.716L464.604 27.904ZM461.328 3.316C463.38 6.628 466.98 10.192 470.4 12.28C470.724 11.596 471.3 10.588 471.804 9.94C468.384 8.14 464.748 4.576 462.48 0.903999H459.996C458.34 4.324 454.848 8.14 451.176 10.264C451.644 10.84 452.22 11.812 452.508 12.46C456.144 10.192 459.528 6.52 461.328 3.316ZM441.096 7.744V9.868H451.104V7.744H441.096ZM441.096 13.18V15.268H451.176V13.18H441.096ZM439.728 18.652V20.812H450.744V18.652H439.728ZM445.164 3.46V19.768H447.324V3.46H445.164ZM446.244 22.792C447.108 24.268 447.972 26.212 448.332 27.508L449.628 26.968C449.268 25.708 448.368 23.764 447.468 22.36L446.244 22.792ZM444.048 23.296C444.732 25.132 445.308 27.544 445.452 29.128L446.856 28.804C446.712 27.256 446.064 24.844 445.344 23.008L444.048 23.296ZM441.852 23.656C442.176 25.78 442.356 28.444 442.284 30.208L443.76 30.028C443.796 28.264 443.616 25.6 443.256 23.476L441.852 23.656ZM439.476 23.008C439.368 26.032 439.008 29.236 437.784 31.036L439.296 31.9C440.628 29.92 440.988 26.5 441.132 23.296L439.476 23.008ZM439.728 2.236V19.84H441.96V4.432H451.788V2.236H439.728ZM449.88 18.652V19.048C449.556 27.688 449.232 30.784 448.62 31.468C448.368 31.828 448.116 31.9 447.684 31.9C447.216 31.9 446.172 31.9 444.984 31.756C445.272 32.332 445.488 33.268 445.56 33.88C446.748 33.952 447.972 33.952 448.656 33.88C449.484 33.808 450.024 33.592 450.528 32.908C451.392 31.864 451.716 28.696 452.076 19.696C452.112 19.336 452.112 18.652 452.112 18.652H449.88ZM494.592 19.876V33.88H497.076V22.36H509.964V33.7H512.556V19.876H494.592ZM511.224 0.903999C507.228 2.344 499.92 3.46 493.656 4.144C493.98 4.756 494.34 5.8 494.448 6.448C500.892 5.836 508.416 4.72 513.348 3.028L511.224 0.903999ZM502.368 4.036V21.316H504.96V4.036H502.368ZM491.964 11.344V13.936H514.896V11.344H491.964ZM496.284 29.848V32.332H511.152V29.848H496.284ZM483.72 3.136C485.952 4.324 488.94 6.088 490.452 7.168L492.036 4.972C490.488 3.928 487.428 2.308 485.232 1.228L483.72 3.136ZM481.956 13.072C484.152 14.224 487.14 15.952 488.616 16.96L490.128 14.764C488.616 13.72 485.592 12.136 483.468 11.092L481.956 13.072ZM482.82 31.576L485.088 33.412C487.212 30.064 489.732 25.564 491.64 21.748L489.696 19.984C487.608 24.088 484.764 28.84 482.82 31.576ZM526.704 24.304V26.356H543.12V24.304H526.704ZM525.732 6.952V9.04H543.696V6.952H525.732ZM533.544 3.676V30.172H536.028V3.676H533.544ZM525.696 30.244L526.092 32.584C530.664 32.116 537.18 31.36 543.3 30.64L543.264 28.516C536.82 29.2 530.088 29.848 525.696 30.244ZM529.044 17.572H540.708V20.236H529.044V17.572ZM529.044 13.18H540.708V15.772H529.044V13.18ZM526.776 11.308V22.108H543.012V11.308H526.776ZM541.716 1.12C538.008 1.984 531.456 2.632 526.092 2.92C526.38 3.46 526.632 4.36 526.74 4.936C532.14 4.756 538.836 4.144 543.084 3.208L541.716 1.12ZM543.444 9.184V11.704H556.44V9.184H543.444ZM555.396 9.184V9.832C555 24.412 554.604 29.596 553.704 30.712C553.38 31.18 553.02 31.288 552.444 31.288C551.724 31.288 550.14 31.252 548.376 31.108C548.808 31.828 549.096 32.944 549.168 33.7C550.824 33.808 552.552 33.808 553.56 33.7C554.64 33.592 555.36 33.268 556.008 32.332C557.196 30.784 557.556 25.744 557.952 10.552C557.952 10.192 557.988 9.184 557.988 9.184H555.396ZM547.8 1.228C547.764 14.836 547.944 26.248 539.7 32.152C540.348 32.584 541.284 33.448 541.716 34.096C550.32 27.652 550.356 15.556 550.392 1.228H547.8ZM576.996 16.708V18.94H594.852V16.708H576.996ZM576.312 22.864V25.168H595.608V22.864H576.312ZM588.3 17.428V33.232H590.748V17.428H588.3ZM580.92 17.536V24.088C580.92 26.068 580.164 29.884 576.528 32.116C577.14 32.476 577.968 33.232 578.328 33.736C582.396 31 583.26 26.284 583.26 24.088V17.536H580.92ZM572.532 7.312V9.256H582.648V7.312H572.532ZM589.128 7.312V9.256H599.316V7.312H589.128ZM598.272 2.308V30.388C598.272 30.928 598.092 31.144 597.516 31.144C596.94 31.18 594.996 31.18 593.016 31.108C593.412 31.864 593.772 33.124 593.88 33.844C596.616 33.844 598.416 33.808 599.496 33.34C600.576 32.872 600.936 32.008 600.936 30.388V2.308H598.272ZM572.748 2.308V4.396H581.748V12.388H572.748V14.44H584.304V2.308H572.748ZM599.568 2.308H587.472V14.476H599.568V12.424H590.064V4.396H599.568V2.308ZM571.128 2.308V33.916H573.792V2.308H571.128ZM630.708 29.848V32.296H643.272V29.848H630.708ZM629.304 19.3V33.916H631.896V21.784H642.012V33.772H644.676V19.3H629.304ZM626.856 13.252L627.18 15.916C631.644 15.628 638.088 15.124 644.172 14.656L644.208 12.244C637.8 12.676 631.104 13.036 626.856 13.252ZM638.772 7.456C641.148 10.516 643.56 14.62 644.424 17.32L646.8 16.024C645.828 13.36 643.344 9.328 640.932 6.34L638.772 7.456ZM633.876 0.759999C632.868 4.792 630.924 10.552 629.304 14.044L631.608 14.692C633.3 11.272 635.352 5.764 636.828 1.372L633.876 0.759999ZM613.248 8.212V10.768H625.128V8.212H613.248ZM618.72 0.759999C617.46 7.6 615.228 17.284 613.608 22.756L615.84 23.98C617.532 17.968 619.836 8.248 621.312 1.048L618.72 0.759999ZM615.048 21.676C619.08 24.016 623.76 27.652 625.884 30.352L627.54 28.156C625.38 25.492 620.592 22.036 616.56 19.768L615.048 21.676ZM624.084 8.212V8.788C623.22 20.992 619.44 28.66 613.464 31.828C614.04 32.368 614.76 33.34 615.156 33.988C621.78 30.028 625.668 22.396 626.64 8.464L625.02 8.14L624.552 8.212H624.084ZM657.348 6.448V8.968H689.532V6.448H657.348ZM661.056 18.04V20.164H671.136V18.04H661.056ZM661.056 23.8V25.924H671.136V23.8H661.056ZM677.148 12.496V27.292H679.704V12.496H677.148ZM670.164 12.172V30.748C670.164 31.216 670.02 31.36 669.516 31.396C669.012 31.432 667.356 31.432 665.556 31.36C665.916 32.044 666.312 33.052 666.456 33.736C668.904 33.736 670.488 33.736 671.46 33.304C672.468 32.872 672.792 32.152 672.792 30.784V12.172H670.164ZM684.456 11.416V30.532C684.456 31.036 684.276 31.18 683.7 31.216C683.088 31.252 681.144 31.252 678.948 31.18C679.344 31.9 679.776 33.052 679.92 33.772C682.728 33.772 684.528 33.7 685.644 33.304C686.76 32.872 687.12 32.116 687.12 30.532V11.416H684.456ZM662.928 1.66C664.296 3.208 665.772 5.404 666.348 6.772L669.012 5.8C668.328 4.396 666.816 2.272 665.412 0.723999L662.928 1.66ZM681.432 0.615999C680.532 2.56 678.912 5.332 677.616 7.06L679.992 7.96C681.324 6.268 682.944 3.784 684.312 1.552L681.432 0.615999ZM659.616 12.172V33.7H662.172V14.512H671.028V12.172H659.616ZM720.456 18.148V29.452C720.456 32.44 721.248 33.34 724.452 33.34C725.136 33.34 728.844 33.34 729.528 33.34C732.444 33.34 733.236 31.9 733.524 26.428C732.768 26.248 731.616 25.816 731.004 25.348C730.86 30.028 730.68 30.748 729.348 30.748C728.484 30.748 725.388 30.748 724.776 30.748C723.408 30.748 723.156 30.568 723.156 29.488V18.148H720.456ZM701.376 16.276V18.868H733.02V16.276H701.376ZM707.28 6.376V9.004H730.428V6.376H707.28ZM710.844 18.256C710.232 24.52 708.756 29.344 700.872 31.792C701.484 32.332 702.276 33.376 702.6 34.096C711.06 31.18 712.932 25.6 713.652 18.256H710.844ZM708 1.624C707.136 5.368 705.3 10.192 702.852 13.216C703.5 13.504 704.58 14.08 705.192 14.512C707.712 11.308 709.62 6.268 710.736 2.164L708 1.624ZM715.812 0.795998V17.104H718.548V0.795998H715.812ZM751.884 17.536H744.468V19.948H749.292V27.976H751.884V17.536ZM751.884 26.752H749.616C747.852 28.3 745.8 29.884 744.18 30.964L745.512 33.556C747.384 32.008 749.112 30.496 750.804 28.948C753.072 31.756 756.384 32.98 761.1 33.16C765.096 33.304 772.8 33.232 776.76 33.088C776.904 32.296 777.3 31.108 777.624 30.532C773.34 30.784 765.024 30.856 761.028 30.748C756.852 30.604 753.648 29.38 751.884 26.752ZM746.124 2.884C748.32 4.108 750.84 5.98 752.028 7.384L753.9 5.548C752.676 4.144 750.084 2.344 747.924 1.228L746.124 2.884ZM744.72 10.228C747.024 11.344 749.688 13.18 750.948 14.548L752.82 12.64C751.488 11.236 748.752 9.508 746.52 8.464L744.72 10.228ZM762.864 2.776V5.044H776.544V2.776H762.864ZM762.072 24.592V26.86H777.264V24.592H762.072ZM763.404 13.18V15.448H776.04V13.18H763.404ZM768.3 3.892V25.528H770.856V3.892H768.3ZM754.44 2.344C758.4 6.664 759.012 11.38 759.012 16.78C759.012 20.524 758.796 24.52 758.076 25.42C757.896 25.672 757.608 25.816 757.248 25.852C756.672 25.924 755.736 25.924 754.62 25.816C755.016 26.5 755.232 27.436 755.268 28.156C756.348 28.228 757.464 28.228 758.292 28.048C759.012 27.976 759.552 27.688 759.948 27.148C761.136 25.636 761.388 21.208 761.388 16.888C761.388 11.056 760.884 5.908 756.24 1.084L754.44 2.344ZM760.452 1.012C758.796 4.72 755.916 8.212 752.784 10.444C753.288 10.84 754.152 11.74 754.512 12.208C757.716 9.688 760.812 5.8 762.684 1.624L760.452 1.012ZM758.976 11.848C757.68 14.62 754.98 17.824 752.712 19.444C753.288 19.876 753.936 20.74 754.296 21.28C756.636 19.3 759.336 15.808 760.74 12.892L758.976 11.848ZM795.624 17.536H788.208V19.948H793.032V27.976H795.624V17.536ZM795.624 26.752H793.356C791.592 28.3 789.54 29.884 787.92 30.964L789.252 33.556C791.124 32.008 792.852 30.496 794.544 28.948C796.812 31.756 800.124 32.98 804.84 33.16C808.836 33.304 816.54 33.232 820.5 33.088C820.644 32.296 821.04 31.108 821.364 30.532C817.08 30.784 808.764 30.856 804.768 30.748C800.592 30.604 797.388 29.38 795.624 26.752ZM789.864 2.884C792.06 4.108 794.58 5.98 795.768 7.384L797.64 5.548C796.416 4.144 793.824 2.344 791.664 1.228L789.864 2.884ZM788.46 10.228C790.764 11.344 793.428 13.18 794.688 14.548L796.56 12.64C795.228 11.236 792.492 9.508 790.26 8.464L788.46 10.228ZM806.604 2.776V5.044H820.284V2.776H806.604ZM805.812 24.592V26.86H821.004V24.592H805.812ZM807.144 13.18V15.448H819.78V13.18H807.144ZM812.04 3.892V25.528H814.596V3.892H812.04ZM798.18 2.344C802.14 6.664 802.752 11.38 802.752 16.78C802.752 20.524 802.536 24.52 801.816 25.42C801.636 25.672 801.348 25.816 800.988 25.852C800.412 25.924 799.476 25.924 798.36 25.816C798.756 26.5 798.972 27.436 799.008 28.156C800.088 28.228 801.204 28.228 802.032 28.048C802.752 27.976 803.292 27.688 803.688 27.148C804.876 25.636 805.128 21.208 805.128 16.888C805.128 11.056 804.624 5.908 799.98 1.084L798.18 2.344ZM804.192 1.012C802.536 4.72 799.656 8.212 796.524 10.444C797.028 10.84 797.892 11.74 798.252 12.208C801.456 9.688 804.552 5.8 806.424 1.624L804.192 1.012ZM802.716 11.848C801.42 14.62 798.72 17.824 796.452 19.444C797.028 19.876 797.676 20.74 798.036 21.28C800.376 19.3 803.076 15.808 804.48 12.892L802.716 11.848ZM21.2674 73.716H40.4554V77.928H21.2674V73.716ZM21.2674 67.344H40.4554V71.52H21.2674V67.344ZM18.6754 65.04V80.232H43.1554V65.04H18.6754ZM29.2954 65.832V79.152H31.9234V65.832H29.2954ZM24.9034 59.1L23.3194 61.332H34.8394V59.1H24.9034ZM24.6154 56.652C22.7074 60.144 19.1434 64.5 14.2834 67.632C14.8954 68.1 15.8314 69.036 16.2274 69.684C21.4114 66.012 25.1194 61.404 27.6034 57.228L24.6154 56.652ZM33.9754 59.1V59.604C33.2194 61.296 31.5634 63.816 30.0874 65.364C30.7714 65.688 31.7074 66.264 32.2834 66.66C33.8674 65.004 35.8114 62.412 36.8914 60.144L34.9834 58.956L34.5874 59.1H33.9754ZM25.1554 82.608C25.5874 84.84 25.8754 87.792 25.8754 89.52L28.6474 89.16C28.6114 87.468 28.2154 84.624 27.7114 82.392L25.1554 82.608ZM32.3554 82.68C33.3994 84.84 34.4434 87.756 34.8034 89.52L37.4314 88.836C36.9994 87.072 35.8834 84.228 34.8034 82.104L32.3554 82.68ZM39.4474 82.428C41.4994 84.696 43.8754 87.9 44.8114 89.916L47.4034 88.728C46.3594 86.604 43.9474 83.544 41.8594 81.348L39.4474 82.428ZM19.1794 81.672C18.0994 84.372 16.1914 87.108 14.1034 88.62L16.5154 89.988C18.7114 88.224 20.5834 85.236 21.7354 82.356L19.1794 81.672ZM72.8914 56.616V63.348H75.7354V56.616H72.8914ZM72.9274 64.212V89.988H75.6994V64.212H72.9274ZM58.2394 61.764V64.392H90.6754V61.764H58.2394ZM61.9474 69.324V85.416H64.6474V71.952H85.5994V69.324H61.9474ZM84.5554 69.324V81.996C84.5554 82.5 84.3754 82.644 83.7274 82.68C83.1154 82.716 80.9194 82.716 78.4714 82.644C78.8674 83.4 79.2994 84.48 79.4074 85.308C82.5034 85.308 84.5194 85.272 85.7794 84.84C86.9674 84.372 87.3274 83.544 87.3274 81.996V69.324H84.5554ZM112.059 71.556V73.932H134.739V71.556H112.059ZM116.127 76.452V78.648H131.823V76.452H116.127ZM117.891 72.456C116.235 76.02 113.247 79.152 109.935 81.132C110.475 81.528 111.411 82.356 111.771 82.824C115.119 80.592 118.395 77.064 120.231 73.068L117.891 72.456ZM131.319 76.452V76.848C130.815 83.904 130.239 86.604 129.555 87.288C129.267 87.648 128.979 87.684 128.439 87.684C127.935 87.684 126.747 87.648 125.379 87.54C125.739 88.116 125.991 89.088 125.991 89.772C127.431 89.844 128.799 89.808 129.591 89.772C130.455 89.7 131.103 89.484 131.679 88.872C132.651 87.828 133.227 84.984 133.767 77.532C133.839 77.136 133.875 76.452 133.875 76.452H131.319ZM118.071 64.644H129.663V67.524H118.071V64.644ZM118.071 59.856H129.663V62.7H118.071V59.856ZM115.623 57.84V69.54H132.183V57.84H115.623ZM102.051 64.572V67.164H112.743V64.572H102.051ZM106.263 57.048V79.188H108.819V57.048H106.263ZM101.367 80.628L102.411 83.328C105.471 81.852 109.395 79.908 113.067 78.036L112.491 75.66C108.387 77.568 104.139 79.476 101.367 80.628ZM126.711 76.848C125.415 81.312 122.391 86.208 119.007 88.476C119.691 88.872 120.519 89.484 120.987 90.024C124.263 87.54 127.251 82.428 128.619 77.856L126.711 76.848ZM121.095 76.956C119.331 80.736 115.551 84.876 111.987 86.82C112.635 87.216 113.391 87.9 113.823 88.476C117.315 86.244 121.095 81.96 122.931 78.036L121.095 76.956ZM149.571 90.852C153.351 89.556 155.799 86.604 155.799 82.716C155.799 80.196 154.719 78.54 152.703 78.54C151.263 78.54 149.967 79.44 149.967 81.132C149.967 82.86 151.191 83.724 152.667 83.724C153.351 83.724 154.071 83.544 154.575 82.896L152.631 80.16L153.315 83.22C153.315 85.92 151.695 87.756 148.743 88.98L149.571 90.852ZM204.219 65.004V74.436H206.991V65.004H204.219ZM192.915 67.488V69.792H218.619V67.488H192.915ZM189.351 72.996V75.372H222.039V72.996H189.351ZM190.503 78.54V80.916H221.103V78.54H190.503ZM211.563 74.904V86.676C211.563 87.18 211.419 87.324 210.771 87.324C210.087 87.396 207.963 87.396 205.515 87.324C205.911 88.044 206.379 89.088 206.523 89.88C209.511 89.88 211.527 89.844 212.715 89.448C213.975 89.016 214.335 88.296 214.335 86.712V74.904H211.563ZM193.527 59.82V62.088H205.227V59.82H193.527ZM207.423 59.82V62.088H221.679V59.82H207.423ZM194.319 56.616C193.131 59.784 191.115 62.952 188.811 65.04C189.459 65.4 190.575 66.156 191.079 66.552C193.311 64.32 195.507 60.828 196.911 57.3L194.319 56.616ZM208.467 56.616C207.423 59.64 205.479 62.556 203.211 64.428C203.823 64.788 204.939 65.544 205.443 65.976C207.675 63.888 209.835 60.648 211.059 57.228L208.467 56.616ZM195.687 61.548C196.479 63.024 197.271 64.968 197.523 66.192L199.935 65.328C199.611 64.104 198.747 62.196 197.955 60.756L195.687 61.548ZM210.663 61.548C211.851 63.06 213.147 65.076 213.651 66.372L215.955 65.4C215.415 64.068 214.047 62.088 212.859 60.684L210.663 61.548ZM195.687 82.5C198.027 84.048 200.619 86.352 201.771 88.044L203.859 86.316C202.635 84.624 199.971 82.392 197.667 80.952L195.687 82.5ZM232.983 71.484V74.436H265.923V71.484H232.983ZM277.119 59.424V62.16H309.159V59.424H277.119ZM290.979 61.584V89.844H293.823V61.584H290.979ZM292.563 70.116C296.919 72.348 302.535 75.768 305.307 78L307.215 75.552C304.335 73.392 298.647 70.116 294.327 68.028L292.563 70.116ZM320.283 78.648V81.168H353.511V78.648H320.283ZM321.615 58.956V61.476H352.179V58.956H321.615ZM326.331 71.808V74.184H347.499V71.808H326.331ZM346.455 65.004V86.568C346.455 87.18 346.239 87.36 345.591 87.36C344.943 87.396 342.639 87.432 340.263 87.36C340.659 88.044 341.091 89.232 341.235 89.952C344.367 89.952 346.383 89.916 347.535 89.484C348.759 89.052 349.119 88.224 349.119 86.568V65.004H346.455ZM324.567 65.004V89.952H327.231V67.488H347.571V65.004H324.567ZM335.367 59.748V79.584H338.067V59.748H335.367ZM365.211 61.8V64.428H396.279V61.8H365.211ZM379.107 56.796V89.88H381.915V56.796H379.107ZM379.431 72.78C376.191 78.252 369.963 83.508 363.951 85.956C364.563 86.496 365.427 87.576 365.859 88.26C371.943 85.416 378.171 79.836 381.699 73.68L379.431 72.78ZM381.771 72.852L379.503 73.788C382.995 79.944 389.115 85.56 395.307 88.332C395.775 87.576 396.639 86.496 397.323 85.92C391.095 83.544 384.939 78.36 381.771 72.852ZM369.999 70.908C371.727 72.42 373.887 74.58 375.003 75.876L376.839 74.04C375.723 72.744 373.491 70.692 371.799 69.252L369.999 70.908ZM371.511 65.292C370.431 69.936 368.163 73.86 364.887 76.308C365.535 76.74 366.579 77.604 367.011 78.072C370.359 75.3 372.879 71.016 374.139 65.76L371.511 65.292ZM387.315 70.98C389.763 72.96 393.003 75.732 394.551 77.46L396.459 75.588C394.839 73.932 391.527 71.232 389.115 69.396L387.315 70.98ZM388.575 65.292C387.783 69.324 386.055 72.852 383.427 75.048C384.075 75.372 385.227 76.128 385.731 76.56C388.287 74.04 390.231 70.26 391.167 65.724L388.575 65.292ZM407.547 75.84L408.339 78.432C411.795 77.46 416.331 76.092 420.543 74.832L420.219 72.348C415.647 73.68 410.787 75.048 407.547 75.84ZM407.979 64.032V66.588H420.183V64.032H407.979ZM413.163 56.796V86.46C413.163 86.964 412.947 87.144 412.443 87.144C411.975 87.144 410.427 87.18 408.735 87.108C409.059 87.828 409.455 88.944 409.563 89.628C412.047 89.628 413.523 89.556 414.495 89.124C415.395 88.728 415.791 87.972 415.791 86.46V56.796H413.163ZM420.615 66.948L420.903 69.54L440.235 67.452L439.947 64.932L420.615 66.948ZM430.659 58.992C432.423 60.576 434.583 62.844 435.519 64.356L437.679 62.808C436.671 61.332 434.511 59.136 432.711 57.624L430.659 58.992ZM425.475 56.904C426.339 75.264 429.183 89.124 437.211 89.736C439.047 89.844 440.487 88.044 441.315 82.176C440.739 81.924 439.551 81.24 439.011 80.7C438.651 84.66 438.075 86.64 437.103 86.568C431.739 86.028 428.823 73.068 428.211 56.904H425.475ZM436.167 70.26C433.179 77.064 426.699 83.688 419.535 86.532C420.291 87.072 421.155 87.936 421.659 88.656C428.679 85.488 435.159 78.684 438.399 71.628L436.167 70.26ZM475.407 59.136C477.531 61.008 479.979 63.6 481.059 65.328L483.291 63.744C482.103 62.088 479.583 59.532 477.459 57.732L475.407 59.136ZM452.079 67.416V70.008H484.155V67.416H452.079ZM451.539 78L452.331 80.7C456.867 79.692 463.239 78.216 469.143 76.848L468.927 74.4C462.591 75.768 455.823 77.208 451.539 78ZM459.819 60.432V86.388C459.819 87.036 459.603 87.216 458.955 87.216C458.307 87.252 456.183 87.288 453.879 87.18C454.275 87.972 454.743 89.196 454.887 89.916C457.875 89.952 459.783 89.844 460.935 89.412C462.087 88.98 462.519 88.188 462.519 86.424V60.432H459.819ZM466.659 57.192C463.203 58.488 457.371 59.712 452.295 60.504C452.655 61.116 452.979 62.124 453.123 62.736C458.271 62.016 464.391 60.9 468.567 59.46L466.659 57.192ZM470.259 57.084C470.403 74.22 473.607 90.024 480.663 90.024C483.363 90.024 484.335 88.26 484.839 82.284C484.083 81.996 483.111 81.384 482.535 80.772C482.319 85.416 481.887 87.288 480.915 87.288C476.523 87.288 472.995 73.608 473.067 57.084H470.259ZM480.015 71.664C476.811 77.748 470.871 83.292 464.463 86.388C465.147 87 465.903 87.864 466.335 88.548C472.959 85.056 478.899 79.26 482.427 72.672L480.015 71.664ZM499.491 90.852C503.271 89.556 505.719 86.604 505.719 82.716C505.719 80.196 504.639 78.54 502.623 78.54C501.183 78.54 499.887 79.44 499.887 81.132C499.887 82.86 501.111 83.724 502.587 83.724C503.271 83.724 503.991 83.544 504.495 82.896L502.551 80.16L503.235 83.22C503.235 85.92 501.615 87.756 498.663 88.98L499.491 90.852ZM559.071 69.144V89.916H561.807V69.144H559.071ZM548.559 74.436V76.92H571.923V74.436H548.559ZM562.563 75.408L560.475 76.2C562.851 80.988 567.027 85.848 570.951 88.368C571.419 87.72 572.283 86.748 572.859 86.244C568.935 84.084 564.723 79.728 562.563 75.408ZM558.459 75.228C556.191 79.62 551.763 84.084 547.551 86.172C548.127 86.712 548.955 87.648 549.423 88.296C553.707 85.812 558.171 80.988 560.583 76.02L558.459 75.228ZM553.815 60.9H567.243V67.488H553.815V60.9ZM551.259 58.488V69.936H569.907V58.488H551.259ZM547.515 56.868C545.427 62.34 541.971 67.704 538.371 71.124C538.875 71.772 539.631 73.176 539.919 73.788C543.843 69.792 547.623 63.744 550.071 57.66L547.515 56.868ZM543.771 66.156V89.808H546.363V63.636L546.327 63.6L543.771 66.156ZM596.007 58.164V60.324H603.027V58.164H596.007ZM600.039 67.092V69.252H610.155V67.092H600.039ZM595.035 86.424V88.8H615.591V86.424H595.035ZM611.955 57.804C610.983 58.776 609.183 60.324 607.959 61.188L609.111 62.34C610.407 61.548 612.063 60.432 613.503 59.28L611.955 57.804ZM614.151 61.548C613.179 62.592 611.307 64.14 610.083 65.004L611.235 66.264C612.567 65.472 614.259 64.284 615.735 63.132L614.151 61.548ZM608.715 80.052C608.355 81.708 607.455 84.156 606.807 85.704L608.967 86.316C609.687 84.84 610.515 82.644 611.271 80.664L608.715 80.052ZM599.175 80.664C600.003 82.464 600.759 84.804 600.975 86.352L603.387 85.632C603.135 84.084 602.343 81.78 601.479 80.088L599.175 80.664ZM600.003 73.716H610.119V77.64H600.003V73.716ZM597.519 71.556V79.8H612.711V71.556H597.519ZM595.467 63.024C596.835 64.068 598.419 65.616 599.139 66.696L600.759 64.968C600.003 63.924 598.383 62.484 596.979 61.512L595.467 63.024ZM602.055 58.164V58.596C600.867 63.672 597.483 68.028 593.811 69.936C594.351 70.44 595.035 71.376 595.359 71.988C599.427 69.576 602.955 64.896 604.467 58.668L602.919 58.056L602.487 58.164H602.055ZM607.671 56.868L605.403 57.372C606.987 63.564 609.975 68.82 614.475 71.412C614.871 70.764 615.627 69.792 616.239 69.324C612.027 67.2 609.075 62.304 607.671 56.868ZM584.235 67.668V69.828H593.955V67.668H584.235ZM584.415 58.056V60.216H593.811V58.056H584.415ZM584.235 72.492V74.652H593.955V72.492H584.235ZM582.687 62.772V65.004H594.999V62.772H582.687ZM585.495 77.352V79.584H591.687V85.596H585.495V87.828H593.955V77.352H585.495ZM584.163 77.352V89.52H586.467V77.352H584.163ZM641.151 58.632V61.152H656.955V58.632H641.151ZM639.927 71.268V73.86H659.727V71.268H639.927ZM648.423 66.48V86.46C648.423 87 648.243 87.18 647.631 87.216C646.983 87.252 644.967 87.252 642.699 87.18C643.059 87.9 643.527 89.088 643.671 89.808C646.551 89.844 648.423 89.772 649.611 89.34C650.727 88.908 651.123 88.116 651.123 86.496V66.48H648.423ZM655.983 58.632V59.244C654.543 61.584 651.555 64.968 648.963 66.912C649.431 67.272 650.187 67.992 650.583 68.496C653.463 66.336 656.811 62.844 658.971 59.784L657.207 58.488L656.631 58.632H655.983ZM626.607 64.212V66.732H638.451V64.212H626.607ZM632.043 56.796C630.819 63.636 628.659 73.284 627.075 78.792L629.343 79.98C630.963 74.004 633.231 64.284 634.599 57.084L632.043 56.796ZM628.407 77.64C632.439 79.98 637.083 83.652 639.243 86.352L640.863 84.156C638.703 81.492 633.951 78.036 629.919 75.768L628.407 77.64ZM637.551 64.212V64.752C636.651 76.992 632.907 84.624 626.895 87.792C627.471 88.332 628.227 89.304 628.587 89.952C635.211 85.992 639.135 78.36 640.107 64.428L638.487 64.104L637.983 64.212H637.551ZM670.491 59.532V62.088H682.551V59.532H670.491ZM670.995 70.08V72.6H682.011V70.08H670.995ZM669.987 82.968L670.599 85.56C674.091 84.624 678.843 83.292 683.307 81.996L683.019 79.62C678.195 80.88 673.227 82.176 669.987 82.968ZM684.351 59.28V61.872H701.379V59.28H684.351ZM682.731 69.72V72.312H703.287V69.72H682.731ZM687.627 71.34C687.339 79.98 686.511 85.2 678.915 87.936C679.491 88.404 680.211 89.34 680.499 89.952C688.707 86.856 689.895 80.88 690.291 71.34H687.627ZM694.287 71.304V85.956C694.287 88.836 694.935 89.664 697.491 89.664C697.995 89.664 700.119 89.664 700.623 89.664C702.891 89.664 703.575 88.296 703.791 83.328C703.071 83.148 701.919 82.68 701.379 82.176C701.271 86.424 701.127 87.108 700.371 87.108C699.903 87.108 698.211 87.108 697.887 87.108C697.095 87.108 696.987 86.964 696.987 85.956V71.304H694.287ZM675.207 60.54V82.932L677.835 82.428V60.54H675.207ZM717.255 62.556V64.968H725.679V83.652H717.255V86.1H728.199V62.556H717.255ZM715.635 62.556V88.98H718.155V62.556H715.635ZM717.075 72.564V74.976H727.011V72.564H717.075ZM721.143 56.688C720.855 58.56 720.171 61.296 719.559 63.024L721.719 63.564C722.439 61.944 723.339 59.46 724.059 57.228L721.143 56.688ZM733.311 62.448V64.968H744.363V62.448H733.311ZM743.427 62.448V63.024C742.923 78.9 742.347 84.876 741.159 86.172C740.763 86.64 740.331 86.748 739.611 86.748C738.783 86.748 736.623 86.712 734.283 86.532C734.787 87.252 735.111 88.368 735.183 89.16C737.199 89.268 739.323 89.34 740.547 89.196C741.807 89.088 742.635 88.764 743.427 87.72C744.867 85.956 745.371 80.376 745.947 63.852C745.947 63.456 745.947 62.448 745.947 62.448H743.427ZM734.067 56.616C732.915 61.62 730.935 66.588 728.487 69.756C729.135 70.116 730.251 70.872 730.719 71.304C733.203 67.884 735.327 62.592 736.659 57.228L734.067 56.616ZM732.411 71.808C734.391 74.436 736.803 78 737.883 80.196L740.187 78.756C739.035 76.632 736.551 73.14 734.499 70.584L732.411 71.808ZM782.271 56.868V64.608H784.827V56.868H782.271ZM777.447 63.348V65.76H790.263V63.348H777.447ZM778.239 68.208C779.247 73.68 779.931 80.808 780.003 84.876L782.343 84.228C782.307 80.304 781.479 73.32 780.399 67.776L778.239 68.208ZM786.663 67.344C786.195 72.564 785.151 80.052 784.143 84.444L786.231 84.984C787.311 80.592 788.463 73.356 789.183 67.848L786.663 67.344ZM775.827 86.28V88.692H790.839V86.28H775.827ZM760.203 60.576V63.024H764.883V77.82H760.203V80.304H767.187V60.576H760.203ZM758.763 60.576V83.4H761.067V60.576H758.763ZM767.835 64.14V66.552H776.655V64.14H767.835ZM767.367 75.732L768.195 78.216C770.787 77.172 773.991 75.804 777.015 74.508L776.583 72.312C773.199 73.608 769.743 74.94 767.367 75.732ZM771.219 56.868V86.856C771.219 87.324 771.111 87.432 770.679 87.468C770.247 87.468 769.023 87.468 767.619 87.432C767.979 88.152 768.303 89.268 768.375 89.88C770.391 89.916 771.687 89.808 772.479 89.376C773.307 88.98 773.631 88.26 773.631 86.856V56.868H771.219ZM806.365 61.4062L806.137 79.7754H803.201L802.955 61.4062H806.365ZM802.849 85.3652C802.849 84.8379 803.008 84.3926 803.324 84.0293C803.652 83.666 804.133 83.4844 804.766 83.4844C805.387 83.4844 805.861 83.666 806.189 84.0293C806.529 84.3926 806.699 84.8379 806.699 85.3652C806.699 85.8691 806.529 86.3027 806.189 86.666C805.861 87.0293 805.387 87.2109 804.766 87.2109C804.133 87.2109 803.652 87.0293 803.324 86.666C803.008 86.3027 802.849 85.8691 802.849 85.3652Z" fill="#276A70"/>
</svg>
