<svg width="882" height="87" viewBox="0 0 882 87" fill="none" xmlns="http://www.w3.org/2000/svg">
<path d="M26.37 0.677998C20.93 1.766 11.138 2.446 3.012 2.718C3.25 3.262 3.522 4.214 3.59 4.826C11.818 4.622 21.712 3.942 28.07 2.718L26.37 0.677998ZM14.606 3.466V31.754H17.156V3.466H14.606ZM1.006 7.784V10.13H31.062V7.784H1.006ZM8.486 11.558V29.306H10.866V11.558H8.486ZM1.448 15.91V18.188H9.812V15.91H1.448ZM0.666 25.362L1.822 27.708C4.168 26.892 6.99 25.804 9.778 24.784L9.37 22.744C6.14 23.764 2.876 24.784 0.666 25.362ZM28.92 14.584C27.254 15.876 24.33 17.372 21.814 18.426C22.086 18.936 22.46 19.718 22.596 20.228C25.316 19.208 28.478 17.882 30.756 16.454L28.92 14.584ZM20.828 11.592V25.498C20.828 28.184 21.542 28.966 24.16 28.966C24.704 28.966 27.764 28.966 28.342 28.966C30.552 28.966 31.232 27.912 31.47 24.104C30.79 23.934 29.804 23.526 29.294 23.118C29.192 26.144 29.022 26.654 28.104 26.654C27.492 26.654 24.942 26.654 24.466 26.654C23.412 26.654 23.242 26.484 23.242 25.498V11.592H20.828ZM60.166 17.95V31.754H62.682V17.95H60.166ZM51.564 17.406L51.802 19.82C56.46 19.65 62.954 19.378 69.176 19.004L69.244 16.896C62.818 17.134 56.018 17.338 51.564 17.406ZM68.496 1.086C64.892 2.038 58.432 2.65 53.162 2.922C53.4 3.5 53.74 4.418 53.808 5.03C59.18 4.826 65.844 4.248 70.06 3.16L68.496 1.086ZM65.878 6.152C63.124 9.824 58.5 14.686 54.998 17.61L56.766 18.868C60.302 15.944 64.858 11.32 68.122 7.478L65.878 6.152ZM60.064 2.99C58.874 5.03 56.766 7.92 55.134 9.654L57.038 10.674C58.704 9.008 60.778 6.39 62.512 4.146L60.064 2.99ZM64.994 22.404C66.796 24.784 68.7 27.98 69.414 30.02L71.658 28.966C70.91 26.892 68.938 23.798 67.102 21.486L64.994 22.404ZM64.688 14.176C66.762 16.386 69.074 19.412 70.026 21.418L72.032 20.126C71.046 18.154 68.7 15.23 66.558 13.088L64.688 14.176ZM52.788 9.45C55.1 11.082 57.888 13.53 59.18 15.196L60.846 13.428C59.52 11.762 56.664 9.45 54.318 7.886L52.788 9.45ZM55.032 21.69C53.91 24.342 52.176 27.096 50.306 28.966C50.918 29.306 51.972 29.952 52.448 30.326C54.216 28.354 56.154 25.26 57.412 22.336L55.032 21.69ZM39.834 16.216L40.446 18.664C43.812 17.916 48.47 16.896 52.856 15.91L52.686 13.598C47.96 14.618 43.064 15.604 39.834 16.216ZM40.82 2.514V4.928H51.122V2.514H40.82ZM45.206 9.416V28.626C45.206 29.034 45.104 29.17 44.628 29.17C44.186 29.17 42.724 29.17 41.092 29.136C41.466 29.884 41.806 31.006 41.908 31.72C44.016 31.72 45.546 31.652 46.464 31.244C47.382 30.802 47.654 30.054 47.654 28.626V9.416H45.206ZM50.612 2.514V3.058C49.592 5.132 47.484 8.09 45.614 9.79C46.124 10.198 46.872 10.946 47.246 11.456C49.422 9.484 51.904 6.356 53.502 3.534L51.734 2.344L51.224 2.514H50.612ZM90.222 1.732V31.686H92.296V3.976H96.138V1.732H90.222ZM95.662 1.732V1.936C95.118 4.792 94.302 8.6 93.282 12.51C95.152 15.74 95.9 17.814 95.9 19.752C95.9 20.908 95.764 22.098 95.322 22.472C95.118 22.642 94.812 22.71 94.472 22.71C94.064 22.744 93.486 22.744 92.908 22.676C93.248 23.254 93.452 24.138 93.486 24.75C94.098 24.75 94.812 24.75 95.288 24.682C95.866 24.614 96.41 24.41 96.784 24.07C97.6 23.39 97.974 21.656 97.974 19.82C97.974 17.712 97.158 15.434 95.254 12.238C96.24 8.736 97.158 5.268 97.838 2.446L96.274 1.63L96.002 1.732H95.662ZM82.13 3.16V5.642H86.176V20.194H82.13V22.676H88.25V3.16H82.13ZM81.076 3.16V26.008H83.082V3.16H81.076ZM98.382 2.038V4.486H111.2V2.038H98.382ZM98.96 8.362V25.022H100.762V10.674H104.162V8.362H98.96ZM107.392 2.82V28.354C107.392 28.83 107.256 29 106.746 29C106.202 29.034 104.502 29.068 102.598 29C102.972 29.646 103.38 30.802 103.448 31.482C105.794 31.448 107.358 31.414 108.276 31.006C109.228 30.564 109.5 29.748 109.5 28.354V2.82H107.392ZM103.448 8.362V20.364H99.81V22.676H105.318V8.362H103.448ZM123.882 22.166H121.944L121.094 4.724H124.732L123.882 22.166ZM120.788 27.164C120.788 26.3253 120.992 25.736 121.4 25.396C121.808 25.056 122.307 24.886 122.896 24.886C123.463 24.886 123.95 25.056 124.358 25.396C124.789 25.736 125.004 26.3253 125.004 27.164C125.004 27.98 124.789 28.5693 124.358 28.932C123.95 29.2947 123.463 29.476 122.896 29.476C122.307 29.476 121.808 29.2947 121.4 28.932C120.992 28.5693 120.788 27.98 120.788 27.164ZM149.061 0.609999C147.939 5.608 145.967 10.504 143.451 13.666C144.029 14.04 145.049 14.856 145.491 15.298C148.109 11.83 150.251 6.594 151.577 1.154L149.061 0.609999ZM148.483 15.026C147.531 19.106 145.899 23.152 143.791 25.77C144.403 26.076 145.491 26.756 146.001 27.164C148.075 24.308 149.911 19.99 150.965 15.536L148.483 15.026ZM148.755 7.002L147.769 9.382H164.055V7.002H148.755ZM154.025 7.988V28.626C154.025 29.068 153.889 29.204 153.447 29.204C152.971 29.204 151.509 29.238 149.911 29.17C150.285 29.918 150.659 31.04 150.829 31.754C152.937 31.754 154.399 31.686 155.317 31.244C156.269 30.836 156.575 30.088 156.575 28.626V7.988H154.025ZM159.023 15.536C160.893 19.106 162.593 23.9 163.137 27.028L165.551 26.212C164.973 23.05 163.273 18.358 161.301 14.788L159.023 15.536ZM163.307 7.002V7.376C162.967 9.62 162.525 12.476 162.151 14.176L164.361 14.584C164.803 12.748 165.381 9.824 165.857 7.308L164.089 6.934L163.647 7.002H163.307ZM142.227 0.575999C140.323 5.744 137.127 10.844 133.761 14.142C134.237 14.72 134.951 16.08 135.223 16.658C138.895 12.85 142.397 7.104 144.641 1.324L142.227 0.575999ZM138.691 9.348V31.686H141.139V6.968L141.071 6.934L138.691 9.348ZM180.341 15.366V17.542H202.271V9.79H177.383V11.932H199.755V15.366H180.341ZM179.049 15.366C178.539 18.052 177.655 21.486 176.941 23.662L179.457 24.036C180.137 21.792 180.987 18.256 181.599 15.366H179.049ZM179.423 20.67L178.743 22.88H202.339V20.67H179.423ZM201.693 20.67V21.01C201.319 25.43 200.911 27.198 200.299 27.742C200.027 28.014 199.687 28.048 199.109 28.048C198.497 28.048 196.865 28.048 195.233 27.844C195.607 28.524 195.879 29.476 195.947 30.224C197.681 30.292 199.347 30.292 200.231 30.224C201.183 30.19 201.795 29.986 202.407 29.408C203.257 28.558 203.733 26.45 204.175 21.724C204.243 21.35 204.277 20.67 204.277 20.67H201.693ZM188.739 10.334V31.72H191.255V10.334H188.739ZM188.059 21.35C185.203 24.682 179.491 27.742 174.493 29.136C175.037 29.646 175.751 30.564 176.125 31.176C181.157 29.544 186.903 26.11 190.065 22.268L188.059 21.35ZM178.573 3.398V5.472H189.555V3.398H178.573ZM191.697 3.398V5.472H205.433V3.398H191.697ZM179.287 0.303999C178.165 3.33 176.261 6.322 174.119 8.328C174.731 8.634 175.785 9.348 176.227 9.688C178.301 7.58 180.375 4.248 181.667 0.915999L179.287 0.303999ZM192.683 0.303999C191.561 3.364 189.487 6.22 187.073 8.056C187.719 8.396 188.739 9.11 189.215 9.552C191.527 7.478 193.805 4.316 195.097 0.915999L192.683 0.303999ZM180.477 4.996C181.259 6.424 182.007 8.294 182.279 9.484L184.523 8.6C184.217 7.444 183.367 5.574 182.619 4.214L180.477 4.996ZM194.689 4.962C195.879 6.39 197.103 8.294 197.579 9.586L199.789 8.668C199.245 7.41 197.987 5.54 196.831 4.18L194.689 4.962ZM214.307 14.346V17.134H245.417V14.346H214.307ZM267.721 0.542C266.531 5.982 264.457 11.286 261.567 14.618C262.281 14.958 263.505 15.638 264.015 16.046C266.769 12.442 269.013 6.9 270.373 1.018L267.721 0.542ZM273.331 8.872H271.971V13.428C271.971 16.658 270.203 25.566 259.833 29.646C260.309 30.122 261.091 31.176 261.397 31.72C269.625 28.286 272.719 21.452 273.297 18.222C273.841 21.418 276.731 28.456 283.871 31.72C284.279 31.108 285.061 30.054 285.537 29.442C276.289 25.464 274.623 16.454 274.623 13.428V8.872H273.331ZM253.849 24.716L255.515 26.824C257.827 24.614 260.683 21.656 263.199 18.936L261.805 16.726C258.915 19.752 255.821 22.88 253.849 24.716ZM254.937 4.554C257.147 6.084 259.833 8.328 261.125 9.824L263.029 7.75C261.703 6.288 258.949 4.146 256.739 2.718L254.937 4.554ZM267.789 6.594L266.633 9.11H283.089V6.594H267.789ZM282.205 6.594V7.206C281.627 9.824 280.165 13.428 279.043 15.468C279.689 15.74 280.675 16.25 281.219 16.556C282.477 14.278 284.075 10.742 284.959 7.478L283.089 6.424L282.613 6.594H282.205ZM294.819 5.2V7.682H324.161V5.2H294.819ZM307.943 0.473998V31.72H310.595V0.473998H307.943ZM308.249 15.57C305.189 20.738 299.307 25.702 293.629 28.014C294.207 28.524 295.023 29.544 295.431 30.19C301.177 27.504 307.059 22.234 310.391 16.42L308.249 15.57ZM310.459 15.638L308.317 16.522C311.615 22.336 317.395 27.64 323.243 30.258C323.685 29.544 324.501 28.524 325.147 27.98C319.265 25.736 313.451 20.84 310.459 15.638ZM299.341 13.802C300.973 15.23 303.013 17.27 304.067 18.494L305.801 16.76C304.747 15.536 302.639 13.598 301.041 12.238L299.341 13.802ZM300.769 8.498C299.749 12.884 297.607 16.59 294.513 18.902C295.125 19.31 296.111 20.126 296.519 20.568C299.681 17.95 302.061 13.904 303.251 8.94L300.769 8.498ZM315.695 13.87C318.007 15.74 321.067 18.358 322.529 19.99L324.331 18.222C322.801 16.658 319.673 14.108 317.395 12.374L315.695 13.87ZM316.885 8.498C316.137 12.306 314.505 15.638 312.023 17.712C312.635 18.018 313.723 18.732 314.199 19.14C316.613 16.76 318.449 13.19 319.333 8.906L316.885 8.498ZM340.685 16.284H333.715V18.63H338.169V26.212H340.685V16.284ZM340.685 24.852H338.407C336.741 26.314 334.803 27.81 333.273 28.898L334.599 31.448C336.333 29.952 337.999 28.49 339.563 27.028C341.773 29.714 344.867 30.904 349.321 31.108C353.129 31.21 360.303 31.142 364.077 31.006C364.213 30.224 364.587 29.034 364.927 28.456C360.847 28.728 353.061 28.796 349.321 28.694C345.309 28.524 342.317 27.334 340.685 24.852ZM335.177 2.446C337.251 3.602 339.631 5.37 340.753 6.696L342.521 4.962C341.365 3.636 338.917 1.936 336.877 0.881999L335.177 2.446ZM333.851 9.382C336.027 10.436 338.543 12.17 339.733 13.462L341.501 11.66C340.243 10.334 337.659 8.702 335.551 7.716L333.851 9.382ZM342.657 6.118V8.022H364.723V6.118H342.657ZM345.309 14.244V16.08H362.309V14.244H345.309ZM345.309 10.232V12.068H362.309V10.232H345.309ZM345.785 2.038V3.874H361.935V2.038H345.785ZM347.519 20.228H360.031V24.24H347.519V20.228ZM345.173 18.358V26.11H362.445V18.358H345.173ZM383.525 2.514V31.72H385.905V4.792H400.967V31.448H403.415V2.514H383.525ZM387.299 9.722V11.728H399.811V9.722H387.299ZM384.817 27.402V29.68H402.327V27.402H384.817ZM392.467 5.88V16.658H394.541V5.88H392.467ZM390.699 17.372H396.445V22.642H390.699V17.372ZM388.727 15.468V24.58H398.485V15.468H388.727ZM379.989 0.609999C378.323 5.778 375.535 10.912 372.475 14.244C372.917 14.856 373.631 16.25 373.835 16.862C377.235 12.952 380.397 7.104 382.335 1.29L379.989 0.609999ZM377.167 8.94V31.788H379.581V6.56L379.547 6.526L377.167 8.94ZM433.301 0.439999V24.138H435.715V0.439999H433.301ZM422.591 14.482L423.577 16.726L441.869 8.94L440.917 6.764L422.591 14.482ZM426.263 3.636V26.348C426.263 30.054 427.419 30.972 431.329 30.972C432.179 30.972 438.775 30.972 439.693 30.972C443.263 30.972 444.079 29.476 444.487 24.784C443.773 24.648 442.787 24.24 442.175 23.832C441.937 27.742 441.597 28.66 439.591 28.66C438.231 28.66 432.519 28.66 431.397 28.66C429.119 28.66 428.711 28.252 428.711 26.382V3.636H426.263ZM440.475 7.104C440.475 13.87 440.441 18.698 440.237 19.582C440.067 20.364 439.727 20.5 439.217 20.5C438.843 20.5 437.721 20.5 436.939 20.466C437.245 21.044 437.449 21.996 437.551 22.676C438.469 22.676 439.829 22.676 440.747 22.438C441.733 22.2 442.379 21.554 442.583 20.194C442.821 18.868 442.923 13.768 442.923 7.376L443.025 6.9L441.223 6.22L440.781 6.594L440.169 7.104H440.475ZM413.105 8.634V11.048H423.917V8.634H413.105ZM417.491 0.847998V22.914H419.905V0.847998H417.491ZM412.799 23.798L413.819 26.314C416.845 25.022 420.687 23.288 424.325 21.554L423.781 19.276C419.735 21.01 415.553 22.778 412.799 23.798ZM453.259 6.322V8.77H483.689V6.322H453.259ZM464.377 14.38V16.828H477.977V14.38H464.377ZM477.059 14.38L477.025 14.822C476.447 24.138 475.767 27.946 474.679 28.932C474.305 29.272 473.829 29.306 473.081 29.306C472.197 29.306 469.783 29.306 467.335 29.068C467.811 29.782 468.185 30.836 468.219 31.584C470.531 31.686 472.775 31.754 473.965 31.686C475.257 31.584 476.107 31.346 476.889 30.53C478.215 29.17 478.895 25.396 479.575 15.604C479.643 15.23 479.677 14.38 479.677 14.38H477.059ZM463.799 7.682C463.425 15.808 462.847 25.294 452.919 29.782C453.565 30.292 454.381 31.21 454.755 31.856C465.125 26.892 466.111 16.692 466.621 7.682H463.799ZM467.029 0.371998V7.376H469.647V0.371998H467.029ZM509.801 9.62V12H523.911V9.62H509.801ZM492.699 7.682V9.858H510.175V7.682H492.699ZM493.923 15.128V17.27H508.917V15.128H493.923ZM494.841 20.738V22.88H508.237V20.738H494.841ZM517.825 0.677998V28.592C517.825 29.17 517.587 29.374 517.009 29.374C516.465 29.408 514.595 29.408 512.555 29.34C512.895 30.02 513.337 31.108 513.473 31.754C516.227 31.788 517.893 31.72 518.913 31.278C519.865 30.87 520.273 30.156 520.273 28.592V0.677998H517.825ZM510.889 15.434C512.249 17.95 513.541 21.214 513.881 23.254L516.159 22.438C515.819 20.364 514.493 17.168 513.031 14.686L510.889 15.434ZM493.039 2.242C494.093 3.874 495.079 6.05 495.419 7.478L497.391 6.56C497.017 5.166 495.997 3.058 494.875 1.46L493.039 2.242ZM495.521 10.606C496.337 12.034 497.085 14.006 497.289 15.23L499.431 14.448C499.193 13.224 498.411 11.354 497.561 9.926L495.521 10.606ZM498.037 0.609999V8.736H500.111V0.609999H498.037ZM500.213 15.808V28.082H502.627V15.808H500.213ZM502.729 0.609999V8.736H504.837V0.609999H502.729ZM492.801 27.844L493.175 30.258C497.527 29.646 503.919 28.796 509.903 27.912L509.835 25.668C503.613 26.518 497.051 27.334 492.801 27.844ZM508.067 1.256C507.489 2.888 506.299 5.302 505.381 6.73L507.149 7.512C508.101 6.118 509.325 3.976 510.345 2.14L508.067 1.256ZM505.177 9.858C504.769 11.252 503.919 13.326 503.239 14.584L505.279 15.162C505.959 13.972 506.809 12.17 507.523 10.504L505.177 9.858ZM535.165 3.704V6.05H540.367V20.33H535.165V22.71H542.747V3.704H535.165ZM533.669 3.704V25.974H536.049V3.704H533.669ZM545.739 2.65V26.314C545.739 30.156 546.963 31.074 550.771 31.074C551.655 31.074 558.183 31.074 559.101 31.074C562.671 31.074 563.487 29.51 563.895 24.852C563.181 24.716 562.161 24.308 561.549 23.866C561.277 27.742 560.937 28.694 558.999 28.694C557.639 28.694 551.961 28.694 550.873 28.694C548.629 28.694 548.255 28.286 548.255 26.348V2.65H545.739ZM546.963 2.65V5.03H560.053V20.534H562.535V2.65H546.963ZM546.895 16.012V18.358H560.971V16.012H546.895ZM552.879 3.5V16.76H555.225V3.5H552.879ZM576.169 32.638C579.739 31.414 582.051 28.626 582.051 24.954C582.051 22.574 581.031 21.01 579.127 21.01C577.767 21.01 576.543 21.86 576.543 23.458C576.543 25.09 577.699 25.906 579.093 25.906C579.739 25.906 580.419 25.736 580.895 25.124L579.059 22.54L579.705 25.43C579.705 27.98 578.175 29.714 575.387 30.87L576.169 32.638ZM617.241 2.854V5.302H639.239V2.854H617.241ZM617.241 10.776V13.19H639.205V10.776H617.241ZM617.071 18.902V21.316H639.273V18.902H617.071ZM615.813 2.854V15.162C615.813 19.956 615.439 26.008 611.699 30.224C612.243 30.564 613.263 31.414 613.671 31.924C617.717 27.402 618.329 20.364 618.329 15.196V2.854H615.813ZM638.219 2.854V28.252C638.219 28.898 637.981 29.102 637.335 29.136C636.689 29.136 634.377 29.17 631.963 29.068C632.337 29.748 632.745 30.87 632.847 31.55C636.077 31.584 638.049 31.55 639.205 31.142C640.327 30.7 640.735 29.918 640.735 28.252V2.854H638.219ZM626.489 3.772V31.414H629.073V3.772H626.489ZM665.351 19.752V21.724H677.829V19.752H665.351ZM665.351 24.138V26.076H677.829V24.138H665.351ZM664.229 15.366V31.754H666.575V17.406H677.863V15.366H664.229ZM670.213 6.084V11.864H672.253V7.818H677.795V6.084H670.213ZM676.911 15.366V29.17C676.911 29.578 676.775 29.714 676.299 29.748C675.823 29.748 674.225 29.748 672.491 29.68C672.797 30.292 673.103 31.176 673.239 31.754C675.653 31.754 677.183 31.754 678.101 31.38C679.053 31.04 679.325 30.428 679.325 29.17V15.366H676.911ZM660.829 10.878V16.658H663.175V12.952H680.209V16.658H682.657V10.878H660.829ZM664.331 1.698V12H666.677V3.738H676.809V12H679.223V1.698H664.331ZM653.451 2.582C655.627 3.602 658.245 5.234 659.537 6.458L660.999 4.384C659.707 3.194 657.021 1.664 654.879 0.745999L653.451 2.582ZM651.649 11.83C653.859 12.748 656.545 14.278 657.871 15.434L659.333 13.326C657.973 12.204 655.219 10.742 653.043 9.926L651.649 11.83ZM652.669 29.612L654.879 31.244C656.749 28.082 658.993 23.764 660.659 20.16L658.721 18.596C656.885 22.472 654.403 26.994 652.669 29.612ZM704.043 0.405999C702.105 1.324 698.705 2.31 695.747 2.922C696.019 3.432 696.359 4.214 696.461 4.724C699.623 4.146 703.295 3.228 705.947 2.14L704.043 0.405999ZM695.067 2.514V13.156H697.549V3.058L695.067 2.514ZM695.067 12.204V14.312H719.479V2.242H708.599V4.316H716.963V12.204H695.067ZM696.019 7.206V9.212H705.063V7.206H696.019ZM709.109 7.206V9.212H718.051V7.206H709.109ZM695.815 15.57V29.476L698.263 29V15.57H695.815ZM705.573 15.672V29.782L707.919 29.34V15.672H705.573ZM691.701 28.864L692.075 31.142C695.101 30.666 699.249 30.088 703.227 29.442L703.125 27.266C698.875 27.878 694.591 28.524 691.701 28.864ZM703.499 28.932L703.873 31.176C707.001 30.632 711.319 29.952 715.433 29.306L715.331 27.164C710.945 27.844 706.491 28.558 703.499 28.932ZM715.331 15.604C715.467 26.314 716.521 31.958 720.057 31.958C721.791 31.958 722.641 31.108 722.913 27.606C722.335 27.402 721.587 26.994 721.111 26.552C721.009 28.898 720.771 29.51 720.227 29.51C718.663 29.51 717.745 25.294 717.847 15.604H715.331ZM699.283 17.984C700.677 18.698 702.343 19.82 703.125 20.738L704.519 19.14C703.669 18.29 701.969 17.202 700.575 16.556L699.283 17.984ZM698.977 23.05C700.371 23.832 701.969 25.022 702.717 25.974L704.111 24.41C703.363 23.492 701.731 22.37 700.337 21.622L698.977 23.05ZM709.143 18.018C710.605 18.766 712.339 19.956 713.155 20.84L714.481 19.208C713.631 18.392 711.863 17.27 710.435 16.59L709.143 18.018ZM708.939 23.118C710.435 23.968 712.169 25.328 712.985 26.28L714.413 24.716C713.563 23.764 711.761 22.506 710.299 21.69L708.939 23.118ZM751.133 0.847998V8.158H753.683V0.847998H751.133ZM743.653 7.07V9.45H762.115V7.07H743.653ZM745.829 11.762C747.121 16.59 748.107 22.812 748.243 26.45L750.725 25.804C750.555 22.234 749.433 16.148 748.073 11.32L745.829 11.762ZM756.505 11.048C755.893 16.42 754.499 24.036 753.275 28.524L755.553 29C756.845 24.546 758.273 17.236 759.191 11.524L756.505 11.048ZM741.885 27.878V30.292H762.693V27.878H741.885ZM731.005 18.46L731.753 20.908C735.017 19.99 739.301 18.698 743.347 17.508L743.041 15.162C738.655 16.42 734.065 17.712 731.005 18.46ZM731.549 7.308V9.722H742.701V7.308H731.549ZM736.377 0.473998V28.762C736.377 29.272 736.173 29.442 735.697 29.442C735.255 29.442 733.793 29.442 732.195 29.408C732.501 30.088 732.875 31.142 732.977 31.754C735.323 31.754 736.717 31.686 737.635 31.278C738.485 30.904 738.859 30.224 738.859 28.762V0.473998H736.377ZM772.077 22.676V24.614H787.581V22.676H772.077ZM771.159 6.288V8.26H788.125V6.288H771.159ZM778.537 3.194V28.218H780.883V3.194H778.537ZM771.125 28.286L771.499 30.496C775.817 30.054 781.971 29.34 787.751 28.66L787.717 26.654C781.631 27.3 775.273 27.912 771.125 28.286ZM774.287 16.318H785.303V18.834H774.287V16.318ZM774.287 12.17H785.303V14.618H774.287V12.17ZM772.145 10.402V20.602H787.479V10.402H772.145ZM786.255 0.779999C782.753 1.596 776.565 2.208 771.499 2.48C771.771 2.99 772.009 3.84 772.111 4.384C777.211 4.214 783.535 3.636 787.547 2.752L786.255 0.779999ZM787.887 8.396V10.776H800.161V8.396H787.887ZM799.175 8.396V9.008C798.801 22.778 798.427 27.674 797.577 28.728C797.271 29.17 796.931 29.272 796.387 29.272C795.707 29.272 794.211 29.238 792.545 29.102C792.953 29.782 793.225 30.836 793.293 31.55C794.857 31.652 796.489 31.652 797.441 31.55C798.461 31.448 799.141 31.142 799.753 30.258C800.875 28.796 801.215 24.036 801.589 9.688C801.589 9.348 801.623 8.396 801.623 8.396H799.175ZM792.001 0.881999C791.967 13.734 792.137 24.512 784.351 30.088C784.963 30.496 785.847 31.312 786.255 31.924C794.381 25.838 794.415 14.414 794.449 0.881999H792.001ZM825.185 19.854V26.688H827.565V19.854H825.185ZM811.245 28.932V30.768H841.811V28.932H811.245ZM811.313 5.88V7.478H841.709V5.88H811.313ZM811.245 16.08V17.882H841.811V16.08H811.245ZM813.863 12.714V14.312H839.363V12.714H813.863ZM814.917 2.548V4.146H835.453V9.348H814.713V10.946H838.003V2.548H814.917ZM825.083 0.439999V16.794H827.667V0.439999H825.083ZM817.637 24.036H835.487V25.838H817.637V24.036ZM817.637 20.874H835.487V22.608H817.637V20.874ZM815.121 19.344V27.334H838.071V19.344H815.121ZM861.361 15.57V17.678H870.677V15.57H861.361ZM861.361 21.486V23.594H870.779V21.486H861.361ZM854.357 27.572V29.952H878.361V27.572H854.357ZM852.793 9.416V31.754H855.275V11.796H877.171V31.754H879.755V9.416H852.793ZM860.171 10.912V28.66H862.483V10.912H860.171ZM869.691 10.912V28.558H872.037V10.912H869.691ZM864.591 3.84C864.353 5.812 863.673 8.634 863.129 10.47L865.441 11.116C866.121 9.416 866.835 6.798 867.549 4.52L864.591 3.84ZM851.263 2.718V5.166H881.387V2.718H851.263ZM7.67 54.44V60.152H10.254V54.44H7.67ZM0.768 58.792V61.138H16.952V58.792H0.768ZM16.714 63.45V65.864H31.504V63.45H16.714ZM4.984 66H12.906V70.556H4.984V66ZM2.604 63.79V72.732H15.388V63.79H2.604ZM7.806 71.814V82.796C7.806 83.17 7.67 83.272 7.296 83.306C6.854 83.34 5.528 83.34 3.964 83.306C4.304 83.952 4.678 84.938 4.78 85.618C6.854 85.618 8.248 85.618 9.132 85.21C10.016 84.802 10.254 84.088 10.254 82.83V71.814H7.806ZM3.25 74.534C2.638 77.254 1.55 79.94 0.0880001 81.742C0.666 82.082 1.618 82.796 2.06 83.204C3.59 81.198 4.882 78.104 5.596 75.044L3.25 74.534ZM12.022 74.976C12.974 76.778 13.96 79.226 14.368 80.79L16.51 80.008C16.102 78.444 15.082 76.064 14.062 74.262L12.022 74.976ZM25.18 56.446C26.812 58.112 28.41 60.492 29.09 62.124L31.198 61.036C30.518 59.404 28.886 57.126 27.152 55.494L25.18 56.446ZM21.644 54.44V61.58C21.644 68.21 21.032 77.696 13.756 84.326C14.402 84.632 15.456 85.312 15.932 85.788C23.412 78.818 24.126 68.822 24.126 61.58V54.44H21.644ZM23.276 67.564V82.15C23.276 83.884 23.446 84.428 24.058 84.938C24.636 85.38 25.486 85.516 26.268 85.516C26.71 85.516 27.9 85.516 28.41 85.516C29.158 85.516 29.974 85.38 30.45 85.142C31.028 84.802 31.368 84.326 31.606 83.544C31.776 82.83 31.912 80.756 31.946 78.954C31.3 78.75 30.45 78.308 29.94 77.866C29.974 79.736 29.906 81.368 29.838 82.014C29.77 82.422 29.566 82.762 29.328 82.898C29.09 83.034 28.648 83.102 28.24 83.102C27.798 83.102 27.186 83.102 26.846 83.102C26.472 83.102 26.166 83.034 25.962 82.864C25.724 82.762 25.622 82.524 25.622 82.252V67.564H23.276ZM64.144 57.636V82.014C64.144 82.728 63.906 82.966 63.158 83C62.342 83.034 59.588 83.068 56.834 82.932C57.242 83.68 57.752 84.938 57.922 85.686C61.288 85.686 63.668 85.652 65.028 85.21C66.354 84.802 66.796 83.918 66.796 82.082V57.636H64.144ZM44.152 64.436V79.838H46.634V64.436H44.152ZM45.206 64.436V66.85H55.542V74.67H45.206V77.118H58.092V64.436H45.206ZM40.65 56.854V59.438H70.978V56.854H40.65ZM90.936 59.812C93.112 62.328 95.322 65.83 96.206 68.176L98.654 66.85C97.668 64.538 95.492 61.172 93.214 58.69L90.936 59.812ZM79.75 79.396L80.668 82.048C84.442 80.416 89.61 78.138 94.336 75.962L93.758 73.48C88.658 75.724 83.218 78.036 79.75 79.396ZM100.15 74.908C103.414 78.24 107.494 82.83 109.398 85.652L111.574 83.646C109.568 80.858 105.352 76.438 102.122 73.242L100.15 74.908ZM104.876 56.208C103.346 70.998 99.742 79.328 87.978 83.612C88.624 84.156 89.644 85.278 90.018 85.822C101.918 80.858 105.896 72.188 107.63 56.48L104.876 56.208ZM83.898 56.31L84.476 78.784L87.094 78.682L86.516 56.208L83.898 56.31ZM133.98 56.956V58.962H150.572V56.956H133.98ZM133.606 76.03V78.002H150.98V76.03H133.606ZM141.018 54.474V72.8H143.262V54.474H141.018ZM136.87 66.034H147.614V68.108H136.87V66.034ZM136.87 62.396H147.614V64.47H136.87V62.396ZM134.762 60.798V69.74H149.79V60.798H134.762ZM133.64 72.052L133.81 74.024C137.72 73.922 143.432 73.82 148.974 73.65L149.008 71.78C143.228 71.916 137.448 72.018 133.64 72.052ZM144.452 74.194V83.204C144.452 83.578 144.35 83.68 143.874 83.714C143.432 83.748 141.868 83.748 140.134 83.68C140.44 84.292 140.78 85.142 140.882 85.788C143.194 85.788 144.656 85.788 145.642 85.448C146.594 85.108 146.832 84.496 146.832 83.238V74.194H144.452ZM135.612 79.362C136.904 80.552 138.23 82.286 138.808 83.51L140.712 82.286C140.066 81.096 138.706 79.464 137.346 78.308L135.612 79.362ZM145.404 70.352C146.934 71.746 148.634 73.718 149.382 75.044L151.184 73.99C150.368 72.698 148.668 70.828 147.104 69.468L145.404 70.352ZM120.074 58.146V60.424H133.266V58.146H120.074ZM119.632 77.526V79.804H133.742V77.526H119.632ZM125.65 54.474V63.756H127.996V54.474H125.65ZM125.888 63.892V73.786H125.65V85.788H127.996V73.786H127.758V63.892H125.888ZM122.794 69.74H130.92V72.868H122.794V69.74ZM122.794 64.844H130.92V67.904H122.794V64.844ZM120.822 62.94V74.772H132.892V62.94H120.822ZM160.466 76.676V78.614H175.97V76.676H160.466ZM159.548 60.288V62.26H176.514V60.288H159.548ZM166.926 57.194V82.218H169.272V57.194H166.926ZM159.514 82.286L159.888 84.496C164.206 84.054 170.36 83.34 176.14 82.66L176.106 80.654C170.02 81.3 163.662 81.912 159.514 82.286ZM162.676 70.318H173.692V72.834H162.676V70.318ZM162.676 66.17H173.692V68.618H162.676V66.17ZM160.534 64.402V74.602H175.868V64.402H160.534ZM174.644 54.78C171.142 55.596 164.954 56.208 159.888 56.48C160.16 56.99 160.398 57.84 160.5 58.384C165.6 58.214 171.924 57.636 175.936 56.752L174.644 54.78ZM176.276 62.396V64.776H188.55V62.396H176.276ZM187.564 62.396V63.008C187.19 76.778 186.816 81.674 185.966 82.728C185.66 83.17 185.32 83.272 184.776 83.272C184.096 83.272 182.6 83.238 180.934 83.102C181.342 83.782 181.614 84.836 181.682 85.55C183.246 85.652 184.878 85.652 185.83 85.55C186.85 85.448 187.53 85.142 188.142 84.258C189.264 82.796 189.604 78.036 189.978 63.688C189.978 63.348 190.012 62.396 190.012 62.396H187.564ZM180.39 54.882C180.356 67.734 180.526 78.512 172.74 84.088C173.352 84.496 174.236 85.312 174.644 85.924C182.77 79.838 182.804 68.414 182.838 54.882H180.39ZM221.87 74.602V82.354C221.87 84.768 222.414 85.482 224.794 85.482C225.27 85.482 227.48 85.482 227.99 85.482C229.928 85.482 230.574 84.428 230.812 80.144C230.166 79.974 229.18 79.634 228.704 79.226C228.602 82.83 228.466 83.306 227.684 83.306C227.242 83.306 225.474 83.306 225.134 83.306C224.352 83.306 224.216 83.17 224.216 82.354V74.602H221.87ZM216.328 63.892H225.78V67.496H216.328V63.892ZM216.328 69.502H225.78V73.14H216.328V69.502ZM216.328 58.316H225.78V61.852H216.328V58.316ZM213.948 56.208V75.248H228.228V56.208H213.948ZM216.736 74.534C216.26 78.886 215.002 82.082 209.936 83.782C210.446 84.258 211.16 85.176 211.432 85.754C217.076 83.612 218.64 79.838 219.218 74.534H216.736ZM199.77 60.832V63.178H210.378V60.832H199.77ZM204.734 70.998V85.72H207.216V68.006L204.734 70.998ZM204.734 54.474V61.988H207.216V54.474H204.734ZM207.216 68.346L205.72 69.706C207.08 70.93 210.174 74.194 211.33 75.724L212.894 73.582C212.01 72.698 208.304 69.23 207.216 68.346ZM209.528 60.832V61.376C207.556 66.544 202.932 71.712 198.546 74.432C198.954 74.874 199.6 76.064 199.838 76.71C204.496 73.582 209.494 67.904 211.908 61.682L210.48 60.73L210.038 60.832H209.528ZM245.568 62.226V64.538H266.104V62.226H245.568ZM245.568 69.026V71.236H265.696V69.026H245.568ZM244.99 75.996V78.24H265.832V75.996H244.99ZM244.174 62.226V70.726C244.174 75.078 243.63 80.348 238.802 84.088C239.312 84.462 240.23 85.38 240.57 85.89C245.772 81.844 246.656 75.588 246.656 70.76V62.226H244.174ZM264.744 62.226V82.49C264.744 83.136 264.54 83.34 263.792 83.34C263.01 83.408 260.358 83.408 257.638 83.306C258.012 83.986 258.488 85.108 258.624 85.788C262.058 85.788 264.302 85.754 265.594 85.346C266.852 84.972 267.294 84.156 267.294 82.49V62.226H264.744ZM254.204 63.178V77.118H256.618V63.178H254.204ZM248.798 56.446V58.622H259.508V56.446H248.798ZM249.138 54.372C247.404 57.772 244.174 61.988 239.584 65.082C240.196 65.456 241.012 66.306 241.42 66.918C246.248 63.416 249.648 58.894 251.892 54.848L249.138 54.372ZM258.658 56.446V56.922C257.876 58.724 256.278 61.342 254.85 62.872C255.394 63.178 256.21 63.688 256.686 64.062C258.25 62.396 260.188 59.744 261.344 57.466L259.644 56.344L259.202 56.446H258.658ZM282.798 86.638C286.368 85.414 288.68 82.626 288.68 78.954C288.68 76.574 287.66 75.01 285.756 75.01C284.396 75.01 283.172 75.86 283.172 77.458C283.172 79.09 284.328 79.906 285.722 79.906C286.368 79.906 287.048 79.736 287.524 79.124L285.688 76.54L286.334 79.43C286.334 81.98 284.804 83.714 282.016 84.87L282.798 86.638ZM318.362 72.46L319.11 74.908C322.374 73.99 326.658 72.698 330.636 71.508L330.33 69.162C326.012 70.42 321.422 71.712 318.362 72.46ZM318.77 61.308V63.722H330.296V61.308H318.77ZM323.666 54.474V82.49C323.666 82.966 323.462 83.136 322.986 83.136C322.544 83.136 321.082 83.17 319.484 83.102C319.79 83.782 320.164 84.836 320.266 85.482C322.612 85.482 324.006 85.414 324.924 85.006C325.774 84.632 326.148 83.918 326.148 82.49V54.474H323.666ZM330.704 64.062L330.976 66.51L349.234 64.538L348.962 62.158L330.704 64.062ZM340.19 56.548C341.856 58.044 343.896 60.186 344.78 61.614L346.82 60.152C345.868 58.758 343.828 56.684 342.128 55.256L340.19 56.548ZM335.294 54.576C336.11 71.916 338.796 85.006 346.378 85.584C348.112 85.686 349.472 83.986 350.254 78.444C349.71 78.206 348.588 77.56 348.078 77.05C347.738 80.79 347.194 82.66 346.276 82.592C341.21 82.082 338.456 69.842 337.878 54.576H335.294ZM345.392 67.19C342.57 73.616 336.45 79.872 329.684 82.558C330.398 83.068 331.214 83.884 331.69 84.564C338.32 81.572 344.44 75.146 347.5 68.482L345.392 67.19ZM358.142 72.46L358.89 74.908C362.154 73.99 366.438 72.698 370.416 71.508L370.11 69.162C365.792 70.42 361.202 71.712 358.142 72.46ZM358.55 61.308V63.722H370.076V61.308H358.55ZM363.446 54.474V82.49C363.446 82.966 363.242 83.136 362.766 83.136C362.324 83.136 360.862 83.17 359.264 83.102C359.57 83.782 359.944 84.836 360.046 85.482C362.392 85.482 363.786 85.414 364.704 85.006C365.554 84.632 365.928 83.918 365.928 82.49V54.474H363.446ZM370.484 64.062L370.756 66.51L389.014 64.538L388.742 62.158L370.484 64.062ZM379.97 56.548C381.636 58.044 383.676 60.186 384.56 61.614L386.6 60.152C385.648 58.758 383.608 56.684 381.908 55.256L379.97 56.548ZM375.074 54.576C375.89 71.916 378.576 85.006 386.158 85.584C387.892 85.686 389.252 83.986 390.034 78.444C389.49 78.206 388.368 77.56 387.858 77.05C387.518 80.79 386.974 82.66 386.056 82.592C380.99 82.082 378.236 69.842 377.658 54.576H375.074ZM385.172 67.19C382.35 73.616 376.23 79.872 369.464 82.558C370.178 83.068 370.994 83.884 371.47 84.564C378.1 81.572 384.22 75.146 387.28 68.482L385.172 67.19ZM405.606 69.57V85.822H408.054V71.61H422.878V85.822H425.428V69.57H405.606ZM398.772 65.082V67.19H428.794V65.082H398.772ZM401.254 60.526V62.566H426.822V60.526H401.254ZM407.272 73.922V75.724H423.966V73.922H407.272ZM407.272 78.138V79.906H423.966V78.138H407.272ZM407.034 82.422V84.462H423.966V82.422H407.034ZM424.85 54.712C419.444 55.834 409.074 56.31 400.778 56.378C401.016 56.922 401.254 57.806 401.322 58.384C409.72 58.35 420.158 57.84 426.482 56.582L424.85 54.712ZM410.91 57.058C409.108 64.572 405.13 72.018 397.922 76.166C398.432 76.642 399.18 77.594 399.52 78.138C407.136 73.616 411.284 65.83 413.562 57.602L410.91 57.058ZM460.482 56.684C462.488 58.452 464.8 60.9 465.82 62.532L467.928 61.036C466.806 59.472 464.426 57.058 462.42 55.358L460.482 56.684ZM438.45 64.504V66.952H468.744V64.504H438.45ZM437.94 74.5L438.688 77.05C442.972 76.098 448.99 74.704 454.566 73.412L454.362 71.1C448.378 72.392 441.986 73.752 437.94 74.5ZM445.76 57.908V82.422C445.76 83.034 445.556 83.204 444.944 83.204C444.332 83.238 442.326 83.272 440.15 83.17C440.524 83.918 440.966 85.074 441.102 85.754C443.924 85.788 445.726 85.686 446.814 85.278C447.902 84.87 448.31 84.122 448.31 82.456V57.908H445.76ZM452.22 54.848C448.956 56.072 443.448 57.228 438.654 57.976C438.994 58.554 439.3 59.506 439.436 60.084C444.298 59.404 450.078 58.35 454.022 56.99L452.22 54.848ZM455.62 54.746C455.756 70.93 458.782 85.856 465.446 85.856C467.996 85.856 468.914 84.19 469.39 78.546C468.676 78.274 467.758 77.696 467.214 77.118C467.01 81.504 466.602 83.272 465.684 83.272C461.536 83.272 458.204 70.352 458.272 54.746H455.62ZM464.834 68.516C461.808 74.262 456.198 79.498 450.146 82.422C450.792 83 451.506 83.816 451.914 84.462C458.17 81.164 463.78 75.69 467.112 69.468L464.834 68.516ZM478.468 59.71V62.192H508.252V59.71H478.468ZM489.008 70.488V72.868H506.926V70.488H489.008ZM487.682 82.524V84.938H508.252V82.524H487.682ZM496.692 63.926V83.816H499.242V63.926H496.692ZM489.654 54.44C487.75 61.444 483.772 68.992 477.652 73.31C478.06 73.888 478.706 74.976 478.978 75.656C485.744 70.794 489.892 62.872 492.272 55.086L489.654 54.44ZM482.922 68.448V85.618H485.472V68.448H482.922ZM519.914 56.82V59.166H524.028V74.806H519.914V77.118H526.102V56.82H519.914ZM518.554 56.82V79.906H520.628V56.82H518.554ZM527.156 56.106V58.316H536.2V56.106H527.156ZM527.564 64.164V66.374H538.376V64.164H527.564ZM527.292 72.324V74.5H538.41V72.324H527.292ZM535.112 56.106V56.752C535.078 75.554 534.976 81.64 534.364 82.762C534.092 83.34 533.854 83.442 533.412 83.408C532.868 83.408 531.814 83.408 530.59 83.34C530.93 83.986 531.134 84.972 531.168 85.618C532.392 85.686 533.514 85.686 534.364 85.584C535.214 85.448 535.792 85.21 536.336 84.258C537.186 82.762 537.186 76.744 537.254 57.398C537.288 57.092 537.288 56.106 537.288 56.106H535.112ZM530.114 57.16V66.17C530.114 71.678 529.672 78.988 525.184 84.224C525.626 84.53 526.442 85.346 526.714 85.822C531.576 80.28 532.256 72.018 532.256 66.204V57.16H530.114ZM539.532 56.106V85.754H541.742V58.248H546.808V56.106H539.532ZM546.162 56.106V56.854C545.482 59.438 544.292 64.232 543.102 67.768C545.448 70.828 545.958 73.446 545.958 75.588C545.958 76.812 545.822 77.934 545.312 78.342C545.04 78.58 544.7 78.716 544.326 78.716C543.85 78.75 543.272 78.75 542.592 78.682C542.966 79.328 543.136 80.28 543.17 80.892C543.85 80.926 544.564 80.892 545.176 80.824C545.822 80.756 546.4 80.552 546.842 80.212C547.76 79.498 548.1 77.9 548.1 75.894C548.066 73.48 547.556 70.726 545.21 67.53C546.298 64.402 547.556 60.186 548.474 56.922L546.876 56.038L546.57 56.106H546.162ZM568.262 82.32V84.7H588.594V82.32H568.262ZM570.302 74.908V77.22H587.506V74.908H570.302ZM577.646 57.024V83.952H580.06V57.024H577.646ZM572.852 64.606H584.888V68.72H572.852V64.606ZM572.852 58.452H584.888V62.498H572.852V58.452ZM570.472 56.208V70.964H587.336V56.208H570.472ZM562.244 71.134V85.754H564.692V68.244L562.244 71.134ZM557.722 60.832V63.144H567.378V60.832H557.722ZM562.142 54.644V62.158H564.556V54.644H562.142ZM564.42 68.686L563.094 69.808C564.216 71.1 567.106 74.84 568.092 76.472L569.622 74.738C568.84 73.718 565.406 69.638 564.42 68.686ZM566.562 60.832V61.342C564.794 66.578 560.68 72.052 556.804 74.976C557.178 75.418 557.824 76.574 558.096 77.22C562.244 73.854 566.698 67.87 568.908 61.58L567.514 60.73L567.072 60.832H566.562ZM568.636 67.224C567.956 68.516 566.63 70.42 565.678 71.542L566.936 72.528C567.922 71.474 569.18 69.842 570.234 68.38L568.636 67.224ZM600.46 75.248C600.46 74.3867 600.539 73.65 600.698 73.038C600.879 72.4033 601.174 71.8027 601.582 71.236C602.013 70.6693 602.591 70.08 603.316 69.468C604.2 68.72 604.88 68.0967 605.356 67.598C605.855 67.0993 606.206 66.612 606.41 66.136C606.614 65.66 606.716 65.082 606.716 64.402C606.716 63.314 606.365 62.4753 605.662 61.886C604.959 61.2967 603.939 61.002 602.602 61.002C601.491 61.002 600.505 61.1493 599.644 61.444C598.783 61.716 597.955 62.0447 597.162 62.43L596.108 60.05C597.015 59.574 598.012 59.1773 599.1 58.86C600.211 58.5427 601.446 58.384 602.806 58.384C604.959 58.384 606.625 58.9167 607.804 59.982C608.983 61.0473 609.572 62.498 609.572 64.334C609.572 65.354 609.402 66.2267 609.062 66.952C608.745 67.6547 608.28 68.312 607.668 68.924C607.079 69.5133 606.376 70.148 605.56 70.828C604.812 71.4627 604.234 72.018 603.826 72.494C603.441 72.97 603.18 73.446 603.044 73.922C602.908 74.3753 602.84 74.9307 602.84 75.588V76.166H600.46V75.248ZM599.678 81.164C599.678 80.3253 599.871 79.736 600.256 79.396C600.664 79.056 601.174 78.886 601.786 78.886C602.353 78.886 602.84 79.056 603.248 79.396C603.656 79.736 603.86 80.3253 603.86 81.164C603.86 81.98 603.656 82.5693 603.248 82.932C602.84 83.2947 602.353 83.476 601.786 83.476C601.174 83.476 600.664 83.2947 600.256 82.932C599.871 82.5693 599.678 81.98 599.678 81.164Z" fill="#276A70"/>
</svg>
