<svg width="408" height="138" viewBox="0 0 408 138" fill="none" xmlns="http://www.w3.org/2000/svg">
<path d="M2.278 6.594V9.076H31.62V6.594H2.278ZM11.39 15.604V18.052H30.736V15.604H11.39ZM7.888 28.286V30.734H32.232V28.286H7.888ZM19.04 16.692V29.68H21.624V16.692H19.04ZM12.546 0.473998C11.05 10.3 8.058 21.282 0.952 27.674C1.462 28.184 2.278 29.102 2.652 29.68C10.234 22.71 13.362 11.388 15.198 0.813998L12.546 0.473998ZM43.52 2.956V5.54H73.78V2.956H43.52ZM56.61 4.996V31.686H59.296V4.996H56.61ZM58.106 13.054C62.22 15.162 67.524 18.392 70.142 20.5L71.944 18.188C69.224 16.148 63.852 13.054 59.772 11.082L58.106 13.054ZM91.188 8.226V10.538H111.724V8.226H91.188ZM91.188 15.026V17.236H111.316V15.026H91.188ZM90.61 21.996V24.24H111.452V21.996H90.61ZM89.794 8.226V16.726C89.794 21.078 89.25 26.348 84.422 30.088C84.932 30.462 85.85 31.38 86.19 31.89C91.392 27.844 92.276 21.588 92.276 16.76V8.226H89.794ZM110.364 8.226V28.49C110.364 29.136 110.16 29.34 109.412 29.34C108.63 29.408 105.978 29.408 103.258 29.306C103.632 29.986 104.108 31.108 104.244 31.788C107.678 31.788 109.922 31.754 111.214 31.346C112.472 30.972 112.914 30.156 112.914 28.49V8.226H110.364ZM99.824 9.178V23.118H102.238V9.178H99.824ZM94.418 2.446V4.622H105.128V2.446H94.418ZM94.758 0.371998C93.024 3.772 89.794 7.988 85.204 11.082C85.816 11.456 86.632 12.306 87.04 12.918C91.868 9.416 95.268 4.894 97.512 0.847998L94.758 0.371998ZM104.278 2.446V2.922C103.496 4.724 101.898 7.342 100.47 8.872C101.014 9.178 101.83 9.688 102.306 10.062C103.87 8.396 105.808 5.744 106.964 3.466L105.264 2.344L104.822 2.446H104.278ZM148.852 2.684C150.858 4.452 153.17 6.9 154.19 8.532L156.298 7.036C155.176 5.472 152.796 3.058 150.79 1.358L148.852 2.684ZM126.82 10.504V12.952H157.114V10.504H126.82ZM126.31 20.5L127.058 23.05C131.342 22.098 137.36 20.704 142.936 19.412L142.732 17.1C136.748 18.392 130.356 19.752 126.31 20.5ZM134.13 3.908V28.422C134.13 29.034 133.926 29.204 133.314 29.204C132.702 29.238 130.696 29.272 128.52 29.17C128.894 29.918 129.336 31.074 129.472 31.754C132.294 31.788 134.096 31.686 135.184 31.278C136.272 30.87 136.68 30.122 136.68 28.456V3.908H134.13ZM140.59 0.847998C137.326 2.072 131.818 3.228 127.024 3.976C127.364 4.554 127.67 5.506 127.806 6.084C132.668 5.404 138.448 4.35 142.392 2.99L140.59 0.847998ZM143.99 0.745999C144.126 16.93 147.152 31.856 153.816 31.856C156.366 31.856 157.284 30.19 157.76 24.546C157.046 24.274 156.128 23.696 155.584 23.118C155.38 27.504 154.972 29.272 154.054 29.272C149.906 29.272 146.574 16.352 146.642 0.745999H143.99ZM153.204 14.516C150.178 20.262 144.568 25.498 138.516 28.422C139.162 29 139.876 29.816 140.284 30.462C146.54 27.164 152.15 21.69 155.482 15.468L153.204 14.516ZM182.308 21.996V31.72H184.824V21.996H182.308ZM170.884 24.274V31.176H173.366V26.144H195.398V24.274H170.884ZM194.446 24.274V28.728C194.446 29.102 194.31 29.204 193.8 29.238C193.29 29.272 191.658 29.272 189.686 29.204C190.026 29.782 190.4 30.496 190.536 31.142C193.018 31.142 194.65 31.142 195.67 30.836C196.656 30.496 196.928 29.918 196.928 28.728V24.274H194.446ZM183.872 3.5V5.472H198.832V3.5H183.872ZM169.966 2.31V3.772H182.614V2.31H169.966ZM169.456 8.498V9.994H183.022V8.498H169.456ZM168.742 5.37V6.9H183.634V5.37H168.742ZM185.47 7.002C186.728 8.192 188.054 9.926 188.632 11.116L190.434 10.028C189.822 8.872 188.428 7.206 187.17 6.05L185.47 7.002ZM168.538 12.306L168.742 14.074C172.686 13.734 178.296 13.224 183.736 12.714L183.77 11.15C178.092 11.626 172.346 12.068 168.538 12.306ZM192.746 0.507998V11.456C192.746 11.83 192.644 11.966 192.168 11.966C191.794 11.966 190.4 11.966 188.768 11.966C189.108 12.476 189.516 13.258 189.652 13.836C191.76 13.836 193.086 13.836 194.004 13.496C194.888 13.156 195.16 12.646 195.16 11.49V0.507998H192.746ZM174.998 0.473998V6.39H177.378V0.473998H174.998ZM174.998 6.39V12.782H177.378V6.39H174.998ZM174.794 19.48H192.678V21.044H174.794V19.48ZM174.794 16.454H192.678V17.95H174.794V16.454ZM172.482 14.856V22.608H195.058V14.856H172.482ZM183.124 12.476C182.886 13.224 182.342 14.414 181.968 15.264L183.906 15.774C184.348 15.06 184.926 14.074 185.504 13.02L183.124 12.476ZM224.06 0.609999C222.938 5.608 220.966 10.504 218.45 13.666C219.028 14.04 220.048 14.856 220.49 15.298C223.108 11.83 225.25 6.594 226.576 1.154L224.06 0.609999ZM223.482 15.026C222.53 19.106 220.898 23.152 218.79 25.77C219.402 26.076 220.49 26.756 221 27.164C223.074 24.308 224.91 19.99 225.964 15.536L223.482 15.026ZM223.754 7.002L222.768 9.382H239.054V7.002H223.754ZM229.024 7.988V28.626C229.024 29.068 228.888 29.204 228.446 29.204C227.97 29.204 226.508 29.238 224.91 29.17C225.284 29.918 225.658 31.04 225.828 31.754C227.936 31.754 229.398 31.686 230.316 31.244C231.268 30.836 231.574 30.088 231.574 28.626V7.988H229.024ZM234.022 15.536C235.892 19.106 237.592 23.9 238.136 27.028L240.55 26.212C239.972 23.05 238.272 18.358 236.3 14.788L234.022 15.536ZM238.306 7.002V7.376C237.966 9.62 237.524 12.476 237.15 14.176L239.36 14.584C239.802 12.748 240.38 9.824 240.856 7.308L239.088 6.934L238.646 7.002H238.306ZM217.226 0.575999C215.322 5.744 212.126 10.844 208.76 14.142C209.236 14.72 209.95 16.08 210.222 16.658C213.894 12.85 217.396 7.104 219.64 1.324L217.226 0.575999ZM213.69 9.348V31.686H216.138V6.968L216.07 6.934L213.69 9.348ZM253.776 2.378C255.646 3.126 258.026 4.35 259.216 5.2L260.576 3.228C259.352 2.378 256.938 1.256 255.068 0.643998L253.776 2.378ZM251.226 8.056C253.13 8.702 255.544 9.79 256.802 10.572L258.06 8.566C256.802 7.818 254.354 6.832 252.484 6.254L251.226 8.056ZM252.212 18.868L253.98 20.84C256.088 18.63 258.332 15.978 260.27 13.598L258.91 11.898C256.7 14.448 254.014 17.236 252.212 18.868ZM265.438 19.922V31.754H268.056V19.922H265.438ZM251.668 22.744V25.056H282.234V22.744H251.668ZM265.132 0.303999C263.602 3.67 260.984 6.934 258.196 9.042C258.808 9.45 259.794 10.334 260.202 10.81C262.99 8.43 265.812 4.792 267.58 1.018L265.132 0.303999ZM262.514 6.356V18.358H264.996V4.248L262.514 6.356ZM264.044 4.18L262.786 6.288H280.704V4.18H264.044ZM262.514 17.61V19.718H281.622V17.61H262.514ZM263.534 8.77V10.674H279.684V8.77H263.534ZM263.534 13.122V15.06H279.786V13.122H263.534ZM270.504 4.996V18.426H272.952V4.996H270.504ZM272.306 0.473998C271.796 1.834 270.844 3.84 269.994 5.132L272.102 5.676C272.986 4.486 274.074 2.684 275.06 0.983998L272.306 0.473998ZM307.53 0.745999V8.702H309.944V0.745999H307.53ZM316.302 0.745999V8.702H318.75V0.745999H316.302ZM314.024 15.366V31.55H316.132V15.366H314.024ZM302.022 3.636V5.88H324.088V3.636H302.022ZM308.312 19.548V21.384H321.844V19.548H308.312ZM308.312 24.308V26.11H321.844V24.308H308.312ZM303.722 9.892V12.136H324.224V9.892H303.722ZM302.6 9.892V17.202C302.6 21.044 302.362 26.348 299.914 30.156C300.458 30.462 301.444 31.278 301.818 31.72C304.504 27.606 304.98 21.486 304.98 17.236V9.892H302.6ZM307.02 14.652V31.72H309.23V16.59H322.184V14.652H307.02ZM321.13 14.652V29.238C321.13 29.612 321.028 29.714 320.62 29.748C320.246 29.782 319.056 29.782 317.594 29.748C317.9 30.326 318.138 31.176 318.24 31.754C320.246 31.754 321.538 31.72 322.354 31.38C323.17 31.006 323.374 30.394 323.374 29.238V14.652H321.13ZM299.438 0.643998C297.806 5.88 295.12 11.116 292.128 14.516C292.57 15.162 293.25 16.522 293.488 17.134C296.854 13.156 299.88 7.172 301.818 1.29L299.438 0.643998ZM296.718 8.974V31.72H299.132V6.696L299.064 6.628L296.718 8.974ZM348.908 12.034V28.388C348.908 29 348.67 29.204 347.922 29.238C347.14 29.272 344.522 29.272 341.7 29.17C342.108 29.918 342.584 31.006 342.754 31.754C346.188 31.754 348.466 31.72 349.792 31.312C351.118 30.938 351.56 30.156 351.56 28.456V12.034H348.908ZM336.532 3.126V5.608H361.08V3.126H336.532ZM360.162 3.126V3.738C358.02 6.56 353.532 10.47 349.656 12.612C350.2 12.986 351.016 13.836 351.39 14.38C355.606 12 360.4 7.988 363.426 4.384L361.454 2.956L360.842 3.126H360.162ZM376.346 14.346V17.134H407.456V14.346H376.346ZM5.712 73.942V76.39H28.662V73.942H5.712ZM1.904 81.388V83.904H32.096V81.388H1.904ZM10.2 59.288V61.6H16.864V59.288H10.2ZM18.666 53.474V66.836C18.666 69.862 19.516 70.712 22.78 70.712C23.46 70.712 27.812 70.712 28.56 70.712C31.382 70.712 32.13 69.42 32.47 64.83C31.722 64.66 30.668 64.252 30.09 63.81C29.954 67.618 29.716 68.298 28.356 68.298C27.404 68.298 23.732 68.298 23.018 68.298C21.454 68.298 21.216 68.06 21.216 66.836V53.474H18.666ZM1.394 69.216L1.7 71.732C5.78 71.222 11.594 70.474 17.136 69.726L17.068 67.38C11.288 68.094 5.304 68.808 1.394 69.216ZM28.798 56.806C26.588 58.2 22.712 59.764 19.312 60.852C19.652 61.396 19.992 62.28 20.162 62.858C23.766 61.77 27.88 60.308 30.838 58.778L28.798 56.806ZM9.078 53.474V69.318L11.56 69.046V53.474H9.078ZM3.672 57.18V69.896L6.018 69.658V57.18H3.672ZM45.186 57.282V59.934H72.25V57.282H45.186ZM43.384 79.586V82.136H73.95V79.586H43.384ZM57.12 58.608V80.64H59.976V58.608H57.12ZM92.616 62.076H108.188V65.306H92.616V62.076ZM92.616 67.244H108.188V70.508H92.616V67.244ZM92.616 56.908H108.188V60.138H92.616V56.908ZM90.1 54.868V72.548H110.806V54.868H90.1ZM85.204 74.894V77.274H115.396V74.894H85.204ZM103.122 80.062C106.964 81.49 110.942 83.326 113.322 84.72L115.77 82.986C113.152 81.592 108.868 79.756 104.958 78.362L103.122 80.062ZM95.234 78.192C92.956 79.79 88.536 81.694 85.034 82.748C85.612 83.292 86.394 84.176 86.802 84.72C90.27 83.564 94.656 81.66 97.546 79.824L95.234 78.192ZM130.288 85.638C133.858 84.414 136.17 81.626 136.17 77.954C136.17 75.574 135.15 74.01 133.246 74.01C131.886 74.01 130.662 74.86 130.662 76.458C130.662 78.09 131.818 78.906 133.212 78.906C133.858 78.906 134.538 78.736 135.014 78.124L133.178 75.54L133.824 78.43C133.824 80.98 132.294 82.714 129.506 83.87L130.288 85.638ZM175.27 53.44V59.152H177.854V53.44H175.27ZM168.368 57.792V60.138H184.552V57.792H168.368ZM184.314 62.45V64.864H199.104V62.45H184.314ZM172.584 65H180.506V69.556H172.584V65ZM170.204 62.79V71.732H182.988V62.79H170.204ZM175.406 70.814V81.796C175.406 82.17 175.27 82.272 174.896 82.306C174.454 82.34 173.128 82.34 171.564 82.306C171.904 82.952 172.278 83.938 172.38 84.618C174.454 84.618 175.848 84.618 176.732 84.21C177.616 83.802 177.854 83.088 177.854 81.83V70.814H175.406ZM170.85 73.534C170.238 76.254 169.15 78.94 167.688 80.742C168.266 81.082 169.218 81.796 169.66 82.204C171.19 80.198 172.482 77.104 173.196 74.044L170.85 73.534ZM179.622 73.976C180.574 75.778 181.56 78.226 181.968 79.79L184.11 79.008C183.702 77.444 182.682 75.064 181.662 73.262L179.622 73.976ZM192.78 55.446C194.412 57.112 196.01 59.492 196.69 61.124L198.798 60.036C198.118 58.404 196.486 56.126 194.752 54.494L192.78 55.446ZM189.244 53.44V60.58C189.244 67.21 188.632 76.696 181.356 83.326C182.002 83.632 183.056 84.312 183.532 84.788C191.012 77.818 191.726 67.822 191.726 60.58V53.44H189.244ZM190.876 66.564V81.15C190.876 82.884 191.046 83.428 191.658 83.938C192.236 84.38 193.086 84.516 193.868 84.516C194.31 84.516 195.5 84.516 196.01 84.516C196.758 84.516 197.574 84.38 198.05 84.142C198.628 83.802 198.968 83.326 199.206 82.544C199.376 81.83 199.512 79.756 199.546 77.954C198.9 77.75 198.05 77.308 197.54 76.866C197.574 78.736 197.506 80.368 197.438 81.014C197.37 81.422 197.166 81.762 196.928 81.898C196.69 82.034 196.248 82.102 195.84 82.102C195.398 82.102 194.786 82.102 194.446 82.102C194.072 82.102 193.766 82.034 193.562 81.864C193.324 81.762 193.222 81.524 193.222 81.252V66.564H190.876ZM224.264 53.508C222.87 56.16 220.32 59.492 216.818 61.974C217.43 62.28 218.246 62.926 218.688 63.436C222.326 60.614 224.944 57.112 226.746 53.95L224.264 53.508ZM224.434 55.65L222.87 57.622H232.662V55.65H224.434ZM222.02 62.042H237.116V65.884H222.02V62.042ZM219.674 60.138V67.754H239.598V60.138H219.674ZM228.276 60.92V66.7H230.588V60.92H228.276ZM228.412 66.088C225.93 68.332 221.476 70.304 217.6 71.46C218.076 71.902 218.756 72.786 219.096 73.228C222.972 71.834 227.63 69.488 230.418 66.904L228.412 66.088ZM224.842 69.726C230.452 73.942 230.622 80.572 228.582 82.034C227.97 82.544 227.358 82.612 226.508 82.612C225.828 82.612 224.808 82.578 223.72 82.476C224.128 83.122 224.332 84.074 224.332 84.686C225.318 84.754 226.27 84.754 226.984 84.754C228.344 84.72 229.262 84.516 230.248 83.7C233.172 81.524 233.002 73.33 226.508 68.638L224.842 69.726ZM227.868 71.086C225.726 73.058 221.272 75.336 217.872 76.288C218.382 76.764 218.926 77.512 219.198 78.056C222.666 76.764 227.086 74.282 229.432 72.14L227.868 71.086ZM229.636 74.724C227.052 77.546 221.578 80.606 217.26 81.966C217.77 82.442 218.348 83.258 218.654 83.87C223.074 82.204 228.48 78.906 231.336 75.948L229.636 74.724ZM238.782 68.808C237.388 70.202 234.906 72.174 233.138 73.262L234.634 74.656C236.436 73.568 238.816 71.868 240.584 70.304L238.782 68.808ZM232.186 66.462L230.078 66.87C231.642 74.078 234.668 80.232 239.428 83.258C239.802 82.612 240.584 81.728 241.128 81.252C236.606 78.668 233.614 72.888 232.186 66.462ZM231.846 55.65V56.092C231.234 57.418 230.01 59.254 228.922 60.376C229.364 60.716 230.044 61.43 230.384 61.872C231.71 60.546 233.342 58.472 234.396 56.568L232.832 55.48L232.39 55.65H231.846ZM216.138 53.644C214.506 58.88 211.82 64.116 208.828 67.516C209.27 68.162 209.95 69.522 210.188 70.134C213.554 66.156 216.58 60.172 218.518 54.29L216.138 53.644ZM213.418 61.974V84.72H215.832V59.696L215.764 59.628L213.418 61.974ZM265.71 53.61C264.588 58.608 262.616 63.504 260.1 66.666C260.678 67.04 261.698 67.856 262.14 68.298C264.758 64.83 266.9 59.594 268.226 54.154L265.71 53.61ZM265.132 68.026C264.18 72.106 262.548 76.152 260.44 78.77C261.052 79.076 262.14 79.756 262.65 80.164C264.724 77.308 266.56 72.99 267.614 68.536L265.132 68.026ZM265.404 60.002L264.418 62.382H280.704V60.002H265.404ZM270.674 60.988V81.626C270.674 82.068 270.538 82.204 270.096 82.204C269.62 82.204 268.158 82.238 266.56 82.17C266.934 82.918 267.308 84.04 267.478 84.754C269.586 84.754 271.048 84.686 271.966 84.244C272.918 83.836 273.224 83.088 273.224 81.626V60.988H270.674ZM275.672 68.536C277.542 72.106 279.242 76.9 279.786 80.028L282.2 79.212C281.622 76.05 279.922 71.358 277.95 67.788L275.672 68.536ZM279.956 60.002V60.376C279.616 62.62 279.174 65.476 278.8 67.176L281.01 67.584C281.452 65.748 282.03 62.824 282.506 60.308L280.738 59.934L280.296 60.002H279.956ZM258.876 53.576C256.972 58.744 253.776 63.844 250.41 67.142C250.886 67.72 251.6 69.08 251.872 69.658C255.544 65.85 259.046 60.104 261.29 54.324L258.876 53.576ZM255.34 62.348V84.686H257.788V59.968L257.72 59.934L255.34 62.348ZM293.692 57.86V60.274H323.476V57.86H293.692ZM301.988 69.998V72.208H317.968V69.998H301.988ZM300.186 64.218V84.72H302.702V66.496H317.56V64.218H300.186ZM316.982 64.218V81.524C316.982 82.034 316.778 82.204 316.2 82.238C315.588 82.238 313.514 82.272 311.236 82.17C311.61 82.884 311.984 83.938 312.086 84.652C315.01 84.652 316.914 84.652 318.002 84.244C319.158 83.836 319.464 83.054 319.464 81.558V64.218H316.982ZM304.81 53.44C302.974 60.274 298.962 67.482 292.876 71.664C293.386 72.174 294.168 73.058 294.508 73.636C301.002 69.08 305.082 61.532 307.394 54.052L304.81 53.44ZM301.988 75.744V77.954H317.968V75.744H301.988ZM337.756 54.834V56.874H362.61V54.834H337.756ZM335.376 69.896V71.97H365.092V69.896H335.376ZM339.762 62.586V64.32H347.106V62.586H339.762ZM339.048 66.156V67.89H347.106V66.156H339.048ZM353.09 66.156V67.89H361.42V66.156H353.09ZM353.09 62.586V64.32H360.604V62.586H353.09ZM348.84 55.616V68.774H351.322V55.616H348.84ZM345.474 75.744V84.482H347.854V75.744H345.474ZM353.022 75.744V84.482H355.368V75.744H353.022ZM335.784 58.846V65.374H338.096V60.716H362.236V65.374H364.65V58.846H335.784ZM338.028 74.418V84.686H340.442V76.526H361.352V74.418H338.028ZM360.706 74.418V82.17C360.706 82.476 360.604 82.578 360.23 82.612C359.856 82.646 358.7 82.646 357.34 82.612C357.646 83.224 358.02 84.108 358.122 84.72C359.992 84.72 361.25 84.754 362.1 84.346C362.984 83.972 363.154 83.36 363.154 82.204V74.418H360.706ZM348.874 70.678C348.636 72.072 348.024 74.112 347.514 75.506L349.758 75.744C350.336 74.486 351.05 72.616 351.662 70.78L348.874 70.678ZM376.38 72.038V74.18H407.32V72.038H376.38ZM377.196 54.936V57.18H406.47V54.936H377.196ZM388.178 68.468C386.07 71.8 382.908 76.356 380.732 79.11L383.146 79.926C385.322 77.138 388.45 72.684 390.66 69.148L388.178 68.468ZM398.378 72.786C395.658 79.416 388.994 81.83 376.856 82.476C377.264 83.054 377.672 83.972 377.842 84.72C390.592 83.768 397.834 80.98 400.826 73.5L398.378 72.786ZM382.568 78.77C391.204 80.368 399.534 82.68 404.736 84.822L406.266 82.748C400.996 80.674 392.258 78.396 383.86 76.9L382.568 78.77ZM386.478 55.786V67.652H388.892V55.786H386.478ZM394.4 55.786V67.652H396.814V55.786H394.4ZM381.276 62.178H402.492V66.802H381.276V62.178ZM378.896 60.104V68.91H405.042V60.104H378.896ZM4.454 111.914V114.192H12.41V131.838H4.454V134.15H14.79V111.914H4.454ZM2.924 111.914V136.87H5.304V111.914H2.924ZM4.284 121.366V123.644H13.668V121.366H4.284ZM8.126 106.372C7.854 108.14 7.208 110.724 6.63 112.356L8.67 112.866C9.35 111.336 10.2 108.99 10.88 106.882L8.126 106.372ZM19.618 111.812V114.192H30.056V111.812H19.618ZM29.172 111.812V112.356C28.696 127.35 28.152 132.994 27.03 134.218C26.656 134.66 26.248 134.762 25.568 134.762C24.786 134.762 22.746 134.728 20.536 134.558C21.012 135.238 21.318 136.292 21.386 137.04C23.29 137.142 25.296 137.21 26.452 137.074C27.642 136.972 28.424 136.666 29.172 135.68C30.532 134.014 31.008 128.744 31.552 113.138C31.552 112.764 31.552 111.812 31.552 111.812H29.172ZM20.332 106.304C19.244 111.03 17.374 115.722 15.062 118.714C15.674 119.054 16.728 119.768 17.17 120.176C19.516 116.946 21.522 111.948 22.78 106.882L20.332 106.304ZM18.768 120.652C20.638 123.134 22.916 126.5 23.936 128.574L26.112 127.214C25.024 125.208 22.678 121.91 20.74 119.496L18.768 120.652ZM55.964 110.52V112.764H72.964V110.52H55.964ZM54.502 117.116V119.394H74.426V117.116H54.502ZM54.672 123.27V125.548H74.052V123.27H54.672ZM63.104 106.44V118.51H65.62V106.44H63.104ZM67.592 119.054V134.66C67.592 135.17 67.422 135.306 66.844 135.34C66.3 135.374 64.396 135.374 62.288 135.306C62.662 135.986 63.07 137.006 63.172 137.686C65.892 137.686 67.626 137.652 68.68 137.278C69.734 136.904 70.074 136.156 70.074 134.694V119.054H67.592ZM56.746 127.928C58.48 129.696 60.316 132.246 61.064 133.912L63.274 132.552C62.458 130.886 60.554 128.472 58.786 126.704L56.746 127.928ZM45.424 108.684V110.996H51.544V128.71H45.424V131.022H53.924V108.684H45.424ZM45.526 118.578V120.856H52.666V118.578H45.526ZM44.2 108.684V133.81H46.614V108.684H44.2ZM101.116 116.64C100.232 119.598 98.702 122.522 96.832 124.46C97.41 124.766 98.43 125.412 98.872 125.786C100.708 123.712 102.408 120.482 103.428 117.184L101.116 116.64ZM99.348 108.14V110.282H109.378V115.654H111.758V108.14H99.348ZM100.402 120.006V122.182H114.988V120.006H100.402ZM97.07 126.5V128.71H116.144V126.5H97.07ZM97.002 114.668V116.844H115.328V114.668H97.002ZM107.542 127.588L105.366 127.894C106.25 131.124 108.052 135.816 114.92 137.788C115.226 137.176 115.872 136.224 116.45 135.714C109.99 134.082 108.222 130.308 107.542 127.588ZM104.992 120.992V125.922C104.992 129.016 104.278 133.266 96.186 135.952C96.73 136.428 97.444 137.278 97.784 137.822C106.284 134.626 107.474 129.798 107.474 125.99V120.992H104.992ZM93.738 110.35V132.178H95.982V110.35H93.738ZM91.188 106.644C89.522 111.914 86.802 117.15 83.81 120.55C84.252 121.196 84.898 122.556 85.136 123.134C88.536 119.19 91.596 113.206 93.568 107.324L91.188 106.644ZM88.468 114.974V137.72H90.916V112.696L90.848 112.628L88.468 114.974ZM148.852 108.684C150.858 110.452 153.17 112.9 154.19 114.532L156.298 113.036C155.176 111.472 152.796 109.058 150.79 107.358L148.852 108.684ZM126.82 116.504V118.952H157.114V116.504H126.82ZM126.31 126.5L127.058 129.05C131.342 128.098 137.36 126.704 142.936 125.412L142.732 123.1C136.748 124.392 130.356 125.752 126.31 126.5ZM134.13 109.908V134.422C134.13 135.034 133.926 135.204 133.314 135.204C132.702 135.238 130.696 135.272 128.52 135.17C128.894 135.918 129.336 137.074 129.472 137.754C132.294 137.788 134.096 137.686 135.184 137.278C136.272 136.87 136.68 136.122 136.68 134.456V109.908H134.13ZM140.59 106.848C137.326 108.072 131.818 109.228 127.024 109.976C127.364 110.554 127.67 111.506 127.806 112.084C132.668 111.404 138.448 110.35 142.392 108.99L140.59 106.848ZM143.99 106.746C144.126 122.93 147.152 137.856 153.816 137.856C156.366 137.856 157.284 136.19 157.76 130.546C157.046 130.274 156.128 129.696 155.584 129.118C155.38 133.504 154.972 135.272 154.054 135.272C149.906 135.272 146.574 122.352 146.642 106.746H143.99ZM153.204 120.516C150.178 126.262 144.568 131.498 138.516 134.422C139.162 135 139.876 135.816 140.284 136.462C146.54 133.164 152.15 127.69 155.482 121.468L153.204 120.516ZM183.566 109.364V111.2H198.934V109.364H183.566ZM188.292 113.036V114.736H197.778V113.036H188.292ZM186.422 116.946V118.646H199.172V116.946H186.422ZM187.17 124.052V125.718H196.01V124.052H187.17ZM187.17 127.486V129.186H196.01V127.486H187.17ZM185.98 120.516V133.402H188.156V122.25H196.146V120.516H185.98ZM195.126 120.516V131.294C195.126 131.6 195.024 131.668 194.718 131.702C194.378 131.702 193.392 131.702 192.27 131.668C192.508 132.178 192.78 132.926 192.916 133.47C194.65 133.47 195.738 133.436 196.486 133.13C197.2 132.79 197.404 132.314 197.404 131.294V120.516H195.126ZM178.534 108.548C179.724 109.908 181.016 111.846 181.492 113.104L183.43 111.846C182.92 110.588 181.594 108.752 180.37 107.426L178.534 108.548ZM177.446 115.858C178.772 117.184 180.166 119.02 180.778 120.312L182.614 118.952C182.036 117.694 180.54 115.926 179.214 114.668L177.446 115.858ZM183.022 123.032H177.956V125.208H180.812V132.416H183.022V123.032ZM183.022 131.226H181.05C179.554 132.688 177.854 134.252 176.426 135.34L177.65 137.584C179.214 136.054 180.608 134.66 182.002 133.198C183.532 135.578 185.844 137.04 189.142 137.21C191.692 137.312 196.35 137.244 198.934 137.142C199.002 136.462 199.376 135.408 199.648 134.83C196.826 135.034 191.726 135.102 189.244 135C186.354 134.864 184.178 133.47 183.022 131.226ZM191.658 113.852V117.762H193.936V113.852H191.658ZM188.19 106.44C187.272 110.962 185.402 114.94 182.58 117.49C183.09 117.83 183.974 118.544 184.314 118.918C187.204 116.096 189.244 111.846 190.332 106.78L188.19 106.44ZM169.252 107.902V137.72H171.53V110.214H175.95V107.902H169.252ZM175.44 107.902V108.582C174.862 110.928 173.842 115.076 172.822 118.204C174.828 121.026 175.304 123.406 175.304 125.31C175.304 126.364 175.134 127.384 174.726 127.724C174.454 127.928 174.182 128.03 173.842 128.064C173.434 128.064 172.89 128.064 172.278 127.996C172.652 128.642 172.822 129.56 172.856 130.172C173.502 130.172 174.148 130.172 174.692 130.104C175.304 130.036 175.848 129.866 176.256 129.526C177.072 128.846 177.446 127.384 177.446 125.582C177.446 123.406 176.97 120.89 174.896 117.966C175.882 115.178 176.936 111.608 177.752 108.718L176.154 107.8L175.848 107.902H175.44ZM222.564 110.52V112.764H239.564V110.52H222.564ZM221.102 117.116V119.394H241.026V117.116H221.102ZM221.272 123.27V125.548H240.652V123.27H221.272ZM229.704 106.44V118.51H232.22V106.44H229.704ZM234.192 119.054V134.66C234.192 135.17 234.022 135.306 233.444 135.34C232.9 135.374 230.996 135.374 228.888 135.306C229.262 135.986 229.67 137.006 229.772 137.686C232.492 137.686 234.226 137.652 235.28 137.278C236.334 136.904 236.674 136.156 236.674 134.694V119.054H234.192ZM223.346 127.928C225.08 129.696 226.916 132.246 227.664 133.912L229.874 132.552C229.058 130.886 227.154 128.472 225.386 126.704L223.346 127.928ZM212.024 108.684V110.996H218.144V128.71H212.024V131.022H220.524V108.684H212.024ZM212.126 118.578V120.856H219.266V118.578H212.126ZM210.8 108.684V133.81H213.214V108.684H210.8ZM252.892 110.418V112.662H264.792V110.418H252.892ZM256.496 133.402V135.578H266.016V133.402H256.496ZM256.462 127.758V129.798H266.05V127.758H256.462ZM251.362 116.742V119.02H268.94V116.742H251.362ZM258.162 106.746V118.204H260.542V106.746H258.162ZM267.172 107.63C263.806 115.518 257.992 121.706 250.614 125.378C251.09 125.888 251.906 126.908 252.212 127.452C259.692 123.338 265.744 116.81 269.484 108.31L267.172 107.63ZM257.278 122.318H256.36L254.932 123.814V137.584H257.278V124.46H265.948V122.318H257.278ZM264.928 122.318V137.108H267.41V122.318H264.928ZM270.368 108.412V137.72H272.918V110.792H280.534V108.412H270.368ZM279.888 108.412V109.194C278.8 111.948 276.896 116.572 275.06 120.108C278.664 123.066 279.752 125.65 279.752 127.792C279.752 129.05 279.514 130.036 278.698 130.478C278.29 130.716 277.712 130.852 277.1 130.886C276.352 130.954 275.332 130.92 274.244 130.818C274.652 131.498 274.958 132.62 274.992 133.3C276.046 133.368 277.27 133.368 278.188 133.266C279.072 133.164 279.854 132.926 280.466 132.518C281.724 131.702 282.234 130.138 282.2 128.03C282.2 125.582 281.282 122.896 277.712 119.734C279.378 116.606 281.214 112.662 282.642 109.466L280.806 108.276L280.398 108.412H279.888ZM293.658 111.71V114.192H323.442V111.71H293.658ZM304.198 122.488V124.868H322.116V122.488H304.198ZM302.872 134.524V136.938H323.442V134.524H302.872ZM311.882 115.926V135.816H314.432V115.926H311.882ZM304.844 106.44C302.94 113.444 298.962 120.992 292.842 125.31C293.25 125.888 293.896 126.976 294.168 127.656C300.934 122.794 305.082 114.872 307.462 107.086L304.844 106.44ZM298.112 120.448V137.618H300.662V120.448H298.112ZM339.193 110.828L338.977 128.177H336.205L335.972 110.828H339.193ZM335.873 133.456C335.873 132.958 336.022 132.537 336.321 132.194C336.631 131.851 337.085 131.68 337.682 131.68C338.269 131.68 338.717 131.851 339.027 132.194C339.348 132.537 339.509 132.958 339.509 133.456C339.509 133.932 339.348 134.341 339.027 134.685C338.717 135.028 338.269 135.199 337.682 135.199C337.085 135.199 336.631 135.028 336.321 134.685C336.022 134.341 335.873 133.932 335.873 133.456Z" fill="#276A70"/>
</svg>
