<svg width="411" height="138" viewBox="0 0 411 138" fill="none" xmlns="http://www.w3.org/2000/svg">
<path d="M13.96 19.752V21.724H26.438V19.752H13.96ZM13.96 24.138V26.076H26.438V24.138H13.96ZM12.838 15.366V31.754H15.184V17.406H26.472V15.366H12.838ZM18.822 6.084V11.864H20.862V7.818H26.404V6.084H18.822ZM25.52 15.366V29.17C25.52 29.578 25.384 29.714 24.908 29.748C24.432 29.748 22.834 29.748 21.1 29.68C21.406 30.292 21.712 31.176 21.848 31.754C24.262 31.754 25.792 31.754 26.71 31.38C27.662 31.04 27.934 30.428 27.934 29.17V15.366H25.52ZM9.438 10.878V16.658H11.784V12.952H28.818V16.658H31.266V10.878H9.438ZM12.94 1.698V12H15.286V3.738H25.418V12H27.832V1.698H12.94ZM2.06 2.582C4.236 3.602 6.854 5.234 8.146 6.458L9.608 4.384C8.316 3.194 5.63 1.664 3.488 0.745999L2.06 2.582ZM0.258 11.83C2.468 12.748 5.154 14.278 6.48 15.434L7.942 13.326C6.582 12.204 3.828 10.742 1.652 9.926L0.258 11.83ZM1.278 29.612L3.488 31.244C5.358 28.082 7.602 23.764 9.268 20.16L7.33 18.596C5.494 22.472 3.012 26.994 1.278 29.612ZM54.522 0.405999C52.584 1.324 49.184 2.31 46.226 2.922C46.498 3.432 46.838 4.214 46.94 4.724C50.102 4.146 53.774 3.228 56.426 2.14L54.522 0.405999ZM45.546 2.514V13.156H48.028V3.058L45.546 2.514ZM45.546 12.204V14.312H69.958V2.242H59.078V4.316H67.442V12.204H45.546ZM46.498 7.206V9.212H55.542V7.206H46.498ZM59.588 7.206V9.212H68.53V7.206H59.588ZM46.294 15.57V29.476L48.742 29V15.57H46.294ZM56.052 15.672V29.782L58.398 29.34V15.672H56.052ZM42.18 28.864L42.554 31.142C45.58 30.666 49.728 30.088 53.706 29.442L53.604 27.266C49.354 27.878 45.07 28.524 42.18 28.864ZM53.978 28.932L54.352 31.176C57.48 30.632 61.798 29.952 65.912 29.306L65.81 27.164C61.424 27.844 56.97 28.558 53.978 28.932ZM65.81 15.604C65.946 26.314 67 31.958 70.536 31.958C72.27 31.958 73.12 31.108 73.392 27.606C72.814 27.402 72.066 26.994 71.59 26.552C71.488 28.898 71.25 29.51 70.706 29.51C69.142 29.51 68.224 25.294 68.326 15.604H65.81ZM49.762 17.984C51.156 18.698 52.822 19.82 53.604 20.738L54.998 19.14C54.148 18.29 52.448 17.202 51.054 16.556L49.762 17.984ZM49.456 23.05C50.85 23.832 52.448 25.022 53.196 25.974L54.59 24.41C53.842 23.492 52.21 22.37 50.816 21.622L49.456 23.05ZM59.622 18.018C61.084 18.766 62.818 19.956 63.634 20.84L64.96 19.208C64.11 18.392 62.342 17.27 60.914 16.59L59.622 18.018ZM59.418 23.118C60.914 23.968 62.648 25.328 63.464 26.28L64.892 24.716C64.042 23.764 62.24 22.506 60.778 21.69L59.418 23.118ZM264.54 2.956V4.962H281.132V2.956H264.54ZM264.166 22.03V24.002H281.54V22.03H264.166ZM271.578 0.473998V18.8H273.822V0.473998H271.578ZM267.43 12.034H278.174V14.108H267.43V12.034ZM267.43 8.396H278.174V10.47H267.43V8.396ZM265.322 6.798V15.74H280.35V6.798H265.322ZM264.2 18.052L264.37 20.024C268.28 19.922 273.992 19.82 279.534 19.65L279.568 17.78C273.788 17.916 268.008 18.018 264.2 18.052ZM275.012 20.194V29.204C275.012 29.578 274.91 29.68 274.434 29.714C273.992 29.748 272.428 29.748 270.694 29.68C271 30.292 271.34 31.142 271.442 31.788C273.754 31.788 275.216 31.788 276.202 31.448C277.154 31.108 277.392 30.496 277.392 29.238V20.194H275.012ZM266.172 25.362C267.464 26.552 268.79 28.286 269.368 29.51L271.272 28.286C270.626 27.096 269.266 25.464 267.906 24.308L266.172 25.362ZM275.964 16.352C277.494 17.746 279.194 19.718 279.942 21.044L281.744 19.99C280.928 18.698 279.228 16.828 277.664 15.468L275.964 16.352ZM250.634 4.146V6.424H263.826V4.146H250.634ZM250.192 23.526V25.804H264.302V23.526H250.192ZM256.21 0.473998V9.756H258.556V0.473998H256.21ZM256.448 9.892V19.786H256.21V31.788H258.556V19.786H258.318V9.892H256.448ZM253.354 15.74H261.48V18.868H253.354V15.74ZM253.354 10.844H261.48V13.904H253.354V10.844ZM251.382 8.94V20.772H263.452V8.94H251.382ZM292.896 22.676V24.614H308.4V22.676H292.896ZM291.978 6.288V8.26H308.944V6.288H291.978ZM299.356 3.194V28.218H301.702V3.194H299.356ZM291.944 28.286L292.318 30.496C296.636 30.054 302.79 29.34 308.57 28.66L308.536 26.654C302.45 27.3 296.092 27.912 291.944 28.286ZM295.106 16.318H306.122V18.834H295.106V16.318ZM295.106 12.17H306.122V14.618H295.106V12.17ZM292.964 10.402V20.602H308.298V10.402H292.964ZM307.074 0.779999C303.572 1.596 297.384 2.208 292.318 2.48C292.59 2.99 292.828 3.84 292.93 4.384C298.03 4.214 304.354 3.636 308.366 2.752L307.074 0.779999ZM308.706 8.396V10.776H320.98V8.396H308.706ZM319.994 8.396V9.008C319.62 22.778 319.246 27.674 318.396 28.728C318.09 29.17 317.75 29.272 317.206 29.272C316.526 29.272 315.03 29.238 313.364 29.102C313.772 29.782 314.044 30.836 314.112 31.55C315.676 31.652 317.308 31.652 318.26 31.55C319.28 31.448 319.96 31.142 320.572 30.258C321.694 28.796 322.034 24.036 322.408 9.688C322.408 9.348 322.442 8.396 322.442 8.396H319.994ZM312.82 0.881999C312.786 13.734 312.956 24.512 305.17 30.088C305.782 30.496 306.666 31.312 307.074 31.924C315.2 25.838 315.234 14.414 315.268 0.881999H312.82ZM356.17 20.602V28.354C356.17 30.768 356.714 31.482 359.094 31.482C359.57 31.482 361.78 31.482 362.29 31.482C364.228 31.482 364.874 30.428 365.112 26.144C364.466 25.974 363.48 25.634 363.004 25.226C362.902 28.83 362.766 29.306 361.984 29.306C361.542 29.306 359.774 29.306 359.434 29.306C358.652 29.306 358.516 29.17 358.516 28.354V20.602H356.17ZM350.628 9.892H360.08V13.496H350.628V9.892ZM350.628 15.502H360.08V19.14H350.628V15.502ZM350.628 4.316H360.08V7.852H350.628V4.316ZM348.248 2.208V21.248H362.528V2.208H348.248ZM351.036 20.534C350.56 24.886 349.302 28.082 344.236 29.782C344.746 30.258 345.46 31.176 345.732 31.754C351.376 29.612 352.94 25.838 353.518 20.534H351.036ZM334.07 6.832V9.178H344.678V6.832H334.07ZM339.034 16.998V31.72H341.516V14.006L339.034 16.998ZM339.034 0.473998V7.988H341.516V0.473998H339.034ZM341.516 14.346L340.02 15.706C341.38 16.93 344.474 20.194 345.63 21.724L347.194 19.582C346.31 18.698 342.604 15.23 341.516 14.346ZM343.828 6.832V7.376C341.856 12.544 337.232 17.712 332.846 20.432C333.254 20.874 333.9 22.064 334.138 22.71C338.796 19.582 343.794 13.904 346.208 7.682L344.78 6.73L344.338 6.832H343.828ZM6.888 61.226V63.538H27.424V61.226H6.888ZM6.888 68.026V70.236H27.016V68.026H6.888ZM6.31 74.996V77.24H27.152V74.996H6.31ZM5.494 61.226V69.726C5.494 74.078 4.95 79.348 0.122 83.088C0.632 83.462 1.55 84.38 1.89 84.89C7.092 80.844 7.976 74.588 7.976 69.76V61.226H5.494ZM26.064 61.226V81.49C26.064 82.136 25.86 82.34 25.112 82.34C24.33 82.408 21.678 82.408 18.958 82.306C19.332 82.986 19.808 84.108 19.944 84.788C23.378 84.788 25.622 84.754 26.914 84.346C28.172 83.972 28.614 83.156 28.614 81.49V61.226H26.064ZM15.524 62.178V76.118H17.938V62.178H15.524ZM10.118 55.446V57.622H20.828V55.446H10.118ZM10.458 53.372C8.724 56.772 5.494 60.988 0.904 64.082C1.516 64.456 2.332 65.306 2.74 65.918C7.568 62.416 10.968 57.894 13.212 53.848L10.458 53.372ZM19.978 55.446V55.922C19.196 57.724 17.598 60.342 16.17 61.872C16.714 62.178 17.53 62.688 18.006 63.062C19.57 61.396 21.508 58.744 22.664 56.466L20.964 55.344L20.522 55.446H19.978ZM45.988 85.638C49.558 84.414 51.87 81.626 51.87 77.954C51.87 75.574 50.85 74.01 48.946 74.01C47.586 74.01 46.362 74.86 46.362 76.458C46.362 78.09 47.518 78.906 48.912 78.906C49.558 78.906 50.238 78.736 50.714 78.124L48.878 75.54L49.524 78.43C49.524 80.98 47.994 82.714 45.206 83.87L45.988 85.638ZM275.257 53.474C273.761 56.092 270.803 59.118 266.553 61.26C267.097 61.634 267.845 62.45 268.185 62.994C272.775 60.478 275.835 57.214 277.807 53.916L275.257 53.474ZM274.441 56.432L272.945 58.54H282.703V56.432H274.441ZM281.819 56.432V56.84C279.575 62.79 273.455 66.632 267.165 68.162C267.607 68.672 268.253 69.624 268.491 70.236C275.325 68.264 281.683 64.218 284.369 57.078L282.737 56.296L282.295 56.432H281.819ZM270.905 60.954C272.741 62.11 274.985 63.912 276.005 65.136L277.705 63.708C276.617 62.45 274.407 60.75 272.537 59.662L270.905 60.954ZM277.059 66.258C275.393 69.25 271.993 72.65 266.995 74.996C267.539 75.37 268.287 76.186 268.627 76.764C273.931 74.044 277.467 70.406 279.643 66.7L277.059 66.258ZM276.107 69.488L274.577 71.664H284.233V69.488H276.107ZM283.485 69.488V69.896C281.071 77.172 274.135 81.116 266.451 82.578C266.893 83.122 267.471 84.108 267.743 84.754C275.971 82.884 283.213 78.702 286.103 70.1L284.471 69.386L283.995 69.488H283.485ZM271.653 74.588C273.829 75.88 276.345 77.818 277.535 79.246L279.337 77.648C278.113 76.254 275.563 74.35 273.387 73.16L271.653 74.588ZM260.637 56.262V84.652H263.119V56.262H260.637ZM255.061 63.028V65.442H267.403V63.028H255.061ZM260.773 63.946C259.549 68.162 256.829 73.466 254.381 76.186C254.823 76.764 255.435 77.818 255.673 78.532C258.291 75.37 261.011 69.42 262.371 64.626L260.773 63.946ZM265.669 53.95C263.187 55.106 258.699 56.058 254.857 56.704C255.163 57.282 255.503 58.098 255.639 58.676C259.583 58.132 264.343 57.18 267.471 55.922L265.669 53.95ZM263.017 67.414L261.827 68.434C262.881 69.624 265.431 72.854 266.247 74.248L267.743 72.242C267.063 71.392 263.867 68.162 263.017 67.414ZM297.425 75.676V77.614H312.929V75.676H297.425ZM296.507 59.288V61.26H313.473V59.288H296.507ZM303.885 56.194V81.218H306.231V56.194H303.885ZM296.473 81.286L296.847 83.496C301.165 83.054 307.319 82.34 313.099 81.66L313.065 79.654C306.979 80.3 300.621 80.912 296.473 81.286ZM299.635 69.318H310.651V71.834H299.635V69.318ZM299.635 65.17H310.651V67.618H299.635V65.17ZM297.493 63.402V73.602H312.827V63.402H297.493ZM311.603 53.78C308.101 54.596 301.913 55.208 296.847 55.48C297.119 55.99 297.357 56.84 297.459 57.384C302.559 57.214 308.883 56.636 312.895 55.752L311.603 53.78ZM313.235 61.396V63.776H325.509V61.396H313.235ZM324.523 61.396V62.008C324.149 75.778 323.775 80.674 322.925 81.728C322.619 82.17 322.279 82.272 321.735 82.272C321.055 82.272 319.559 82.238 317.893 82.102C318.301 82.782 318.573 83.836 318.641 84.55C320.205 84.652 321.837 84.652 322.789 84.55C323.809 84.448 324.489 84.142 325.101 83.258C326.223 81.796 326.563 77.036 326.937 62.688C326.937 62.348 326.971 61.396 326.971 61.396H324.523ZM317.349 53.882C317.315 66.734 317.485 77.512 309.699 83.088C310.311 83.496 311.195 84.312 311.603 84.924C319.729 78.838 319.763 67.414 319.797 53.882H317.349ZM342.067 85.638C345.637 84.414 347.949 81.626 347.949 77.954C347.949 75.574 346.929 74.01 345.025 74.01C343.665 74.01 342.441 74.86 342.441 76.458C342.441 78.09 343.597 78.906 344.991 78.906C345.637 78.906 346.317 78.736 346.793 78.124L344.957 75.54L345.603 78.43C345.603 80.98 344.073 82.714 341.285 83.87L342.067 85.638ZM398.473 69.862V80.538C398.473 83.36 399.221 84.21 402.247 84.21C402.893 84.21 406.395 84.21 407.041 84.21C409.795 84.21 410.543 82.85 410.815 77.682C410.101 77.512 409.013 77.104 408.435 76.662C408.299 81.082 408.129 81.762 406.871 81.762C406.055 81.762 403.131 81.762 402.553 81.762C401.261 81.762 401.023 81.592 401.023 80.572V69.862H398.473ZM380.453 68.094V70.542H410.339V68.094H380.453ZM386.029 58.744V61.226H407.891V58.744H386.029ZM389.395 69.964C388.817 75.88 387.423 80.436 379.977 82.748C380.555 83.258 381.303 84.244 381.609 84.924C389.599 82.17 391.367 76.9 392.047 69.964H389.395ZM386.709 54.256C385.893 57.792 384.159 62.348 381.847 65.204C382.459 65.476 383.479 66.02 384.057 66.428C386.437 63.402 388.239 58.642 389.293 54.766L386.709 54.256ZM394.087 53.474V68.876H396.671V53.474H394.087ZM7.806 121.57V137.822H10.254V123.61H25.078V137.822H27.628V121.57H7.806ZM0.972 117.082V119.19H30.994V117.082H0.972ZM3.454 112.526V114.566H29.022V112.526H3.454ZM9.472 125.922V127.724H26.166V125.922H9.472ZM9.472 130.138V131.906H26.166V130.138H9.472ZM9.234 134.422V136.462H26.166V134.422H9.234ZM27.05 106.712C21.644 107.834 11.274 108.31 2.978 108.378C3.216 108.922 3.454 109.806 3.522 110.384C11.92 110.35 22.358 109.84 28.682 108.582L27.05 106.712ZM13.11 109.058C11.308 116.572 7.33 124.018 0.122 128.166C0.632 128.642 1.38 129.594 1.72 130.138C9.336 125.616 13.484 117.83 15.762 109.602L13.11 109.058ZM49.456 121.57V137.822H51.904V123.61H66.728V137.822H69.278V121.57H49.456ZM42.622 117.082V119.19H72.644V117.082H42.622ZM45.104 112.526V114.566H70.672V112.526H45.104ZM51.122 125.922V127.724H67.816V125.922H51.122ZM51.122 130.138V131.906H67.816V130.138H51.122ZM50.884 134.422V136.462H67.816V134.422H50.884ZM68.7 106.712C63.294 107.834 52.924 108.31 44.628 108.378C44.866 108.922 45.104 109.806 45.172 110.384C53.57 110.35 64.008 109.84 70.332 108.582L68.7 106.712ZM54.76 109.058C52.958 116.572 48.98 124.018 41.772 128.166C42.282 128.642 43.03 129.594 43.37 130.138C50.986 125.616 55.134 117.83 57.412 109.602L54.76 109.058ZM99.13 108.922C102.224 113.24 108.208 118.544 113.478 121.706C113.954 120.958 114.566 120.108 115.212 119.53C109.874 116.674 103.822 111.438 100.252 106.372H97.702C95.084 110.86 89.338 116.47 83.456 119.904C84.034 120.414 84.748 121.298 85.088 121.91C90.834 118.374 96.376 113.104 99.13 108.922ZM91.82 117.184V119.598H106.712V117.184H91.82ZM87.434 123.882V126.296H108.106V123.882H87.434ZM107.596 123.882V124.188C106.304 127.18 103.584 132.96 101.374 137.142L104.06 137.856C106.168 133.64 108.82 128.132 110.418 124.358L108.412 123.712L107.97 123.882H107.596ZM142.344 120.652L139.862 121.196C142.208 129.832 146.73 135.442 154.992 137.788C155.4 137.074 156.148 135.986 156.76 135.408C148.804 133.47 144.316 128.268 142.344 120.652ZM127.01 119.666V122.25H154.992V119.666H127.01ZM125.956 109.092V111.676H155.876V109.092H125.956ZM139.352 109.806V117.728C139.352 123.95 138.026 131.26 125.31 135.578C125.854 136.088 126.602 137.176 126.874 137.822C140.508 133.096 142.038 124.902 142.038 117.728V109.806H139.352ZM170.054 111.914V114.192H178.01V131.838H170.054V134.15H180.39V111.914H170.054ZM168.524 111.914V136.87H170.904V111.914H168.524ZM169.884 121.366V123.644H179.268V121.366H169.884ZM173.726 106.372C173.454 108.14 172.808 110.724 172.23 112.356L174.27 112.866C174.95 111.336 175.8 108.99 176.48 106.882L173.726 106.372ZM185.218 111.812V114.192H195.656V111.812H185.218ZM194.772 111.812V112.356C194.296 127.35 193.752 132.994 192.63 134.218C192.256 134.66 191.848 134.762 191.168 134.762C190.386 134.762 188.346 134.728 186.136 134.558C186.612 135.238 186.918 136.292 186.986 137.04C188.89 137.142 190.896 137.21 192.052 137.074C193.242 136.972 194.024 136.666 194.772 135.68C196.132 134.014 196.608 128.744 197.152 113.138C197.152 112.764 197.152 111.812 197.152 111.812H194.772ZM185.932 106.304C184.844 111.03 182.974 115.722 180.662 118.714C181.274 119.054 182.328 119.768 182.77 120.176C185.116 116.946 187.122 111.948 188.38 106.882L185.932 106.304ZM184.368 120.652C186.238 123.134 188.516 126.5 189.536 128.574L191.712 127.214C190.624 125.208 188.278 121.91 186.34 119.496L184.368 120.652ZM223.128 109.534V111.744H231.934V109.534H223.128ZM227.412 116.198V127.486H229.758V116.198H227.412ZM224.046 106.474C222.244 110.69 219.218 114.872 215.988 117.49C216.566 117.932 217.552 118.952 217.96 119.428C221.19 116.47 224.488 111.914 226.562 107.256L224.046 106.474ZM230.948 109.534V110.044C230.302 111.676 229.01 114.056 227.82 115.552C228.262 115.858 229.01 116.572 229.35 117.048C230.846 115.416 232.546 112.832 233.736 110.554L232.07 109.398L231.526 109.534H230.948ZM223.876 130.614C224.42 132.756 224.726 135.544 224.658 137.346L226.902 136.972C226.902 135.17 226.562 132.416 225.984 130.274L223.876 130.614ZM228.602 130.682C229.656 132.756 230.642 135.578 230.948 137.38L233.09 136.7C232.716 134.898 231.73 132.144 230.608 130.104L228.602 130.682ZM233.872 130.682C235.538 132.824 237.272 135.816 237.986 137.72L240.094 136.564C239.312 134.66 237.578 131.804 235.844 129.662L233.872 130.682ZM221.836 122.794H235.504V126.5H221.836V122.794ZM221.836 117.15H235.504V120.822H221.836V117.15ZM219.524 115.042V128.608H237.918V115.042H219.524ZM219.66 129.968C219.048 132.382 217.79 134.932 215.818 136.36L217.722 137.754C219.898 136.088 221.054 133.3 221.768 130.716L219.66 129.968ZM210.31 108.65C212.384 109.636 214.866 111.268 216.09 112.492L217.586 110.418C216.362 109.228 213.812 107.698 211.772 106.746L210.31 108.65ZM208.576 117.728C210.684 118.646 213.2 120.176 214.424 121.298L215.886 119.224C214.628 118.102 212.078 116.64 210.004 115.824L208.576 117.728ZM209.46 135.748L211.738 137.312C213.472 134.116 215.512 129.866 217.042 126.228L215.036 124.732C213.336 128.608 211.058 133.096 209.46 135.748ZM250.532 108.072C255.802 113.07 256.516 118.578 256.516 124.8C256.516 129.22 256.244 133.64 255.394 134.728C255.156 135.068 254.85 135.204 254.374 135.272C253.694 135.34 252.504 135.34 251.076 135.238C251.518 135.952 251.756 136.904 251.79 137.686C253.048 137.754 254.34 137.754 255.394 137.55C256.21 137.414 256.856 137.04 257.298 136.462C258.624 134.626 258.964 129.798 258.964 124.834C258.964 118.272 258.182 112.186 252.334 106.746L250.532 108.072ZM256.55 118.918C255.156 122.046 252.334 125.582 249.852 127.35C250.43 127.826 251.144 128.676 251.518 129.288C254.068 127.146 256.924 123.304 258.42 120.006L256.55 118.918ZM258.25 106.644C256.482 110.112 253.252 114.022 249.92 116.606C250.464 117.014 251.28 117.728 251.654 118.204C255.054 115.416 258.352 111.574 260.46 107.766L258.25 106.644ZM260.358 108.956V110.996H281.37V108.956H260.358ZM262.602 124.766V126.466H281.302V124.766H262.602ZM261.31 128.03V129.968H277.732V128.03H261.31ZM263.486 118.068V119.53H279.296V118.068H263.486ZM263.486 121.4V122.828H279.296V121.4H263.486ZM265.526 106.406V112.934H267.838V106.406H265.526ZM270.286 115.382V125.65H272.564V115.382H270.286ZM273.414 106.406V112.934H275.76V106.406H273.414ZM264.132 111.778C262.976 114.566 261.038 117.252 258.896 119.088C259.406 119.462 260.188 120.278 260.528 120.686C262.704 118.646 264.88 115.518 266.24 112.356L264.132 111.778ZM262.602 116.334V125.854H264.846V114.974L262.602 116.334ZM263.86 114.6L262.976 116.334H280.316V114.6H263.86ZM271.272 112.05C270.966 112.934 270.32 114.294 269.844 115.246L271.816 115.722C272.394 114.906 273.04 113.75 273.72 112.526L271.272 112.05ZM277.086 128.03V128.404C274.196 132.892 266.988 134.966 259.236 135.782C259.644 136.292 260.188 137.244 260.426 137.822C268.382 136.734 276.032 134.32 279.466 128.88L278.072 127.962L277.63 128.03H277.086ZM265.934 129.73L263.86 130.512C267.09 134.66 273.38 136.938 280.52 137.788C280.826 137.176 281.438 136.224 281.948 135.748C275.012 135.102 268.756 133.232 265.934 129.73ZM294.664 109.704V112.05H299.866V126.33H294.664V128.71H302.246V109.704H294.664ZM293.168 109.704V131.974H295.548V109.704H293.168ZM305.238 108.65V132.314C305.238 136.156 306.462 137.074 310.27 137.074C311.154 137.074 317.682 137.074 318.6 137.074C322.17 137.074 322.986 135.51 323.394 130.852C322.68 130.716 321.66 130.308 321.048 129.866C320.776 133.742 320.436 134.694 318.498 134.694C317.138 134.694 311.46 134.694 310.372 134.694C308.128 134.694 307.754 134.286 307.754 132.348V108.65H305.238ZM306.462 108.65V111.03H319.552V126.534H322.034V108.65H306.462ZM306.394 122.012V124.358H320.47V122.012H306.394ZM312.378 109.5V122.76H314.724V109.5H312.378ZM337.742 128.166H335.804L334.954 110.724H338.592L337.742 128.166ZM334.648 133.164C334.648 132.325 334.852 131.736 335.26 131.396C335.668 131.056 336.167 130.886 336.756 130.886C337.323 130.886 337.81 131.056 338.218 131.396C338.649 131.736 338.864 132.325 338.864 133.164C338.864 133.98 338.649 134.569 338.218 134.932C337.81 135.295 337.323 135.476 336.756 135.476C336.167 135.476 335.668 135.295 335.26 134.932C334.852 134.569 334.648 133.98 334.648 133.164Z" fill="#276A70"/>
<path d="M83.048 17.644L83.932 21.554C86.924 20.704 90.664 19.65 94.166 18.562L93.656 14.89C89.814 15.978 85.768 17.032 83.048 17.644ZM83.49 6.594V10.334H93.894V6.594H83.49ZM87.196 0.167998V27.266C87.196 27.742 87.026 27.878 86.618 27.878C86.21 27.878 84.986 27.878 83.796 27.844C84.306 28.966 84.816 30.734 84.884 31.822C87.094 31.822 88.624 31.652 89.712 30.972C90.8 30.326 91.106 29.238 91.106 27.3V0.167998H87.196ZM98.79 4.418V8.056H114.872V4.418H98.79ZM103.482 8.804V26.042H107.018V8.804H103.482ZM98.858 0.0999992C97.702 4.214 95.594 8.158 92.942 10.64C93.86 11.184 95.526 12.442 96.24 13.088C98.926 10.232 101.374 5.71 102.802 1.018L98.858 0.0999992ZM93.962 17.678L95.118 21.146L111.234 15.06L110.078 11.626L93.962 17.678ZM97.294 11.49V26.586C97.294 30.598 98.484 31.72 102.972 31.72C103.958 31.72 108.922 31.72 109.976 31.72C113.58 31.72 114.668 30.462 115.178 26.246C114.124 26.042 112.594 25.498 111.778 24.92C111.574 27.776 111.268 28.286 109.67 28.286C108.548 28.286 104.23 28.286 103.312 28.286C101.272 28.286 100.932 28.082 100.932 26.552V11.49H97.294ZM109.636 12.034C109.636 17.848 109.636 20.738 109.568 21.214C109.466 21.622 109.33 21.724 108.99 21.724C108.684 21.724 108.038 21.724 107.528 21.69C107.936 22.506 108.242 24.07 108.31 25.192C109.33 25.192 110.622 25.124 111.506 24.716C112.526 24.274 113.036 23.424 113.104 21.928C113.138 20.806 113.172 17.202 113.206 12.578L113.308 12L110.724 11.082L110.078 11.524L109.398 12.034H109.636ZM125.922 22.132V25.022H141.8V22.132H125.922ZM125.14 5.948V8.906H142.14V5.948H125.14ZM131.906 3.534V27.912H135.578V3.534H131.906ZM124.97 27.538L125.446 30.938C129.866 30.53 136.054 29.918 141.834 29.306L141.8 26.212C135.68 26.756 129.186 27.232 124.97 27.538ZM129.288 16.692H138.264V18.256H129.288V16.692ZM129.288 12.782H138.264V14.312H129.288V12.782ZM126.024 10.232V20.806H141.63V10.232H126.024ZM139.964 0.303999C136.224 1.12 130.308 1.732 125.242 1.97C125.616 2.752 125.99 4.044 126.126 4.86C131.226 4.758 137.414 4.248 141.766 3.364L139.964 0.303999ZM142.14 7.818V11.558H153.904V7.818H142.14ZM152.272 7.818V8.702C152 21.86 151.728 26.654 150.946 27.674C150.64 28.15 150.3 28.252 149.79 28.252C149.11 28.252 147.818 28.252 146.356 28.116C147.002 29.204 147.444 30.87 147.546 31.992C149.144 32.06 150.742 32.06 151.796 31.856C152.918 31.652 153.7 31.278 154.448 30.122C155.57 28.592 155.842 23.628 156.148 9.62C156.148 9.144 156.182 7.818 156.182 7.818H152.272ZM145.404 0.711999C145.37 14.278 145.744 23.798 138.57 29.272C139.488 29.952 140.814 31.346 141.392 32.332C149.246 26.144 149.28 15.23 149.314 0.711999H145.404ZM180.56 19.718V26.484H184.334V19.718H180.56ZM167.062 28.49V31.142H198.138V28.49H167.062ZM167.232 5.438V7.648H197.968V5.438H167.232ZM167.096 15.502V18.052H198.206V15.502H167.096ZM169.544 12.17V14.346H195.86V12.17H169.544ZM170.802 2.14V4.316H190.42V8.838H170.598V11.014H194.534V2.14H170.802ZM180.322 0.0999992V16.76H184.47V0.0999992H180.322ZM174.984 24.172H190.386V25.43H174.984V24.172ZM174.984 21.112H190.386V22.302H174.984V21.112ZM170.972 19.106V27.402H194.568V19.106H170.972ZM219.49 15.128V18.324H228.228V15.128H219.49ZM219.49 20.84V24.036H228.262V20.84H219.49ZM212.894 26.586V30.326H235.844V26.586H212.894ZM210.344 9.008V32.06H214.254V12.748H233.974V32.06H238.122V9.008H210.344ZM217.756 11.49V28.252H221.394V11.49H217.756ZM226.63 11.49V28.218H230.302V11.49H226.63ZM221.598 3.84C221.462 5.982 220.918 8.838 220.442 10.81L224.182 11.796C224.862 10.028 225.61 7.376 226.426 4.86L221.598 3.84ZM208.916 2.072V5.948H239.652V2.072H208.916ZM115.178 57.724L108.99 82H103.142L99.844 69.25C99.776 69.0007 99.6853 68.6267 99.572 68.128C99.4813 67.6293 99.368 67.0853 99.232 66.496C99.1187 65.9067 99.0167 65.3513 98.926 64.83C98.8353 64.286 98.7673 63.8667 98.722 63.572C98.6993 63.8667 98.6313 64.286 98.518 64.83C98.4273 65.3513 98.3253 65.9067 98.212 66.496C98.0987 67.0627 97.9853 67.6067 97.872 68.128C97.7587 68.6267 97.668 69.012 97.6 69.284L94.336 82H88.488L82.3 57.724H87.366L90.46 70.984C90.5507 71.3693 90.6527 71.8453 90.766 72.412C90.8793 72.956 90.9927 73.534 91.106 74.146C91.2193 74.7353 91.3213 75.3133 91.412 75.88C91.5253 76.4467 91.6047 76.934 91.65 77.342C91.6953 76.9113 91.7633 76.424 91.854 75.88C91.9447 75.3133 92.0467 74.7467 92.16 74.18C92.2733 73.5907 92.3753 73.0467 92.466 72.548C92.5793 72.0267 92.6813 71.6187 92.772 71.324L96.308 57.724H101.17L104.706 71.324C104.774 71.6187 104.865 72.0267 104.978 72.548C105.091 73.0467 105.205 73.5907 105.318 74.18C105.431 74.7693 105.533 75.3473 105.624 75.914C105.715 76.458 105.783 76.934 105.828 77.342C105.896 76.7753 105.998 76.1067 106.134 75.336C106.27 74.5427 106.417 73.7493 106.576 72.956C106.757 72.1627 106.905 71.5053 107.018 70.984L110.112 57.724H115.178ZM139.378 82L137.61 76.22H128.77L127.002 82H121.46L130.028 57.622H136.318L144.92 82H139.378ZM134.618 66.258C134.504 65.8727 134.357 65.3853 134.176 64.796C133.994 64.2067 133.813 63.606 133.632 62.994C133.45 62.382 133.303 61.8493 133.19 61.396C133.076 61.8493 132.918 62.416 132.714 63.096C132.532 63.7533 132.351 64.388 132.17 65C132.011 65.5893 131.886 66.0087 131.796 66.258L130.062 71.902H136.386L134.618 66.258ZM169.958 75.268C169.958 76.696 169.607 77.9427 168.904 79.008C168.202 80.0733 167.182 80.9007 165.844 81.49C164.53 82.0567 162.92 82.34 161.016 82.34C160.178 82.34 159.35 82.2833 158.534 82.17C157.741 82.0567 156.97 81.898 156.222 81.694C155.497 81.4673 154.806 81.1953 154.148 80.878V76.084C155.304 76.5827 156.494 77.0473 157.718 77.478C158.965 77.886 160.2 78.09 161.424 78.09C162.263 78.09 162.932 77.9767 163.43 77.75C163.952 77.5233 164.326 77.2173 164.552 76.832C164.802 76.4467 164.926 76.0047 164.926 75.506C164.926 74.894 164.711 74.3727 164.28 73.942C163.872 73.5113 163.317 73.1147 162.614 72.752C161.912 72.3667 161.107 71.9587 160.2 71.528C159.634 71.256 159.022 70.9387 158.364 70.576C157.707 70.1907 157.072 69.726 156.46 69.182C155.871 68.6153 155.384 67.9353 154.998 67.142C154.613 66.3487 154.42 65.3967 154.42 64.286C154.42 62.8353 154.749 61.6 155.406 60.58C156.086 59.5373 157.038 58.744 158.262 58.2C159.509 57.656 160.971 57.384 162.648 57.384C163.918 57.384 165.119 57.5313 166.252 57.826C167.408 58.1207 168.61 58.54 169.856 59.084L168.19 63.096C167.08 62.6427 166.082 62.2913 165.198 62.042C164.314 61.7927 163.408 61.668 162.478 61.668C161.844 61.668 161.3 61.77 160.846 61.974C160.393 62.178 160.042 62.4613 159.792 62.824C159.566 63.1867 159.452 63.6173 159.452 64.116C159.452 64.6827 159.622 65.17 159.962 65.578C160.302 65.9633 160.812 66.3373 161.492 66.7C162.172 67.0627 163.022 67.4933 164.042 67.992C165.289 68.5813 166.343 69.1933 167.204 69.828C168.088 70.4627 168.768 71.2107 169.244 72.072C169.72 72.9333 169.958 73.9987 169.958 75.268ZM202.149 69.624C202.149 72.344 201.628 74.622 200.585 76.458C199.542 78.294 198.024 79.6767 196.029 80.606C194.057 81.5353 191.677 82 188.889 82H182.021V57.724H189.637C192.176 57.724 194.374 58.1773 196.233 59.084C198.114 59.9907 199.565 61.328 200.585 63.096C201.628 64.8413 202.149 67.0173 202.149 69.624ZM196.811 69.76C196.811 67.9693 196.55 66.496 196.029 65.34C195.508 64.184 194.726 63.334 193.683 62.79C192.663 62.2233 191.405 61.94 189.909 61.94H187.155V77.75H189.365C191.881 77.75 193.751 77.0813 194.975 75.744C196.199 74.4067 196.811 72.412 196.811 69.76ZM224.835 55.514V59.084H229.255V55.514H224.835ZM231.295 60.24V63.334H242.005V60.24H231.295ZM241.971 60.002V63.572H245.031V60.002H241.971ZM232.383 69.386V72.616H243.773V69.386H232.383ZM231.703 74.248V77.58H244.385V74.248H231.703ZM235.681 53.304V80.368H238.979V53.304H235.681ZM228.405 55.514V55.888C227.589 58.914 225.855 64.728 224.359 68.944L227.487 69.556C228.915 65.306 230.615 59.798 231.669 55.854L229.357 55.378L228.813 55.514H228.405ZM232.723 55.82V58.812H240.713V64.796H232.757V67.788H243.603V55.82H232.723ZM227.317 70.44L224.665 71.154C226.535 82.476 230.547 84.516 237.143 84.516H244.079C244.215 83.53 244.691 81.898 245.201 81.082C243.603 81.116 238.639 81.116 237.347 81.116C232.247 81.116 228.779 79.62 227.317 70.44ZM227.011 65.408L226.059 68.638H230.309V65.408H227.011ZM229.221 65.408V65.986C228.643 75.132 226.467 80.232 222.183 82.884C222.897 83.326 224.223 84.482 224.767 85.128C229.153 82.136 231.635 76.186 232.383 65.68L230.411 65.34L229.833 65.408H229.221ZM212.901 80.81L213.717 84.312C216.913 83.7 221.027 82.918 224.903 82.136L224.597 78.77C220.347 79.586 215.859 80.368 212.901 80.81ZM214.601 61.668V64.966H223.917V61.668H214.601ZM213.445 67.414V70.814H224.325V67.414H213.445ZM213.649 72.854C214.125 74.724 214.567 77.206 214.635 78.838L217.151 78.192C217.015 76.594 216.573 74.18 216.029 72.276L213.649 72.854ZM221.979 71.936C221.775 73.568 221.265 75.982 220.857 77.478L223.067 78.022C223.509 76.594 223.985 74.452 224.495 72.514L221.979 71.936ZM217.457 63.028V81.252L220.721 80.742V63.028H217.457ZM217.763 53.134C216.743 55.82 214.873 59.084 212.085 61.532C212.833 62.076 213.989 63.3 214.499 64.116C217.763 61.056 219.735 57.52 220.993 54.902V53.882H219.871V53.134H217.763ZM218.035 53.134V55.752H218.647C220.313 57.384 222.319 60.342 223.203 62.042L225.753 59.118C224.733 57.35 222.557 54.868 220.755 53.134H218.035Z" fill="#FEA30B"/>
</svg>
