<svg width="881" height="91" viewBox="0 0 881 91" fill="none" xmlns="http://www.w3.org/2000/svg">
<path d="M44.636 1.192V18.328H47.228V1.192H44.636ZM39.632 7.78V10.264H51.944V7.78H39.632ZM40.604 17.14V32.26H42.98V17.14H40.604ZM42.008 17.14V19.48H48.812V27.544H42.008V29.92H51.224V17.14H42.008ZM54.896 0.795998C54.068 6.592 52.592 12.28 50.18 15.988C50.648 16.492 51.548 17.572 51.836 18.076C54.572 13.972 56.3 7.672 57.344 1.192L54.896 0.795998ZM54.752 7.78L54.068 10.12H64.4V7.78H54.752ZM60.44 8.716C59.432 20.128 56.768 27.724 49.244 32.08C49.748 32.512 50.648 33.484 50.972 33.952C58.676 29.02 61.628 21.136 62.852 8.896L60.44 8.716ZM54.968 9.4L53.06 10.588C53.852 18.544 55.796 28.732 63.104 33.88C63.464 33.232 64.292 32.26 64.76 31.756C57.632 27.22 55.76 17.32 54.968 9.4ZM38.192 0.975998C36.464 6.484 33.62 11.992 30.452 15.592C30.92 16.276 31.64 17.716 31.892 18.328C35.456 14.152 38.66 7.852 40.712 1.66L38.192 0.975998ZM35.312 9.796V33.88H37.796V7.42L37.724 7.348L35.312 9.796ZM90.896 8.788H102.812V11.74H90.896V8.788ZM90.896 3.928H102.812V6.844H90.896V3.928ZM88.304 1.876V13.792H105.512V1.876H88.304ZM86.072 16.276V18.544H107.24V16.276H86.072ZM85.244 21.64V24.016H107.888V21.64H85.244ZM99.788 18.256V30.856C99.788 31.324 99.644 31.468 99.068 31.504C98.528 31.54 96.728 31.54 94.676 31.468C95.036 32.188 95.468 33.196 95.576 33.916C98.276 33.916 100.004 33.916 101.084 33.484C102.164 33.088 102.488 32.368 102.488 30.928V18.256H99.788ZM88.376 25.852C89.996 27.436 91.94 29.668 92.804 31.108L94.856 29.596C93.92 28.192 91.94 26.068 90.284 24.556L88.376 25.852ZM83.264 8.788C81.104 12.532 77.612 16.24 74.336 18.616C74.804 19.228 75.56 20.668 75.776 21.208C79.34 18.4 83.192 14.044 85.64 9.76L83.264 8.788ZM82.58 0.868C81.032 3.424 77.792 6.412 74.912 8.284C75.38 8.824 76.064 9.868 76.352 10.48C79.556 8.356 83.012 4.972 85.172 1.876L82.58 0.868ZM80.024 15.16V33.88H82.652V12.676L82.544 12.604L80.024 15.16ZM133.412 2.632V5.152H149.216V2.632H133.412ZM132.188 15.268V17.86H151.988V15.268H132.188ZM140.684 10.48V30.46C140.684 31 140.504 31.18 139.892 31.216C139.244 31.252 137.228 31.252 134.96 31.18C135.32 31.9 135.788 33.088 135.932 33.808C138.812 33.844 140.684 33.772 141.872 33.34C142.988 32.908 143.384 32.116 143.384 30.496V10.48H140.684ZM148.244 2.632V3.244C146.804 5.584 143.816 8.968 141.224 10.912C141.692 11.272 142.448 11.992 142.844 12.496C145.724 10.336 149.072 6.844 151.232 3.784L149.468 2.488L148.892 2.632H148.244ZM118.868 8.212V10.732H130.712V8.212H118.868ZM124.304 0.795998C123.08 7.636 120.92 17.284 119.336 22.792L121.604 23.98C123.224 18.004 125.492 8.284 126.86 1.084L124.304 0.795998ZM120.668 21.64C124.7 23.98 129.344 27.652 131.504 30.352L133.124 28.156C130.964 25.492 126.212 22.036 122.18 19.768L120.668 21.64ZM129.812 8.212V8.752C128.912 20.992 125.168 28.624 119.156 31.792C119.732 32.332 120.488 33.304 120.848 33.952C127.472 29.992 131.396 22.36 132.368 8.428L130.748 8.104L130.244 8.212H129.812ZM166.712 34.852C170.492 33.556 172.94 30.604 172.94 26.716C172.94 24.196 171.86 22.54 169.844 22.54C168.404 22.54 167.108 23.44 167.108 25.132C167.108 26.86 168.332 27.724 169.808 27.724C170.492 27.724 171.212 27.544 171.716 26.896L169.772 24.16L170.456 27.22C170.456 29.92 168.836 31.756 165.884 32.98L166.712 34.852ZM218.48 3.244V5.764H239.468V3.244H218.48ZM233.78 4.504V30.496C233.78 31.216 233.492 31.432 232.736 31.468C231.944 31.504 229.28 31.504 226.436 31.432C226.796 32.152 227.228 33.196 227.372 33.88C231.08 33.916 233.276 33.88 234.572 33.484C235.832 33.088 236.372 32.368 236.372 30.496V4.504H233.78ZM220.928 10.876V13.216H227.516V21.604H220.928V23.944H229.928V10.876H220.928ZM219.704 10.876V26.68H222.08V10.876H219.704ZM207.68 2.344V33.916H210.128V4.792H216.068V2.344H207.68ZM215.42 2.344V3.064C214.664 5.512 213.332 9.652 212 12.928C214.628 15.772 215.276 18.292 215.276 20.272C215.276 21.352 215.06 22.36 214.52 22.756C214.196 22.972 213.836 23.044 213.368 23.08C212.792 23.152 212.108 23.116 211.28 23.044C211.676 23.728 211.928 24.772 211.964 25.42C212.756 25.456 213.656 25.456 214.376 25.384C215.132 25.276 215.744 25.06 216.248 24.7C217.256 23.98 217.688 22.432 217.688 20.488C217.688 18.256 217.076 15.628 214.448 12.64C215.672 9.76 217.004 6.232 218.048 3.28L216.284 2.236L215.888 2.344H215.42ZM263.552 13.828C261.86 18.904 258.728 25.924 256.172 30.352L258.656 31.144C261.32 26.788 264.452 20.056 266.72 14.62L263.552 13.828ZM251.744 29.524L252.104 32.368C258.872 32.08 268.952 31.54 278.384 31L278.456 28.408C268.808 28.876 258.332 29.308 251.744 29.524ZM270.464 21.712C273.668 25.528 277.412 30.784 279.104 34.06L281.84 32.584C280.04 29.308 276.332 24.304 273.056 20.524L270.464 21.712ZM259.916 1.84C257.828 7.168 254.264 12.352 250.304 15.592C251.06 16.024 252.32 16.996 252.896 17.536C256.712 13.972 260.492 8.464 262.904 2.668L259.916 1.84ZM272.804 1.804L270.14 2.92C272.912 7.96 277.412 14.08 280.76 17.5C281.3 16.816 282.308 15.772 283.028 15.196C279.716 12.208 275.18 6.52 272.804 1.804ZM293.9 20.452V22.72H326.66V20.452H293.9ZM294.764 2.344V4.72H325.76V2.344H294.764ZM306.392 16.672C304.16 20.2 300.812 25.024 298.508 27.94L301.064 28.804C303.368 25.852 306.68 21.136 309.02 17.392L306.392 16.672ZM317.192 21.244C314.312 28.264 307.256 30.82 294.404 31.504C294.836 32.116 295.268 33.088 295.448 33.88C308.948 32.872 316.616 29.92 319.784 22L317.192 21.244ZM300.452 27.58C309.596 29.272 318.416 31.72 323.924 33.988L325.544 31.792C319.964 29.596 310.712 27.184 301.82 25.6L300.452 27.58ZM304.592 3.244V15.808H307.148V3.244H304.592ZM312.98 3.244V15.808H315.536V3.244H312.98ZM299.084 10.012H321.548V14.908H299.084V10.012ZM296.564 7.816V17.14H324.248V7.816H296.564ZM347.468 15.052V17.536H370.184V15.052H347.468ZM348.62 7.636V10.048H369.104V7.636H348.62ZM357.116 8.752V14.116C357.116 17.824 356.468 23.116 347.72 26.644C348.332 27.112 349.16 28.048 349.52 28.624C358.592 24.556 359.816 18.652 359.816 14.152V8.752H357.116ZM360.572 16.636L358.232 17.14C359.816 23.008 363.092 26.896 368.528 28.804C368.888 28.084 369.644 27.04 370.256 26.5C365.108 25.024 361.94 21.676 360.572 16.636ZM345.416 14.98H337.748V17.5H342.788V27.724H345.416V14.98ZM345.416 26.536H342.968C341.132 28.084 339.008 29.668 337.28 30.82L338.72 33.592C340.664 32.008 342.5 30.46 344.228 28.912C346.532 31.756 349.772 33.016 354.452 33.196C358.448 33.34 365.9 33.268 369.86 33.124C369.968 32.296 370.436 31 370.724 30.352C366.476 30.64 358.376 30.748 354.452 30.604C350.312 30.424 347.108 29.2 345.416 26.536ZM338.144 3.28C340.484 4.864 343.184 7.312 344.336 9.04L346.46 7.276C345.236 5.512 342.5 3.172 340.124 1.66L338.144 3.28ZM364.388 0.759999C363.632 2.596 362.156 5.188 361.04 6.808L363.236 7.636C364.424 6.124 365.9 3.748 367.124 1.696L364.388 0.759999ZM350.024 1.84C351.428 3.64 352.76 6.124 353.228 7.744L355.676 6.664C355.172 5.008 353.768 2.632 352.328 0.903999L350.024 1.84ZM381.344 15.484V18.436H414.284V15.484H381.344ZM435.776 2.956V33.88H438.296V5.368H454.244V33.592H456.836V2.956H435.776ZM439.772 10.588V12.712H453.02V10.588H439.772ZM437.144 29.308V31.72H455.684V29.308H437.144ZM445.244 6.52V17.932H447.44V6.52H445.244ZM443.372 18.688H449.456V24.268H443.372V18.688ZM441.284 16.672V26.32H451.616V16.672H441.284ZM432.032 0.939999C430.268 6.412 427.316 11.848 424.076 15.376C424.544 16.024 425.3 17.5 425.516 18.148C429.116 14.008 432.464 7.816 434.516 1.66L432.032 0.939999ZM429.044 9.76V33.952H431.6V7.24L431.564 7.204L429.044 9.76ZM485.708 26.788C486.392 28.12 487.004 29.992 487.184 31.216L489.416 30.532C489.236 29.38 488.624 27.58 487.832 26.212L485.708 26.788ZM495.32 26.14C494.924 27.436 494.132 29.38 493.52 30.604L495.572 31.216C496.184 30.064 496.976 28.408 497.696 26.824L495.32 26.14ZM486.14 21.316H497.084V24.196H486.14V21.316ZM483.836 19.516V25.996H499.46V19.516H483.836ZM484.916 9.436H498.2V11.992H484.916V9.436ZM484.916 5.152H498.2V7.672H484.916V5.152ZM482.648 3.28V13.864H500.576V3.28H482.648ZM481.784 15.556V17.716H501.404V15.556H481.784ZM481.136 31V33.088H501.836V31H481.136ZM487.724 0.759999V4.576H489.884V0.759999H487.724ZM493.052 0.759999V4.576H495.212V0.759999H493.052ZM488.048 4.216V13.324H489.848V4.216H488.048ZM493.052 4.216V13.324H494.852V4.216H493.052ZM469.004 10.372V12.784H480.956V10.372H469.004ZM469.904 3.136V5.548H480.128V3.136H469.904ZM478.724 15.34V28.66H480.632V15.34H478.724ZM474.008 11.416V33.88H476.312V11.416H474.008ZM469.688 15.376V19.624C469.688 22.9 469.508 26.716 468.464 29.704C468.968 29.956 469.76 30.532 470.12 30.964C471.38 27.58 471.596 23.404 471.596 19.696V15.376H469.688ZM530.204 0.759999C528.98 6.232 526.856 11.416 523.832 14.656C524.408 15.016 525.488 15.808 525.92 16.204C528.944 12.64 531.32 7.168 532.652 1.264L530.204 0.759999ZM542.624 6.808V7.456C541.868 23.26 541.04 28.984 539.852 30.352C539.42 30.82 539.06 30.964 538.484 30.964C537.8 30.964 536.324 30.928 534.704 30.784C535.136 31.504 535.388 32.656 535.46 33.448C537.044 33.556 538.628 33.592 539.564 33.448C540.68 33.34 541.364 33.016 542.084 32.044C543.56 30.28 544.316 24.628 545.144 8.212C545.18 7.816 545.18 6.808 545.18 6.808H542.624ZM529.952 6.808L528.8 9.364H543.704V6.808H529.952ZM533.588 7.6C532.112 13.9 528.656 20.884 524.444 24.196C525.164 24.592 526.028 25.24 526.568 25.78C530.672 22.216 534.092 15.016 535.64 8.644L533.588 7.6ZM538.736 7.816C537.008 17.392 533.012 27.148 526.712 31.648C527.504 32.044 528.476 32.728 529.016 33.304C535.064 28.444 539.096 18.508 540.896 8.824L538.736 7.816ZM512.24 20.74L512.96 23.368C516.596 22.216 521.456 20.704 526.028 19.264L525.668 16.888C520.772 18.364 515.624 19.876 512.24 20.74ZM518.972 0.795998V33.88H521.492V0.795998H518.972ZM514.508 2.848C514.076 7.276 513.356 11.848 511.988 14.908C512.564 15.16 513.608 15.772 514.04 16.096C515.408 12.892 516.308 8.032 516.848 3.244L514.508 2.848ZM514.724 8.14L514.292 10.768H525.2V8.14H514.724ZM572.936 12.64V15.124H584.924V12.64H572.936ZM572.756 29.38V31.828H585.716V29.38H572.756ZM578.66 3.892C580.82 7.42 584.852 12.028 588.38 14.944C588.812 14.152 589.46 13.144 590.072 12.496C586.436 9.832 582.404 5.188 579.848 1.12H577.22C575.348 4.936 571.424 9.868 567.536 12.856C568.076 13.432 568.796 14.44 569.12 15.16C573.008 12.064 576.68 7.456 578.66 3.892ZM571.388 19.444V33.88H573.872V21.892H584.276V33.736H586.868V19.444H571.388ZM561.74 0.795998C560.804 3.172 559.148 6.628 557.78 8.68L559.652 9.544C561.056 7.564 562.748 4.36 564.116 1.732L561.74 0.795998ZM565.772 4.9C563.864 8.788 560.48 14.26 557.816 17.5L559.472 18.436C562.136 15.268 565.592 10.048 568.04 5.908L565.772 4.9ZM556.052 8.356C557.996 10.084 560.264 12.604 561.236 14.296L562.676 12.244C561.704 10.624 559.436 8.284 557.42 6.592L556.052 8.356ZM564.512 13.252C565.952 15.628 567.284 18.796 567.788 20.812L569.804 19.876C569.3 17.896 567.86 14.8 566.384 12.496L564.512 13.252ZM555.944 16.924L556.16 19.372C559.436 19.156 563.792 18.904 568.112 18.616L568.148 16.384C563.576 16.636 559.076 16.816 555.944 16.924ZM565.448 21.748C566.348 23.836 567.32 26.608 567.644 28.408L569.732 27.688C569.372 25.888 568.4 23.152 567.392 21.136L565.448 21.748ZM557.96 21.352C557.528 24.52 556.808 27.724 555.62 29.92C556.196 30.172 557.276 30.676 557.744 30.964C558.896 28.66 559.796 25.168 560.3 21.784L557.96 21.352ZM561.848 17.932V33.988H564.26V17.932H561.848ZM615.2 0.939999C614.012 6.232 611.924 11.416 609.26 14.764C609.872 15.16 610.952 16.024 611.42 16.492C614.192 12.82 616.46 7.276 617.864 1.516L615.2 0.939999ZM614.588 16.204C613.58 20.524 611.852 24.808 609.62 27.58C610.268 27.904 611.42 28.624 611.96 29.056C614.156 26.032 616.1 21.46 617.216 16.744L614.588 16.204ZM614.876 7.708L613.832 10.228H631.076V7.708H614.876ZM620.456 8.752V30.604C620.456 31.072 620.312 31.216 619.844 31.216C619.34 31.216 617.792 31.252 616.1 31.18C616.496 31.972 616.892 33.16 617.072 33.916C619.304 33.916 620.852 33.844 621.824 33.376C622.832 32.944 623.156 32.152 623.156 30.604V8.752H620.456ZM625.748 16.744C627.728 20.524 629.528 25.6 630.104 28.912L632.66 28.048C632.048 24.7 630.248 19.732 628.16 15.952L625.748 16.744ZM630.284 7.708V8.104C629.924 10.48 629.456 13.504 629.06 15.304L631.4 15.736C631.868 13.792 632.48 10.696 632.984 8.032L631.112 7.636L630.644 7.708H630.284ZM607.964 0.903999C605.948 6.376 602.564 11.776 599 15.268C599.504 15.88 600.26 17.32 600.548 17.932C604.436 13.9 608.144 7.816 610.52 1.696L607.964 0.903999ZM604.22 10.192V33.844H606.812V7.672L606.74 7.636L604.22 10.192ZM658.904 22.036V31.9H661.532V22.036H658.904ZM653.468 13.324H667.076V16.744H653.468V13.324ZM650.948 11.272V18.832H669.776V11.272H650.948ZM647.636 20.92V33.988H650.228V23.008H670.64V33.88H673.34V20.92H647.636ZM649.148 25.888V27.868H671.612V25.888H649.148ZM649.148 30.856V32.944H671.612V30.856H649.148ZM658.724 0.759999V7.528H661.46V0.759999H658.724ZM645.152 6.304V13.756H647.744V8.68H672.872V13.756H675.572V6.304H645.152ZM648.14 2.2C649.292 3.604 650.588 5.584 651.164 6.844L653.684 5.692C653.036 4.432 651.74 2.596 650.516 1.228L648.14 2.2ZM669.74 1.084C669.02 2.524 667.616 4.576 666.536 5.908L668.768 6.736C669.884 5.548 671.288 3.748 672.512 2.02L669.74 1.084ZM700.736 1.192V18.328H703.328V1.192H700.736ZM695.732 7.78V10.264H708.044V7.78H695.732ZM696.704 17.14V32.26H699.08V17.14H696.704ZM698.108 17.14V19.48H704.912V27.544H698.108V29.92H707.324V17.14H698.108ZM710.996 0.795998C710.168 6.592 708.692 12.28 706.28 15.988C706.748 16.492 707.648 17.572 707.936 18.076C710.672 13.972 712.4 7.672 713.444 1.192L710.996 0.795998ZM710.852 7.78L710.168 10.12H720.5V7.78H710.852ZM716.54 8.716C715.532 20.128 712.868 27.724 705.344 32.08C705.848 32.512 706.748 33.484 707.072 33.952C714.776 29.02 717.728 21.136 718.952 8.896L716.54 8.716ZM711.068 9.4L709.16 10.588C709.952 18.544 711.896 28.732 719.204 33.88C719.564 33.232 720.392 32.26 720.86 31.756C713.732 27.22 711.86 17.32 711.068 9.4ZM694.292 0.975998C692.564 6.484 689.72 11.992 686.552 15.592C687.02 16.276 687.74 17.716 687.992 18.328C691.556 14.152 694.76 7.852 696.812 1.66L694.292 0.975998ZM691.412 9.796V33.88H693.896V7.42L693.824 7.348L691.412 9.796ZM731.552 23.8V26.104H763.844V23.8H731.552ZM749.48 24.592L746.852 25.024C749.3 30.82 754.34 33.16 763.052 33.88C763.376 33.124 764.024 32.008 764.636 31.432C756.5 31.036 751.46 29.272 749.48 24.592ZM752 22.072C754.448 22.72 757.616 23.836 759.272 24.664L760.46 22.756C758.732 22 755.528 20.956 753.116 20.416L752 22.072ZM743.396 12.136V14.188H764.276V12.136H743.396ZM756.356 9.472V17.608C756.356 18.004 756.212 18.112 755.744 18.112C755.276 18.148 753.728 18.148 751.928 18.112C752.288 18.688 752.612 19.516 752.756 20.2C755.132 20.2 756.644 20.2 757.688 19.84C758.66 19.516 758.912 18.904 758.912 17.644V9.472H756.356ZM731.336 11.884V14.116H740.84V11.884H731.336ZM739.4 0.759999V20.884H741.92V0.759999H739.4ZM733.172 1.84V9.256H740.84V7.096H735.476V1.84H733.172ZM746.132 15.484C747.572 16.528 749.192 18.112 749.912 19.228L751.82 17.932C751.028 16.852 749.372 15.34 747.932 14.332L746.132 15.484ZM745.52 5.8C747.248 6.844 749.264 8.392 750.2 9.508L751.856 8.716C750.884 7.564 748.832 6.016 747.14 5.044L745.52 5.8ZM749.048 4.36C751.1 5.368 753.476 6.988 754.628 8.176L756.14 7.276C754.952 6.052 752.504 4.504 750.488 3.532L749.048 4.36ZM759.956 2.488V2.848C757.328 7.168 750.488 9.328 743.756 10.084C744.152 10.552 744.656 11.38 744.872 11.92C752.108 10.876 759.236 8.536 762.332 3.172L760.892 2.416L760.424 2.488H759.956ZM753.188 0.759999C751.208 2.56 747.608 4.288 742.856 5.476C743.324 5.836 743.972 6.556 744.296 7.06C749.3 5.548 753.008 3.64 755.564 1.264L753.188 0.759999ZM751.784 2.488L749.66 4.18H760.676V2.488H751.784ZM733.748 12.928V14.656C733.748 16.168 733.352 18.868 731.012 20.596C731.66 20.92 732.668 21.424 733.136 21.856C735.62 19.84 736.196 16.6 736.196 14.692V12.928H733.748ZM746.132 20.2V22.792C746.132 25.708 744.44 29.74 730.724 31.756C731.228 32.368 731.912 33.34 732.236 33.988C746.924 31.792 748.832 26.824 748.832 22.864V20.2H746.132ZM779.468 7.06V8.86H794.48V7.06H779.468ZM777.704 2.128V4.288H795.02V2.128H777.704ZM776.552 2.128V14.62C776.552 19.696 776.408 26.752 774.428 31.72C774.968 31.936 775.976 32.548 776.372 32.944C778.46 27.724 778.784 19.948 778.784 14.62V2.128H776.552ZM782.744 4.864V10.876H784.76V4.864H782.744ZM788.72 4.864V10.876H790.772V4.864H788.72ZM779.324 22.432V33.88H781.412V24.376H793.184V22.432H779.324ZM789.008 25.528C789.728 27.112 790.304 29.236 790.412 30.604L791.924 30.208C791.744 28.876 791.132 26.752 790.376 25.168L789.008 25.528ZM782.096 28.156L782.456 30.064C784.868 29.74 787.604 29.38 790.484 28.948L790.448 27.22C787.28 27.616 784.292 27.94 782.096 28.156ZM782.168 16.78H791.744V18.868H782.168V16.78ZM782.168 13.144H791.744V15.16H782.168V13.144ZM780.224 11.452V20.56H793.76V11.452H780.224ZM792.356 22.432V31.144C792.356 31.468 792.248 31.54 791.924 31.54C791.636 31.54 790.628 31.54 789.476 31.504C789.764 32.044 790.052 32.764 790.124 33.268C791.78 33.268 792.86 33.268 793.58 32.98C794.3 32.62 794.48 32.152 794.48 31.18V22.432H792.356ZM785.84 12.208V23.368H787.928V12.208H785.84ZM785.804 23.008V28.66H787.712V23.008H785.804ZM794.588 9.292V11.74H806.144V9.292H794.588ZM804.884 9.292V9.868C804.596 24.772 804.2 29.884 803.372 31C803.048 31.432 802.76 31.54 802.184 31.54C801.536 31.54 800.06 31.54 798.44 31.396C798.836 32.08 799.052 33.088 799.124 33.772C800.708 33.88 802.292 33.916 803.228 33.808C804.272 33.664 804.92 33.412 805.532 32.512C806.648 31.036 806.936 25.96 807.296 10.552C807.296 10.192 807.296 9.292 807.296 9.292H804.884ZM798.44 1.048C798.404 13.432 798.368 25.78 793.4 32.368C794.048 32.728 794.984 33.52 795.416 34.06C800.708 26.824 800.816 14.116 800.888 1.048H798.44ZM822.812 34.852C826.592 33.556 829.04 30.604 829.04 26.716C829.04 24.196 827.96 22.54 825.944 22.54C824.504 22.54 823.208 23.44 823.208 25.132C823.208 26.86 824.432 27.724 825.908 27.724C826.592 27.724 827.312 27.544 827.816 26.896L825.872 24.16L826.556 27.22C826.556 29.92 824.936 31.756 821.984 32.98L822.812 34.852ZM8.49538 73.536H1.11538V76.02H5.83138V84.048H8.49538V73.536ZM8.49538 82.608H6.08338C4.31938 84.156 2.26738 85.74 0.647381 86.892L2.05138 89.592C3.88738 88.008 5.65138 86.46 7.30738 84.912C9.64738 87.756 12.9234 89.016 17.6394 89.232C21.6714 89.34 29.2674 89.268 33.2634 89.124C33.4074 88.296 33.8034 87.036 34.1634 86.424C29.8434 86.712 21.5994 86.784 17.6394 86.676C13.3914 86.496 10.2234 85.236 8.49538 82.608ZM2.66338 58.884C4.85938 60.108 7.37938 61.98 8.56738 63.384L10.4394 61.548C9.21538 60.144 6.62338 58.344 4.46338 57.228L2.66338 58.884ZM1.25938 66.228C3.56338 67.344 6.22738 69.18 7.48738 70.548L9.35938 68.64C8.02738 67.236 5.29138 65.508 3.05938 64.464L1.25938 66.228ZM10.5834 62.772V64.788H33.9474V62.772H10.5834ZM13.3914 71.376V73.32H31.3914V71.376H13.3914ZM13.3914 67.128V69.072H31.3914V67.128H13.3914ZM13.8954 58.452V60.396H30.9954V58.452H13.8954ZM15.7314 77.712H28.9794V81.96H15.7314V77.712ZM13.2474 75.732V83.94H31.5354V75.732H13.2474ZM52.0194 71.34V73.284H55.3314V71.34H52.0194ZM59.6874 60.18V89.736H62.3154V60.18H59.6874ZM46.9434 66.12V89.808H49.5354V68.64H74.3034V66.12H46.9434ZM72.9714 66.12V86.712C72.9714 87.252 72.8274 87.396 72.2514 87.432C71.6754 87.468 69.8034 87.468 67.8594 87.396C68.2194 88.08 68.6154 89.124 68.7594 89.808C71.3154 89.808 73.1514 89.772 74.2314 89.376C75.2754 88.944 75.6354 88.224 75.6354 86.748V66.12H72.9714ZM54.6114 71.34C54.6114 75.444 54.9354 80.736 58.1394 84.552C58.4634 84.192 59.2194 83.58 59.6514 83.328C56.5554 79.728 56.2674 75.12 56.2674 71.34H54.6114ZM54.3234 72.924C53.7834 77.388 52.5234 81.06 50.0754 83.436C50.5074 83.724 51.2634 84.3 51.5874 84.624C54.1074 81.996 55.5834 78.036 56.1954 73.176L54.3234 72.924ZM66.9594 72.744C66.4554 77.1 65.1954 80.772 62.7834 83.184C63.2514 83.472 64.0074 84.048 64.3314 84.372C66.7794 81.744 68.2194 77.784 68.8674 72.996L66.9594 72.744ZM64.5474 71.34V73.284H68.2194V71.34H64.5474ZM67.2474 71.34C67.2474 75.444 67.6434 80.7 71.0274 84.444C71.3514 84.12 72.1434 83.544 72.6114 83.328C69.2634 79.764 69.0114 75.156 69.0114 71.34H67.2474ZM45.6834 58.92V61.584H76.8594V58.92H45.6834ZM105.119 63.492V65.508H118.547V63.492H105.119ZM105.119 68.532V70.548H118.547V68.532H105.119ZM100.907 73.608V76.02H121.499V73.608H100.907ZM103.859 58.128V74.868H106.451V60.504H119.951V58.128H103.859ZM100.871 86.82L101.375 89.412C104.759 88.8 109.187 88.008 113.471 87.18L113.363 84.804C108.755 85.596 104.003 86.388 100.871 86.82ZM111.851 74.76L109.583 75.192C111.311 82.104 114.659 87.432 120.203 89.952C120.599 89.232 121.391 88.152 122.003 87.612C116.711 85.596 113.363 80.772 111.851 74.76ZM119.159 77.028C117.683 78.468 115.055 80.556 113.111 81.78L114.803 82.86C116.783 81.744 119.339 79.98 121.391 78.324L119.159 77.028ZM103.931 74.436V87.396L106.523 86.892V74.436H103.931ZM90.1074 74.364V76.812H99.3594V74.364H90.1074ZM98.1714 74.364V74.796C97.6674 83.076 97.0554 86.244 96.2274 87.072C95.9394 87.396 95.5794 87.468 94.9674 87.468C94.3554 87.468 92.7714 87.468 91.1154 87.288C91.5114 87.972 91.7994 89.052 91.8354 89.808C93.5634 89.916 95.2554 89.916 96.1194 89.844C97.1994 89.772 97.8474 89.484 98.5314 88.8C99.6114 87.612 100.187 84.264 100.763 75.516C100.835 75.156 100.871 74.364 100.871 74.364H98.1714ZM90.2154 66.912C89.8914 70.44 89.2074 75.156 88.6314 78.036L91.1514 78.324C91.6914 75.408 92.3034 70.62 92.6994 66.912H90.2154ZM90.5754 66.912V69.432H100.259V58.668H89.0994V61.152H97.7754V66.912H90.5754ZM147.347 72.42V74.4H165.059V72.42H147.347ZM146.699 87.18V89.232H165.311V87.18H146.699ZM152.711 56.796V61.296H154.763V56.796H152.711ZM157.319 56.796V61.296H159.371V56.796H157.319ZM151.379 77.892H160.811V81.06H151.379V77.892ZM149.147 76.128V82.824H163.151V76.128H149.147ZM150.551 66.228H161.639V68.712H150.551V66.228ZM150.551 61.98H161.639V64.428H150.551V61.98ZM148.427 60.108V70.62H163.835V60.108H148.427ZM150.839 83.544C151.559 84.84 152.135 86.604 152.315 87.792L154.403 87.036C154.187 85.848 153.575 84.156 152.783 82.896L150.839 83.544ZM159.191 82.86C158.831 84.048 158.111 85.884 157.535 87.108L159.299 87.72C159.911 86.604 160.739 84.984 161.495 83.508L159.191 82.86ZM136.223 76.956V78.9H144.251V76.956H136.223ZM136.223 81.564V83.544H144.251V81.564H136.223ZM134.963 72.42V89.916H137.267V74.4H144.143V72.42H134.963ZM142.703 72.42V87.324C142.703 87.684 142.559 87.792 142.199 87.792C141.875 87.828 140.723 87.828 139.463 87.792C139.751 88.368 140.075 89.268 140.183 89.88C142.091 89.88 143.279 89.88 144.035 89.484C144.827 89.124 145.043 88.512 145.043 87.36V72.42H142.703ZM134.927 58.056V69H137.015V60.108H142.955V69H145.079V58.056H134.927ZM132.875 68.064V73.248H134.927V70.044H145.079V73.248H147.203V68.064H132.875ZM138.887 62.448V68.82H140.615V64.176H144.323V62.448H138.887ZM153.071 60.828V69.684H154.763V60.828H153.071ZM157.319 60.828V69.684H159.011V60.828H157.319ZM194.255 65.436V67.524H204.191V65.436H194.255ZM193.031 71.664H196.343V76.272H193.031V71.664ZM191.123 69.792V78.144H198.359V69.792H191.123ZM202.103 71.664H205.631V76.272H202.103V71.664ZM200.195 69.792V78.144H207.683V69.792H200.195ZM193.823 79.116C193.283 83.22 191.807 86.424 188.963 88.404C189.503 88.764 190.367 89.592 190.691 90.024C193.751 87.684 195.479 84.084 196.163 79.26L193.823 79.116ZM193.427 83.76C194.903 85.128 196.703 87.036 197.567 88.26L199.115 86.676C198.251 85.488 196.379 83.688 194.939 82.392L193.427 83.76ZM202.823 79.08C202.247 83.148 200.699 86.316 197.855 88.296C198.431 88.656 199.295 89.52 199.619 89.916C202.679 87.576 204.515 84.012 205.199 79.224L202.823 79.08ZM202.283 83.904C204.155 85.74 206.387 88.296 207.431 89.88L209.195 88.512C208.115 86.964 205.847 84.48 204.011 82.716L202.283 83.904ZM199.007 59.316C201.059 62.628 204.659 66.192 208.079 68.28C208.403 67.596 208.979 66.588 209.483 65.94C206.063 64.14 202.427 60.576 200.159 56.904H197.675C196.019 60.324 192.527 64.14 188.855 66.264C189.323 66.84 189.899 67.812 190.187 68.46C193.823 66.192 197.207 62.52 199.007 59.316ZM178.775 63.744V65.868H188.783V63.744H178.775ZM178.775 69.18V71.268H188.855V69.18H178.775ZM177.407 74.652V76.812H188.423V74.652H177.407ZM182.843 59.46V75.768H185.003V59.46H182.843ZM183.923 78.792C184.787 80.268 185.651 82.212 186.011 83.508L187.307 82.968C186.947 81.708 186.047 79.764 185.147 78.36L183.923 78.792ZM181.727 79.296C182.411 81.132 182.987 83.544 183.131 85.128L184.535 84.804C184.391 83.256 183.743 80.844 183.023 79.008L181.727 79.296ZM179.531 79.656C179.855 81.78 180.035 84.444 179.963 86.208L181.439 86.028C181.475 84.264 181.295 81.6 180.935 79.476L179.531 79.656ZM177.155 79.008C177.047 82.032 176.687 85.236 175.463 87.036L176.975 87.9C178.307 85.92 178.667 82.5 178.811 79.296L177.155 79.008ZM177.407 58.236V75.84H179.639V60.432H189.467V58.236H177.407ZM187.559 74.652V75.048C187.235 83.688 186.911 86.784 186.299 87.468C186.047 87.828 185.795 87.9 185.363 87.9C184.895 87.9 183.851 87.9 182.663 87.756C182.951 88.332 183.167 89.268 183.239 89.88C184.427 89.952 185.651 89.952 186.335 89.88C187.163 89.808 187.703 89.592 188.207 88.908C189.071 87.864 189.395 84.696 189.755 75.696C189.791 75.336 189.791 74.652 189.791 74.652H187.559ZM229.103 74.904V77.136H242.171V74.904H229.103ZM227.555 74.904V85.452C227.555 88.8 228.887 89.556 233.423 89.556C234.395 89.556 242.099 89.556 243.179 89.556C247.103 89.556 248.039 88.332 248.435 83.58C247.715 83.436 246.527 83.04 245.915 82.572C245.663 86.424 245.303 87.036 243.035 87.036C241.307 87.036 234.755 87.036 233.459 87.036C230.723 87.036 230.219 86.748 230.219 85.452V74.904H227.555ZM241.307 74.904V75.228C241.055 78.972 240.803 80.484 240.371 80.916C240.119 81.168 239.795 81.204 239.183 81.204C238.571 81.204 236.771 81.204 234.935 81.024C235.295 81.636 235.583 82.5 235.619 83.148C237.563 83.256 239.435 83.256 240.335 83.22C241.343 83.148 242.027 82.968 242.603 82.392C243.323 81.672 243.683 79.944 243.935 75.912C244.007 75.552 244.007 74.904 244.007 74.904H241.307ZM220.139 68.892V71.304H252.179V68.892H220.139ZM226.079 62.484V64.86H246.167V62.484H226.079ZM240.371 63.636L238.067 64.392C240.695 70.62 245.519 76.056 251.099 78.756C251.495 78.072 252.323 77.064 252.971 76.524C247.535 74.256 242.711 69.18 240.371 63.636ZM241.883 58.704C244.763 61.044 248.147 64.356 249.659 66.48L251.927 65.004C250.271 62.844 246.815 59.64 243.971 57.408L241.883 58.704ZM227.303 57.48C225.755 60.36 223.127 63.096 220.391 64.896C220.967 65.292 221.939 66.156 222.407 66.624C225.143 64.608 228.023 61.476 229.823 58.2L227.303 57.48ZM234.215 56.796C231.947 66.552 227.303 73.32 219.239 77.172C219.851 77.676 220.895 78.72 221.291 79.26C229.391 74.904 234.359 67.812 236.915 57.264L234.215 56.796ZM278.639 56.94C277.451 62.232 275.363 67.416 272.699 70.764C273.311 71.16 274.391 72.024 274.859 72.492C277.631 68.82 279.899 63.276 281.303 57.516L278.639 56.94ZM278.027 72.204C277.019 76.524 275.291 80.808 273.059 83.58C273.707 83.904 274.859 84.624 275.399 85.056C277.595 82.032 279.539 77.46 280.655 72.744L278.027 72.204ZM278.315 63.708L277.271 66.228H294.515V63.708H278.315ZM283.895 64.752V86.604C283.895 87.072 283.751 87.216 283.283 87.216C282.779 87.216 281.231 87.252 279.539 87.18C279.935 87.972 280.331 89.16 280.511 89.916C282.743 89.916 284.291 89.844 285.263 89.376C286.271 88.944 286.595 88.152 286.595 86.604V64.752H283.895ZM289.187 72.744C291.167 76.524 292.967 81.6 293.543 84.912L296.099 84.048C295.487 80.7 293.687 75.732 291.599 71.952L289.187 72.744ZM293.723 63.708V64.104C293.363 66.48 292.895 69.504 292.499 71.304L294.839 71.736C295.307 69.792 295.919 66.696 296.423 64.032L294.551 63.636L294.083 63.708H293.723ZM271.403 56.904C269.387 62.376 266.003 67.776 262.439 71.268C262.943 71.88 263.699 73.32 263.987 73.932C267.875 69.9 271.583 63.816 273.959 57.696L271.403 56.904ZM267.659 66.192V89.844H270.251V63.672L270.179 63.636L267.659 66.192ZM314.243 70.98H307.259V73.5H311.687V83.724H314.243V70.98ZM314.243 82.644H311.939C310.283 84.228 308.375 85.848 306.827 87.036L308.231 89.592C309.959 87.972 311.579 86.424 313.127 84.876C315.395 87.72 318.671 89.016 323.459 89.196C327.563 89.34 335.411 89.268 339.515 89.088C339.623 88.332 340.055 87.108 340.379 86.532C335.951 86.82 327.491 86.928 323.423 86.748C319.139 86.568 315.935 85.344 314.243 82.644ZM307.439 58.992C309.527 60.792 311.867 63.384 312.803 65.184L315.071 63.636C314.063 61.836 311.651 59.352 309.527 57.624L307.439 58.992ZM316.907 71.988V74.076H338.759V71.988H316.907ZM315.755 77.532V79.656H339.875V77.532H315.755ZM322.235 69.396V78.576H324.827V69.396H322.235ZM330.731 69.396V78.576H333.287V69.396H330.731ZM317.807 62.412V64.32H326.519V58.2H316.439V60.072H324.143V62.412H317.807ZM317.051 62.412V66.192C317.051 68.352 317.771 68.892 320.435 68.892C320.975 68.892 324.395 68.892 324.971 68.892C326.807 68.892 327.491 68.28 327.743 65.94C327.095 65.832 326.195 65.544 325.763 65.184C325.655 66.768 325.475 66.984 324.611 66.984C323.927 66.984 321.191 66.984 320.687 66.984C319.535 66.984 319.355 66.84 319.355 66.156V62.412H317.051ZM329.687 62.412V64.32H338.255V58.2H328.247V60.072H335.915V62.412H329.687ZM328.895 62.412V66.156C328.895 68.352 329.651 68.892 332.387 68.892C332.963 68.892 336.635 68.892 337.211 68.892C339.155 68.892 339.839 68.28 340.091 65.832C339.443 65.688 338.543 65.4 338.075 65.076C337.967 66.768 337.787 66.984 336.887 66.984C336.167 66.984 333.215 66.984 332.639 66.984C331.415 66.984 331.199 66.84 331.199 66.156V62.412H328.895ZM330.083 81.276C332.567 82.572 335.231 84.3 336.671 85.632L339.335 84.444C337.607 83.112 334.655 81.348 332.027 80.088L330.083 81.276ZM323.495 80.016C321.875 81.492 319.175 82.86 316.727 83.832C317.303 84.192 318.311 85.056 318.707 85.524C321.119 84.372 324.035 82.608 325.871 80.844L323.495 80.016ZM350.963 71.484V74.436H383.903V71.484H350.963ZM411.299 63.492V65.508H424.727V63.492H411.299ZM411.299 68.532V70.548H424.727V68.532H411.299ZM407.087 73.608V76.02H427.679V73.608H407.087ZM410.039 58.128V74.868H412.631V60.504H426.131V58.128H410.039ZM407.051 86.82L407.555 89.412C410.939 88.8 415.367 88.008 419.651 87.18L419.543 84.804C414.935 85.596 410.183 86.388 407.051 86.82ZM418.031 74.76L415.763 75.192C417.491 82.104 420.839 87.432 426.383 89.952C426.779 89.232 427.571 88.152 428.183 87.612C422.891 85.596 419.543 80.772 418.031 74.76ZM425.339 77.028C423.863 78.468 421.235 80.556 419.291 81.78L420.983 82.86C422.963 81.744 425.519 79.98 427.571 78.324L425.339 77.028ZM410.111 74.436V87.396L412.703 86.892V74.436H410.111ZM396.287 74.364V76.812H405.539V74.364H396.287ZM404.351 74.364V74.796C403.847 83.076 403.235 86.244 402.407 87.072C402.119 87.396 401.759 87.468 401.147 87.468C400.535 87.468 398.951 87.468 397.295 87.288C397.691 87.972 397.979 89.052 398.015 89.808C399.743 89.916 401.435 89.916 402.299 89.844C403.379 89.772 404.027 89.484 404.711 88.8C405.791 87.612 406.367 84.264 406.943 75.516C407.015 75.156 407.051 74.364 407.051 74.364H404.351ZM396.395 66.912C396.071 70.44 395.387 75.156 394.811 78.036L397.331 78.324C397.871 75.408 398.483 70.62 398.879 66.912H396.395ZM396.755 66.912V69.432H406.439V58.668H395.279V61.152H403.955V66.912H396.755ZM442.511 90.852C446.291 89.556 448.739 86.604 448.739 82.716C448.739 80.196 447.659 78.54 445.643 78.54C444.203 78.54 442.907 79.44 442.907 81.132C442.907 82.86 444.131 83.724 445.607 83.724C446.291 83.724 447.011 83.544 447.515 82.896L445.571 80.16L446.255 83.22C446.255 85.92 444.635 87.756 441.683 88.98L442.511 90.852ZM505.907 59.136C508.031 61.008 510.479 63.6 511.559 65.328L513.791 63.744C512.603 62.088 510.083 59.532 507.959 57.732L505.907 59.136ZM482.579 67.416V70.008H514.655V67.416H482.579ZM482.039 78L482.831 80.7C487.367 79.692 493.739 78.216 499.643 76.848L499.427 74.4C493.091 75.768 486.323 77.208 482.039 78ZM490.319 60.432V86.388C490.319 87.036 490.103 87.216 489.455 87.216C488.807 87.252 486.683 87.288 484.379 87.18C484.775 87.972 485.243 89.196 485.387 89.916C488.375 89.952 490.283 89.844 491.435 89.412C492.587 88.98 493.019 88.188 493.019 86.424V60.432H490.319ZM497.159 57.192C493.703 58.488 487.871 59.712 482.795 60.504C483.155 61.116 483.479 62.124 483.623 62.736C488.771 62.016 494.891 60.9 499.067 59.46L497.159 57.192ZM500.759 57.084C500.903 74.22 504.107 90.024 511.163 90.024C513.863 90.024 514.835 88.26 515.339 82.284C514.583 81.996 513.611 81.384 513.035 80.772C512.819 85.416 512.387 87.288 511.415 87.288C507.023 87.288 503.495 73.608 503.567 57.084H500.759ZM510.515 71.664C507.311 77.748 501.371 83.292 494.963 86.388C495.647 87 496.403 87.864 496.835 88.548C503.459 85.056 509.399 79.26 512.927 72.672L510.515 71.664ZM529.559 65.256V83.328C529.559 87.828 531.395 88.872 537.263 88.872C538.595 88.872 549.323 88.872 550.799 88.872C556.739 88.872 557.891 86.928 558.611 80.268C557.783 80.124 556.595 79.656 555.839 79.152C555.371 84.984 554.759 86.208 550.799 86.208C548.387 86.208 538.991 86.208 537.083 86.208C533.123 86.208 532.331 85.668 532.331 83.4V65.256H529.559ZM531.071 71.16V73.86H552.311V71.16H531.071ZM527.687 59.028V61.692H551.231V75.624H554.003V59.028H527.687ZM582.803 58.812V61.224H602.207V58.812H582.803ZM583.775 77.28V79.692H601.307V77.28H583.775ZM581.471 86.46V88.872H602.675V86.46H581.471ZM591.083 78.216V87.936H593.783V78.216H591.083ZM586.259 62.34C585.431 64.068 583.883 66.768 582.443 68.964C584.315 71.484 585.971 74.256 586.727 76.128L588.959 75.192C588.203 73.572 586.619 71.016 585.071 68.928C586.223 67.092 587.663 64.788 588.599 62.952L586.259 62.34ZM592.487 62.34C591.659 64.068 590.039 66.768 588.491 68.964C590.507 71.448 592.271 74.256 593.135 76.128L595.295 75.156C594.503 73.536 592.811 71.016 591.155 68.928C592.379 67.092 593.855 64.788 594.863 62.952L592.487 62.34ZM598.715 62.34C597.851 64.068 596.159 66.768 594.611 68.964C596.699 71.448 598.607 74.256 599.507 76.128L601.703 75.084C600.803 73.464 599.003 70.944 597.275 68.928C598.535 67.092 600.011 64.824 601.055 62.988L598.715 62.34ZM575.135 56.796C574.199 59.172 572.507 62.7 571.211 64.788L573.047 65.58C574.451 63.6 576.143 60.36 577.511 57.696L575.135 56.796ZM579.167 60.9C577.187 64.68 573.803 70.044 571.103 73.248L572.759 74.184C575.459 71.052 578.951 65.94 581.435 61.944L579.167 60.9ZM569.375 64.284C571.283 66.12 573.443 68.676 574.343 70.404L575.891 68.388C574.955 66.732 572.759 64.32 570.815 62.556L569.375 64.284ZM577.763 69.144C579.203 71.52 580.607 74.724 581.075 76.74L583.199 75.768C582.695 73.788 581.219 70.692 579.707 68.316L577.763 69.144ZM569.087 72.708L569.375 75.12C572.651 74.904 576.971 74.652 581.255 74.364V72.096C576.719 72.348 572.219 72.564 569.087 72.708ZM578.699 77.856C579.563 79.944 580.319 82.68 580.535 84.444L582.623 83.796C582.371 82.032 581.615 79.332 580.679 77.244L578.699 77.856ZM571.247 77.352C570.851 80.484 570.167 83.724 569.015 85.92C569.555 86.172 570.635 86.64 571.067 86.928C572.219 84.624 573.047 81.168 573.515 77.748L571.247 77.352ZM575.063 73.752V89.88H577.439V73.752H575.063ZM628.451 79.584V89.88H631.115V79.584H628.451ZM616.355 81.996V89.304H618.983V83.976H642.311V81.996H616.355ZM641.303 81.996V86.712C641.303 87.108 641.159 87.216 640.619 87.252C640.079 87.288 638.351 87.288 636.263 87.216C636.623 87.828 637.019 88.584 637.163 89.268C639.791 89.268 641.519 89.268 642.599 88.944C643.643 88.584 643.931 87.972 643.931 86.712V81.996H641.303ZM630.107 60V62.088H645.947V60H630.107ZM615.383 58.74V60.288H628.775V58.74H615.383ZM614.843 65.292V66.876H629.207V65.292H614.843ZM614.087 61.98V63.6H629.855V61.98H614.087ZM631.799 63.708C633.131 64.968 634.535 66.804 635.147 68.064L637.055 66.912C636.407 65.688 634.931 63.924 633.599 62.7L631.799 63.708ZM613.871 69.324L614.087 71.196C618.263 70.836 624.203 70.296 629.963 69.756L629.999 68.1C623.987 68.604 617.903 69.072 613.871 69.324ZM639.503 56.832V68.424C639.503 68.82 639.395 68.964 638.891 68.964C638.495 68.964 637.019 68.964 635.291 68.964C635.651 69.504 636.083 70.332 636.227 70.944C638.459 70.944 639.863 70.944 640.835 70.584C641.771 70.224 642.059 69.684 642.059 68.46V56.832H639.503ZM620.711 56.796V63.06H623.231V56.796H620.711ZM620.711 63.06V69.828H623.231V63.06H620.711ZM620.495 76.92H639.431V78.576H620.495V76.92ZM620.495 73.716H639.431V75.3H620.495V73.716ZM618.047 72.024V80.232H641.951V72.024H618.047ZM629.315 69.504C629.063 70.296 628.487 71.556 628.091 72.456L630.143 72.996C630.611 72.24 631.223 71.196 631.835 70.08L629.315 69.504ZM672.299 56.94C671.111 62.232 669.023 67.416 666.359 70.764C666.971 71.16 668.051 72.024 668.519 72.492C671.291 68.82 673.559 63.276 674.963 57.516L672.299 56.94ZM671.687 72.204C670.679 76.524 668.951 80.808 666.719 83.58C667.367 83.904 668.519 84.624 669.059 85.056C671.255 82.032 673.199 77.46 674.315 72.744L671.687 72.204ZM671.975 63.708L670.931 66.228H688.175V63.708H671.975ZM677.555 64.752V86.604C677.555 87.072 677.411 87.216 676.943 87.216C676.439 87.216 674.891 87.252 673.199 87.18C673.595 87.972 673.991 89.16 674.171 89.916C676.403 89.916 677.951 89.844 678.923 89.376C679.931 88.944 680.255 88.152 680.255 86.604V64.752H677.555ZM682.847 72.744C684.827 76.524 686.627 81.6 687.203 84.912L689.759 84.048C689.147 80.7 687.347 75.732 685.259 71.952L682.847 72.744ZM687.383 63.708V64.104C687.023 66.48 686.555 69.504 686.159 71.304L688.499 71.736C688.967 69.792 689.579 66.696 690.083 64.032L688.211 63.636L687.743 63.708H687.383ZM665.063 56.904C663.047 62.376 659.663 67.776 656.099 71.268C656.603 71.88 657.359 73.32 657.647 73.932C661.535 69.9 665.243 63.816 667.619 57.696L665.063 56.904ZM661.319 66.192V89.844H663.911V63.672L663.839 63.636L661.319 66.192ZM719.315 70.692V72.924H731.087V70.692H719.315ZM717.947 58.452V89.916H720.431V60.864H730.835V58.452H717.947ZM729.539 58.452V65.364C729.539 65.76 729.395 65.904 728.819 65.94C728.243 65.976 726.371 65.976 724.139 65.904C724.499 66.588 724.859 67.56 724.967 68.28C727.739 68.28 729.539 68.244 730.655 67.848C731.771 67.452 732.059 66.732 732.059 65.4V58.452H729.539ZM722.843 72.168L720.719 72.708C722.843 80.196 726.839 86.748 732.383 89.88C732.815 89.196 733.643 88.224 734.255 87.684C728.855 85.056 724.787 78.9 722.843 72.168ZM730.259 70.692V71.268C729.143 77.856 725.759 84.588 720.359 88.116C720.971 88.584 721.763 89.34 722.159 89.952C727.919 86.064 731.483 78.972 732.887 71.16L731.231 70.548L730.763 70.692H730.259ZM702.071 60.468V62.808H715.427V60.468H702.071ZM701.639 80.16V82.5H715.895V80.16H701.639ZM700.775 66.408V68.748H716.795V66.408H700.775ZM701.279 73.896V76.236H716.363V73.896H701.279ZM707.615 56.832V67.236H710.135V56.832H707.615ZM707.615 74.868V89.808H710.135V74.868H707.615ZM712.475 68.604C712.079 70.008 711.287 72.132 710.675 73.464L712.691 74.076C713.375 72.816 714.059 70.944 714.779 69.216L712.475 68.604ZM703.295 69.18C704.015 70.764 704.699 72.816 704.879 74.112L707.039 73.5C706.859 72.24 706.139 70.188 705.347 68.676L703.295 69.18ZM756.143 85.956V88.44H773.531V85.956H756.143ZM754.919 60.396V62.808H768.131V60.396H754.919ZM756.539 56.652C754.451 60.576 750.311 65.22 744.371 68.46C744.983 68.928 745.883 69.864 746.279 70.548C752.543 66.84 756.863 61.944 759.563 57.264L756.539 56.652ZM767.231 60.396V60.864C763.487 70.332 753.515 77.388 744.191 80.088C744.767 80.664 745.451 81.78 745.775 82.5C755.567 79.332 765.719 72.096 770.039 61.224L768.239 60.252L767.735 60.396H767.231ZM750.419 66.804C753.263 68.82 756.683 71.844 758.195 73.896L760.391 71.952C758.735 69.9 755.279 67.02 752.435 65.076L750.419 66.804ZM772.199 74.58V89.952H774.971V74.58H772.199ZM757.367 74.58H756.827L754.667 76.704V89.88H757.367V77.064H773.567V74.58H757.367ZM802.871 58.632V61.152H818.675V58.632H802.871ZM801.647 71.268V73.86H821.447V71.268H801.647ZM810.143 66.48V86.46C810.143 87 809.963 87.18 809.351 87.216C808.703 87.252 806.687 87.252 804.419 87.18C804.779 87.9 805.247 89.088 805.391 89.808C808.271 89.844 810.143 89.772 811.331 89.34C812.447 88.908 812.843 88.116 812.843 86.496V66.48H810.143ZM817.703 58.632V59.244C816.263 61.584 813.275 64.968 810.683 66.912C811.151 67.272 811.907 67.992 812.303 68.496C815.183 66.336 818.531 62.844 820.691 59.784L818.927 58.488L818.351 58.632H817.703ZM788.327 64.212V66.732H800.171V64.212H788.327ZM793.763 56.796C792.539 63.636 790.379 73.284 788.795 78.792L791.063 79.98C792.683 74.004 794.951 64.284 796.319 57.084L793.763 56.796ZM790.127 77.64C794.159 79.98 798.803 83.652 800.963 86.352L802.583 84.156C800.423 81.492 795.671 78.036 791.639 75.768L790.127 77.64ZM799.271 64.212V64.752C798.371 76.992 794.627 84.624 788.615 87.792C789.191 88.332 789.947 89.304 790.307 89.952C796.931 85.992 800.855 78.36 801.827 64.428L800.207 64.104L799.703 64.212H799.271ZM847.151 69.036V86.352C847.151 87 846.899 87.216 846.107 87.252C845.279 87.288 842.507 87.288 839.519 87.18C839.951 87.972 840.455 89.124 840.635 89.916C844.271 89.916 846.683 89.88 848.087 89.448C849.491 89.052 849.959 88.224 849.959 86.424V69.036H847.151ZM834.047 59.604V62.232H860.039V59.604H834.047ZM859.067 59.604V60.252C856.799 63.24 852.047 67.38 847.943 69.648C848.519 70.044 849.383 70.944 849.779 71.52C854.243 69 859.319 64.752 862.523 60.936L860.435 59.424L859.787 59.604H859.067ZM880.605 61.4062L880.377 79.7754H877.441L877.195 61.4062H880.605ZM877.089 85.3652C877.089 84.8379 877.248 84.3926 877.564 84.0293C877.892 83.666 878.373 83.4844 879.005 83.4844C879.627 83.4844 880.101 83.666 880.429 84.0293C880.769 84.3926 880.939 84.8379 880.939 85.3652C880.939 85.8691 880.769 86.3027 880.429 86.666C880.101 87.0293 879.627 87.2109 879.005 87.2109C878.373 87.2109 877.892 87.0293 877.564 86.666C877.248 86.3027 877.089 85.8691 877.089 85.3652Z" fill="#276A70"/>
</svg>
