<svg width="421" height="138" viewBox="0 0 421 138" fill="none" xmlns="http://www.w3.org/2000/svg">
<path d="M26.37 0.677998C20.93 1.766 11.138 2.446 3.012 2.718C3.25 3.262 3.522 4.214 3.59 4.826C11.818 4.622 21.712 3.942 28.07 2.718L26.37 0.677998ZM14.606 3.466V31.754H17.156V3.466H14.606ZM1.006 7.784V10.13H31.062V7.784H1.006ZM8.486 11.558V29.306H10.866V11.558H8.486ZM1.448 15.91V18.188H9.812V15.91H1.448ZM0.666 25.362L1.822 27.708C4.168 26.892 6.99 25.804 9.778 24.784L9.37 22.744C6.14 23.764 2.876 24.784 0.666 25.362ZM28.92 14.584C27.254 15.876 24.33 17.372 21.814 18.426C22.086 18.936 22.46 19.718 22.596 20.228C25.316 19.208 28.478 17.882 30.756 16.454L28.92 14.584ZM20.828 11.592V25.498C20.828 28.184 21.542 28.966 24.16 28.966C24.704 28.966 27.764 28.966 28.342 28.966C30.552 28.966 31.232 27.912 31.47 24.104C30.79 23.934 29.804 23.526 29.294 23.118C29.192 26.144 29.022 26.654 28.104 26.654C27.492 26.654 24.942 26.654 24.466 26.654C23.412 26.654 23.242 26.484 23.242 25.498V11.592H20.828ZM62.036 17.95V31.754H64.552V17.95H62.036ZM53.434 17.406L53.672 19.82C58.33 19.65 64.824 19.378 71.046 19.004L71.114 16.896C64.688 17.134 57.888 17.338 53.434 17.406ZM70.366 1.086C66.762 2.038 60.302 2.65 55.032 2.922C55.27 3.5 55.61 4.418 55.678 5.03C61.05 4.826 67.714 4.248 71.93 3.16L70.366 1.086ZM67.748 6.152C64.994 9.824 60.37 14.686 56.868 17.61L58.636 18.868C62.172 15.944 66.728 11.32 69.992 7.478L67.748 6.152ZM61.934 2.99C60.744 5.03 58.636 7.92 57.004 9.654L58.908 10.674C60.574 9.008 62.648 6.39 64.382 4.146L61.934 2.99ZM66.864 22.404C68.666 24.784 70.57 27.98 71.284 30.02L73.528 28.966C72.78 26.892 70.808 23.798 68.972 21.486L66.864 22.404ZM66.558 14.176C68.632 16.386 70.944 19.412 71.896 21.418L73.902 20.126C72.916 18.154 70.57 15.23 68.428 13.088L66.558 14.176ZM54.658 9.45C56.97 11.082 59.758 13.53 61.05 15.196L62.716 13.428C61.39 11.762 58.534 9.45 56.188 7.886L54.658 9.45ZM56.902 21.69C55.78 24.342 54.046 27.096 52.176 28.966C52.788 29.306 53.842 29.952 54.318 30.326C56.086 28.354 58.024 25.26 59.282 22.336L56.902 21.69ZM41.704 16.216L42.316 18.664C45.682 17.916 50.34 16.896 54.726 15.91L54.556 13.598C49.83 14.618 44.934 15.604 41.704 16.216ZM42.69 2.514V4.928H52.992V2.514H42.69ZM47.076 9.416V28.626C47.076 29.034 46.974 29.17 46.498 29.17C46.056 29.17 44.594 29.17 42.962 29.136C43.336 29.884 43.676 31.006 43.778 31.72C45.886 31.72 47.416 31.652 48.334 31.244C49.252 30.802 49.524 30.054 49.524 28.626V9.416H47.076ZM52.482 2.514V3.058C51.462 5.132 49.354 8.09 47.484 9.79C47.994 10.198 48.742 10.946 49.116 11.456C51.292 9.484 53.774 6.356 55.372 3.534L53.604 2.344L53.094 2.514H52.482ZM93.962 1.732V31.686H96.036V3.976H99.878V1.732H93.962ZM99.402 1.732V1.936C98.858 4.792 98.042 8.6 97.022 12.51C98.892 15.74 99.64 17.814 99.64 19.752C99.64 20.908 99.504 22.098 99.062 22.472C98.858 22.642 98.552 22.71 98.212 22.71C97.804 22.744 97.226 22.744 96.648 22.676C96.988 23.254 97.192 24.138 97.226 24.75C97.838 24.75 98.552 24.75 99.028 24.682C99.606 24.614 100.15 24.41 100.524 24.07C101.34 23.39 101.714 21.656 101.714 19.82C101.714 17.712 100.898 15.434 98.994 12.238C99.98 8.736 100.898 5.268 101.578 2.446L100.014 1.63L99.742 1.732H99.402ZM85.87 3.16V5.642H89.916V20.194H85.87V22.676H91.99V3.16H85.87ZM84.816 3.16V26.008H86.822V3.16H84.816ZM102.122 2.038V4.486H114.94V2.038H102.122ZM102.7 8.362V25.022H104.502V10.674H107.902V8.362H102.7ZM111.132 2.82V28.354C111.132 28.83 110.996 29 110.486 29C109.942 29.034 108.242 29.068 106.338 29C106.712 29.646 107.12 30.802 107.188 31.482C109.534 31.448 111.098 31.414 112.016 31.006C112.968 30.564 113.24 29.748 113.24 28.354V2.82H111.132ZM107.188 8.362V20.364H103.55V22.676H109.058V8.362H107.188ZM129.492 22.166H127.554L126.704 4.724H130.342L129.492 22.166ZM126.398 27.164C126.398 26.3253 126.602 25.736 127.01 25.396C127.418 25.056 127.917 24.886 128.506 24.886C129.073 24.886 129.56 25.056 129.968 25.396C130.399 25.736 130.614 26.3253 130.614 27.164C130.614 27.98 130.399 28.5693 129.968 28.932C129.56 29.2947 129.073 29.476 128.506 29.476C127.917 29.476 127.418 29.2947 127.01 28.932C126.602 28.5693 126.398 27.98 126.398 27.164ZM157.561 2.922C160.655 7.24 166.639 12.544 171.909 15.706C172.385 14.958 172.997 14.108 173.643 13.53C168.305 10.674 162.253 5.438 158.683 0.371998H156.133C153.515 4.86 147.769 10.47 141.887 13.904C142.465 14.414 143.179 15.298 143.519 15.91C149.265 12.374 154.807 7.104 157.561 2.922ZM150.251 11.184V13.598H165.143V11.184H150.251ZM145.865 17.882V20.296H166.537V17.882H145.865ZM166.027 17.882V18.188C164.735 21.18 162.015 26.96 159.805 31.142L162.491 31.856C164.599 27.64 167.251 22.132 168.849 18.358L166.843 17.712L166.401 17.882H166.027ZM200.775 14.652L198.293 15.196C200.639 23.832 205.161 29.442 213.423 31.788C213.831 31.074 214.579 29.986 215.191 29.408C207.235 27.47 202.747 22.268 200.775 14.652ZM185.441 13.666V16.25H213.423V13.666H185.441ZM184.387 3.092V5.676H214.307V3.092H184.387ZM197.783 3.806V11.728C197.783 17.95 196.457 25.26 183.741 29.578C184.285 30.088 185.033 31.176 185.305 31.822C198.939 27.096 200.469 18.902 200.469 11.728V3.806H197.783ZM232.123 16.454H250.245V20.432H232.123V16.454ZM232.123 10.436H250.245V14.38H232.123V10.436ZM229.675 8.26V22.608H252.795V8.26H229.675ZM239.705 9.008V21.588H242.187V9.008H239.705ZM235.557 2.65L234.061 4.758H244.941V2.65H235.557ZM235.285 0.337998C233.483 3.636 230.117 7.75 225.527 10.708C226.105 11.15 226.989 12.034 227.363 12.646C232.259 9.178 235.761 4.826 238.107 0.881999L235.285 0.337998ZM244.125 2.65V3.126C243.411 4.724 241.847 7.104 240.453 8.566C241.099 8.872 241.983 9.416 242.527 9.79C244.023 8.226 245.859 5.778 246.879 3.636L245.077 2.514L244.703 2.65H244.125ZM235.795 24.852C236.203 26.96 236.475 29.748 236.475 31.38L239.093 31.04C239.059 29.442 238.685 26.756 238.209 24.648L235.795 24.852ZM242.595 24.92C243.581 26.96 244.567 29.714 244.907 31.38L247.389 30.734C246.981 29.068 245.927 26.382 244.907 24.376L242.595 24.92ZM249.293 24.682C251.231 26.824 253.475 29.85 254.359 31.754L256.807 30.632C255.821 28.626 253.543 25.736 251.571 23.662L249.293 24.682ZM230.151 23.968C229.131 26.518 227.329 29.102 225.357 30.53L227.635 31.822C229.709 30.156 231.477 27.334 232.565 24.614L230.151 23.968ZM281.219 0.303999V6.662H283.905V0.303999H281.219ZM281.253 7.478V31.822H283.871V7.478H281.253ZM267.381 5.166V7.648H298.015V5.166H267.381ZM270.883 12.306V27.504H273.433V14.788H293.221V12.306H270.883ZM292.235 12.306V24.274C292.235 24.75 292.065 24.886 291.453 24.92C290.875 24.954 288.801 24.954 286.489 24.886C286.863 25.6 287.271 26.62 287.373 27.402C290.297 27.402 292.201 27.368 293.391 26.96C294.513 26.518 294.853 25.736 294.853 24.274V12.306H292.235ZM318.551 14.414V16.658H339.971V14.414H318.551ZM322.393 19.038V21.112H337.217V19.038H322.393ZM324.059 15.264C322.495 18.63 319.673 21.588 316.545 23.458C317.055 23.832 317.939 24.614 318.279 25.056C321.441 22.948 324.535 19.616 326.269 15.842L324.059 15.264ZM336.741 19.038V19.412C336.265 26.076 335.721 28.626 335.075 29.272C334.803 29.612 334.531 29.646 334.021 29.646C333.545 29.646 332.423 29.612 331.131 29.51C331.471 30.054 331.709 30.972 331.709 31.618C333.069 31.686 334.361 31.652 335.109 31.618C335.925 31.55 336.537 31.346 337.081 30.768C337.999 29.782 338.543 27.096 339.053 20.058C339.121 19.684 339.155 19.038 339.155 19.038H336.741ZM324.229 7.886H335.177V10.606H324.229V7.886ZM324.229 3.364H335.177V6.05H324.229V3.364ZM321.917 1.46V12.51H337.557V1.46H321.917ZM309.099 7.818V10.266H319.197V7.818H309.099ZM313.077 0.711999V21.622H315.491V0.711999H313.077ZM308.453 22.982L309.439 25.532C312.329 24.138 316.035 22.302 319.503 20.534L318.959 18.29C315.083 20.092 311.071 21.894 308.453 22.982ZM332.389 19.412C331.165 23.628 328.309 28.252 325.113 30.394C325.759 30.768 326.541 31.346 326.983 31.856C330.077 29.51 332.899 24.682 334.191 20.364L332.389 19.412ZM327.085 19.514C325.419 23.084 321.849 26.994 318.483 28.83C319.095 29.204 319.809 29.85 320.217 30.394C323.515 28.286 327.085 24.24 328.819 20.534L327.085 19.514ZM351.429 5.2V7.682H380.771V5.2H351.429ZM364.553 0.473998V31.72H367.205V0.473998H364.553ZM364.859 15.57C361.799 20.738 355.917 25.702 350.239 28.014C350.817 28.524 351.633 29.544 352.041 30.19C357.787 27.504 363.669 22.234 367.001 16.42L364.859 15.57ZM367.069 15.638L364.927 16.522C368.225 22.336 374.005 27.64 379.853 30.258C380.295 29.544 381.111 28.524 381.757 27.98C375.875 25.736 370.061 20.84 367.069 15.638ZM355.951 13.802C357.583 15.23 359.623 17.27 360.677 18.494L362.411 16.76C361.357 15.536 359.249 13.598 357.651 12.238L355.951 13.802ZM357.379 8.498C356.359 12.884 354.217 16.59 351.123 18.902C351.735 19.31 352.721 20.126 353.129 20.568C356.291 17.95 358.671 13.904 359.861 8.94L357.379 8.498ZM372.305 13.87C374.617 15.74 377.677 18.358 379.139 19.99L380.941 18.222C379.411 16.658 376.283 14.108 374.005 12.374L372.305 13.87ZM373.495 8.498C372.747 12.306 371.115 15.638 368.633 17.712C369.245 18.018 370.333 18.732 370.809 19.14C373.223 16.76 375.059 13.19 375.943 8.906L373.495 8.498ZM406.339 12.034V28.388C406.339 29 406.101 29.204 405.353 29.238C404.571 29.272 401.953 29.272 399.131 29.17C399.539 29.918 400.015 31.006 400.185 31.754C403.619 31.754 405.897 31.72 407.223 31.312C408.549 30.938 408.991 30.156 408.991 28.456V12.034H406.339ZM393.963 3.126V5.608H418.511V3.126H393.963ZM417.593 3.126V3.738C415.451 6.56 410.963 10.47 407.087 12.612C407.631 12.986 408.447 13.836 408.821 14.38C413.037 12 417.831 7.988 420.857 4.384L418.885 2.956L418.273 3.126H417.593ZM14.198 55.208V57.588H29.124V55.208H14.198ZM13.042 67.142V69.59H31.742V67.142H13.042ZM21.066 62.62V81.49C21.066 82 20.896 82.17 20.318 82.204C19.706 82.238 17.802 82.238 15.66 82.17C16 82.85 16.442 83.972 16.578 84.652C19.298 84.686 21.066 84.618 22.188 84.21C23.242 83.802 23.616 83.054 23.616 81.524V62.62H21.066ZM28.206 55.208V55.786C26.846 57.996 24.024 61.192 21.576 63.028C22.018 63.368 22.732 64.048 23.106 64.524C25.826 62.484 28.988 59.186 31.028 56.296L29.362 55.072L28.818 55.208H28.206ZM0.462 60.478V62.858H11.648V60.478H0.462ZM5.596 53.474C4.44 59.934 2.4 69.046 0.904 74.248L3.046 75.37C4.576 69.726 6.718 60.546 8.01 53.746L5.596 53.474ZM2.162 73.16C5.97 75.37 10.356 78.838 12.396 81.388L13.926 79.314C11.886 76.798 7.398 73.534 3.59 71.392L2.162 73.16ZM10.798 60.478V60.988C9.948 72.548 6.412 79.756 0.734 82.748C1.278 83.258 1.992 84.176 2.332 84.788C8.588 81.048 12.294 73.84 13.212 60.682L11.682 60.376L11.206 60.478H10.798ZM49.184 60.954C51.734 62.212 54.828 64.218 56.29 65.646L58.092 63.98C56.562 62.552 53.434 60.648 50.884 59.458L49.184 60.954ZM64.892 56.33V56.738C61.186 63.436 51.394 68.026 42.826 69.624C43.302 70.168 43.812 71.222 44.05 71.868C53.026 69.896 63.09 65.136 67.51 57.214L65.844 56.194L65.402 56.33H64.892ZM53.536 56.33V58.472H65.538V56.33H53.536ZM56.052 53.406C53.706 56.262 49.218 59.458 43.098 61.6C43.676 62.042 44.458 62.892 44.832 63.504C51.156 60.988 55.78 57.622 58.908 54.018L56.052 53.406ZM53.536 73.432C56.222 74.894 59.452 77.172 60.982 78.77L62.988 77.138C61.356 75.506 58.092 73.364 55.406 71.97L53.536 73.432ZM69.856 68.23V68.604C66.184 77.172 55.916 81.218 45.41 82.476C45.818 83.054 46.328 84.108 46.498 84.822C57.616 83.19 68.224 78.94 72.508 69.012L70.842 68.094L70.366 68.23H69.856ZM58.806 68.23V70.406H70.536V68.23H58.806ZM61.56 65.034C58.908 68.264 53.74 71.8 46.532 74.044C47.076 74.52 47.824 75.438 48.13 76.016C55.576 73.398 60.948 69.692 64.382 65.68L61.56 65.034ZM84.408 63.232V65.816H114.294V63.232H84.408ZM100.966 64.252L98.416 64.864C100.966 74.01 105.59 81.184 112.934 84.652C113.376 83.938 114.226 82.85 114.872 82.272C107.8 79.348 103.176 72.48 100.966 64.252ZM97.974 53.474C97.906 61.634 98.178 76.288 83.728 82.578C84.442 83.088 85.258 84.006 85.666 84.686C100.524 77.886 100.592 62.382 100.728 53.474H97.974ZM132.042 69.454H150.164V73.432H132.042V69.454ZM132.042 63.436H150.164V67.38H132.042V63.436ZM129.594 61.26V75.608H152.714V61.26H129.594ZM139.624 62.008V74.588H142.106V62.008H139.624ZM135.476 55.65L133.98 57.758H144.86V55.65H135.476ZM135.204 53.338C133.402 56.636 130.036 60.75 125.446 63.708C126.024 64.15 126.908 65.034 127.282 65.646C132.178 62.178 135.68 57.826 138.026 53.882L135.204 53.338ZM144.044 55.65V56.126C143.33 57.724 141.766 60.104 140.372 61.566C141.018 61.872 141.902 62.416 142.446 62.79C143.942 61.226 145.778 58.778 146.798 56.636L144.996 55.514L144.622 55.65H144.044ZM135.714 77.852C136.122 79.96 136.394 82.748 136.394 84.38L139.012 84.04C138.978 82.442 138.604 79.756 138.128 77.648L135.714 77.852ZM142.514 77.92C143.5 79.96 144.486 82.714 144.826 84.38L147.308 83.734C146.9 82.068 145.846 79.382 144.826 77.376L142.514 77.92ZM149.212 77.682C151.15 79.824 153.394 82.85 154.278 84.754L156.726 83.632C155.74 81.626 153.462 78.736 151.49 76.662L149.212 77.682ZM130.07 76.968C129.05 79.518 127.248 82.102 125.276 83.53L127.554 84.822C129.628 83.156 131.396 80.334 132.484 77.614L130.07 76.968ZM170.938 85.638C174.508 84.414 176.82 81.626 176.82 77.954C176.82 75.574 175.8 74.01 173.896 74.01C172.536 74.01 171.312 74.86 171.312 76.458C171.312 78.09 172.468 78.906 173.862 78.906C174.508 78.906 175.188 78.736 175.664 78.124L173.828 75.54L174.474 78.43C174.474 80.98 172.944 82.714 170.156 83.87L170.938 85.638ZM231.152 55.684C233.158 57.452 235.47 59.9 236.49 61.532L238.598 60.036C237.476 58.472 235.096 56.058 233.09 54.358L231.152 55.684ZM209.12 63.504V65.952H239.414V63.504H209.12ZM208.61 73.5L209.358 76.05C213.642 75.098 219.66 73.704 225.236 72.412L225.032 70.1C219.048 71.392 212.656 72.752 208.61 73.5ZM216.43 56.908V81.422C216.43 82.034 216.226 82.204 215.614 82.204C215.002 82.238 212.996 82.272 210.82 82.17C211.194 82.918 211.636 84.074 211.772 84.754C214.594 84.788 216.396 84.686 217.484 84.278C218.572 83.87 218.98 83.122 218.98 81.456V56.908H216.43ZM222.89 53.848C219.626 55.072 214.118 56.228 209.324 56.976C209.664 57.554 209.97 58.506 210.106 59.084C214.968 58.404 220.748 57.35 224.692 55.99L222.89 53.848ZM226.29 53.746C226.426 69.93 229.452 84.856 236.116 84.856C238.666 84.856 239.584 83.19 240.06 77.546C239.346 77.274 238.428 76.696 237.884 76.118C237.68 80.504 237.272 82.272 236.354 82.272C232.206 82.272 228.874 69.352 228.942 53.746H226.29ZM235.504 67.516C232.478 73.262 226.868 78.498 220.816 81.422C221.462 82 222.176 82.816 222.584 83.462C228.84 80.164 234.45 74.69 237.782 68.468L235.504 67.516ZM251.042 57.86V60.274H280.826V57.86H251.042ZM259.338 69.998V72.208H275.318V69.998H259.338ZM257.536 64.218V84.72H260.052V66.496H274.91V64.218H257.536ZM274.332 64.218V81.524C274.332 82.034 274.128 82.204 273.55 82.238C272.938 82.238 270.864 82.272 268.586 82.17C268.96 82.884 269.334 83.938 269.436 84.652C272.36 84.652 274.264 84.652 275.352 84.244C276.508 83.836 276.814 83.054 276.814 81.558V64.218H274.332ZM262.16 53.44C260.324 60.274 256.312 67.482 250.226 71.664C250.736 72.174 251.518 73.058 251.858 73.636C258.352 69.08 262.432 61.532 264.744 54.052L262.16 53.44ZM259.338 75.744V77.954H275.318V75.744H259.338ZM294.426 55.378C296.296 56.126 298.676 57.35 299.866 58.2L301.226 56.228C300.002 55.378 297.588 54.256 295.718 53.644L294.426 55.378ZM291.876 61.056C293.78 61.702 296.194 62.79 297.452 63.572L298.71 61.566C297.452 60.818 295.004 59.832 293.134 59.254L291.876 61.056ZM292.862 71.868L294.63 73.84C296.738 71.63 298.982 68.978 300.92 66.598L299.56 64.898C297.35 67.448 294.664 70.236 292.862 71.868ZM306.088 72.922V84.754H308.706V72.922H306.088ZM292.318 75.744V78.056H322.884V75.744H292.318ZM305.782 53.304C304.252 56.67 301.634 59.934 298.846 62.042C299.458 62.45 300.444 63.334 300.852 63.81C303.64 61.43 306.462 57.792 308.23 54.018L305.782 53.304ZM303.164 59.356V71.358H305.646V57.248L303.164 59.356ZM304.694 57.18L303.436 59.288H321.354V57.18H304.694ZM303.164 70.61V72.718H322.272V70.61H303.164ZM304.184 61.77V63.674H320.334V61.77H304.184ZM304.184 66.122V68.06H320.436V66.122H304.184ZM311.154 57.996V71.426H313.602V57.996H311.154ZM312.956 53.474C312.446 54.834 311.494 56.84 310.644 58.132L312.752 58.676C313.636 57.486 314.724 55.684 315.71 53.984L312.956 53.474ZM348.18 53.746V61.702H350.594V53.746H348.18ZM356.952 53.746V61.702H359.4V53.746H356.952ZM354.674 68.366V84.55H356.782V68.366H354.674ZM342.672 56.636V58.88H364.738V56.636H342.672ZM348.962 72.548V74.384H362.494V72.548H348.962ZM348.962 77.308V79.11H362.494V77.308H348.962ZM344.372 62.892V65.136H364.874V62.892H344.372ZM343.25 62.892V70.202C343.25 74.044 343.012 79.348 340.564 83.156C341.108 83.462 342.094 84.278 342.468 84.72C345.154 80.606 345.63 74.486 345.63 70.236V62.892H343.25ZM347.67 67.652V84.72H349.88V69.59H362.834V67.652H347.67ZM361.78 67.652V82.238C361.78 82.612 361.678 82.714 361.27 82.748C360.896 82.782 359.706 82.782 358.244 82.748C358.55 83.326 358.788 84.176 358.89 84.754C360.896 84.754 362.188 84.72 363.004 84.38C363.82 84.006 364.024 83.394 364.024 82.238V67.652H361.78ZM340.088 53.644C338.456 58.88 335.77 64.116 332.778 67.516C333.22 68.162 333.9 69.522 334.138 70.134C337.504 66.156 340.53 60.172 342.468 54.29L340.088 53.644ZM337.368 61.974V84.72H339.782V59.696L339.714 59.628L337.368 61.974ZM375.346 67.346V70.134H406.456V67.346H375.346ZM0.802 126.704V128.846H31.198V126.704H0.802ZM14.606 123.78V137.72H17.19V123.78H14.606ZM13.552 127.622C10.696 130.92 5.12 133.98 0.224 135.34C0.768 135.816 1.482 136.734 1.856 137.346C6.684 135.714 12.328 132.314 15.388 128.506L13.552 127.622ZM18.346 127.656L16.51 128.472C19.468 132.416 24.942 135.68 30.076 137.21C30.45 136.564 31.164 135.578 31.742 135.068C26.574 133.844 21.134 131.056 18.346 127.656ZM14.334 106.474V114.43H16.952V106.474H14.334ZM7.058 119.734H24.874V122.352H7.058V119.734ZM7.058 115.246H24.874V117.864H7.058V115.246ZM4.508 113.308V124.324H27.492V113.308H4.508ZM15.592 108.888V110.996H29.77V108.888H15.592ZM55.848 108.208V110.588H70.774V108.208H55.848ZM54.692 120.142V122.59H73.392V120.142H54.692ZM62.716 115.62V134.49C62.716 135 62.546 135.17 61.968 135.204C61.356 135.238 59.452 135.238 57.31 135.17C57.65 135.85 58.092 136.972 58.228 137.652C60.948 137.686 62.716 137.618 63.838 137.21C64.892 136.802 65.266 136.054 65.266 134.524V115.62H62.716ZM69.856 108.208V108.786C68.496 110.996 65.674 114.192 63.226 116.028C63.668 116.368 64.382 117.048 64.756 117.524C67.476 115.484 70.638 112.186 72.678 109.296L71.012 108.072L70.468 108.208H69.856ZM42.112 113.478V115.858H53.298V113.478H42.112ZM47.246 106.474C46.09 112.934 44.05 122.046 42.554 127.248L44.696 128.37C46.226 122.726 48.368 113.546 49.66 106.746L47.246 106.474ZM43.812 126.16C47.62 128.37 52.006 131.838 54.046 134.388L55.576 132.314C53.536 129.798 49.048 126.534 45.24 124.392L43.812 126.16ZM52.448 113.478V113.988C51.598 125.548 48.062 132.756 42.384 135.748C42.928 136.258 43.642 137.176 43.982 137.788C50.238 134.048 53.944 126.84 54.862 113.682L53.332 113.376L52.856 113.478H52.448ZM89.372 106.576V137.686H91.752V106.576H89.372ZM83.898 117.864V120.278H97.328V117.864H83.898ZM88.998 119.122C87.91 123.1 85.53 128.268 83.354 130.886C83.762 131.566 84.374 132.654 84.646 133.402C86.924 130.308 89.338 124.426 90.528 119.802L88.998 119.122ZM91.684 120.72L90.426 121.774C91.548 123.236 94.336 127.69 95.186 129.526L96.886 127.486C96.104 126.364 92.636 121.74 91.684 120.72ZM84.136 109.092C85.02 111.472 85.802 114.634 85.972 116.674L87.978 116.13C87.74 114.09 86.958 110.996 86.006 108.616L84.136 109.092ZM95.118 108.48C94.642 110.792 93.622 114.192 92.874 116.232L94.506 116.742C95.424 114.838 96.478 111.642 97.362 109.058L95.118 108.48ZM108.31 106.474V137.72H110.724V106.474H108.31ZM97.26 128.098L97.668 130.478L115.144 127.316L114.736 124.97L97.26 128.098ZM99.81 110.622C101.782 111.846 104.128 113.682 105.216 115.008L106.576 113.036C105.454 111.778 103.108 110.044 101.136 108.888L99.81 110.622ZM98.076 119.19C100.116 120.312 102.564 122.046 103.754 123.27L105.046 121.264C103.822 120.04 101.306 118.442 99.266 117.388L98.076 119.19ZM141.154 117.66V120.006H152.476V117.66H141.154ZM140.984 133.47V135.782H153.224V133.47H140.984ZM146.56 109.398C148.6 112.73 152.408 117.082 155.74 119.836C156.148 119.088 156.76 118.136 157.338 117.524C153.904 115.008 150.096 110.622 147.682 106.78H145.2C143.432 110.384 139.726 115.042 136.054 117.864C136.564 118.408 137.244 119.36 137.55 120.04C141.222 117.116 144.69 112.764 146.56 109.398ZM139.692 124.086V137.72H142.038V126.398H151.864V137.584H154.312V124.086H139.692ZM130.58 106.474C129.696 108.718 128.132 111.982 126.84 113.92L128.608 114.736C129.934 112.866 131.532 109.84 132.824 107.358L130.58 106.474ZM134.388 110.35C132.586 114.022 129.39 119.19 126.874 122.25L128.438 123.134C130.954 120.142 134.218 115.212 136.53 111.302L134.388 110.35ZM125.208 113.614C127.044 115.246 129.186 117.626 130.104 119.224L131.464 117.286C130.546 115.756 128.404 113.546 126.5 111.948L125.208 113.614ZM133.198 118.238C134.558 120.482 135.816 123.474 136.292 125.378L138.196 124.494C137.72 122.624 136.36 119.7 134.966 117.524L133.198 118.238ZM125.106 121.706L125.31 124.018C128.404 123.814 132.518 123.576 136.598 123.304L136.632 121.196C132.314 121.434 128.064 121.604 125.106 121.706ZM134.082 126.262C134.932 128.234 135.85 130.852 136.156 132.552L138.128 131.872C137.788 130.172 136.87 127.588 135.918 125.684L134.082 126.262ZM127.01 125.888C126.602 128.88 125.922 131.906 124.8 133.98C125.344 134.218 126.364 134.694 126.806 134.966C127.894 132.79 128.744 129.492 129.22 126.296L127.01 125.888ZM130.682 122.658V137.822H132.96V122.658H130.682ZM181.41 106.61C180.288 111.608 178.316 116.504 175.8 119.666C176.378 120.04 177.398 120.856 177.84 121.298C180.458 117.83 182.6 112.594 183.926 107.154L181.41 106.61ZM180.832 121.026C179.88 125.106 178.248 129.152 176.14 131.77C176.752 132.076 177.84 132.756 178.35 133.164C180.424 130.308 182.26 125.99 183.314 121.536L180.832 121.026ZM181.104 113.002L180.118 115.382H196.404V113.002H181.104ZM186.374 113.988V134.626C186.374 135.068 186.238 135.204 185.796 135.204C185.32 135.204 183.858 135.238 182.26 135.17C182.634 135.918 183.008 137.04 183.178 137.754C185.286 137.754 186.748 137.686 187.666 137.244C188.618 136.836 188.924 136.088 188.924 134.626V113.988H186.374ZM191.372 121.536C193.242 125.106 194.942 129.9 195.486 133.028L197.9 132.212C197.322 129.05 195.622 124.358 193.65 120.788L191.372 121.536ZM195.656 113.002V113.376C195.316 115.62 194.874 118.476 194.5 120.176L196.71 120.584C197.152 118.748 197.73 115.824 198.206 113.308L196.438 112.934L195.996 113.002H195.656ZM174.576 106.576C172.672 111.744 169.476 116.844 166.11 120.142C166.586 120.72 167.3 122.08 167.572 122.658C171.244 118.85 174.746 113.104 176.99 107.324L174.576 106.576ZM171.04 115.348V137.686H173.488V112.968L173.42 112.934L171.04 115.348ZM211.16 109.398V111.71H215.92V125.276H211.16V127.588H218.164V109.398H211.16ZM209.766 109.398V130.546H211.942V109.398H209.766ZM232.648 121.06C234.654 122.794 236.762 125.276 237.714 126.942L239.584 125.752C238.632 124.086 236.388 121.74 234.416 120.074L232.648 121.06ZM221.326 134.864V136.87H239.924V134.864H221.326ZM221.836 117.66V119.666H239.448V117.66H221.836ZM223.264 129.084V131.09H238.496V129.084H223.264ZM220.51 107.596V117.388C220.51 123.032 220.136 130.886 216.294 136.394C216.872 136.632 217.892 137.244 218.334 137.618C222.312 131.94 222.89 123.338 222.89 117.388V107.596H220.51ZM221.598 107.596V109.704H236.388V113.206H221.598V115.348H238.802V107.596H221.598ZM229.384 126.024V135.816H231.764V126.024H229.384ZM222.686 123.882L222.856 125.956C226.596 125.786 231.934 125.582 237.102 125.276L237.136 123.406C231.764 123.576 226.29 123.78 222.686 123.882ZM227.684 118.714C227.072 120.346 225.95 122.726 225.032 124.256L226.97 124.766C227.99 123.304 229.18 121.128 230.132 119.19L227.684 118.714ZM254.442 128.166H252.504L251.654 110.724H255.292L254.442 128.166ZM251.348 133.164C251.348 132.325 251.552 131.736 251.96 131.396C252.368 131.056 252.867 130.886 253.456 130.886C254.023 130.886 254.51 131.056 254.918 131.396C255.349 131.736 255.564 132.325 255.564 133.164C255.564 133.98 255.349 134.569 254.918 134.932C254.51 135.295 254.023 135.476 253.456 135.476C252.867 135.476 252.368 135.295 251.96 134.932C251.552 134.569 251.348 133.98 251.348 133.164Z" fill="#276A70"/>
</svg>
