<svg width="460" height="138" viewBox="0 0 460 138" fill="none" xmlns="http://www.w3.org/2000/svg">
<path d="M10.676 4.486C9.384 3.262 6.698 1.766 4.556 0.847998L3.196 2.684C5.338 3.67 7.956 5.268 9.214 6.492L10.676 4.486ZM9.01 13.326C7.65 12.204 4.93 10.776 2.788 9.926L1.394 11.83C3.604 12.748 6.256 14.278 7.582 15.434L9.01 13.326ZM4.556 31.108C6.426 27.946 8.67 23.696 10.336 20.092L8.432 18.528C6.596 22.404 4.114 26.858 2.414 29.51L4.556 31.108ZM16.184 24.07V21.622H26.452V24.07H16.184ZM26.452 17.372V19.718H16.184V17.372H26.452ZM28.832 15.332H13.872V31.584H16.184V25.974H26.452V29.068C26.452 29.476 26.316 29.578 25.874 29.612C25.398 29.612 23.8 29.612 22.1 29.544C22.406 30.156 22.712 31.04 22.814 31.618C25.228 31.618 26.724 31.584 27.642 31.244C28.56 30.904 28.832 30.292 28.832 29.068V15.332ZM16.286 3.84H26.35V6.152H19.822V10.946H16.286V3.84ZM26.35 10.946H21.828V7.852H26.35V10.946ZM28.764 10.946V1.8H14.008V10.946H10.506V16.658H12.818V12.952H29.75V16.658H32.164V10.946H28.764ZM47.634 18.766V16.284H51.918V18.766H47.634ZM47.634 12.17H51.918V14.618H47.634V12.17ZM58.65 12.17V14.618H54.196V12.17H58.65ZM58.65 18.766H54.196V16.284H58.65V18.766ZM67.592 8.43C67.66 6.05 67.66 3.534 67.66 0.983998H65.28C65.28 3.568 65.28 6.05 65.212 8.43H61.166V10.81H65.144C64.838 17.168 63.92 22.642 60.996 26.654V26.518C58.718 26.79 56.406 27.028 54.196 27.232V24.546H60.86V22.608H54.196V20.534H60.792V10.436H54.196V8.294H61.404V6.322H54.196V3.84C56.678 3.568 58.99 3.262 60.826 2.854L59.568 0.915999C56.066 1.698 49.946 2.31 44.914 2.582C45.186 3.092 45.424 3.908 45.526 4.452C47.532 4.384 49.742 4.248 51.918 4.078V6.322H44.574V8.294H51.918V10.436H45.56V20.534H51.918V22.608H45.492V24.546H51.918V27.47C49.13 27.742 46.58 27.98 44.54 28.15L44.914 30.36C48.722 29.952 53.992 29.374 59.126 28.762C58.684 29.17 58.208 29.578 57.664 29.952C58.276 30.36 59.16 31.21 59.534 31.754C65.518 27.266 67.082 19.854 67.49 10.81H72.352C72.012 23.152 71.604 27.64 70.822 28.626C70.482 29.068 70.176 29.17 69.598 29.17C68.952 29.17 67.456 29.136 65.824 29C66.198 29.646 66.47 30.7 66.538 31.38C68.102 31.482 69.7 31.516 70.652 31.38C71.672 31.278 72.352 31.006 72.93 30.122C74.086 28.694 74.392 23.968 74.766 9.722C74.766 9.382 74.8 8.43 74.8 8.43H67.592ZM96.696 4.486C95.404 3.262 92.718 1.766 90.576 0.847998L89.216 2.684C91.358 3.67 93.976 5.268 95.234 6.492L96.696 4.486ZM95.03 13.326C93.67 12.204 90.95 10.776 88.808 9.926L87.414 11.83C89.624 12.748 92.276 14.278 93.602 15.434L95.03 13.326ZM90.576 31.108C92.446 27.946 94.69 23.696 96.356 20.092L94.452 18.528C92.616 22.404 90.134 26.858 88.434 29.51L90.576 31.108ZM102.204 24.07V21.622H112.472V24.07H102.204ZM112.472 17.372V19.718H102.204V17.372H112.472ZM114.852 15.332H99.892V31.584H102.204V25.974H112.472V29.068C112.472 29.476 112.336 29.578 111.894 29.612C111.418 29.612 109.82 29.612 108.12 29.544C108.426 30.156 108.732 31.04 108.834 31.618C111.248 31.618 112.744 31.584 113.662 31.244C114.58 30.904 114.852 30.292 114.852 29.068V15.332ZM102.306 3.84H112.37V6.152H105.842V10.946H102.306V3.84ZM112.37 10.946H107.848V7.852H112.37V10.946ZM114.784 10.946V1.8H100.028V10.946H96.526V16.658H98.838V12.952H115.77V16.658H118.184V10.946H114.784ZM158.27 2.31H147.458V4.384H155.754V7.24H147.968V9.246H155.754V12.238H136.51V9.246H143.956V7.24H136.51V4.554C139.332 4.01 142.46 3.16 144.84 2.242L142.936 0.507998C141.1 1.324 138.074 2.242 135.252 2.888L134.028 2.65V14.312H158.27V2.31ZM148.002 17.95C149.464 18.732 151.164 19.888 151.98 20.772L153.306 19.208C152.456 18.358 150.688 17.236 149.294 16.556L148.002 17.95ZM147.832 23.016C149.26 23.9 150.994 25.226 151.844 26.178L153.238 24.614C152.354 23.696 150.62 22.438 149.124 21.622L147.832 23.016ZM138.21 17.916C139.604 18.63 141.27 19.786 142.018 20.67L143.412 19.106C142.562 18.256 140.896 17.202 139.502 16.522L138.21 17.916ZM137.904 22.948C139.298 23.764 140.862 24.954 141.644 25.872L143.004 24.342C142.222 23.424 140.624 22.302 139.23 21.554L137.904 22.948ZM137.19 15.57H134.81V28.218C133.28 28.422 131.852 28.626 130.696 28.762L131.07 31.006C134.096 30.53 138.21 29.918 142.154 29.306L142.018 27.13C140.386 27.402 138.754 27.64 137.19 27.878V15.57ZM146.812 15.638H144.466V28.558L142.426 28.83L142.766 31.04C145.894 30.496 150.178 29.816 154.224 29.17L154.156 27.062C151.606 27.47 149.09 27.878 146.812 28.184V15.638ZM154.156 15.57C154.292 26.246 155.312 31.788 158.848 31.788C160.548 31.788 161.398 30.972 161.67 27.538C161.092 27.334 160.344 26.892 159.902 26.45C159.766 28.796 159.562 29.408 159.018 29.408C157.454 29.408 156.536 25.226 156.638 15.57H154.156ZM196.894 15.706H200.226L199.036 16.318C199.546 16.76 200.056 17.304 200.532 17.814L196.894 17.882V15.706ZM190.57 14.142V12.034H194.684V14.142H190.57ZM190.57 8.43H194.684V10.504H190.57V8.43ZM201.246 8.43V10.504H196.894V8.43H201.246ZM201.246 14.142H196.894V12.034H201.246V14.142ZM187.544 19.956C191.284 19.888 196.69 19.752 202.028 19.582C202.436 20.092 202.776 20.602 203.014 21.01L204.782 19.922C204 18.732 202.504 16.998 200.974 15.706H203.354V6.866H196.894V5.03H204.17V3.024H196.894V0.575999H194.684V3.024H187.714V5.03H194.684V6.866H188.496V15.706H194.684V17.916C191.896 17.984 189.346 17.984 187.374 18.018L187.544 19.956ZM189.346 25.26C190.604 26.416 191.93 28.15 192.542 29.374L194.412 28.15C193.766 26.994 192.406 25.362 191.046 24.24L189.346 25.26ZM176.562 15.706H179.724V18.8H176.562V15.706ZM176.562 10.878H179.724V13.904H176.562V10.878ZM184.688 13.904H181.526V10.878H184.688V13.904ZM184.688 18.8H181.526V15.706H184.688V18.8ZM200.464 20.126H198.118V21.928H187.34V23.458H181.73V20.704H186.626V8.974H181.73V6.458H187V4.248H181.73V0.575999H179.486V4.248H173.91V6.458H179.486V8.974H174.692V20.704H179.486V23.458H173.468V25.702H179.486V31.618H181.73V25.702H187.476V23.934H198.118V29.102C198.118 29.476 198.016 29.544 197.54 29.578C197.064 29.612 195.534 29.612 193.834 29.544C194.14 30.156 194.48 31.006 194.582 31.652C196.826 31.652 198.288 31.652 199.274 31.278C200.192 30.972 200.464 30.36 200.464 29.136V23.934H204.578V21.928H200.464V20.126ZM219.674 18.766V16.284H223.958V18.766H219.674ZM219.674 12.17H223.958V14.618H219.674V12.17ZM230.69 12.17V14.618H226.236V12.17H230.69ZM230.69 18.766H226.236V16.284H230.69V18.766ZM239.632 8.43C239.7 6.05 239.7 3.534 239.7 0.983998H237.32C237.32 3.568 237.32 6.05 237.252 8.43H233.206V10.81H237.184C236.878 17.168 235.96 22.642 233.036 26.654V26.518C230.758 26.79 228.446 27.028 226.236 27.232V24.546H232.9V22.608H226.236V20.534H232.832V10.436H226.236V8.294H233.444V6.322H226.236V3.84C228.718 3.568 231.03 3.262 232.866 2.854L231.608 0.915999C228.106 1.698 221.986 2.31 216.954 2.582C217.226 3.092 217.464 3.908 217.566 4.452C219.572 4.384 221.782 4.248 223.958 4.078V6.322H216.614V8.294H223.958V10.436H217.6V20.534H223.958V22.608H217.532V24.546H223.958V27.47C221.17 27.742 218.62 27.98 216.58 28.15L216.954 30.36C220.762 29.952 226.032 29.374 231.166 28.762C230.724 29.17 230.248 29.578 229.704 29.952C230.316 30.36 231.2 31.21 231.574 31.754C237.558 27.266 239.122 19.854 239.53 10.81H244.392C244.052 23.152 243.644 27.64 242.862 28.626C242.522 29.068 242.216 29.17 241.638 29.17C240.992 29.17 239.496 29.136 237.864 29C238.238 29.646 238.51 30.7 238.578 31.38C240.142 31.482 241.74 31.516 242.692 31.38C243.712 31.278 244.392 31.006 244.97 30.122C246.126 28.694 246.432 23.968 246.806 9.722C246.806 9.382 246.84 8.43 246.84 8.43H239.632ZM273.088 19.582C272.374 18.8 269.552 16.148 268.056 14.89C269.688 12.68 271.116 10.232 272.102 7.716L270.708 6.798L270.266 6.9H267.478V0.575999H264.996V6.9H260.066V9.212H268.94C266.696 13.7 262.684 17.984 258.842 20.364C259.216 20.84 259.896 21.996 260.134 22.642C261.766 21.554 263.398 20.126 264.996 18.494V31.584H267.478V17.168C268.94 18.63 270.742 20.568 271.524 21.622L273.088 19.582ZM276.454 15.502H285.872V19.106H276.454V15.502ZM276.454 9.892H285.872V13.496H276.454V9.892ZM276.454 4.384H285.872V7.92H276.454V4.384ZM285.226 29.204C284.41 29.204 284.274 29.068 284.274 28.252V21.214H288.32V2.276H274.142V21.214H276.828C276.25 25.158 274.89 28.048 270.13 29.646C270.64 30.122 271.32 31.04 271.592 31.584C276.964 29.612 278.63 26.11 279.242 21.214H281.996V28.252C281.996 30.632 282.54 31.312 284.886 31.312H288.048C289.986 31.312 290.632 30.292 290.87 26.076C290.19 25.906 289.238 25.532 288.796 25.124C288.694 28.728 288.558 29.204 287.776 29.204H285.226ZM320.042 21.928V17.202H328.1V21.928H320.042ZM317.594 17.202V21.928H309.672C309.978 20.296 310.08 18.698 310.114 17.202H317.594ZM321.232 4.656C320.552 5.88 319.668 7.206 318.852 8.26H310.114C311.202 7.07 312.154 5.88 313.004 4.656H321.232ZM310.114 10.538H317.594V15.026H310.114V10.538ZM328.1 15.026H320.042V10.538H328.1V15.026ZM330.548 8.26H321.606C322.762 6.798 323.918 5.064 324.7 3.534L323 2.412L322.592 2.548H314.398C314.704 2.004 315.01 1.46 315.316 0.949998L312.562 0.473998C310.862 3.84 307.632 8.022 303.11 11.116C303.722 11.49 304.504 12.306 304.946 12.918C305.898 12.204 306.816 11.49 307.666 10.708V16.692C307.666 21.01 307.122 26.246 302.328 29.952C302.838 30.326 303.756 31.21 304.062 31.754C306.782 29.646 308.312 26.926 309.162 24.138H328.1V28.354C328.1 29.034 327.862 29.238 327.148 29.238C326.4 29.306 323.748 29.306 320.994 29.204C321.402 29.85 321.844 30.972 321.98 31.652C325.448 31.652 327.624 31.618 328.882 31.21C330.14 30.836 330.548 30.02 330.548 28.388V8.26ZM349.418 32.638C352.988 31.38 355.3 28.592 355.3 24.92C355.3 22.54 354.28 21.01 352.41 21.01C351.016 21.01 349.826 21.86 349.826 23.458C349.826 25.056 350.982 25.872 352.376 25.872C352.58 25.872 352.75 25.872 352.954 25.838C352.784 28.15 351.288 29.748 348.67 30.836L349.418 32.638ZM402.526 7.512H416.738V11.762H419.22V5.234H410.618V0.575999H408.102V5.234H400.146V11.83H402.526V7.512ZM399.568 15.264L395.76 16.386V9.688H399.534V7.376H395.76V0.575999H393.312V7.376H388.62V9.688H393.312V17.1C391.408 17.644 389.64 18.12 388.212 18.494L388.858 20.976C390.218 20.568 391.714 20.092 393.312 19.582V28.694C393.312 29.17 393.176 29.34 392.7 29.34C392.258 29.34 390.864 29.34 389.334 29.306C389.674 29.952 389.98 30.972 390.082 31.584C392.326 31.584 393.686 31.516 394.57 31.176C395.42 30.768 395.76 30.054 395.76 28.694V18.834C397.12 18.426 398.514 17.984 399.908 17.542L399.568 15.264ZM413.576 16.386C413.1 19.48 412.148 21.86 410.686 23.764C408.816 22.88 406.946 22.098 405.11 21.486C405.722 19.922 406.368 18.154 406.98 16.386H413.576ZM419.594 16.386V14.108H407.796C408.374 12.374 408.952 10.64 409.462 9.076L406.946 8.702C406.436 10.334 405.858 12.204 405.212 14.108H399.84V16.386H404.43C403.444 19.208 402.424 21.928 401.574 23.934L403.886 24.648L404.328 23.594C405.824 24.138 407.388 24.818 408.884 25.566C406.47 27.538 403.104 28.728 398.684 29.476C399.126 29.986 399.806 31.074 399.942 31.618C404.77 30.598 408.476 29.136 411.128 26.722C413.916 28.286 416.398 29.986 417.962 31.55L419.594 29.51C418.03 27.946 415.582 26.314 412.862 24.852C414.528 22.71 415.65 19.956 416.262 16.386H419.594ZM438.119 21.3799L438.583 24.5674L439.264 21.6953L444.045 4.82812H446.735L451.4 21.6953L452.064 24.6172L452.579 21.3633L456.33 4.82812H459.535L453.674 29H450.769L445.788 11.3857L445.407 9.54297L445.025 11.3857L439.862 29H436.956L431.113 4.82812H434.3L438.119 21.3799ZM29.036 58.404V60.92H26.214V58.404H29.036ZM26.214 65.578V62.926H29.036V65.578H26.214ZM24.106 60.92H19.006V62.926H24.106V65.578H20.57V67.55H24.106V70.134H20.06V72.208H24.106V74.86H19.278V77.002H24.106V80.674H26.214V77.002H32.334V74.86H26.214V72.208H31.348V70.134H26.214V67.55H30.974V63.062H32.776V60.818H30.974V56.432H26.214V53.644H24.106V56.432H20.536V58.404H24.106V60.92ZM18.53 65.816L18.122 65.884H16.014C17.17 62.45 18.326 58.642 19.074 55.99L17.612 55.65L17.238 55.752H12.92V57.996H16.354C15.47 61.022 14.144 65.272 12.988 68.4L15.028 68.842L15.334 67.924H17.578C17.272 70.678 16.796 73.058 16.15 75.064C15.674 73.738 15.3 72.14 14.994 70.236L13.226 70.746C13.702 73.602 14.348 75.846 15.13 77.614C14.552 78.838 13.872 79.858 13.124 80.742L12.988 79.11L8.568 79.994V69.794H12.58V67.618H8.568V64.082H12.036V61.974H4.114C5.848 59.934 7.14 57.792 8.092 55.99C9.588 57.656 11.152 59.934 11.968 61.328L13.6 59.56C12.648 57.894 10.54 55.344 8.772 53.576H6.664C5.61 56.262 3.604 59.73 0.68 62.348C1.156 62.654 1.938 63.402 2.278 63.912C2.584 63.64 2.89 63.334 3.162 63.028V64.082H6.46V67.618H1.802V69.794H6.46V80.402C4.556 80.776 2.822 81.082 1.428 81.32L2.006 83.564C4.964 82.952 8.84 82.136 12.58 81.354C11.9 82.034 11.152 82.612 10.336 83.122C10.812 83.428 11.628 84.21 11.968 84.618C13.702 83.496 15.164 81.932 16.32 79.824C18.564 83.122 21.692 83.972 25.806 83.972H32.164C32.266 83.36 32.606 82.34 32.946 81.762C31.756 81.796 26.792 81.796 25.908 81.796C22.236 81.796 19.346 81.014 17.374 77.716C18.598 74.724 19.38 70.916 19.788 66.054L18.53 65.816ZM2.38 72.072C2.958 74.146 3.434 76.764 3.468 78.532L5.236 78.09C5.134 76.39 4.658 73.738 4.012 71.698L2.38 72.072ZM10.982 77.818C11.424 76.22 11.968 73.806 12.41 71.732L10.676 71.324C10.438 73.092 9.86 75.812 9.452 77.444L10.982 77.818ZM49.47 75.132V71.732H56.984V75.132H49.47ZM56.984 66.428V69.76H49.47V66.428H56.984ZM59.432 64.252H47.056V84.448H49.47V77.138H56.984V81.66C56.984 82.102 56.848 82.238 56.338 82.272C55.896 82.306 54.366 82.306 52.666 82.238C53.006 82.85 53.346 83.802 53.482 84.448C55.794 84.448 57.256 84.448 58.208 84.04C59.126 83.632 59.432 82.986 59.432 81.694V64.252ZM70.38 81.422C70.38 81.932 70.21 82.068 69.632 82.102C69.122 82.136 67.286 82.136 65.212 82.068C65.586 82.748 65.994 83.802 66.13 84.482C68.714 84.516 70.414 84.448 71.502 84.04C72.522 83.632 72.862 82.952 72.862 81.422V63.572H70.38V81.422ZM65.892 64.592H63.546V78.396H65.892V64.592ZM67.184 58.914C68.17 57.52 69.292 55.854 70.21 54.29L67.558 53.406C66.81 55.038 65.518 57.282 64.362 58.914H54.23L55.896 58.268C55.25 56.942 53.822 54.936 52.496 53.508L50.184 54.392C51.34 55.752 52.666 57.588 53.278 58.914H44.948V61.226H75.106V58.914H67.184ZM107.338 64.558H101.422V61.022H107.338V64.558ZM107.338 70.27H101.422V66.7H107.338V70.27ZM107.338 76.05H101.422V72.378H107.338V76.05ZM98.974 78.26H117.878V76.05H109.752V72.378H116.382V70.27H109.752V66.7H116.45V64.558H109.752V61.022H117.3V58.846H110.092C110.806 57.486 111.52 55.888 112.166 54.46L109.48 53.882C109.038 55.344 108.324 57.282 107.576 58.846H102.17C103.054 57.418 103.802 55.888 104.448 54.324L101.966 53.644C100.266 57.928 97.342 61.974 94.044 64.524C94.622 65 95.574 65.952 95.982 66.462C97.002 65.578 98.022 64.524 98.974 63.402V78.26ZM95.438 59.934C94.384 58.268 92.038 55.956 89.964 54.392L88.026 55.82C90.1 57.452 92.378 59.798 93.398 61.498L95.438 59.934ZM94.418 66.87H87.72V69.25H92.038V77.954C90.508 79.382 88.774 80.81 87.346 81.864L88.672 84.278C90.338 82.816 91.902 81.388 93.398 79.926C95.506 82.578 98.566 83.768 103.02 83.938C106.828 84.108 114.002 84.04 117.81 83.87C117.912 83.122 118.32 81.966 118.626 81.388C114.546 81.66 106.726 81.762 102.986 81.592C99.008 81.456 96.016 80.3 94.418 77.784V66.87ZM138.312 83.904L140.624 81.932C138.516 79.45 135.456 76.356 133.008 74.384L130.798 76.322C133.212 78.294 136.136 81.218 138.312 83.904ZM181.968 71.2256C179.234 70.4398 177.242 69.4769 175.991 68.3369C174.752 67.1859 174.132 65.7692 174.132 64.0869C174.132 62.1833 174.89 60.6117 176.406 59.3721C177.934 58.1214 179.915 57.4961 182.35 57.4961C184.01 57.4961 185.487 57.8171 186.782 58.459C188.088 59.1009 189.095 59.9863 189.804 61.1152C190.523 62.2441 190.883 63.4782 190.883 64.8174H187.679C187.679 63.3564 187.214 62.2109 186.284 61.3809C185.354 60.5397 184.043 60.1191 182.35 60.1191C180.778 60.1191 179.549 60.4678 178.664 61.165C177.79 61.8512 177.353 62.8086 177.353 64.0371C177.353 65.0221 177.768 65.8577 178.598 66.5439C179.439 67.2191 180.861 67.8389 182.864 68.4033C184.879 68.9678 186.45 69.5931 187.579 70.2793C188.719 70.9544 189.56 71.7458 190.103 72.6533C190.656 73.5609 190.933 74.6289 190.933 75.8574C190.933 77.8164 190.169 79.388 188.642 80.5723C187.114 81.7454 185.072 82.332 182.516 82.332C180.855 82.332 179.306 82.0166 177.867 81.3857C176.428 80.7438 175.316 79.8695 174.53 78.7627C173.756 77.6559 173.368 76.3997 173.368 74.9941H176.572C176.572 76.4551 177.109 77.6117 178.183 78.4639C179.267 79.305 180.712 79.7256 182.516 79.7256C184.198 79.7256 185.487 79.3825 186.384 78.6963C187.28 78.0101 187.728 77.0749 187.728 75.8906C187.728 74.7064 187.313 73.7933 186.483 73.1514C185.653 72.4984 184.148 71.8564 181.968 71.2256ZM230.274 58.404V60.92H227.452V58.404H230.274ZM227.452 65.578V62.926H230.274V65.578H227.452ZM225.344 60.92H220.244V62.926H225.344V65.578H221.808V67.55H225.344V70.134H221.298V72.208H225.344V74.86H220.516V77.002H225.344V80.674H227.452V77.002H233.572V74.86H227.452V72.208H232.586V70.134H227.452V67.55H232.212V63.062H234.014V60.818H232.212V56.432H227.452V53.644H225.344V56.432H221.774V58.404H225.344V60.92ZM219.768 65.816L219.36 65.884H217.252C218.408 62.45 219.564 58.642 220.312 55.99L218.85 55.65L218.476 55.752H214.158V57.996H217.592C216.708 61.022 215.382 65.272 214.226 68.4L216.266 68.842L216.572 67.924H218.816C218.51 70.678 218.034 73.058 217.388 75.064C216.912 73.738 216.538 72.14 216.232 70.236L214.464 70.746C214.94 73.602 215.586 75.846 216.368 77.614C215.79 78.838 215.11 79.858 214.362 80.742L214.226 79.11L209.806 79.994V69.794H213.818V67.618H209.806V64.082H213.274V61.974H205.352C207.086 59.934 208.378 57.792 209.33 55.99C210.826 57.656 212.39 59.934 213.206 61.328L214.838 59.56C213.886 57.894 211.778 55.344 210.01 53.576H207.902C206.848 56.262 204.842 59.73 201.918 62.348C202.394 62.654 203.176 63.402 203.516 63.912C203.822 63.64 204.128 63.334 204.4 63.028V64.082H207.698V67.618H203.04V69.794H207.698V80.402C205.794 80.776 204.06 81.082 202.666 81.32L203.244 83.564C206.202 82.952 210.078 82.136 213.818 81.354C213.138 82.034 212.39 82.612 211.574 83.122C212.05 83.428 212.866 84.21 213.206 84.618C214.94 83.496 216.402 81.932 217.558 79.824C219.802 83.122 222.93 83.972 227.044 83.972H233.402C233.504 83.36 233.844 82.34 234.184 81.762C232.994 81.796 228.03 81.796 227.146 81.796C223.474 81.796 220.584 81.014 218.612 77.716C219.836 74.724 220.618 70.916 221.026 66.054L219.768 65.816ZM203.618 72.072C204.196 74.146 204.672 76.764 204.706 78.532L206.474 78.09C206.372 76.39 205.896 73.738 205.25 71.698L203.618 72.072ZM212.22 77.818C212.662 76.22 213.206 73.806 213.648 71.732L211.914 71.324C211.676 73.092 211.098 75.812 210.69 77.444L212.22 77.818ZM252.611 53.576C251.115 55.956 248.123 58.88 245.471 60.648C245.913 61.09 246.559 61.974 246.899 62.484C249.755 60.444 252.917 57.316 254.923 54.426L252.611 53.576ZM253.427 60.444C251.421 64.014 248.191 67.55 245.097 69.862C245.505 70.372 246.287 71.562 246.525 72.072C247.817 71.052 249.109 69.794 250.367 68.434V84.686H252.713V65.68C253.835 64.218 254.821 62.722 255.671 61.226L253.427 60.444ZM261.723 73.058H270.291C269.203 74.86 267.673 76.39 265.871 77.716C264.103 76.424 262.641 74.928 261.553 73.262L261.723 73.058ZM272.059 70.95L271.651 71.086H263.491C264.205 70.202 264.851 69.284 265.395 68.332L273.589 68.026C274.201 68.944 274.745 69.794 275.085 70.508L277.193 69.284C276.139 67.244 273.725 64.184 271.583 61.94L269.611 62.994C270.461 63.912 271.345 64.966 272.127 66.02C269.033 66.088 265.905 66.156 263.015 66.224C266.177 63.572 269.645 60.206 272.297 57.384L270.053 56.126C268.489 58.098 266.279 60.444 263.967 62.62C263.185 61.804 262.097 60.886 260.941 60.002C262.471 58.506 264.239 56.5 265.735 54.698L263.525 53.542C262.471 55.14 260.737 57.214 259.241 58.778C258.561 58.268 257.881 57.826 257.235 57.418L255.705 59.016C257.983 60.512 260.567 62.62 262.165 64.252C261.383 65 260.567 65.646 259.819 66.292L254.583 66.36L254.787 68.672C256.997 68.604 259.717 68.536 262.641 68.434C260.601 71.426 257.405 74.112 254.175 75.88C254.719 76.254 255.535 77.24 255.875 77.716C257.269 76.866 258.663 75.846 259.989 74.69C261.077 76.288 262.403 77.716 263.899 78.974C260.941 80.674 257.507 81.864 254.073 82.544C254.549 83.02 255.127 84.04 255.365 84.686C259.071 83.836 262.743 82.476 265.905 80.47C268.727 82.374 272.025 83.802 275.663 84.618C276.003 83.972 276.683 83.02 277.193 82.51C273.793 81.83 270.597 80.64 267.911 79.042C270.359 77.138 272.399 74.724 273.691 71.766L272.059 70.95ZM313.948 57.18V60.308H303.408V57.18H313.948ZM303.408 65.476V62.246H313.948V65.476H303.408ZM299.056 79.45C302.184 78.702 306.332 77.648 310.31 76.628L310.106 74.418C307.828 74.996 305.516 75.54 303.408 76.016V67.652H307.59C309.392 73.364 312.792 77.682 317.994 79.722C318.334 79.042 319.048 78.056 319.592 77.58C316.872 76.696 314.628 75.132 312.86 73.024C314.832 71.936 317.144 70.372 319.082 68.944L317.076 67.482C315.75 68.672 313.574 70.304 311.738 71.494C310.99 70.304 310.344 69.012 309.868 67.652H316.396V55.004H300.96V76.594C300.11 76.798 299.328 76.968 298.614 77.104L299.056 79.45ZM297.492 59.832C296.336 58.2 293.786 55.99 291.576 54.562L289.74 56.058C291.916 57.588 294.432 59.832 295.52 61.464L297.492 59.832ZM296.234 66.87H289.026V69.25H293.752V77.852C292.052 79.28 290.148 80.708 288.584 81.728L289.944 84.278C291.746 82.816 293.446 81.354 295.078 79.926C297.254 82.544 300.28 83.768 304.7 83.938C308.44 84.074 315.41 84.006 319.116 83.87C319.218 83.088 319.66 81.898 319.932 81.286C315.954 81.558 308.406 81.66 304.7 81.524C300.79 81.354 297.832 80.198 296.234 77.716V66.87ZM335.606 85.638C339.176 84.38 341.488 81.592 341.488 77.92C341.488 75.54 340.468 74.01 338.598 74.01C337.204 74.01 336.014 74.86 336.014 76.458C336.014 78.056 337.17 78.872 338.564 78.872C338.768 78.872 338.938 78.872 339.142 78.838C338.972 81.15 337.476 82.748 334.858 83.836L335.606 85.638ZM385.041 79.79V74.146H391.433V71.834H385.041V67.788H382.593V71.834H376.099V74.146H382.593V80.096C379.601 80.47 376.881 80.81 374.739 81.048L375.147 83.564C379.635 82.918 386.265 82 392.589 81.082L392.521 78.804L385.041 79.79ZM385.823 60.852C386.707 61.906 387.659 63.13 388.509 64.354C385.789 64.49 383.103 64.592 380.689 64.694C381.641 62.688 382.627 60.172 383.477 58.03H392.453V55.786H375.113V58.03H380.655C380.009 60.138 379.057 62.79 378.139 64.796L375.045 64.932L375.249 67.346C379.125 67.108 384.599 66.836 389.937 66.462C390.413 67.244 390.787 67.958 391.093 68.57L393.065 67.38C392.113 65.306 389.733 62.144 387.693 59.798L385.823 60.852ZM396.329 57.622H393.915V76.322H396.329V57.622ZM401.905 54.494V81.184C401.905 81.83 401.701 82 401.089 82.034C400.443 82.034 398.301 82.068 396.091 81.966C396.431 82.714 396.805 83.904 396.941 84.584C399.695 84.584 401.701 84.55 402.823 84.142C403.945 83.7 404.353 82.918 404.353 81.184V54.494H401.905ZM445.766 80.3C446.208 80.3 446.82 80.198 447.16 80.028C447.568 79.824 447.874 79.484 448.044 79.008C448.214 78.532 448.316 77.138 448.384 75.914C447.806 75.744 447.092 75.404 446.684 75.03C446.65 76.254 446.616 77.206 446.548 77.614C446.48 78.022 446.344 78.26 446.208 78.328C446.106 78.43 445.8 78.43 445.596 78.43H444.712C444.474 78.43 444.338 78.396 444.202 78.328C444.1 78.192 444.1 77.852 444.1 77.274V71.256H436.178V73.942C436.178 75.71 435.77 77.75 433.492 79.416C433.934 79.722 434.75 80.504 435.056 80.912C437.674 78.94 438.252 76.22 438.252 74.01V73.194H441.924V77.138C441.924 78.838 442.06 79.314 442.468 79.722C442.91 80.13 443.624 80.3 444.236 80.3H445.766ZM431.69 73.126C431.112 75.03 430.296 76.662 429.242 78.022C428.46 76.9 427.78 75.54 427.27 73.806C427.406 73.568 427.542 73.364 427.678 73.126H431.69ZM432.846 71.222L432.438 71.29H428.63C428.97 70.576 429.276 69.828 429.514 69.08L427.508 68.57C426.488 71.732 424.618 74.588 422.374 76.492C422.85 73.5 422.986 70.508 422.986 68.094V61.804H431.656V64.082L424.822 64.524L424.924 66.224L431.656 65.782V66.734C431.656 69.08 432.642 69.59 436.28 69.59H443.964C446.548 69.59 447.33 68.978 447.568 66.36C446.956 66.258 446.004 65.986 445.528 65.68C445.392 67.482 445.12 67.754 443.726 67.754H436.416C434.342 67.754 434.036 67.584 434.036 66.734V65.646L442.638 65.102L442.502 63.402L434.036 63.946V61.804H445.12C444.678 62.994 444.202 64.184 443.76 65.034L445.834 65.68C446.65 64.286 447.466 62.11 448.18 60.172L446.412 59.696L446.004 59.798H434.138V57.588H445.766V55.718H434.138V53.576H431.656V59.798H420.606V68.06C420.606 72.548 420.334 78.736 417.648 83.156C418.192 83.394 419.212 84.21 419.62 84.652C421.014 82.374 421.83 79.586 422.34 76.73C422.782 77.138 423.462 77.784 423.734 78.124C424.516 77.41 425.264 76.594 425.978 75.676C426.556 77.172 427.202 78.464 427.916 79.484C426.216 81.15 424.142 82.272 421.864 82.952C422.306 83.394 422.782 84.21 423.02 84.72C425.366 83.904 427.508 82.714 429.242 81.048C431.894 83.598 435.498 84.21 440.122 84.21H448.112C448.214 83.598 448.588 82.578 448.928 82.068C447.5 82.102 441.278 82.102 440.258 82.102C436.314 82.102 433.05 81.626 430.636 79.552C432.268 77.512 433.458 74.894 434.138 71.562L432.846 71.222ZM18.19 127.554H29.478V125.242H18.19V119.938H31.722V117.558H18.19V112.9H29.206V110.554H18.19V106.644H15.64V110.554H5.168V112.9H15.64V117.558H2.244V119.938H15.64V133.436C12.886 132.314 10.676 130.342 9.248 126.908C9.622 125.344 9.928 123.78 10.132 122.284L7.548 121.944C7.038 126.942 5.406 132.858 1.326 136.02C1.836 136.394 2.754 137.21 3.196 137.686C5.542 135.782 7.174 132.994 8.296 129.968C11.696 135.918 17.17 137.176 24.412 137.176H31.688C31.824 136.462 32.266 135.306 32.606 134.694C31.144 134.728 25.636 134.762 24.514 134.728C22.27 134.728 20.128 134.592 18.19 134.184V127.554ZM61.2 127.554H72.488V125.242H61.2V119.938H74.732V117.558H61.2V112.9H72.216V110.554H61.2V106.644H58.65V110.554H48.178V112.9H58.65V117.558H45.254V119.938H58.65V133.436C55.896 132.314 53.686 130.342 52.258 126.908C52.632 125.344 52.938 123.78 53.142 122.284L50.558 121.944C50.048 126.942 48.416 132.858 44.336 136.02C44.846 136.394 45.764 137.21 46.206 137.686C48.552 135.782 50.184 132.994 51.306 129.968C54.706 135.918 60.18 137.176 67.422 137.176H74.698C74.834 136.462 75.276 135.306 75.616 134.694C74.154 134.728 68.646 134.762 67.524 134.728C65.28 134.728 63.138 134.592 61.2 134.184V127.554ZM112.098 125.922H97.342V123.576H112.098V125.922ZM97.342 134.32V131.804H112.098V134.32H97.342ZM112.098 130.036H97.342V127.656H112.098V130.036ZM117.912 119.224V117.116H100.096C100.504 116.3 100.878 115.45 101.218 114.634H115.94V112.594H101.932C102.204 111.744 102.476 110.928 102.714 110.078C107.576 109.806 112.2 109.364 115.6 108.65L114.002 106.814C108.664 107.902 98.362 108.446 90.134 108.514C90.372 109.058 90.61 109.874 90.644 110.452C93.568 110.452 96.764 110.384 99.926 110.214C99.722 111.03 99.484 111.812 99.212 112.594H90.61V114.634H98.464C98.158 115.45 97.75 116.3 97.342 117.116H88.128V119.224H96.152C94.044 122.76 91.12 125.922 87.312 128.132C87.788 128.574 88.536 129.492 88.876 130.07C91.188 128.676 93.194 126.976 94.928 125.072V137.686H97.342V136.36H112.098V137.686H114.58V121.57H97.648C98.158 120.822 98.6 120.006 99.042 119.224H117.912ZM155.108 125.922H140.352V123.576H155.108V125.922ZM140.352 134.32V131.804H155.108V134.32H140.352ZM155.108 130.036H140.352V127.656H155.108V130.036ZM160.922 119.224V117.116H143.106C143.514 116.3 143.888 115.45 144.228 114.634H158.95V112.594H144.942C145.214 111.744 145.486 110.928 145.724 110.078C150.586 109.806 155.21 109.364 158.61 108.65L157.012 106.814C151.674 107.902 141.372 108.446 133.144 108.514C133.382 109.058 133.62 109.874 133.654 110.452C136.578 110.452 139.774 110.384 142.936 110.214C142.732 111.03 142.494 111.812 142.222 112.594H133.62V114.634H141.474C141.168 115.45 140.76 116.3 140.352 117.116H131.138V119.224H139.162C137.054 122.76 134.13 125.922 130.322 128.132C130.798 128.574 131.546 129.492 131.886 130.07C134.198 128.676 136.204 126.976 137.938 125.072V137.686H140.352V136.36H155.108V137.686H157.59V121.57H140.658C141.168 120.822 141.61 120.006 142.052 119.224H160.922ZM181.424 112.118V126.296H177.106V112.118H181.424ZM183.77 109.772H174.794V131.872H177.106V128.642H183.77V109.772ZM193.868 111.098V122.012H189.244V111.098H193.868ZM200.974 122.012H196.18V111.098H200.974V122.012ZM191.828 134.592C189.652 134.592 189.244 134.184 189.244 132.28V124.324H200.974V126.466H203.456V108.752H186.762V132.246C186.762 136.02 187.986 136.938 191.726 136.938H200.056C203.592 136.938 204.374 135.408 204.782 130.784C204.068 130.648 203.082 130.206 202.47 129.764C202.198 133.64 201.858 134.592 199.954 134.592H191.828ZM220.811 128.177H218.038L217.822 110.828H221.043L220.811 128.177ZM217.706 133.456C217.706 132.958 217.856 132.543 218.154 132.211C218.464 131.868 218.918 131.696 219.516 131.696C220.113 131.696 220.567 131.868 220.877 132.211C221.187 132.543 221.342 132.958 221.342 133.456C221.342 133.954 221.187 134.369 220.877 134.701C220.567 135.022 220.113 135.183 219.516 135.183C218.918 135.183 218.464 135.022 218.154 134.701C217.856 134.369 217.706 133.954 217.706 133.456Z" fill="#5F5F5F"/>
</svg>
