<svg width="333" height="138" viewBox="0 0 333 138" fill="none" xmlns="http://www.w3.org/2000/svg">
<path d="M10.696 9.858C10.254 14.312 9.37 18.052 8.078 21.112C6.786 20.194 5.426 19.344 4.134 18.596C4.814 15.91 5.528 12.884 6.208 9.858H10.696ZM11.75 7.444L11.308 7.546H6.718C7.228 5.2 7.704 2.922 8.112 0.847998L5.698 0.575999C5.324 2.684 4.848 5.098 4.304 7.546H0.598V9.858H3.828C2.876 14.108 1.856 18.29 1.04 21.214L3.148 22.302L3.522 20.874C4.712 21.622 5.902 22.438 7.024 23.288C5.426 26.212 3.352 28.32 0.87 29.612C1.414 30.122 2.094 31.04 2.434 31.652C5.086 30.054 7.262 27.844 8.962 24.818C10.39 26.008 11.614 27.198 12.43 28.218L13.96 26.212C13.042 25.09 11.682 23.832 10.084 22.608C11.75 18.8 12.804 13.938 13.246 7.784L11.75 7.444ZM31.64 14.176H23.548V11.15C26.132 9.144 29.022 6.084 30.926 3.364L29.26 2.14L28.75 2.31H14.198V4.622H26.914C25.554 6.356 23.752 8.294 22.052 9.654H21.032V14.176H13.076V16.522H21.032V28.388C21.032 28.898 20.862 29.068 20.284 29.102C19.706 29.136 17.802 29.136 15.66 29.068C16.034 29.714 16.476 30.836 16.612 31.516C19.298 31.516 21.066 31.448 22.12 31.074C23.208 30.666 23.548 29.918 23.548 28.388V16.522H31.64V14.176ZM57.31 21.724C58.942 23.39 60.778 25.702 61.492 27.266L63.532 25.974C62.75 24.41 60.88 22.166 59.214 20.568L57.31 21.724ZM74.48 13.19V10.844H66.116V6.526H72.916V4.214H66.116V0.542H63.6V4.214H56.97V6.526H63.6V10.844H54.964V13.19H67.816V17.27H56.222L55.916 15.264L51.972 16.454V9.79H55.474V7.41H51.972V0.575999H49.66V7.41H47.008C47.246 5.88 47.484 4.316 47.654 2.752L45.444 2.378C45.036 6.492 44.39 10.81 43.132 13.666C43.642 13.904 44.628 14.482 45.002 14.788C45.614 13.394 46.124 11.66 46.532 9.79H49.66V17.134C47.28 17.848 45.07 18.46 43.336 18.936L44.016 21.316L49.66 19.582V31.584H51.972V18.868L55.542 17.746V19.582H67.816V28.456C67.816 28.966 67.68 29.068 67.102 29.102C66.524 29.136 64.688 29.136 62.614 29.068C63.022 29.782 63.328 30.87 63.43 31.584C66.048 31.584 67.85 31.55 68.904 31.176C69.958 30.734 70.298 29.986 70.298 28.49V19.582H74.276V17.27H70.298V13.19H74.48ZM90.698 4.384H99.334V10.912H90.698V4.384ZM94.2 16.794C94.336 15.57 94.438 14.346 94.506 13.156H101.714V2.106H88.352V13.156H92.058C91.718 19.31 90.902 26.246 86.278 29.918C86.89 30.292 87.672 31.108 88.012 31.652C91.582 28.694 93.18 24.002 93.928 19.072H99.504C99.198 25.77 98.858 28.354 98.246 29.034C97.94 29.34 97.668 29.408 97.09 29.408C96.478 29.408 94.88 29.408 93.214 29.238C93.622 29.816 93.86 30.768 93.928 31.448C95.56 31.516 97.226 31.55 98.076 31.448C99.096 31.38 99.674 31.176 100.252 30.496C101.17 29.442 101.51 26.348 101.918 17.882C101.918 17.576 101.952 16.794 101.952 16.794H94.2ZM107.63 4.622H105.182V23.322H107.63V4.622ZM113.444 1.222V28.252C113.444 28.898 113.172 29.102 112.56 29.102C111.914 29.136 109.772 29.17 107.392 29.068C107.8 29.782 108.174 30.938 108.31 31.618C111.404 31.618 113.308 31.584 114.43 31.176C115.484 30.734 115.96 29.952 115.96 28.252V1.222H113.444ZM140.542 15.366H133.402V8.26H140.542V15.366ZM133.402 25.77V17.61H140.542V25.77H133.402ZM136.258 0.473998C136.02 2.072 135.408 4.35 134.898 5.982H131.09V30.734H133.402V28.048H142.854V5.982H137.21C137.788 4.52 138.4 2.65 138.978 0.983998L136.258 0.473998ZM159.48 5.88H149.314C149.892 4.282 150.368 2.65 150.776 0.983998L148.362 0.405999C147.274 5.064 145.438 9.756 143.16 12.748C143.704 13.088 144.792 13.768 145.234 14.176C146.424 12.578 147.478 10.504 148.43 8.226H157.066C156.624 21.758 156.114 26.926 154.992 28.116C154.652 28.558 154.278 28.626 153.598 28.626C152.816 28.626 150.776 28.626 148.566 28.422C149.042 29.136 149.348 30.156 149.416 30.904C151.32 31.006 153.258 31.074 154.448 30.938C155.604 30.836 156.386 30.53 157.134 29.578C158.494 27.912 158.936 22.676 159.48 7.172V5.88ZM154.108 21.18C153.02 19.174 150.674 15.91 148.77 13.496L146.798 14.652C148.668 17.1 150.946 20.466 151.966 22.506L154.108 21.18ZM181.104 7.886H183.62V5.2H192.426V7.512H194.976V5.2H202.966V2.956H194.976V0.575999H192.426V2.956H183.62V0.575999H181.104V2.956H173.216V5.2H181.104V7.886ZM198.512 7.172C193.072 8.464 182.702 9.178 174.236 9.416C174.474 9.96 174.746 10.946 174.814 11.558C183.416 11.388 193.99 10.64 200.552 9.144L198.512 7.172ZM189.434 16.386C189.162 15.06 188.244 13.122 187.258 11.694L185.048 12.408C186 13.904 186.85 15.876 187.054 17.202L189.434 16.386ZM181.002 17.406C180.492 15.944 179.2 13.904 177.874 12.408L175.766 13.258C177.024 14.788 178.282 16.93 178.758 18.358L181.002 17.406ZM198.41 11.116C197.492 13.122 195.86 15.978 194.568 17.712L196.54 18.596C197.866 16.93 199.566 14.312 200.926 12.068L198.41 11.116ZM203.068 22.268V19.99H189.264V17.406H186.68V19.99H173.114V22.268H184.402C181.376 25.056 176.616 27.572 172.332 28.762C172.91 29.306 173.692 30.292 174.066 30.972C178.52 29.442 183.45 26.484 186.68 23.118V31.584H189.264V23.05C192.358 26.45 197.288 29.306 201.912 30.734C202.286 30.054 203.068 29.068 203.612 28.524C199.158 27.436 194.398 25.09 191.44 22.268H203.068ZM233.804 5.03C233.056 6.356 232.138 7.818 231.22 8.94H221.87C223.128 7.682 224.25 6.356 225.236 5.03H233.804ZM241.216 17.406H232.58V11.252H241.216V17.406ZM222.006 11.252H230.064V17.406H222.006V11.252ZM226.46 28.864C222.72 28.864 222.006 28.354 222.006 26.246V19.684H241.216V21.214H243.766V8.94H234.178C235.368 7.342 236.524 5.472 237.374 3.772L235.674 2.684L235.198 2.854H226.8C227.208 2.208 227.616 1.596 227.99 0.983998L225.202 0.439999C223.4 3.84 220 8.022 215.376 11.184C215.988 11.558 216.838 12.374 217.212 12.952C217.994 12.374 218.776 11.796 219.49 11.15V26.212C219.49 30.258 221.156 31.21 226.63 31.21H239.822C244.82 31.21 245.874 29.748 246.452 24.784C245.67 24.614 244.616 24.274 243.936 23.832C243.528 27.946 243.018 28.864 239.754 28.864H226.46ZM262.398 32.638C265.968 31.38 268.28 28.592 268.28 24.92C268.28 22.54 267.26 21.01 265.39 21.01C263.996 21.01 262.806 21.86 262.806 23.458C262.806 25.056 263.962 25.872 265.356 25.872C265.56 25.872 265.73 25.872 265.934 25.838C265.764 28.15 264.268 29.748 261.65 30.836L262.398 32.638ZM310.78 10.81V6.73H314.758C313.874 8.158 312.854 9.518 311.8 10.81H310.78ZM315.166 21.724H307.55V18.426H315.166V21.724ZM307.55 27.334V23.764H315.166V27.334H307.55ZM317.376 1.766C316.662 3.364 315.914 4.894 314.996 6.356V4.486H310.78V0.847998H308.4V4.486H303.198V6.73H308.4V10.81H301.668V13.054H309.726C307.176 15.604 304.218 17.712 300.92 19.344C301.396 19.854 302.212 20.908 302.518 21.418C303.436 20.908 304.354 20.364 305.204 19.786V31.448H307.55V29.442H315.166V30.972H317.58V16.352H309.658C310.814 15.332 311.868 14.21 312.888 13.054H319.11V10.81H314.724C316.628 8.294 318.328 5.506 319.654 2.412L317.376 1.766ZM330.908 2.378L330.5 2.48H320.538V31.618H323.02V4.894H329.344C328.256 7.614 326.658 11.218 325.196 14.108C328.766 17.066 329.82 19.616 329.82 21.758C329.854 22.982 329.582 24.002 328.834 24.41C328.392 24.648 327.814 24.784 327.236 24.818C326.488 24.886 325.468 24.852 324.346 24.75C324.788 25.464 325.06 26.518 325.094 27.232C326.148 27.3 327.338 27.3 328.256 27.198C329.106 27.096 329.922 26.858 330.534 26.416C331.792 25.634 332.302 24.07 332.268 21.996C332.268 19.582 331.35 16.93 327.78 13.768C329.412 10.64 331.282 6.764 332.71 3.568L330.908 2.378ZM26.744 58.982C26.438 63.062 26.064 64.762 25.486 65.306C25.18 65.578 24.874 65.612 24.296 65.612C23.65 65.612 21.984 65.578 20.284 65.442C20.692 66.054 20.998 67.04 21.066 67.754C22.8 67.856 24.466 67.856 25.35 67.788C26.336 67.72 26.982 67.55 27.594 66.904C28.478 65.952 28.92 63.606 29.328 57.724C29.396 57.35 29.43 56.636 29.43 56.636H17.7C17.904 55.752 18.04 54.834 18.176 53.882L15.592 53.542C14.878 59.458 13.11 64.15 9.506 66.972C10.118 67.346 11.206 68.162 11.648 68.57C14.232 66.258 16.034 63.062 17.156 58.982H26.744ZM9.846 57.554C8.486 56.296 5.8 54.766 3.624 53.848L2.23 55.65C4.406 56.67 7.058 58.336 8.35 59.56L9.846 57.554ZM8.078 66.36C6.718 65.238 3.964 63.776 1.788 62.926L0.428 64.762C2.638 65.748 5.324 67.312 6.684 68.468L8.078 66.36ZM7.568 71.596C5.698 75.438 3.25 79.858 1.516 82.476L3.658 84.108C5.528 80.98 7.772 76.764 9.438 73.194L7.568 71.596ZM26.064 71.63C24.84 73.942 23.072 75.914 20.93 77.478C18.822 75.812 17.156 73.84 15.966 71.63H26.064ZM27.866 69.25L27.39 69.352H11.342V71.63H15.286L13.62 72.208C14.946 74.758 16.714 76.968 18.856 78.838C15.898 80.538 12.498 81.694 8.996 82.306C9.472 82.85 10.05 83.904 10.254 84.55C14.062 83.734 17.7 82.408 20.862 80.436C23.514 82.306 26.608 83.7 30.042 84.584C30.382 83.904 31.096 82.85 31.674 82.34C28.444 81.66 25.52 80.504 23.004 78.94C25.86 76.662 28.138 73.738 29.498 69.964L27.866 69.25ZM67.408 69.964H53.23V66.53H67.408V69.964ZM53.23 75.71V72.14H67.408V75.71H53.23ZM73.868 60.308V57.928H56.562C57.072 56.704 57.48 55.412 57.888 54.154L55.372 53.542C54.964 55.004 54.454 56.466 53.876 57.928H44.288V60.308H52.822C50.646 64.796 47.552 68.876 43.472 71.63C43.982 72.106 44.764 73.024 45.104 73.568C47.246 72.072 49.116 70.236 50.748 68.23V84.584H53.23V77.886H67.408V81.422C67.408 81.932 67.204 82.102 66.626 82.136C66.014 82.136 63.974 82.17 61.73 82.068C62.07 82.782 62.444 83.802 62.546 84.55C65.436 84.55 67.34 84.516 68.462 84.108C69.55 83.7 69.89 82.952 69.89 81.422V64.252H53.502C54.25 62.994 54.93 61.634 55.576 60.308H73.868ZM111.098 72.922H96.342V70.576H111.098V72.922ZM96.342 81.32V78.804H111.098V81.32H96.342ZM111.098 77.036H96.342V74.656H111.098V77.036ZM116.912 66.224V64.116H99.096C99.504 63.3 99.878 62.45 100.218 61.634H114.94V59.594H100.932C101.204 58.744 101.476 57.928 101.714 57.078C106.576 56.806 111.2 56.364 114.6 55.65L113.002 53.814C107.664 54.902 97.362 55.446 89.134 55.514C89.372 56.058 89.61 56.874 89.644 57.452C92.568 57.452 95.764 57.384 98.926 57.214C98.722 58.03 98.484 58.812 98.212 59.594H89.61V61.634H97.464C97.158 62.45 96.75 63.3 96.342 64.116H87.128V66.224H95.152C93.044 69.76 90.12 72.922 86.312 75.132C86.788 75.574 87.536 76.492 87.876 77.07C90.188 75.676 92.194 73.976 93.928 72.072V84.686H96.342V83.36H111.098V84.686H113.58V68.57H96.648C97.158 67.822 97.6 67.006 98.042 66.224H116.912ZM144.554 56.704H153.972V59.458H147.886V65.17H144.554V56.704ZM149.79 65.17V61.226H153.972V65.17H149.79ZM141.936 67.176H156.556V77.342C156.556 77.648 156.42 77.784 156.012 77.818C155.672 77.818 154.414 77.818 152.986 77.784C153.258 78.362 153.564 79.246 153.666 79.824C155.706 79.824 156.998 79.824 157.814 79.45C158.664 79.11 158.868 78.498 158.868 77.342V65.17H156.25V54.732H142.344V65.17H139.692V79.824H141.936V67.176ZM151.626 74.758H146.764V71.154H151.626V74.758ZM153.598 69.352H144.792V77.852H146.764V76.526H153.598V69.352ZM137.448 59.934C136.394 58.268 134.048 55.956 131.974 54.392L130.036 55.82C132.11 57.452 134.388 59.798 135.408 61.498L137.448 59.934ZM136.428 66.87H129.73V69.25H134.048V77.954C132.518 79.382 130.784 80.81 129.356 81.864L130.682 84.278C132.348 82.816 133.912 81.388 135.408 79.926C137.516 82.578 140.576 83.768 145.03 83.938C148.838 84.108 156.012 84.04 159.82 83.87C159.922 83.122 160.33 81.966 160.636 81.388C156.556 81.66 148.736 81.762 144.996 81.592C141.018 81.456 138.026 80.3 136.428 77.784V66.87ZM176.378 85.638C179.948 84.38 182.26 81.592 182.26 77.92C182.26 75.54 181.24 74.01 179.37 74.01C177.976 74.01 176.786 74.86 176.786 76.458C176.786 78.056 177.942 78.872 179.336 78.872C179.54 78.872 179.71 78.872 179.914 78.838C179.744 81.15 178.248 82.748 175.63 83.836L176.378 85.638ZM227.888 81.116C224.998 81.116 224.42 80.776 224.42 79.076V73.568C230.098 72.106 236.218 70.168 240.468 68.094L238.394 66.122C235.13 67.924 229.656 69.828 224.42 71.29V63.776H221.836V79.076C221.836 82.68 223.196 83.632 227.888 83.632H238.19C242.542 83.632 243.494 82.136 243.97 76.866C243.222 76.696 242.1 76.254 241.488 75.846C241.148 80.266 240.74 81.116 238.156 81.116H227.888ZM232.308 57.792V53.542H229.622V57.792H217.076V65.544H219.592V60.274H242.372V65.544H244.99V57.792H232.308ZM265.05 53.746C263.418 58.982 260.732 64.15 257.808 67.55C258.216 68.162 258.896 69.488 259.134 70.1C260.256 68.774 261.31 67.244 262.33 65.544V84.584H264.744V61.022C265.764 58.88 266.648 56.636 267.396 54.392L265.05 53.746ZM274.978 57.52V60.614H270.252V57.52H274.978ZM270.252 65.816V62.518H274.978V65.816H270.252ZM276.984 55.514H267.906V84.516H270.252V67.788H276.984V55.514ZM281.098 65.816V62.518H286.096V65.816H281.098ZM286.096 57.52V60.614H281.098V57.52H286.096ZM288.476 55.514H279.024V67.788H286.096V81.252C286.096 81.932 285.858 82.136 285.212 82.17C284.566 82.204 282.22 82.204 279.806 82.136C280.112 82.782 280.52 83.904 280.656 84.55C283.852 84.55 285.824 84.516 286.98 84.108C288.102 83.7 288.476 82.918 288.476 81.286V55.514ZM325.774 59.628H308.196V56.874H325.774V59.628ZM325.774 64.218H308.196V61.464H325.774V64.218ZM328.29 54.936H305.714V66.156H328.29V54.936ZM318.6 76.73H329.82V74.486H318.6V70.712H332.03V68.434H302.178V70.712H316.118V80.946C313.194 80.164 311.018 78.6 309.692 75.54C310.032 74.452 310.338 73.33 310.576 72.14L308.026 71.8C307.108 76.764 304.966 80.572 301.43 82.85C301.974 83.258 302.96 84.21 303.3 84.652C305.51 83.02 307.278 80.912 308.604 78.26C311.358 82.85 315.676 83.938 322.51 83.938H331.758C331.894 83.19 332.302 82.102 332.642 81.524C330.908 81.558 323.87 81.558 322.612 81.558C321.184 81.558 319.824 81.49 318.6 81.354V76.73ZM8.928 106.678C6.99 111.914 3.76 117.048 0.36 120.38C0.802 120.992 1.516 122.284 1.788 122.862C3.046 121.536 4.304 119.972 5.494 118.306V137.55H7.976V114.362C9.234 112.186 10.39 109.772 11.308 107.426L8.928 106.678ZM31.334 118.238H22.188V106.916H19.638V118.238H10.152V120.72H19.638V137.618H22.188V120.72H31.334V118.238ZM74.174 111.574V109.398H61.288V106.576H58.704V109.398H45.852V119.836C45.852 124.698 45.648 131.464 43.234 136.224C43.778 136.496 44.798 137.244 45.172 137.686C47.79 132.586 48.164 125.004 48.164 119.836V111.574H74.174ZM67.918 124.358V116.198H73.426V114.328H67.918V111.914H65.912V114.328H61.594V116.198H65.912V124.358H67.918ZM64.11 117.252H62.512V118.51C62.512 119.87 62.308 121.808 60.948 122.964C61.39 123.202 62.036 123.712 62.342 124.052C63.872 122.454 64.11 120.38 64.11 118.578V117.252ZM60.438 114.328H56.222V111.914H54.284V114.328H49.898V116.198H54.284V124.222H56.222V116.198H60.438V114.328ZM59.69 122.556V117.286H58.092V122.556H59.69ZM52.516 117.32H50.952V118.646C50.952 120.142 50.714 122.216 49.286 123.542C49.728 123.746 50.34 124.222 50.646 124.596C52.278 122.862 52.516 120.618 52.516 118.714V117.32ZM65.3 130.988C66.524 131.94 67.816 133.096 69.006 134.252C65.3 134.32 61.56 134.422 58.194 134.49C61.322 132.314 64.858 129.458 67.544 127.01L65.402 125.786C63.838 127.418 61.73 129.322 59.52 131.056C58.704 130.41 57.616 129.662 56.494 128.948C57.99 127.758 59.69 126.228 61.084 124.8L59.01 123.678C58.024 124.936 56.358 126.636 54.896 127.928C54.25 127.52 53.638 127.146 53.06 126.84L51.428 128.302C53.468 129.492 56.018 131.226 57.582 132.552C56.63 133.266 55.678 133.946 54.794 134.558C52.788 134.592 50.986 134.592 49.422 134.626L49.592 136.802C54.93 136.7 63.056 136.394 70.808 136.156C71.318 136.7 71.726 137.21 72.066 137.686L74.208 136.564C72.746 134.626 69.788 131.906 67.306 130.002L65.3 130.988ZM71.862 122.76C71.692 122.76 71.556 122.726 71.488 122.658C71.454 122.556 71.42 122.284 71.42 121.842V117.252H69.754V121.604C69.754 122.998 69.822 123.406 70.162 123.746C70.502 124.052 71.046 124.154 71.522 124.154H72.678C72.984 124.154 73.426 124.12 73.664 123.95C73.97 123.882 74.242 123.61 74.378 123.27C74.548 122.93 74.616 121.944 74.65 121.06C74.242 120.924 73.698 120.652 73.358 120.414C73.324 121.264 73.29 121.944 73.222 122.216C73.154 122.454 73.086 122.624 72.984 122.692C72.916 122.76 72.712 122.76 72.508 122.76H71.862ZM104.298 117.082C103.958 119.53 103.516 121.808 102.904 123.882C101.884 122.828 100.422 121.604 99.096 120.618C99.504 119.496 99.878 118.306 100.218 117.082H104.298ZM93.044 125.48H89.61V111.506H93.044V125.48ZM96.002 110.146H99.368C98.62 115.45 97.328 120.346 95.186 123.814V109.262H87.502V130.58H89.61V127.69H95.186V125.344C95.594 125.684 96.07 126.058 96.274 126.296C97.022 125.208 97.702 123.95 98.314 122.59C99.742 123.746 101.204 125.174 102.122 126.296C100.456 130.75 98.076 134.048 95.22 135.884C95.73 136.292 96.376 137.21 96.716 137.754C102.054 133.98 105.59 126.67 106.644 115.11L105.25 114.77L104.876 114.872H100.762C101.102 113.342 101.408 111.778 101.646 110.146H107.46V107.936H96.002V110.146ZM110.316 110.69H108.106V130.172H110.316V110.69ZM114.022 106.882V134.524C114.022 135.034 113.852 135.17 113.376 135.204C112.9 135.204 111.336 135.238 109.636 135.17C109.976 135.816 110.35 136.904 110.418 137.516C112.73 137.516 114.192 137.482 115.076 137.074C115.994 136.666 116.266 135.986 116.266 134.524V106.882H114.022ZM133.957 128.193C133.979 126.876 134.128 125.836 134.405 125.072C134.682 124.309 135.246 123.462 136.098 122.532L138.273 120.291C139.203 119.24 139.668 118.111 139.668 116.904C139.668 115.742 139.363 114.835 138.755 114.182C138.146 113.518 137.26 113.186 136.098 113.186C134.969 113.186 134.062 113.484 133.376 114.082C132.69 114.68 132.346 115.482 132.346 116.489H129.275C129.297 114.696 129.934 113.252 131.184 112.156C132.446 111.049 134.084 110.496 136.098 110.496C138.19 110.496 139.817 111.061 140.979 112.189C142.152 113.307 142.739 114.846 142.739 116.805C142.739 118.742 141.842 120.651 140.05 122.532L138.24 124.325C137.432 125.222 137.028 126.511 137.028 128.193H133.957ZM133.824 133.456C133.824 132.958 133.973 132.543 134.272 132.211C134.582 131.868 135.036 131.696 135.634 131.696C136.231 131.696 136.685 131.868 136.995 132.211C137.305 132.543 137.46 132.958 137.46 133.456C137.46 133.954 137.305 134.369 136.995 134.701C136.685 135.022 136.231 135.183 135.634 135.183C135.036 135.183 134.582 135.022 134.272 134.701C133.973 134.369 133.824 133.954 133.824 133.456Z" fill="#276A70"/>
</svg>
