<svg width="334" height="138" viewBox="0 0 334 138" fill="none" xmlns="http://www.w3.org/2000/svg">
<path d="M19.244 4.826C18.564 6.016 17.612 7.308 16.728 8.294H8.534C9.622 7.172 10.608 5.982 11.492 4.826H19.244ZM26.146 14.38H18.156V10.436H26.146V14.38ZM26.146 20.398H18.156V16.386H26.146V20.398ZM8.16 16.386H15.742V20.398H8.16V16.386ZM8.16 10.436H15.742V14.38H8.16V10.436ZM5.746 22.54H28.696V8.294H19.788C20.91 6.9 22.066 5.2 22.814 3.704L21.08 2.65L20.672 2.752H12.988C13.396 2.14 13.77 1.562 14.11 0.983998L11.288 0.439999C9.52 3.704 6.188 7.818 1.632 10.776C2.21 11.184 3.06 12.034 3.434 12.646C4.25 12.068 4.998 11.49 5.746 10.878V22.54ZM3.706 31.686C5.78 30.02 7.548 27.232 8.602 24.546L6.188 23.866C5.202 26.382 3.4 29 1.462 30.394L3.706 31.686ZM11.832 24.75C12.24 26.858 12.512 29.578 12.512 31.21L15.062 30.904C15.028 29.306 14.688 26.62 14.246 24.58L11.832 24.75ZM18.564 24.818C19.55 26.858 20.536 29.578 20.876 31.21L23.29 30.598C22.916 28.966 21.862 26.28 20.876 24.342L18.564 24.818ZM25.194 24.58C27.166 26.722 29.376 29.68 30.26 31.618L32.674 30.496C31.688 28.524 29.444 25.634 27.472 23.594L25.194 24.58ZM53.89 8.26H48.28V3.976H53.89V8.26ZM53.89 14.584H48.28V10.266H53.89V14.584ZM53.89 21.01H48.28V16.59H53.89V21.01ZM56.202 1.868H46.002V23.05H56.202V1.868ZM47.804 23.798C47.124 26.246 45.832 28.626 44.234 30.224C44.812 30.53 45.832 31.244 46.24 31.652C47.838 29.85 49.3 27.13 50.184 24.342L47.804 23.798ZM52.19 24.648C53.108 26.042 54.162 27.912 54.604 29.102L56.678 28.014C56.202 26.858 55.148 25.124 54.162 23.764L52.19 24.648ZM71.468 13.088C70.72 16.93 69.428 20.16 67.694 22.744C65.926 20.058 64.634 16.76 63.818 13.088H71.468ZM72.658 10.776L72.25 10.844H61.37V4.588H74.732V2.242H59.058V14.55C59.058 19.446 58.786 25.804 55.726 30.326C56.27 30.564 57.29 31.244 57.698 31.686C60.928 26.926 61.37 19.752 61.37 14.55V13.088H61.642C62.628 17.61 64.124 21.554 66.232 24.716C64.396 26.892 62.186 28.49 59.772 29.544C60.282 29.986 60.928 30.972 61.234 31.55C63.682 30.394 65.858 28.796 67.728 26.688C69.496 28.762 71.604 30.428 74.154 31.652C74.494 31.04 75.242 30.088 75.82 29.612C73.202 28.524 71.026 26.892 69.224 24.784C71.604 21.384 73.338 16.93 74.154 11.184L72.658 10.776ZM98.532 15.366H91.392V8.26H98.532V15.366ZM91.392 25.77V17.61H98.532V25.77H91.392ZM94.248 0.473998C94.01 2.072 93.398 4.35 92.888 5.982H89.08V30.734H91.392V28.048H100.844V5.982H95.2C95.778 4.52 96.39 2.65 96.968 0.983998L94.248 0.473998ZM117.47 5.88H107.304C107.882 4.282 108.358 2.65 108.766 0.983998L106.352 0.405999C105.264 5.064 103.428 9.756 101.15 12.748C101.694 13.088 102.782 13.768 103.224 14.176C104.414 12.578 105.468 10.504 106.42 8.226H115.056C114.614 21.758 114.104 26.926 112.982 28.116C112.642 28.558 112.268 28.626 111.588 28.626C110.806 28.626 108.766 28.626 106.556 28.422C107.032 29.136 107.338 30.156 107.406 30.904C109.31 31.006 111.248 31.074 112.438 30.938C113.594 30.836 114.376 30.53 115.124 29.578C116.484 27.912 116.926 22.676 117.47 7.172V5.88ZM112.098 21.18C111.01 19.174 108.664 15.91 106.76 13.496L104.788 14.652C106.658 17.1 108.936 20.466 109.956 22.506L112.098 21.18ZM157.964 12.85H148.512V9.552H157.964V12.85ZM157.964 17.984H148.512V14.652H157.964V17.984ZM157.964 23.22H148.512V19.854H157.964V23.22ZM146.166 7.58V25.192H160.344V7.58H153.374C153.714 6.594 154.02 5.472 154.36 4.35H161.432V2.174H145.146V4.35H151.572C151.402 5.404 151.13 6.56 150.892 7.58H146.166ZM144.228 2.412H130.934V4.724H144.228V2.412ZM141.134 14.958H134.062V10.028H141.134V14.958ZM143.446 7.954H131.852V17.032H143.446V7.954ZM136.136 24.58C136.068 22.914 135.524 20.296 134.708 18.324L132.668 18.834C133.416 20.84 133.926 23.424 133.96 25.124L136.136 24.58ZM144.466 24.512L140.522 25.328C141.168 23.56 141.848 20.908 142.494 18.63L140.08 18.018C139.774 20.058 139.128 23.05 138.55 24.886L140.25 25.396C136.51 26.178 132.974 26.892 130.424 27.368L131.07 29.714C134.776 28.932 139.876 27.81 144.67 26.654L144.466 24.512ZM149.362 25.906C147.968 27.334 145.044 29.068 142.46 29.952C143.004 30.394 143.752 31.176 144.126 31.618C146.744 30.666 149.77 28.898 151.572 27.164L149.362 25.906ZM154.394 27.3C156.434 28.558 158.916 30.428 160.14 31.618L162.146 30.258C160.854 29.034 158.304 27.266 156.332 26.076L154.394 27.3ZM189.244 27.47V14.006H201.892V11.49H189.244V1.086H186.592V27.47H173.91V29.986H204.204V27.47H189.244ZM225.76 10.81V6.73H229.738C228.854 8.158 227.834 9.518 226.78 10.81H225.76ZM230.146 21.724H222.53V18.426H230.146V21.724ZM222.53 27.334V23.764H230.146V27.334H222.53ZM232.356 1.766C231.642 3.364 230.894 4.894 229.976 6.356V4.486H225.76V0.847998H223.38V4.486H218.178V6.73H223.38V10.81H216.648V13.054H224.706C222.156 15.604 219.198 17.712 215.9 19.344C216.376 19.854 217.192 20.908 217.498 21.418C218.416 20.908 219.334 20.364 220.184 19.786V31.448H222.53V29.442H230.146V30.972H232.56V16.352H224.638C225.794 15.332 226.848 14.21 227.868 13.054H234.09V10.81H229.704C231.608 8.294 233.308 5.506 234.634 2.412L232.356 1.766ZM245.888 2.378L245.48 2.48H235.518V31.618H238V4.894H244.324C243.236 7.614 241.638 11.218 240.176 14.108C243.746 17.066 244.8 19.616 244.8 21.758C244.834 22.982 244.562 24.002 243.814 24.41C243.372 24.648 242.794 24.784 242.216 24.818C241.468 24.886 240.448 24.852 239.326 24.75C239.768 25.464 240.04 26.518 240.074 27.232C241.128 27.3 242.318 27.3 243.236 27.198C244.086 27.096 244.902 26.858 245.514 26.416C246.772 25.634 247.282 24.07 247.248 21.996C247.248 19.582 246.33 16.93 242.76 13.768C244.392 10.64 246.262 6.764 247.69 3.568L245.888 2.378ZM283.458 16.964H269.28V13.53H283.458V16.964ZM269.28 22.71V19.14H283.458V22.71H269.28ZM289.918 7.308V4.928H272.612C273.122 3.704 273.53 2.412 273.938 1.154L271.422 0.542C271.014 2.004 270.504 3.466 269.926 4.928H260.338V7.308H268.872C266.696 11.796 263.602 15.876 259.522 18.63C260.032 19.106 260.814 20.024 261.154 20.568C263.296 19.072 265.166 17.236 266.798 15.23V31.584H269.28V24.886H283.458V28.422C283.458 28.932 283.254 29.102 282.676 29.136C282.064 29.136 280.024 29.17 277.78 29.068C278.12 29.782 278.494 30.802 278.596 31.55C281.486 31.55 283.39 31.516 284.512 31.108C285.6 30.7 285.94 29.952 285.94 28.422V11.252H269.552C270.3 9.994 270.98 8.634 271.626 7.308H289.918ZM317.9 1.358C317.288 2.956 316.098 5.336 315.248 6.798L316.982 7.58C317.934 6.22 319.09 4.078 320.144 2.242L317.9 1.358ZM307.258 6.594C306.918 5.234 305.864 3.126 304.81 1.528L302.974 2.344C303.994 3.942 305.014 6.118 305.354 7.512L307.258 6.594ZM314.874 15.094H307.496L309.298 14.448C309.06 13.224 308.312 11.32 307.428 9.926L305.456 10.606C306.238 12.034 306.986 13.87 307.19 15.094H303.892V17.236H310.114V20.704H304.742V22.812H310.114V26.824C307.326 27.198 304.776 27.504 302.736 27.742L303.11 30.122C307.428 29.544 313.786 28.66 319.702 27.81L319.634 25.566L312.46 26.518V22.812H318.036V20.704H312.46V17.236H318.75V15.094H315.146C315.792 13.904 316.608 12.136 317.322 10.538L315.044 9.858C314.602 11.252 313.786 13.292 313.106 14.584L314.874 15.094ZM333.608 9.62H330.004V0.779999H327.556V9.62H319.974V7.75H314.67V0.711999H312.562V7.75H309.978V0.711999H307.904V7.75H302.634V9.858H319.6V12H327.556V28.49C327.556 29.068 327.352 29.272 326.774 29.272C326.23 29.306 324.36 29.306 322.32 29.238C322.694 29.884 323.102 30.972 323.238 31.618C325.992 31.618 327.624 31.55 328.644 31.176C329.596 30.734 330.004 30.02 330.004 28.49V12H333.608V9.62ZM325.924 22.37C325.55 20.296 324.224 17.134 322.796 14.686L320.688 15.434C322.082 17.916 323.34 21.146 323.68 23.186L325.924 22.37ZM12.818 54.732H3.23V56.772H12.818V54.732ZM10.778 75.268V80.946H5.168V75.268H10.778ZM12.988 73.194H2.958V84.55H5.168V83.02H12.988V73.194ZM3.026 70.576H12.886V68.57H3.026V70.576ZM12.886 63.946H3.026V65.952H12.886V63.946ZM1.428 61.328H14.008V59.254H1.428V61.328ZM28.594 80.606H18.598V73.806H28.594V80.606ZM32.674 65.816V63.402H24.718V57.622C27.2 57.214 29.546 56.738 31.45 56.16L29.614 54.12C26.214 55.174 20.162 56.024 15.062 56.534C15.334 57.112 15.708 58.03 15.776 58.642C17.816 58.472 19.992 58.268 22.168 57.996V63.402H14.246V65.816H22.168V71.494H16.218V84.584H18.598V82.884H28.594V84.38H31.11V71.494H24.718V65.816H32.674ZM51.952 63.232H55.726V60.886H51.952V53.542H49.64V60.886H44.88V63.232H49.368C48.382 67.856 46.308 73.16 44.2 75.982C44.608 76.56 45.22 77.512 45.492 78.158C47.056 75.948 48.518 72.378 49.64 68.672V84.55H51.952V68.23C52.938 69.896 54.094 71.97 54.57 73.024L55.964 71.154C55.42 70.236 52.904 66.496 51.952 65.17V63.232ZM75.65 80.334H59.16V57.588H75.14V55.31H56.746V84.584H59.16V82.68H75.65V80.334ZM60.588 75.166V77.376H74.8V75.166H68.714V69.862H73.712V67.686H68.714V62.96H74.086V60.818H61.098V62.96H66.368V67.686H61.676V69.862H66.368V75.166H60.588ZM87.686 63.198C91.086 62.96 95.812 62.654 100.402 62.314C100.81 62.994 101.184 63.64 101.422 64.184L103.462 62.926C102.578 61.158 100.572 58.54 98.838 56.636L96.968 57.69C97.648 58.472 98.328 59.356 99.008 60.24C96.764 60.376 94.554 60.512 92.514 60.614C93.534 58.676 94.656 56.262 95.574 54.188L92.922 53.542C92.276 55.65 91.12 58.574 90.1 60.75L87.414 60.886L87.686 63.198ZM111.282 62.008H115.362C115.056 64.252 114.58 66.632 114.036 68.264L115.906 69.25C116.79 66.904 117.572 63.266 118.082 60.138L116.416 59.526L116.008 59.662H107.372C107.814 57.826 108.154 55.888 108.426 53.916L105.876 53.508C105.23 58.914 104.006 64.116 101.898 67.55V66.224H92.582C92.854 65.374 93.092 64.524 93.296 63.64L90.984 63.198C90.406 66.122 89.216 68.978 87.55 70.916C88.196 71.12 89.216 71.63 89.726 71.97C90.474 71.018 91.154 69.794 91.732 68.434H94.146V71.222C94.146 71.596 94.146 71.97 94.112 72.378H87.584V74.588H93.874C93.364 77.274 91.834 80.334 87.618 82.714C88.196 83.156 88.944 83.938 89.318 84.448C92.582 82.408 94.418 79.994 95.404 77.614C97.07 79.008 99.348 81.116 100.3 82.136L102 80.368C101.048 79.586 97.546 76.73 96.05 75.676C96.152 75.302 96.22 74.928 96.288 74.588H103.156V72.378H96.526C96.56 71.97 96.56 71.596 96.56 71.222V68.434H101.898V67.924C102.51 68.298 103.462 68.978 103.836 69.318C105.06 67.346 106.046 64.83 106.794 62.008H108.834V66.666C108.834 69.454 107.814 78.09 100.47 82.544C100.912 83.054 101.66 84.074 101.932 84.584C107.644 81.014 109.684 74.724 110.058 71.8C110.432 74.588 112.2 81.15 117.198 84.584C117.538 84.006 118.32 82.986 118.762 82.442C112.302 78.124 111.248 69.352 111.282 66.666V62.008ZM134.368 85.638C137.938 84.38 140.25 81.592 140.25 77.92C140.25 75.54 139.23 74.01 137.36 74.01C135.966 74.01 134.776 74.86 134.776 76.458C134.776 78.056 135.932 78.872 137.326 78.872C137.53 78.872 137.7 78.872 137.904 78.838C137.734 81.15 136.238 82.748 133.62 83.836L134.368 85.638ZM204.272 70.066V67.584H190.264V61.158H201.756V58.676H190.264V53.542H187.646V58.676H176.562V61.158H187.646V67.584H173.944V70.066H184.586C183.396 73.296 181.526 77.444 179.894 80.368C178.16 80.436 176.562 80.504 175.134 80.538L175.508 83.19C181.662 82.884 190.978 82.476 199.818 81.966C200.464 83.02 201.042 84.006 201.45 84.856L203.932 83.53C202.402 80.572 199.104 76.118 196.078 72.82L193.732 73.942C195.194 75.608 196.792 77.58 198.152 79.552C192.882 79.824 187.476 80.062 182.75 80.266C184.45 77.274 186.32 73.364 187.782 70.066H204.272ZM241.128 72.922H226.372V70.576H241.128V72.922ZM226.372 81.32V78.804H241.128V81.32H226.372ZM241.128 77.036H226.372V74.656H241.128V77.036ZM246.942 66.224V64.116H229.126C229.534 63.3 229.908 62.45 230.248 61.634H244.97V59.594H230.962C231.234 58.744 231.506 57.928 231.744 57.078C236.606 56.806 241.23 56.364 244.63 55.65L243.032 53.814C237.694 54.902 227.392 55.446 219.164 55.514C219.402 56.058 219.64 56.874 219.674 57.452C222.598 57.452 225.794 57.384 228.956 57.214C228.752 58.03 228.514 58.812 228.242 59.594H219.64V61.634H227.494C227.188 62.45 226.78 63.3 226.372 64.116H217.158V66.224H225.182C223.074 69.76 220.15 72.922 216.342 75.132C216.818 75.574 217.566 76.492 217.906 77.07C220.218 75.676 222.224 73.976 223.958 72.072V84.686H226.372V83.36H241.128V84.686H243.61V68.57H226.678C227.188 67.822 227.63 67.006 228.072 66.224H246.942ZM284.138 72.922H269.382V70.576H284.138V72.922ZM269.382 81.32V78.804H284.138V81.32H269.382ZM284.138 77.036H269.382V74.656H284.138V77.036ZM289.952 66.224V64.116H272.136C272.544 63.3 272.918 62.45 273.258 61.634H287.98V59.594H273.972C274.244 58.744 274.516 57.928 274.754 57.078C279.616 56.806 284.24 56.364 287.64 55.65L286.042 53.814C280.704 54.902 270.402 55.446 262.174 55.514C262.412 56.058 262.65 56.874 262.684 57.452C265.608 57.452 268.804 57.384 271.966 57.214C271.762 58.03 271.524 58.812 271.252 59.594H262.65V61.634H270.504C270.198 62.45 269.79 63.3 269.382 64.116H260.168V66.224H268.192C266.084 69.76 263.16 72.922 259.352 75.132C259.828 75.574 260.576 76.492 260.916 77.07C263.228 75.676 265.234 73.976 266.968 72.072V84.686H269.382V83.36H284.138V84.686H286.62V68.57H269.688C270.198 67.822 270.64 67.006 271.082 66.224H289.952ZM310.216 53.678C308.312 58.846 305.15 63.912 301.818 67.176C302.26 67.72 302.974 69.012 303.246 69.556C304.402 68.366 305.558 66.972 306.612 65.476V84.55H309.094V61.6C310.42 59.288 311.576 56.84 312.528 54.392L310.216 53.678ZM319.974 81.864C317.56 81.864 317.118 81.422 317.118 79.484V67.516L322.082 65.544V77.07H324.496V64.592L329.8 62.518C329.766 67.822 329.698 71.392 329.426 72.31C329.222 73.194 328.882 73.33 328.27 73.33C327.828 73.33 326.604 73.33 325.686 73.262C325.992 73.874 326.23 74.894 326.298 75.642C327.318 75.676 328.814 75.642 329.732 75.404C330.786 75.132 331.5 74.486 331.772 72.922C332.078 71.494 332.18 66.598 332.18 60.478L332.282 60.036L330.548 59.322L330.106 59.696L329.766 60.002L324.496 62.042V53.61H322.082V62.926L317.118 64.864V56.908H314.636V65.85L310.352 67.516L311.338 69.726L314.636 68.434V79.484C314.636 83.19 315.826 84.142 319.872 84.142H328.746C332.486 84.142 333.268 82.646 333.71 77.988C332.962 77.818 331.976 77.376 331.364 76.934C331.058 80.946 330.718 81.864 328.644 81.864H319.974ZM7.99 106.746C6.358 111.982 3.672 117.15 0.748 120.55C1.156 121.162 1.836 122.488 2.074 123.1C3.196 121.774 4.25 120.244 5.27 118.544V137.584H7.684V114.022C8.704 111.88 9.588 109.636 10.336 107.392L7.99 106.746ZM17.918 110.52V113.614H13.192V110.52H17.918ZM13.192 118.816V115.518H17.918V118.816H13.192ZM19.924 108.514H10.846V137.516H13.192V120.788H19.924V108.514ZM24.038 118.816V115.518H29.036V118.816H24.038ZM29.036 110.52V113.614H24.038V110.52H29.036ZM31.416 108.514H21.964V120.788H29.036V134.252C29.036 134.932 28.798 135.136 28.152 135.17C27.506 135.204 25.16 135.204 22.746 135.136C23.052 135.782 23.46 136.904 23.596 137.55C26.792 137.55 28.764 137.516 29.92 137.108C31.042 136.7 31.416 135.918 31.416 134.286V108.514ZM71.196 113.58H62.764V110.418H71.196V113.58ZM71.196 118.714H62.764V115.552H71.196V118.714ZM71.196 123.916H62.764V120.686H71.196V123.916ZM73.61 108.344H60.418V125.99H73.61V108.344ZM57.12 127.01C58.684 128.54 60.758 130.716 61.744 132.008L63.58 130.512C62.56 129.254 60.452 127.146 58.888 125.718L57.12 127.01ZM46.92 135.816C48.28 133.946 49.368 130.92 50.116 128.642L47.906 127.792C47.226 130.002 46.07 132.892 44.71 134.694L46.92 135.816ZM53.584 126.33V118.068C55.08 119.326 56.984 120.992 57.868 121.842L59.228 119.802C58.344 119.122 54.876 116.538 53.584 115.722V113.818H58.956V111.608H53.584V106.644H51.17V111.608H44.982V113.818H50.728C49.232 117.286 46.716 120.788 44.234 122.556C44.744 122.964 45.458 123.746 45.866 124.324C47.77 122.76 49.674 120.176 51.17 117.388V126.33H53.584ZM57.494 134.592C55.522 134.592 55.182 134.422 55.182 133.538V128.166H52.7V133.572C52.7 136.19 53.652 136.87 57.324 136.87H64.362C67.422 136.87 68.204 135.85 68.544 131.6C67.83 131.464 66.81 131.09 66.232 130.648C66.096 134.116 65.824 134.592 64.192 134.592H57.494ZM69.02 128.098C70.38 130.342 72.148 133.3 72.93 135.068L75.276 133.912C74.426 132.178 72.59 129.254 71.196 127.112L69.02 128.098ZM98.804 107.732H89.148V109.772H98.804V107.732ZM100.028 112.186H87.448V114.26H100.028V112.186ZM98.872 116.776H89.012V118.782H98.872V116.776ZM89.012 123.304H98.872V121.264H89.012V123.304ZM104.278 117.966H113.9V123.372H104.278V117.966ZM96.73 133.606H91.188V127.894H96.73V133.606ZM113.492 135.136C112.744 135.136 112.642 135 112.642 134.184V125.582H116.382V117.32C116.552 117.524 116.756 117.728 116.926 117.898C117.402 117.354 118.388 116.64 119 116.266C116.926 114.362 114.716 110.962 113.594 107.596H104.924V109.942H111.894C112.744 112.016 113.866 114.056 115.124 115.756H103.19C104.278 114.192 105.196 112.458 105.808 110.826L103.36 110.214C102.612 112.492 100.912 115.28 98.974 117.048C99.552 117.354 100.436 118 100.878 118.442C101.252 118.102 101.626 117.728 101.966 117.32V125.582H104.788C104.414 130.308 103.428 133.538 98.906 135.408V125.82H88.978V137.21H91.188V135.646H98.328C98.838 136.088 99.552 137.04 99.824 137.584C105.4 135.34 106.794 131.396 107.236 125.582H110.262V134.184C110.262 136.666 110.806 137.38 113.152 137.38H115.974C118.014 137.38 118.66 136.258 118.83 131.702C118.184 131.532 117.198 131.124 116.722 130.682C116.62 134.592 116.484 135.136 115.736 135.136H113.492ZM138.958 106.678C137.02 111.914 133.79 117.048 130.39 120.38C130.832 120.992 131.546 122.284 131.818 122.862C133.076 121.536 134.334 119.972 135.524 118.306V137.55H138.006V114.362C139.264 112.186 140.42 109.772 141.338 107.426L138.958 106.678ZM161.364 118.238H152.218V106.916H149.668V118.238H140.182V120.72H149.668V137.618H152.218V120.72H161.364V118.238ZM204.204 111.574V109.398H191.318V106.576H188.734V109.398H175.882V119.836C175.882 124.698 175.678 131.464 173.264 136.224C173.808 136.496 174.828 137.244 175.202 137.686C177.82 132.586 178.194 125.004 178.194 119.836V111.574H204.204ZM197.948 124.358V116.198H203.456V114.328H197.948V111.914H195.942V114.328H191.624V116.198H195.942V124.358H197.948ZM194.14 117.252H192.542V118.51C192.542 119.87 192.338 121.808 190.978 122.964C191.42 123.202 192.066 123.712 192.372 124.052C193.902 122.454 194.14 120.38 194.14 118.578V117.252ZM190.468 114.328H186.252V111.914H184.314V114.328H179.928V116.198H184.314V124.222H186.252V116.198H190.468V114.328ZM189.72 122.556V117.286H188.122V122.556H189.72ZM182.546 117.32H180.982V118.646C180.982 120.142 180.744 122.216 179.316 123.542C179.758 123.746 180.37 124.222 180.676 124.596C182.308 122.862 182.546 120.618 182.546 118.714V117.32ZM195.33 130.988C196.554 131.94 197.846 133.096 199.036 134.252C195.33 134.32 191.59 134.422 188.224 134.49C191.352 132.314 194.888 129.458 197.574 127.01L195.432 125.786C193.868 127.418 191.76 129.322 189.55 131.056C188.734 130.41 187.646 129.662 186.524 128.948C188.02 127.758 189.72 126.228 191.114 124.8L189.04 123.678C188.054 124.936 186.388 126.636 184.926 127.928C184.28 127.52 183.668 127.146 183.09 126.84L181.458 128.302C183.498 129.492 186.048 131.226 187.612 132.552C186.66 133.266 185.708 133.946 184.824 134.558C182.818 134.592 181.016 134.592 179.452 134.626L179.622 136.802C184.96 136.7 193.086 136.394 200.838 136.156C201.348 136.7 201.756 137.21 202.096 137.686L204.238 136.564C202.776 134.626 199.818 131.906 197.336 130.002L195.33 130.988ZM201.892 122.76C201.722 122.76 201.586 122.726 201.518 122.658C201.484 122.556 201.45 122.284 201.45 121.842V117.252H199.784V121.604C199.784 122.998 199.852 123.406 200.192 123.746C200.532 124.052 201.076 124.154 201.552 124.154H202.708C203.014 124.154 203.456 124.12 203.694 123.95C204 123.882 204.272 123.61 204.408 123.27C204.578 122.93 204.646 121.944 204.68 121.06C204.272 120.924 203.728 120.652 203.388 120.414C203.354 121.264 203.32 121.944 203.252 122.216C203.184 122.454 203.116 122.624 203.014 122.692C202.946 122.76 202.742 122.76 202.538 122.76H201.892ZM220.977 128.193C220.999 126.876 221.148 125.836 221.425 125.072C221.702 124.309 222.266 123.462 223.118 122.532L225.293 120.291C226.223 119.24 226.688 118.111 226.688 116.904C226.688 115.742 226.383 114.835 225.775 114.182C225.166 113.518 224.28 113.186 223.118 113.186C221.989 113.186 221.082 113.484 220.396 114.082C219.71 114.68 219.366 115.482 219.366 116.489H216.295C216.317 114.696 216.954 113.252 218.204 112.156C219.466 111.049 221.104 110.496 223.118 110.496C225.21 110.496 226.837 111.061 227.999 112.189C229.172 113.307 229.759 114.846 229.759 116.805C229.759 118.742 228.863 120.651 227.07 122.532L225.26 124.325C224.452 125.222 224.048 126.511 224.048 128.193H220.977ZM220.844 133.456C220.844 132.958 220.993 132.543 221.292 132.211C221.602 131.868 222.056 131.696 222.654 131.696C223.251 131.696 223.705 131.868 224.015 132.211C224.325 132.543 224.48 132.958 224.48 133.456C224.48 133.954 224.325 134.369 224.015 134.701C223.705 135.022 223.251 135.183 222.654 135.183C222.056 135.183 221.602 135.022 221.292 134.701C220.993 134.369 220.844 133.954 220.844 133.456Z" fill="#5F5F5F"/>
</svg>
