<svg width="407" height="138" viewBox="0 0 407 138" fill="none" xmlns="http://www.w3.org/2000/svg">
<path d="M20.556 28.184V18.018H29.634V15.57H10.526C11.274 13.462 11.954 11.32 12.498 9.11H30.518V6.662H13.11C13.552 4.724 13.892 2.786 14.232 0.881999L11.614 0.575999C11.308 2.548 10.934 4.622 10.492 6.662H1.414V9.11H9.914C8.078 16.216 5.12 23.05 0.122 27.606C0.598 28.082 1.414 29.034 1.788 29.578C5.732 25.906 8.486 21.078 10.458 15.74V18.018H18.04V28.184H6.99V30.632H31.13V28.184H20.556ZM72.678 5.574V3.058H42.656V5.574H55.644V31.55H58.33V13.666C62.206 15.74 66.762 18.528 69.074 20.432L70.842 18.154C68.156 16.114 62.818 13.054 58.772 11.116L58.33 11.626V5.574H72.678ZM101.272 21.928V17.202H109.33V21.928H101.272ZM98.824 17.202V21.928H90.902C91.208 20.296 91.31 18.698 91.344 17.202H98.824ZM102.462 4.656C101.782 5.88 100.898 7.206 100.082 8.26H91.344C92.432 7.07 93.384 5.88 94.234 4.656H102.462ZM91.344 10.538H98.824V15.026H91.344V10.538ZM109.33 15.026H101.272V10.538H109.33V15.026ZM111.778 8.26H102.836C103.992 6.798 105.148 5.064 105.93 3.534L104.23 2.412L103.822 2.548H95.628C95.934 2.004 96.24 1.46 96.546 0.949998L93.792 0.473998C92.092 3.84 88.862 8.022 84.34 11.116C84.952 11.49 85.734 12.306 86.176 12.918C87.128 12.204 88.046 11.49 88.896 10.708V16.692C88.896 21.01 88.352 26.246 83.558 29.952C84.068 30.326 84.986 31.21 85.292 31.754C88.012 29.646 89.542 26.926 90.392 24.138H109.33V28.354C109.33 29.034 109.092 29.238 108.378 29.238C107.63 29.306 104.978 29.306 102.224 29.204C102.632 29.85 103.074 30.972 103.21 31.652C106.678 31.652 108.854 31.618 110.112 31.21C111.37 30.836 111.778 30.02 111.778 28.388V8.26ZM155.162 7.104C154.074 5.506 151.694 3.126 149.756 1.46L147.818 2.786C149.79 4.52 152.102 6.968 153.122 8.566L155.162 7.104ZM152.136 14.516C150.98 16.692 149.484 18.766 147.682 20.704C147.104 18.46 146.628 15.842 146.288 12.952H156.012V10.538H146.016C145.744 7.512 145.608 4.248 145.608 0.847998H143.024C143.058 4.18 143.194 7.444 143.5 10.538H135.714V4.622C137.788 4.18 139.76 3.636 141.392 3.058L139.59 0.983998C136.394 2.174 130.92 3.33 126.16 4.044C126.5 4.656 126.84 5.54 126.976 6.152C128.982 5.88 131.124 5.54 133.232 5.132V10.538H125.956V12.952H133.232V18.902C130.274 19.514 127.52 20.092 125.48 20.432L126.194 22.982C128.234 22.54 130.682 21.962 133.232 21.418V28.32C133.232 28.932 133.028 29.102 132.416 29.102C131.838 29.136 129.832 29.17 127.656 29.068C128.03 29.782 128.472 30.938 128.608 31.618C131.362 31.618 133.198 31.55 134.252 31.142C135.306 30.734 135.714 29.986 135.714 28.354V20.806C137.788 20.33 139.896 19.854 141.97 19.344L141.8 17.066C139.794 17.508 137.72 17.95 135.714 18.392V12.952H143.704C144.146 16.624 144.792 19.99 145.608 22.812C143.194 25.056 140.406 26.926 137.55 28.32C138.196 28.864 138.91 29.714 139.284 30.326C141.834 29 144.248 27.3 146.458 25.328C148.022 29.306 150.062 31.686 152.748 31.686C155.298 31.686 156.182 30.054 156.658 24.444C155.944 24.206 155.06 23.628 154.516 23.084C154.312 27.436 153.904 29.17 152.986 29.17C151.286 29.17 149.756 26.994 148.464 23.424C150.844 21.01 152.85 18.324 154.38 15.434L152.136 14.516ZM173.828 19.446H191.678V21.01H173.828V19.446ZM173.828 16.386H191.678V17.916H173.828V16.386ZM195.86 24.172H183.824V22.54H193.99V14.856H183.45C183.79 14.312 184.13 13.666 184.504 13.02L182.77 12.612L182.804 11.184L176.446 11.694V9.994H182.056V8.532H176.446V6.934H182.668V5.438H176.446V3.84H181.648V2.378H176.446V0.575999H174.066V2.378H169.102V3.84H174.066V5.438H167.878V6.934H174.066V8.532H168.592V9.994H174.066V11.864C171.652 12.068 169.442 12.238 167.674 12.34L167.878 14.074C171.584 13.734 176.854 13.258 182.022 12.782C181.818 13.394 181.478 14.21 181.172 14.856H171.584V22.54H181.342V24.172H170.02V31.04H172.434V26.076H181.342V31.584H183.824V26.076H193.412V28.592C193.412 29 193.276 29.102 192.766 29.136C192.256 29.17 190.624 29.17 188.652 29.102C188.992 29.646 189.332 30.36 189.502 31.006C191.95 31.006 193.582 31.006 194.602 30.7C195.588 30.36 195.86 29.782 195.86 28.626V24.172ZM189.4 10.062C188.788 8.906 187.394 7.274 186.17 6.118L184.47 7.036C185.728 8.226 187.054 9.96 187.632 11.116L189.4 10.062ZM194.058 3.602V0.609999H191.746V3.602H182.906V5.54H191.746V11.456C191.746 11.83 191.61 11.966 191.168 11.966C190.726 12 189.332 12 187.768 11.966C188.108 12.51 188.448 13.258 188.618 13.836C190.726 13.836 192.052 13.836 192.936 13.496C193.786 13.156 194.058 12.68 194.058 11.49V5.54H197.73V3.602H194.058ZM216.328 0.677998C214.424 5.846 211.262 10.912 207.93 14.176C208.406 14.754 209.086 16.046 209.358 16.658C210.514 15.4 211.704 14.006 212.792 12.442V31.516H215.206V8.668C216.532 6.356 217.722 3.908 218.708 1.392L216.328 0.677998ZM222.516 15.026C221.598 19.038 220 23.084 217.858 25.668C218.47 26.008 219.558 26.654 220.034 27.062C222.108 24.24 223.91 19.956 224.998 15.502L222.516 15.026ZM236.898 9.416C236.626 11.15 236.32 12.952 236.116 14.176L238.224 14.584C238.666 12.782 239.278 9.858 239.72 7.376L237.986 6.968L237.578 7.07H223.808C224.488 5.2 225.1 3.228 225.61 1.256L223.128 0.711999C222.006 5.676 220.034 10.538 217.552 13.666C218.096 14.04 219.15 14.89 219.558 15.264C220.782 13.666 221.904 11.66 222.856 9.416H228.024V28.524C228.024 28.966 227.888 29.102 227.446 29.102C227.004 29.102 225.542 29.136 223.944 29.068C224.284 29.782 224.692 30.904 224.828 31.618C226.97 31.618 228.398 31.55 229.316 31.108C230.2 30.7 230.506 29.952 230.506 28.524V9.416H236.898ZM232.988 15.502C234.79 19.072 236.49 23.832 237.034 26.926L239.448 26.11C238.87 23.016 237.136 18.358 235.198 14.754L232.988 15.502ZM269.504 8.804H263.996V6.322H269.504V8.804ZM269.504 13.122H263.996V10.708H269.504V13.122ZM269.504 17.61H263.996V15.026H269.504V17.61ZM261.582 19.65H280.52V17.61H271.884V15.026H278.684V13.122H271.884V10.708H278.616V8.804H271.884V6.322H279.602V4.282H272.088C272.7 3.296 273.38 2.174 273.992 1.086L271.306 0.575999C270.864 1.63 270.218 3.092 269.538 4.282H264.812C265.492 3.262 266.07 2.174 266.58 1.12L264.166 0.405999C262.636 3.738 260.052 6.968 257.298 9.076C257.876 9.484 258.862 10.368 259.27 10.81C260.052 10.13 260.834 9.382 261.582 8.532V19.65ZM253.116 20.806C255.156 18.596 257.434 15.978 259.372 13.598L258.012 11.898C255.802 14.482 253.184 17.236 251.348 18.868L253.116 20.806ZM259.644 3.296C258.386 2.48 256.04 1.358 254.17 0.745999L252.912 2.48C254.782 3.194 257.094 4.418 258.318 5.268L259.644 3.296ZM257.128 8.6C255.904 7.886 253.456 6.866 251.62 6.322L250.362 8.09C252.232 8.736 254.68 9.79 255.87 10.606L257.128 8.6ZM281.132 22.676H267.056V19.888H264.506V22.676H250.804V24.954H264.506V31.618H267.056V24.954H281.132V22.676ZM306.598 8.736H308.91V5.948H315.268V8.736H317.648V5.948H322.986V3.738H317.648V0.847998H315.268V3.738H308.91V0.847998H306.598V3.738H301.09V5.948H306.598V8.736ZM298.54 0.745999C296.908 5.982 294.222 11.15 291.298 14.55C291.706 15.162 292.386 16.488 292.624 17.1C293.746 15.774 294.8 14.244 295.82 12.544V31.584H298.234V8.022C299.254 5.88 300.138 3.636 300.886 1.392L298.54 0.745999ZM315.064 24.206V21.282H320.062V24.206H315.064ZM308.23 24.206V21.282H313.024V24.206H308.23ZM313.024 16.556V19.514H308.23V16.556H313.024ZM320.062 16.556V19.514H315.064V16.556H320.062ZM322.272 14.618H306.054V31.584H308.23V26.008H313.024V31.38H315.064V26.008H320.062V29.136C320.062 29.51 319.994 29.578 319.586 29.612C319.178 29.646 317.988 29.646 316.526 29.612C316.798 30.19 317.07 31.04 317.172 31.584C319.178 31.618 320.47 31.584 321.286 31.21C322.068 30.87 322.272 30.258 322.272 29.136V14.618ZM323.122 9.892H301.702V17.168C301.702 21.01 301.43 26.246 299.016 30.02C299.56 30.326 300.478 31.142 300.852 31.584C303.538 27.504 303.98 21.418 303.98 17.202V12.136H323.122V9.892ZM360.352 3.024L359.808 3.194H335.634V5.676H357.53C355.388 7.886 352.43 10.368 349.608 12.068H347.942V28.286C347.942 28.898 347.704 29.102 346.956 29.136C346.208 29.17 343.556 29.17 340.768 29.068C341.176 29.782 341.686 30.87 341.788 31.584C345.256 31.584 347.5 31.584 348.792 31.21C350.084 30.802 350.56 30.02 350.56 28.32V14.278C354.708 11.898 359.366 7.988 362.324 4.452L360.352 3.024ZM375.482 14.38V17.134H406.354V14.38H375.482ZM27.492 70.678C30.28 70.678 31.028 69.42 31.368 64.898C30.62 64.694 29.6 64.286 29.022 63.844C28.852 67.618 28.648 68.264 27.288 68.264H21.984C20.42 68.264 20.182 68.026 20.182 66.87V62.552C23.514 61.532 27.084 60.24 29.736 58.812L27.73 56.874C25.928 58.03 23.038 59.288 20.182 60.308V53.576H17.666V66.87C17.666 69.828 18.516 70.678 21.712 70.678H27.492ZM4.814 76.322H27.594V73.908H4.814V76.322ZM16.102 67.414L10.594 68.026V61.702H15.864V59.39H10.594V53.576H8.112V68.332L5.12 68.706V57.282H2.774V68.978L0.53 69.216L0.836 71.664C4.882 71.188 10.662 70.44 16.136 69.692L16.102 67.414ZM1.04 83.768H30.994V81.286H1.04V83.768ZM58.942 79.484V59.968H71.148V57.384H44.288V59.968H56.188V79.484H42.52V82H72.848V79.484H58.942ZM91.684 62.11H107.154V65.306H91.684V62.11ZM91.684 67.244H107.154V70.508H91.684V67.244ZM91.684 56.976H107.154V60.172H91.684V56.976ZM89.202 54.97V72.514H109.738V54.97H89.202ZM84.34 74.826V77.172H114.294V74.826H84.34ZM102.122 79.96C105.964 81.354 109.908 83.19 112.254 84.584L114.668 82.85C112.05 81.456 107.834 79.654 103.924 78.26L102.122 79.96ZM94.302 78.09C92.024 79.688 87.638 81.558 84.17 82.612C84.748 83.156 85.496 84.04 85.904 84.55C89.372 83.428 93.724 81.558 96.614 79.722L94.302 78.09ZM129.288 85.638C132.858 84.38 135.17 81.592 135.17 77.92C135.17 75.54 134.15 74.01 132.28 74.01C130.886 74.01 129.696 74.86 129.696 76.458C129.696 78.056 130.852 78.872 132.246 78.872C132.45 78.872 132.62 78.872 132.824 78.838C132.654 81.15 131.158 82.748 128.54 83.836L129.288 85.638ZM197.696 60.104C196.982 58.472 195.384 56.194 193.684 54.562L191.746 55.548C193.378 57.18 194.942 59.526 195.588 61.158L197.696 60.104ZM183.552 57.86H176.888V53.542H174.372V57.86H167.504V60.172H183.552V57.86ZM169.986 73.5C169.374 76.152 168.286 78.838 166.824 80.64C167.402 80.946 168.354 81.694 168.762 82.102C170.258 80.096 171.584 77.036 172.298 73.976L169.986 73.5ZM171.686 64.966H179.574V69.522H171.686V64.966ZM181.988 71.698V62.824H169.34V71.698H174.508V81.694C174.508 82.068 174.372 82.17 173.964 82.204C173.522 82.238 172.23 82.238 170.7 82.204C171.04 82.816 171.38 83.802 171.516 84.482C173.522 84.482 174.916 84.448 175.8 84.074C176.684 83.666 176.888 82.952 176.888 81.728V71.698H181.988ZM183.11 78.906C182.702 77.342 181.716 74.962 180.662 73.194L178.656 73.908C179.642 75.71 180.594 78.124 181.002 79.688L183.11 78.906ZM193.378 82C193.004 82 192.698 81.932 192.46 81.762C192.256 81.66 192.154 81.422 192.154 81.116V66.564H190.454C190.488 65.986 190.556 65.442 190.59 64.898H198.002V62.484H190.658C190.692 61.838 190.692 61.226 190.692 60.614V53.542H188.244V60.648C188.244 61.226 188.244 61.838 188.21 62.484H183.314V64.898H188.108C187.734 70.882 186.17 77.92 180.356 83.19C181.036 83.496 182.056 84.21 182.532 84.652C186.816 80.64 188.856 75.676 189.842 70.78V81.014C189.842 82.748 190.012 83.292 190.59 83.802C191.202 84.21 192.018 84.38 192.8 84.38H194.942C195.656 84.38 196.472 84.244 196.948 84.006C197.526 83.666 197.866 83.19 198.104 82.442C198.274 81.694 198.41 79.654 198.41 77.852C197.798 77.648 196.948 77.24 196.472 76.798C196.506 78.668 196.438 80.3 196.336 80.912C196.302 81.32 196.064 81.66 195.826 81.796C195.622 81.932 195.146 82 194.772 82H193.378ZM215.24 53.746C213.608 58.982 210.922 64.15 207.998 67.55C208.406 68.162 209.086 69.488 209.324 70.1C210.446 68.774 211.5 67.244 212.52 65.544V84.584H214.934V61.022C215.954 58.88 216.838 56.636 217.586 54.392L215.24 53.746ZM221.054 62.076H227.276V65.918H221.054V62.076ZM229.996 57.656C229.452 58.54 228.806 59.492 228.126 60.206H221.292C222.074 59.356 222.754 58.506 223.4 57.656H229.996ZM236.082 65.918H229.588V62.076H236.082V65.918ZM237.714 68.774C236.524 69.93 234.688 71.46 233.056 72.548C232.41 71.052 231.866 69.42 231.424 67.72H238.462V60.206H230.88C231.764 59.118 232.648 57.86 233.362 56.67L231.798 55.616L231.356 55.752H224.692C225.066 55.174 225.406 54.596 225.712 54.052L223.298 53.61C221.904 56.228 219.388 59.56 215.886 62.042C216.498 62.314 217.314 62.96 217.756 63.47C218.096 63.198 218.436 62.926 218.742 62.654V67.72H225.202C222.754 69.25 219.558 70.576 216.668 71.426C217.11 71.868 217.824 72.718 218.164 73.194C220.204 72.446 222.482 71.426 224.556 70.27C225.134 70.746 225.61 71.222 226.052 71.732C223.74 73.534 219.932 75.336 216.974 76.22C217.45 76.662 217.994 77.444 218.266 77.954C221.122 76.9 224.658 75.03 227.072 73.16C227.514 73.84 227.854 74.52 228.092 75.2C225.372 77.852 220.34 80.64 216.328 81.864C216.838 82.34 217.416 83.122 217.756 83.734C221.36 82.374 225.712 79.858 228.67 77.376C229.01 79.484 228.534 81.252 227.582 81.932C226.97 82.442 226.358 82.51 225.508 82.51C224.862 82.51 223.842 82.476 222.754 82.374C223.162 82.986 223.332 83.938 223.366 84.516C224.318 84.584 225.27 84.618 225.984 84.618C227.344 84.584 228.262 84.38 229.248 83.564C232.002 81.49 231.934 73.976 226.29 69.25C227.072 68.774 227.786 68.264 228.432 67.72H229.248C230.846 74.486 233.804 80.266 238.36 83.122C238.7 82.51 239.482 81.592 240.026 81.116C237.51 79.722 235.47 77.308 233.906 74.35C235.64 73.296 237.85 71.732 239.482 70.27L237.714 68.774ZM257.978 53.678C256.074 58.846 252.912 63.912 249.58 67.176C250.056 67.754 250.736 69.046 251.008 69.658C252.164 68.4 253.354 67.006 254.442 65.442V84.516H256.856V61.668C258.182 59.356 259.372 56.908 260.358 54.392L257.978 53.678ZM264.166 68.026C263.248 72.038 261.65 76.084 259.508 78.668C260.12 79.008 261.208 79.654 261.684 80.062C263.758 77.24 265.56 72.956 266.648 68.502L264.166 68.026ZM278.548 62.416C278.276 64.15 277.97 65.952 277.766 67.176L279.874 67.584C280.316 65.782 280.928 62.858 281.37 60.376L279.636 59.968L279.228 60.07H265.458C266.138 58.2 266.75 56.228 267.26 54.256L264.778 53.712C263.656 58.676 261.684 63.538 259.202 66.666C259.746 67.04 260.8 67.89 261.208 68.264C262.432 66.666 263.554 64.66 264.506 62.416H269.674V81.524C269.674 81.966 269.538 82.102 269.096 82.102C268.654 82.102 267.192 82.136 265.594 82.068C265.934 82.782 266.342 83.904 266.478 84.618C268.62 84.618 270.048 84.55 270.966 84.108C271.85 83.7 272.156 82.952 272.156 81.524V62.416H278.548ZM274.638 68.502C276.44 72.072 278.14 76.832 278.684 79.926L281.098 79.11C280.52 76.016 278.786 71.358 276.848 67.754L274.638 68.502ZM315.948 69.964H301.77V66.53H315.948V69.964ZM301.77 75.71V72.14H315.948V75.71H301.77ZM322.408 60.308V57.928H305.102C305.612 56.704 306.02 55.412 306.428 54.154L303.912 53.542C303.504 55.004 302.994 56.466 302.416 57.928H292.828V60.308H301.362C299.186 64.796 296.092 68.876 292.012 71.63C292.522 72.106 293.304 73.024 293.644 73.568C295.786 72.072 297.656 70.236 299.288 68.23V84.584H301.77V77.886H315.948V81.422C315.948 81.932 315.744 82.102 315.166 82.136C314.554 82.136 312.514 82.17 310.27 82.068C310.61 82.782 310.984 83.802 311.086 84.55C313.976 84.55 315.88 84.516 317.002 84.108C318.09 83.7 318.43 82.952 318.43 81.422V64.252H302.042C302.79 62.994 303.47 61.634 304.116 60.308H322.408ZM337.198 60.784H347.908V68.774H350.288V60.784H361.168V65.374H363.514V58.914H350.288V56.942H361.542V54.902H336.858V56.942H347.908V58.914H334.92V65.374H337.198V60.784ZM352.056 67.856H360.352V66.156H352.056V67.856ZM352.056 62.62V64.286H359.536V62.62H352.056ZM346.14 62.62H338.864V64.286H346.14V62.62ZM338.15 67.856H346.14V66.156H338.15V67.856ZM363.99 71.936V69.862H334.512V71.936H347.636C347.432 72.718 347.194 73.568 346.956 74.35H337.13V84.516H339.544V76.424H344.576V84.312H346.854V76.424H352.022V84.312H354.334V76.424H359.672V82.068C359.672 82.374 359.57 82.476 359.196 82.51C358.788 82.544 357.666 82.544 356.306 82.51C356.612 83.088 356.952 83.972 357.088 84.584C358.924 84.584 360.182 84.584 361.032 84.21C361.882 83.836 362.086 83.224 362.086 82.102V74.35H349.336C349.608 73.602 349.948 72.786 350.22 71.936H363.99ZM396.698 74.112C395.644 76.05 394.148 77.58 392.176 78.77C389.626 78.158 386.94 77.58 384.254 77.07C384.934 76.152 385.648 75.132 386.362 74.112H396.698ZM380.378 62.212H385.512V66.802H380.378V62.212ZM387.926 57.282H393.4V60.138H387.926V57.282ZM401.458 62.212V66.802H395.814V62.212H401.458ZM387.926 66.802V62.212H393.4V66.802H387.926ZM406.218 74.112V72.004H387.79C388.47 71.018 389.116 70.032 389.694 69.114L388.776 68.876H403.94V60.138H395.814V57.282H405.368V55.038H376.332V57.282H385.512V60.138H377.998V68.876H386.94C386.328 69.862 385.614 70.916 384.9 72.004H375.516V74.112H383.438C382.146 75.914 380.888 77.682 379.834 79.008L382.214 79.824L382.928 78.906C385.002 79.314 387.042 79.756 389.048 80.232C385.682 81.456 381.398 82.068 375.992 82.374C376.4 82.918 376.774 83.836 376.944 84.55C383.676 84.074 388.844 83.054 392.652 81.116C396.97 82.238 400.778 83.496 403.634 84.652L405.164 82.612C402.546 81.626 399.078 80.538 395.202 79.518C397.072 78.09 398.466 76.322 399.486 74.112H406.218ZM11.512 121.366H4.372V114.26H11.512V121.366ZM4.372 131.77V123.61H11.512V131.77H4.372ZM7.228 106.474C6.99 108.072 6.378 110.35 5.868 111.982H2.06V136.734H4.372V134.048H13.824V111.982H8.18C8.758 110.52 9.37 108.65 9.948 106.984L7.228 106.474ZM30.45 111.88H20.284C20.862 110.282 21.338 108.65 21.746 106.984L19.332 106.406C18.244 111.064 16.408 115.756 14.13 118.748C14.674 119.088 15.762 119.768 16.204 120.176C17.394 118.578 18.448 116.504 19.4 114.226H28.036C27.594 127.758 27.084 132.926 25.962 134.116C25.622 134.558 25.248 134.626 24.568 134.626C23.786 134.626 21.746 134.626 19.536 134.422C20.012 135.136 20.318 136.156 20.386 136.904C22.29 137.006 24.228 137.074 25.418 136.938C26.574 136.836 27.356 136.53 28.104 135.578C29.464 133.912 29.906 128.676 30.45 113.172V111.88ZM25.078 127.18C23.99 125.174 21.644 121.91 19.74 119.496L17.768 120.652C19.638 123.1 21.916 126.466 22.936 128.506L25.078 127.18ZM50.612 111.064V118.612H45.682V111.064H50.612ZM45.682 128.676V120.822H50.612V128.676H45.682ZM52.992 108.786H43.37V133.708H45.682V130.954H52.992V108.786ZM55.78 127.826C57.514 129.628 59.316 132.144 60.098 133.81L62.24 132.45C61.458 130.784 59.554 128.37 57.82 126.67L55.78 127.826ZM73.324 119.394V117.15H64.552V112.832H71.862V110.588H64.552V106.542H62.07V110.588H54.998V112.832H62.07V117.15H53.536V119.394H66.558V123.236H53.706V125.48H66.558V134.558C66.558 135.068 66.388 135.204 65.81 135.238C65.266 135.272 63.396 135.272 61.288 135.204C61.662 135.85 62.002 136.87 62.104 137.55C64.858 137.55 66.558 137.516 67.612 137.142C68.632 136.768 69.006 136.02 69.006 134.592V125.48H72.95V123.236H69.006V119.394H73.324ZM90.29 106.746C88.624 112.016 85.904 117.184 82.946 120.55C83.388 121.162 84.034 122.522 84.272 123.134C85.428 121.774 86.516 120.21 87.57 118.476V137.584H90.018V113.886C91.004 111.812 91.888 109.602 92.636 107.392L90.29 106.746ZM92.806 132.076H95.05V110.452H92.806V132.076ZM115.042 128.642V126.432H106.44V125.922V122.148H113.886V120.006H101.374C101.748 119.088 102.122 118.17 102.394 117.218L100.966 116.878H114.226V114.702H110.656V108.208H98.382V110.35H108.344V114.702H96.036V116.878H100.048C99.164 119.734 97.702 122.522 95.9 124.426C96.478 124.732 97.43 125.378 97.872 125.718C98.756 124.766 99.572 123.508 100.32 122.148H103.958V125.888V126.432H96.104V128.642H103.652C103.04 131.158 101.068 133.912 95.186 135.816C95.764 136.292 96.478 137.142 96.784 137.686C101.782 135.782 104.264 133.334 105.42 130.852C106.678 133.504 108.99 136.258 113.818 137.652C114.124 137.04 114.77 136.088 115.314 135.578C109.738 134.15 107.698 131.192 106.814 128.642H115.042ZM155.162 113.104C154.074 111.506 151.694 109.126 149.756 107.46L147.818 108.786C149.79 110.52 152.102 112.968 153.122 114.566L155.162 113.104ZM152.136 120.516C150.98 122.692 149.484 124.766 147.682 126.704C147.104 124.46 146.628 121.842 146.288 118.952H156.012V116.538H146.016C145.744 113.512 145.608 110.248 145.608 106.848H143.024C143.058 110.18 143.194 113.444 143.5 116.538H135.714V110.622C137.788 110.18 139.76 109.636 141.392 109.058L139.59 106.984C136.394 108.174 130.92 109.33 126.16 110.044C126.5 110.656 126.84 111.54 126.976 112.152C128.982 111.88 131.124 111.54 133.232 111.132V116.538H125.956V118.952H133.232V124.902C130.274 125.514 127.52 126.092 125.48 126.432L126.194 128.982C128.234 128.54 130.682 127.962 133.232 127.418V134.32C133.232 134.932 133.028 135.102 132.416 135.102C131.838 135.136 129.832 135.17 127.656 135.068C128.03 135.782 128.472 136.938 128.608 137.618C131.362 137.618 133.198 137.55 134.252 137.142C135.306 136.734 135.714 135.986 135.714 134.354V126.806C137.788 126.33 139.896 125.854 141.97 125.344L141.8 123.066C139.794 123.508 137.72 123.95 135.714 124.392V118.952H143.704C144.146 122.624 144.792 125.99 145.608 128.812C143.194 131.056 140.406 132.926 137.55 134.32C138.196 134.864 138.91 135.714 139.284 136.326C141.834 135 144.248 133.3 146.458 131.328C148.022 135.306 150.062 137.686 152.748 137.686C155.298 137.686 156.182 136.054 156.658 130.444C155.944 130.206 155.06 129.628 154.516 129.084C154.312 133.436 153.904 135.17 152.986 135.17C151.286 135.17 149.756 132.994 148.464 129.424C150.844 127.01 152.85 124.324 154.38 121.434L152.136 120.516ZM187.258 114.77H190.624V116.98H185.388V118.646H198.07V116.98H192.834V114.77H196.676V113.104H187.292C187.564 112.526 187.802 111.914 188.04 111.268H197.832V109.432H188.652C188.89 108.616 189.128 107.766 189.298 106.882L187.156 106.542C186.952 107.528 186.714 108.514 186.408 109.432H182.566V111.268H185.762C184.742 113.784 183.382 115.926 181.614 117.49C182.09 117.83 182.974 118.544 183.348 118.918C184.878 117.388 186.204 115.45 187.258 113.172V114.77ZM187.122 127.418V125.65H194.058V127.418H187.122ZM194.058 122.25V124.018H187.122V122.25H194.058ZM196.302 120.516H184.98V133.266H187.122V129.118H194.058V131.192C194.058 131.532 193.956 131.6 193.616 131.634C193.344 131.634 192.324 131.634 191.202 131.6C191.474 132.11 191.746 132.79 191.814 133.334C193.548 133.334 194.67 133.334 195.384 133.028C196.098 132.688 196.302 132.246 196.302 131.192V120.516ZM176.514 115.858C177.84 117.184 179.234 119.02 179.812 120.312L181.648 118.952C181.036 117.728 179.574 115.96 178.248 114.702L176.514 115.858ZM182.43 111.914C181.92 110.622 180.594 108.854 179.404 107.528L177.602 108.616C178.758 110.01 180.05 111.88 180.526 113.138L182.43 111.914ZM175.222 107.902L174.916 108.004H168.422V137.584H170.632V110.282H174.1C173.522 112.628 172.74 115.722 171.89 118.204C173.93 120.958 174.372 123.372 174.372 125.242C174.372 126.296 174.202 127.316 173.794 127.656C173.556 127.86 173.284 127.962 172.944 127.996C172.502 127.996 171.958 127.996 171.414 127.928C171.754 128.574 171.89 129.458 171.924 130.07C172.57 130.104 173.25 130.07 173.76 130.036C174.372 129.934 174.916 129.764 175.29 129.424C176.14 128.778 176.514 127.282 176.514 125.514C176.514 123.372 176.038 120.856 173.964 117.966C174.95 115.212 175.97 111.642 176.786 108.82L175.222 107.902ZM182.022 122.998H177.024V125.14H179.88V131.328C178.418 132.722 176.82 134.15 175.46 135.238L176.718 137.414C178.282 135.918 179.676 134.524 181.036 133.096C182.566 135.476 184.844 136.904 188.142 137.074C190.658 137.176 195.248 137.108 197.832 137.006C197.9 136.326 198.274 135.306 198.512 134.728C195.724 134.932 190.692 135 188.21 134.898C185.32 134.762 183.178 133.368 182.022 131.124V122.998ZM217.212 111.064V118.612H212.282V111.064H217.212ZM212.282 128.676V120.822H217.212V128.676H212.282ZM219.592 108.786H209.97V133.708H212.282V130.954H219.592V108.786ZM222.38 127.826C224.114 129.628 225.916 132.144 226.698 133.81L228.84 132.45C228.058 130.784 226.154 128.37 224.42 126.67L222.38 127.826ZM239.924 119.394V117.15H231.152V112.832H238.462V110.588H231.152V106.542H228.67V110.588H221.598V112.832H228.67V117.15H220.136V119.394H233.158V123.236H220.306V125.48H233.158V134.558C233.158 135.068 232.988 135.204 232.41 135.238C231.866 135.272 229.996 135.272 227.888 135.204C228.262 135.85 228.602 136.87 228.704 137.55C231.458 137.55 233.158 137.516 234.212 137.142C235.232 136.768 235.606 136.02 235.606 134.592V125.48H239.55V123.236H235.606V119.394H239.924ZM259.61 116.81V112.73H263.588C262.704 114.158 261.684 115.518 260.63 116.81H259.61ZM263.996 127.724H256.38V124.426H263.996V127.724ZM256.38 133.334V129.764H263.996V133.334H256.38ZM266.206 107.766C265.492 109.364 264.744 110.894 263.826 112.356V110.486H259.61V106.848H257.23V110.486H252.028V112.73H257.23V116.81H250.498V119.054H258.556C256.006 121.604 253.048 123.712 249.75 125.344C250.226 125.854 251.042 126.908 251.348 127.418C252.266 126.908 253.184 126.364 254.034 125.786V137.448H256.38V135.442H263.996V136.972H266.41V122.352H258.488C259.644 121.332 260.698 120.21 261.718 119.054H267.94V116.81H263.554C265.458 114.294 267.158 111.506 268.484 108.412L266.206 107.766ZM279.738 108.378L279.33 108.48H269.368V137.618H271.85V110.894H278.174C277.086 113.614 275.488 117.218 274.026 120.108C277.596 123.066 278.65 125.616 278.65 127.758C278.684 128.982 278.412 130.002 277.664 130.41C277.222 130.648 276.644 130.784 276.066 130.818C275.318 130.886 274.298 130.852 273.176 130.75C273.618 131.464 273.89 132.518 273.924 133.232C274.978 133.3 276.168 133.3 277.086 133.198C277.936 133.096 278.752 132.858 279.364 132.416C280.622 131.634 281.132 130.07 281.098 127.996C281.098 125.582 280.18 122.93 276.61 119.768C278.242 116.64 280.112 112.764 281.54 109.568L279.738 108.378ZM313.364 124.868H321.014V122.488H313.364V115.994H310.848V122.488H303.232V124.868H310.848V134.422H301.906V136.802H322.34V134.422H313.364V124.868ZM304.83 111.812C305.442 110.282 306.02 108.718 306.462 107.188L303.878 106.542C303.402 108.276 302.79 110.078 302.076 111.812H292.794V114.226H300.954C298.846 118.544 295.854 122.556 291.978 125.31C292.386 125.854 293.032 126.908 293.27 127.588C294.698 126.568 296.024 125.446 297.214 124.154V137.448H299.696V121.162C301.294 118.986 302.62 116.674 303.81 114.226H322.34V111.812H304.83ZM337.961 128.177H335.188L334.972 110.828H338.193L337.961 128.177ZM334.856 133.456C334.856 132.958 335.006 132.543 335.305 132.211C335.614 131.868 336.068 131.696 336.666 131.696C337.263 131.696 337.717 131.868 338.027 132.211C338.337 132.543 338.492 132.958 338.492 133.456C338.492 133.954 338.337 134.369 338.027 134.701C337.717 135.022 337.263 135.183 336.666 135.183C336.068 135.183 335.614 135.022 335.305 134.701C335.006 134.369 334.856 133.954 334.856 133.456Z" fill="#276A70"/>
</svg>
