<svg width="325" height="138" viewBox="0 0 325 138" fill="none" xmlns="http://www.w3.org/2000/svg">
<path d="M8.092 16.454H26.214V20.432H8.092V16.454ZM8.092 10.436H26.214V14.38H8.092V10.436ZM5.644 8.26V22.608H28.764V8.26H5.644ZM15.674 9.008V21.588H18.156V9.008H15.674ZM11.526 2.65L10.03 4.758H20.91V2.65H11.526ZM11.254 0.337998C9.452 3.636 6.086 7.75 1.496 10.708C2.074 11.15 2.958 12.034 3.332 12.646C8.228 9.178 11.73 4.826 14.076 0.881999L11.254 0.337998ZM20.094 2.65V3.126C19.38 4.724 17.816 7.104 16.422 8.566C17.068 8.872 17.952 9.416 18.496 9.79C19.992 8.226 21.828 5.778 22.848 3.636L21.046 2.514L20.672 2.65H20.094ZM11.764 24.852C12.172 26.96 12.444 29.748 12.444 31.38L15.062 31.04C15.028 29.442 14.654 26.756 14.178 24.648L11.764 24.852ZM18.564 24.92C19.55 26.96 20.536 29.714 20.876 31.38L23.358 30.734C22.95 29.068 21.896 26.382 20.876 24.376L18.564 24.92ZM25.262 24.682C27.2 26.824 29.444 29.85 30.328 31.754L32.776 30.632C31.79 28.626 29.512 25.736 27.54 23.662L25.262 24.682ZM6.12 23.968C5.1 26.518 3.298 29.102 1.326 30.53L3.604 31.822C5.678 30.156 7.446 27.334 8.534 24.614L6.12 23.968ZM58.48 2.174V4.486H73.474V2.174H58.48ZM57.664 2.174V14.55C57.664 19.48 57.392 25.906 54.298 30.462C54.876 30.7 55.896 31.38 56.338 31.822C59.602 27.028 60.01 19.82 60.01 14.55V2.174H57.664ZM70.482 10.81V11.286C69.088 20.874 64.464 27.062 58.412 29.646C58.922 30.122 59.568 31.108 59.908 31.72C66.504 28.558 71.332 22.2 72.896 11.15L71.4 10.742L70.958 10.81H70.482ZM62.322 12.34L60.18 12.816C62.152 21.86 65.96 28.524 72.862 31.788C73.236 31.176 73.984 30.224 74.562 29.748C67.864 26.994 64.056 20.602 62.322 12.34ZM59.058 10.81V13.088H71.196V10.81H59.058ZM46.342 23.866C45.662 26.314 44.37 28.728 42.738 30.36C43.316 30.666 44.336 31.414 44.778 31.788C46.41 29.986 47.872 27.232 48.722 24.41L46.342 23.866ZM50.728 24.75C51.68 26.144 52.734 28.014 53.176 29.204L55.284 28.15C54.808 26.96 53.72 25.192 52.734 23.866L50.728 24.75ZM46.818 10.232H52.428V14.618H46.818V10.232ZM46.818 16.59H52.428V21.044H46.818V16.59ZM46.818 3.874H52.428V8.226H46.818V3.874ZM44.506 1.766V23.152H54.808V1.766H44.506ZM87.754 5.914V8.192H95.71V25.838H87.754V28.15H98.09V5.914H87.754ZM86.224 5.914V30.87H88.604V5.914H86.224ZM87.584 15.366V17.644H96.968V15.366H87.584ZM91.426 0.371998C91.154 2.14 90.508 4.724 89.93 6.356L91.97 6.866C92.65 5.336 93.5 2.99 94.18 0.881999L91.426 0.371998ZM102.918 5.812V8.192H113.356V5.812H102.918ZM112.472 5.812V6.356C111.996 21.35 111.452 26.994 110.33 28.218C109.956 28.66 109.548 28.762 108.868 28.762C108.086 28.762 106.046 28.728 103.836 28.558C104.312 29.238 104.618 30.292 104.686 31.04C106.59 31.142 108.596 31.21 109.752 31.074C110.942 30.972 111.724 30.666 112.472 29.68C113.832 28.014 114.308 22.744 114.852 7.138C114.852 6.764 114.852 5.812 114.852 5.812H112.472ZM103.632 0.303999C102.544 5.03 100.674 9.722 98.362 12.714C98.974 13.054 100.028 13.768 100.47 14.176C102.816 10.946 104.822 5.948 106.08 0.881999L103.632 0.303999ZM102.068 14.652C103.938 17.134 106.216 20.5 107.236 22.574L109.412 21.214C108.324 19.208 105.978 15.91 104.04 13.496L102.068 14.652ZM126.718 2.31V4.69H140.114V2.31H126.718ZM129.88 10.028H136.986V14.992H129.88V10.028ZM127.67 7.92V17.066H139.332V7.92H127.67ZM135.898 18.052C135.626 20.126 134.98 23.118 134.402 24.988L136.374 25.566C136.986 23.798 137.734 21.044 138.38 18.698L135.898 18.052ZM128.452 18.868C129.2 20.908 129.71 23.526 129.778 25.226L131.988 24.682C131.886 22.948 131.342 20.364 130.526 18.358L128.452 18.868ZM126.208 27.47L126.854 29.884C130.594 29.034 135.728 27.912 140.556 26.79L140.352 24.58C135.15 25.702 129.744 26.824 126.208 27.47ZM141.032 2.072V4.282H157.454V2.072H141.032ZM144.432 14.686H153.918V18.018H144.432V14.686ZM144.432 19.922H153.918V23.288H144.432V19.922ZM144.432 9.518H153.918V12.816H144.432V9.518ZM142.086 7.546V25.26H156.4V7.546H142.086ZM147.662 3.16C147.458 4.758 146.982 7.104 146.574 8.634L148.818 9.076C149.362 7.648 149.974 5.506 150.518 3.534L147.662 3.16ZM145.282 25.974C143.888 27.436 140.93 29.17 138.312 30.088C138.89 30.53 139.672 31.312 140.046 31.788C142.664 30.802 145.69 29.034 147.526 27.3L145.282 25.974ZM150.382 27.402C152.388 28.66 154.938 30.564 156.128 31.788L158.202 30.394C156.876 29.136 154.292 27.368 152.32 26.144L150.382 27.402ZM182.58 11.456V14.006H196.554V11.456H182.58ZM168.334 27.572V30.122H198.866V27.572H168.334ZM181.118 0.949998V28.932H183.804V0.949998H181.118ZM211.242 4.418V6.662H223.142V4.418H211.242ZM214.846 27.402V29.578H224.366V27.402H214.846ZM214.812 21.758V23.798H224.4V21.758H214.812ZM209.712 10.742V13.02H227.29V10.742H209.712ZM216.512 0.745999V12.204H218.892V0.745999H216.512ZM225.522 1.63C222.156 9.518 216.342 15.706 208.964 19.378C209.44 19.888 210.256 20.908 210.562 21.452C218.042 17.338 224.094 10.81 227.834 2.31L225.522 1.63ZM215.628 16.318H214.71L213.282 17.814V31.584H215.628V18.46H224.298V16.318H215.628ZM223.278 16.318V31.108H225.76V16.318H223.278ZM228.718 2.412V31.72H231.268V4.792H238.884V2.412H228.718ZM238.238 2.412V3.194C237.15 5.948 235.246 10.572 233.41 14.108C237.014 17.066 238.102 19.65 238.102 21.792C238.102 23.05 237.864 24.036 237.048 24.478C236.64 24.716 236.062 24.852 235.45 24.886C234.702 24.954 233.682 24.92 232.594 24.818C233.002 25.498 233.308 26.62 233.342 27.3C234.396 27.368 235.62 27.368 236.538 27.266C237.422 27.164 238.204 26.926 238.816 26.518C240.074 25.702 240.584 24.138 240.55 22.03C240.55 19.582 239.632 16.896 236.062 13.734C237.728 10.606 239.564 6.662 240.992 3.466L239.156 2.276L238.748 2.412H238.238ZM252.042 4.86V7.274H281.826V4.86H252.042ZM260.338 16.998V19.208H276.318V16.998H260.338ZM258.536 11.218V31.72H261.052V13.496H275.91V11.218H258.536ZM275.332 11.218V28.524C275.332 29.034 275.128 29.204 274.55 29.238C273.938 29.238 271.864 29.272 269.586 29.17C269.96 29.884 270.334 30.938 270.436 31.652C273.36 31.652 275.264 31.652 276.352 31.244C277.508 30.836 277.814 30.054 277.814 28.558V11.218H275.332ZM263.16 0.439999C261.324 7.274 257.312 14.482 251.226 18.664C251.736 19.174 252.518 20.058 252.858 20.636C259.352 16.08 263.432 8.532 265.744 1.052L263.16 0.439999ZM260.338 22.744V24.954H276.318V22.744H260.338ZM307.292 0.949998V28.184C307.292 28.864 307.054 29.102 306.34 29.102C305.66 29.136 303.212 29.17 300.696 29.068C301.138 29.816 301.614 31.006 301.75 31.754C304.98 31.754 307.088 31.686 308.312 31.244C309.536 30.836 310.046 30.088 310.046 28.184V0.949998H307.292ZM315.52 9.62C318.41 14.482 321.164 20.874 321.98 24.886L324.7 23.798C323.816 19.684 320.926 13.462 317.968 8.668L315.52 9.62ZM298.384 8.906C297.534 13.496 295.664 19.378 292.638 22.982C293.318 23.254 294.44 23.866 295.052 24.342C298.146 20.534 300.118 14.38 301.24 9.382L298.384 8.906ZM17.884 66.462V68.876H29.614V66.462H17.884ZM16.762 66.462V80.3C16.762 83.564 17.816 84.38 21.352 84.38C22.134 84.38 27.336 84.38 28.186 84.38C31.586 84.38 32.368 82.85 32.742 77.376C32.028 77.206 30.94 76.764 30.328 76.322C30.124 81.048 29.852 81.932 28.016 81.932C26.86 81.932 22.44 81.932 21.556 81.932C19.686 81.932 19.312 81.66 19.312 80.334V66.462H16.762ZM16.388 55.378V57.792H28.356V70.78H30.94V55.378H16.388ZM2.89 63.742V65.782H13.498V63.742H2.89ZM3.094 54.664V56.704H13.634V54.664H3.094ZM2.89 68.298V70.338H13.498V68.298H2.89ZM1.292 59.118V61.226H14.824V59.118H1.292ZM4.08 72.888V74.996H11.118V80.674H4.08V82.816H13.396V72.888H4.08ZM2.856 72.888V84.38H5.134V72.888H2.856ZM46.886 56.874H51.952V62.042H46.886V56.874ZM44.574 54.732V64.218H54.366V54.732H44.574ZM43.01 66.598V68.842H55.828V66.598H43.01ZM46.206 67.618C45.696 70.202 44.914 73.602 44.234 75.778L46.546 76.22C47.158 73.976 47.974 70.44 48.552 67.618H46.206ZM46.478 71.868L45.9 74.044H52.802V71.868H46.478ZM51.85 71.868V72.276C51.442 78.974 50.932 81.592 50.252 82.272C49.98 82.578 49.64 82.646 49.13 82.612C48.586 82.612 47.26 82.612 45.798 82.476C46.206 83.088 46.478 84.074 46.512 84.72C47.94 84.788 49.334 84.788 50.082 84.754C51 84.652 51.578 84.448 52.156 83.836C53.108 82.816 53.618 80.028 54.162 72.922C54.196 72.548 54.23 71.868 54.23 71.868H51.85ZM64.668 55.786V57.894H72.794V55.786H64.668ZM57.834 60.206V62.28H72.828V60.206H57.834ZM63.444 53.44V61.294H65.892V53.44H63.444ZM56.746 60.206V68.91C56.746 73.296 56.44 79.212 53.482 83.53C54.06 83.768 55.012 84.482 55.42 84.924C58.582 80.402 59.058 73.67 59.058 68.91V60.206H56.746ZM59.874 65.816L60.112 67.686L70.176 66.598L69.938 64.83L59.874 65.816ZM63.58 62.518V68.604C63.58 70.78 64.192 71.324 66.64 71.324C67.15 71.324 69.87 71.324 70.38 71.324C72.216 71.324 72.862 70.644 73.066 68.026C72.454 67.89 71.57 67.584 71.094 67.278C70.992 69.182 70.856 69.42 70.108 69.42C69.53 69.42 67.354 69.42 66.946 69.42C65.994 69.42 65.858 69.318 65.858 68.604V62.518H63.58ZM72.114 60.206V60.546C71.91 62.348 71.502 64.66 71.162 66.088L73.134 66.564C73.542 65.034 74.086 62.586 74.494 60.512L72.896 60.104L72.488 60.206H72.114ZM61.812 72.82C61.608 77.818 60.86 81.116 57.154 83.02C57.664 83.428 58.344 84.278 58.65 84.856C62.798 82.578 63.784 78.6 64.022 72.82H61.812ZM66.81 72.786V81.116C66.81 82.68 66.946 83.19 67.49 83.666C68 84.074 68.782 84.21 69.53 84.21C69.904 84.21 71.026 84.21 71.468 84.21C72.114 84.21 72.862 84.074 73.27 83.87C73.78 83.564 74.154 83.19 74.358 82.544C74.528 81.966 74.698 80.266 74.732 78.668C74.086 78.464 73.236 78.022 72.794 77.614C72.794 79.144 72.76 80.47 72.658 81.014C72.59 81.388 72.42 81.626 72.216 81.728C72.046 81.83 71.604 81.898 71.298 81.898C70.89 81.898 70.346 81.898 70.074 81.898C69.734 81.898 69.462 81.83 69.258 81.728C69.088 81.66 69.02 81.422 69.02 81.184V72.786H66.81ZM88.06 66.224V68.468H99.144V66.224H88.06ZM84.728 72.412V74.69H100.436V72.412H84.728ZM88.162 63.164C87.516 66.122 86.36 68.978 84.694 70.916C85.34 71.154 86.394 71.698 86.87 72.038C88.434 69.998 89.76 66.87 90.508 63.606L88.162 63.164ZM84.558 60.818L84.83 63.198C88.434 62.96 93.432 62.62 98.26 62.246L98.294 60.07C93.194 60.376 87.992 60.648 84.558 60.818ZM90.134 53.44C89.386 55.888 87.958 59.424 86.768 61.634L88.74 62.246C90.032 60.172 91.596 56.84 92.786 54.086L90.134 53.44ZM94.146 57.622C95.88 59.628 97.852 62.382 98.668 64.184L100.708 62.892C99.858 61.124 97.852 58.506 96.118 56.534L94.146 57.622ZM91.324 67.686V71.29C91.324 74.452 90.95 79.348 84.762 82.85C85.34 83.292 86.122 84.074 86.496 84.618C92.956 80.538 93.772 75.064 93.772 71.29V67.686H91.324ZM92.922 75.506L91.392 76.696C92.82 77.818 96.288 80.912 97.512 82.272L99.246 80.504C98.226 79.62 94.146 76.322 92.922 75.506ZM103.19 59.628V61.974H113.764V59.628H103.19ZM107.406 60.614H106.148V66.666C106.148 69.522 105.128 78.192 97.716 82.68C98.192 83.19 98.906 84.21 99.178 84.754C104.958 81.15 106.998 74.792 107.372 71.868C107.746 74.69 109.582 81.32 114.58 84.754C114.92 84.142 115.702 83.122 116.144 82.544C109.684 78.192 108.596 69.386 108.63 66.666V60.614H107.406ZM103.19 53.406C102.476 58.982 101.218 64.388 98.974 67.822C99.586 68.162 100.674 68.944 101.15 69.352C103.462 65.578 104.924 59.832 105.74 53.814L103.19 53.406ZM112.982 59.628V60.104C112.642 62.79 112.064 66.156 111.384 68.264L113.288 69.25C114.172 66.904 114.988 63.232 115.464 60.104L113.798 59.458L113.356 59.628H112.982ZM130.288 85.638C133.858 84.414 136.17 81.626 136.17 77.954C136.17 75.574 135.15 74.01 133.246 74.01C131.886 74.01 130.662 74.86 130.662 76.458C130.662 78.09 131.818 78.906 133.212 78.906C133.858 78.906 134.538 78.736 135.014 78.124L133.178 75.54L133.824 78.43C133.824 80.98 132.294 82.714 129.506 83.87L130.288 85.638ZM184.552 69.624V84.72H186.898V71.97H195.466V84.584H197.914V69.624H184.552ZM189.482 53.508V70.372H191.998V53.508H189.482ZM190.944 60.886V63.266H199.274V60.886H190.944ZM185.776 80.776V83.122H196.656V80.776H185.776ZM171.224 56.568H180.574V64.796H171.224V56.568ZM169.218 54.698V66.666H182.648V54.698H169.218ZM171.7 58.234C172.278 59.9 172.72 62.042 172.788 63.47L174.114 63.062C174.012 61.702 173.57 59.56 172.992 57.894L171.7 58.234ZM172.856 77.716C173.332 79.586 173.672 82.034 173.672 83.632L175.44 83.394C175.406 81.796 175.066 79.348 174.522 77.478L172.856 77.716ZM176.12 77.512C176.868 79.246 177.582 81.524 177.786 83.02L179.52 82.646C179.282 81.15 178.534 78.872 177.752 77.172L176.12 77.512ZM179.35 77.036C180.506 78.634 181.696 80.81 182.206 82.272L183.906 81.49C183.396 80.096 182.172 77.988 180.948 76.424L179.35 77.036ZM169.966 77.58C169.66 79.926 169.014 82.408 167.688 83.802L169.422 84.754C170.884 83.224 171.428 80.572 171.768 78.056L169.966 77.58ZM178.67 57.792C178.364 59.356 177.684 61.77 177.174 63.232L178.296 63.674C178.874 62.314 179.554 60.104 180.166 58.37L178.67 57.792ZM168.232 73.976L168.368 76.22C172.278 75.982 177.922 75.642 183.362 75.234L183.43 73.194C177.786 73.534 172.006 73.806 168.232 73.976ZM168.98 68.978V71.052H182.886V68.978H168.98ZM174.93 55.582V65.782H174.658V74.554H176.936V65.782H176.664V55.582H174.93ZM216.784 68.502V70.61H233.648V68.502H216.784ZM216.138 74.316V76.492H234.362V74.316H216.138ZM227.46 69.182V84.108H229.772V69.182H227.46ZM220.49 69.284V75.472C220.49 77.342 219.776 80.946 216.342 83.054C216.92 83.394 217.702 84.108 218.042 84.584C221.884 82 222.7 77.546 222.7 75.472V69.284H220.49ZM212.568 59.628V61.464H222.122V59.628H212.568ZM228.242 59.628V61.464H237.864V59.628H228.242ZM236.878 54.902V81.422C236.878 81.932 236.708 82.136 236.164 82.136C235.62 82.17 233.784 82.17 231.914 82.102C232.288 82.816 232.628 84.006 232.73 84.686C235.314 84.686 237.014 84.652 238.034 84.21C239.054 83.768 239.394 82.952 239.394 81.422V54.902H236.878ZM212.772 54.902V56.874H221.272V64.422H212.772V66.36H223.686V54.902H212.772ZM238.102 54.902H226.678V66.394H238.102V64.456H229.126V56.874H238.102V54.902ZM211.242 54.902V84.754H213.758V54.902H211.242ZM258.706 68.57V84.822H261.154V70.61H275.978V84.822H278.528V68.57H258.706ZM251.872 64.082V66.19H281.894V64.082H251.872ZM254.354 59.526V61.566H279.922V59.526H254.354ZM260.372 72.922V74.724H277.066V72.922H260.372ZM260.372 77.138V78.906H277.066V77.138H260.372ZM260.134 81.422V83.462H277.066V81.422H260.134ZM277.95 53.712C272.544 54.834 262.174 55.31 253.878 55.378C254.116 55.922 254.354 56.806 254.422 57.384C262.82 57.35 273.258 56.84 279.582 55.582L277.95 53.712ZM264.01 56.058C262.208 63.572 258.23 71.018 251.022 75.166C251.532 75.642 252.28 76.594 252.62 77.138C260.236 72.616 264.384 64.83 266.662 56.602L264.01 56.058ZM300.356 68.57V84.822H302.804V70.61H317.628V84.822H320.178V68.57H300.356ZM293.522 64.082V66.19H323.544V64.082H293.522ZM296.004 59.526V61.566H321.572V59.526H296.004ZM302.022 72.922V74.724H318.716V72.922H302.022ZM302.022 77.138V78.906H318.716V77.138H302.022ZM301.784 81.422V83.462H318.716V81.422H301.784ZM319.6 53.712C314.194 54.834 303.824 55.31 295.528 55.378C295.766 55.922 296.004 56.806 296.072 57.384C304.47 57.35 314.908 56.84 321.232 55.582L319.6 53.712ZM305.66 56.058C303.858 63.572 299.88 71.018 292.672 75.166C293.182 75.642 293.93 76.594 294.27 77.138C301.886 72.616 306.034 64.83 308.312 56.602L305.66 56.058ZM21.046 106.508V130.138H23.46V106.508H21.046ZM9.214 120.516L10.166 122.76L30.634 114.804L29.648 112.594L9.214 120.516ZM13.498 109.84V132.552C13.498 136.326 14.688 137.278 18.802 137.278C19.72 137.278 26.724 137.278 27.71 137.278C31.484 137.278 32.3 135.748 32.742 131.056C31.994 130.886 30.974 130.444 30.362 130.002C30.09 134.014 29.716 134.966 27.642 134.966C26.146 134.966 20.06 134.966 18.904 134.966C16.49 134.966 16.014 134.524 16.014 132.586V109.84H13.498ZM28.798 113.172C28.798 119.802 28.73 124.256 28.458 125.344C28.22 126.228 27.846 126.364 27.268 126.364C26.826 126.364 25.602 126.364 24.65 126.33C24.956 126.908 25.228 127.962 25.296 128.676C26.316 128.71 27.812 128.676 28.73 128.438C29.784 128.166 30.498 127.52 30.77 125.956C31.11 124.494 31.178 119.598 31.212 113.41L31.314 113.002L29.546 112.254L29.104 112.662L28.492 113.172H28.798ZM9.044 106.576C7.14 111.744 3.978 116.844 0.612 120.142C1.054 120.72 1.768 122.046 2.04 122.624C5.678 118.816 9.18 113.036 11.39 107.324L9.044 106.576ZM5.44 115.348V137.686H7.922V112.9L7.888 112.866L5.44 115.348ZM53.856 113.546V115.484H60.724V113.546H53.856ZM64.634 113.546V115.484H71.57V113.546H64.634ZM70.754 108.412V134.388C70.754 135.034 70.516 135.238 69.87 135.272C69.19 135.306 66.81 135.306 64.396 135.238C64.736 135.918 65.144 137.04 65.28 137.72C68.51 137.72 70.516 137.686 71.638 137.244C72.794 136.836 73.202 136.054 73.202 134.388V108.412H70.754ZM52.428 108.412V137.652H54.808V108.412H52.428ZM53.992 108.412V110.452H59.568V118.782H53.992V120.822H61.574V108.412H53.992ZM71.978 108.412H63.614V120.822H71.978V118.782H65.722V110.452H71.978V108.412ZM49.538 106.644C47.906 111.88 45.22 117.116 42.228 120.516C42.67 121.162 43.35 122.522 43.588 123.134C46.954 119.156 49.98 113.172 51.918 107.29L49.538 106.644ZM46.818 114.974V137.72H49.232V112.696L49.164 112.628L46.818 114.974ZM92.888 128.234V133.674C92.888 136.326 93.874 137.006 97.58 137.006C98.362 137.006 103.87 137.006 104.686 137.006C107.78 137.006 108.562 135.986 108.902 131.702C108.188 131.532 107.134 131.192 106.556 130.75C106.42 134.218 106.148 134.694 104.482 134.694C103.258 134.694 98.668 134.694 97.75 134.694C95.744 134.694 95.404 134.558 95.404 133.64V128.234H92.888ZM97.376 127.044C98.974 128.608 101.014 130.818 102.034 132.11L103.87 130.58C102.816 129.288 100.742 127.214 99.144 125.718L97.376 127.044ZM109.344 128.166C110.738 130.41 112.506 133.436 113.322 135.204L115.668 134.014C114.818 132.28 112.982 129.356 111.588 127.18L109.344 128.166ZM88.06 127.826C87.414 130.104 86.258 132.994 84.864 134.796L87.108 135.952C88.502 134.048 89.59 130.988 90.304 128.71L88.06 127.826ZM85.136 111.54V113.75H99.212V111.54H85.136ZM91.392 106.542V126.364H93.806V106.542H91.392ZM91.29 112.9C89.862 116.64 87.074 120.618 84.388 122.556C84.898 122.964 85.646 123.78 86.054 124.358C88.774 122.08 91.562 117.728 93.058 113.512L91.29 112.9ZM93.602 115.552L92.242 116.81C93.602 117.83 96.9 120.652 98.09 121.842L99.484 119.802C98.532 119.054 94.724 116.232 93.602 115.552ZM103.054 115.518H111.554V118.714H103.054V115.518ZM103.054 120.686H111.554V123.916H103.054V120.686ZM103.054 110.35H111.554V113.478H103.054V110.35ZM100.708 108.242V126.024H114.002V108.242H100.708ZM143.208 117.966H152.932V123.372H143.208V117.966ZM140.862 115.722V125.616H155.38V115.722H140.862ZM149.192 125.038V134.32C149.192 136.802 149.77 137.516 152.15 137.516C152.592 137.516 154.53 137.516 155.006 137.516C157.08 137.516 157.692 136.394 157.896 131.804C157.216 131.634 156.23 131.226 155.72 130.784C155.618 134.694 155.482 135.238 154.734 135.238C154.292 135.238 152.796 135.238 152.456 135.238C151.776 135.238 151.64 135.102 151.64 134.32V125.038H149.192ZM143.718 125.31C143.378 130.41 142.358 133.878 137.224 135.782C137.734 136.224 138.448 137.176 138.72 137.754C144.466 135.442 145.792 131.328 146.234 125.31H143.718ZM143.854 107.528V109.874H151.946V107.528H143.854ZM142.256 110.146C141.508 112.458 139.808 115.246 137.87 117.014C138.448 117.32 139.332 118 139.808 118.442C141.848 116.538 143.684 113.478 144.772 110.792L142.256 110.146ZM149.906 107.528V108.82H150.484C151.708 112.254 153.782 115.722 155.924 117.898C156.434 117.354 157.42 116.606 158.066 116.232C155.958 114.328 153.714 110.894 152.592 107.528H149.906ZM127.84 116.742V118.782H137.802V116.742H127.84ZM127.942 107.664V109.704H137.666V107.664H127.942ZM127.84 121.298V123.338H137.802V121.298H127.84ZM126.242 112.118V114.226H138.924V112.118H126.242ZM128.962 125.888V127.996H135.558V133.674H128.962V135.816H137.802V125.888H128.962ZM127.806 125.888V137.38H130.016V125.888H127.806ZM176.46 106.576C174.488 111.846 171.258 117.014 167.824 120.38C168.266 120.958 169.014 122.284 169.286 122.862C173.026 119.02 176.562 113.172 178.874 107.324L176.46 106.576ZM172.992 115.348V137.686H175.474V112.9L175.44 112.866L172.992 115.348ZM177.684 118.204V120.72H199.07V118.204H177.684ZM187.238 106.814V137.72H189.856V106.814H187.238ZM215.56 134.762L215.73 136.938C221.306 136.836 229.772 136.53 237.796 136.258L237.898 134.286C229.67 134.524 221 134.694 215.56 134.762ZM231.676 125.854C228.82 128.778 224.026 132.722 220.354 135.034L221.986 136.156C225.658 133.912 230.418 130.206 233.852 127.078L231.676 125.854ZM225.25 123.678C224.026 125.242 221.85 127.418 220.184 128.744L221.782 129.73C223.482 128.506 225.59 126.568 227.324 124.834L225.25 123.678ZM217.566 128.37C219.98 129.764 223.04 131.906 224.502 133.266L226.27 131.6C224.706 130.206 221.612 128.2 219.232 126.874L217.566 128.37ZM231.608 131.09C234.124 133.096 237.014 135.952 238.408 137.822L240.55 136.7C239.088 134.762 236.096 131.974 233.614 130.07L231.608 131.09ZM216.07 114.294V116.198H226.678V114.294H216.07ZM227.868 114.294V116.198H239.768V114.294H227.868ZM220.456 111.846V124.29H222.428V111.846H220.456ZM224.298 117.32V122.59H225.896V117.32H224.298ZM232.186 111.846V124.392H234.192V111.846H232.186ZM217.09 117.32V118.612C217.09 120.142 216.886 122.216 215.424 123.542C215.866 123.78 216.546 124.256 216.818 124.63C218.45 122.896 218.688 120.652 218.688 118.68V117.32H217.09ZM228.786 117.252V118.476C228.786 119.87 228.582 121.808 227.188 122.998C227.63 123.236 228.31 123.746 228.616 124.12C230.146 122.522 230.384 120.38 230.384 118.578V117.252H228.786ZM236.062 117.252V121.638C236.062 122.998 236.164 123.44 236.504 123.78C236.81 124.086 237.354 124.188 237.864 124.188C238.102 124.188 238.748 124.188 239.02 124.188C239.326 124.188 239.768 124.154 240.006 124.018C240.312 123.882 240.584 123.644 240.72 123.304C240.89 122.964 240.958 121.944 240.992 121.06C240.584 120.958 240.04 120.686 239.7 120.448C239.666 121.264 239.632 121.944 239.564 122.216C239.496 122.488 239.428 122.658 239.326 122.726C239.258 122.794 239.02 122.794 238.85 122.794C238.612 122.794 238.34 122.794 238.204 122.794C238.034 122.794 237.898 122.76 237.83 122.692C237.762 122.59 237.762 122.318 237.762 121.876V117.252H236.062ZM224.91 106.474V110.452H227.528V106.474H224.91ZM213.384 109.33V111.54H240.516V109.33H213.384ZM211.956 109.33V119.836C211.956 124.732 211.752 131.532 209.338 136.36C209.882 136.632 210.902 137.38 211.31 137.822C213.928 132.688 214.336 125.038 214.336 119.836V109.33H211.956ZM258.915 128.193H255.827C255.838 127.131 255.932 126.262 256.109 125.587C256.297 124.901 256.601 124.275 257.022 123.711C257.443 123.146 258.002 122.505 258.699 121.785C259.208 121.265 259.673 120.778 260.093 120.324C260.525 119.859 260.874 119.361 261.139 118.83C261.405 118.288 261.538 117.64 261.538 116.888C261.538 116.124 261.399 115.465 261.123 114.912C260.857 114.359 260.459 113.933 259.927 113.634C259.407 113.335 258.76 113.186 257.985 113.186C257.343 113.186 256.734 113.302 256.159 113.534C255.583 113.767 255.118 114.126 254.764 114.613C254.41 115.089 254.227 115.715 254.216 116.489H251.145C251.167 115.239 251.477 114.165 252.075 113.269C252.684 112.372 253.503 111.686 254.532 111.21C255.561 110.734 256.712 110.496 257.985 110.496C259.391 110.496 260.586 110.751 261.571 111.26C262.567 111.769 263.325 112.499 263.845 113.451C264.365 114.392 264.626 115.51 264.626 116.805C264.626 117.801 264.421 118.719 264.011 119.561C263.613 120.391 263.098 121.171 262.467 121.901C261.837 122.632 261.167 123.329 260.459 123.993C259.85 124.558 259.44 125.194 259.23 125.902C259.02 126.611 258.915 127.374 258.915 128.193ZM255.694 133.456C255.694 132.958 255.849 132.537 256.159 132.194C256.469 131.851 256.917 131.68 257.504 131.68C258.101 131.68 258.555 131.851 258.865 132.194C259.175 132.537 259.33 132.958 259.33 133.456C259.33 133.932 259.175 134.341 258.865 134.685C258.555 135.028 258.101 135.199 257.504 135.199C256.917 135.199 256.469 135.028 256.159 134.685C255.849 134.341 255.694 133.932 255.694 133.456Z" fill="#276A70"/>
</svg>
