<svg width="332" height="85" viewBox="0 0 332 85" fill="none" xmlns="http://www.w3.org/2000/svg">
<path d="M7.806 6.084V20.874H4.032V6.084H7.806ZM10.084 3.636H1.686V25.94H4.032V23.322H10.084V3.636ZM22.562 18.868V12.85H27.628V18.868H22.562ZM15.116 18.868V12.85H20.114V18.868H15.116ZM20.114 4.758V10.538H15.116V4.758H20.114ZM27.628 10.538H22.562V4.758H27.628V10.538ZM12.668 2.412V22.982H15.116V21.214H20.114V31.652H22.562V21.214H27.628V22.778H30.144V2.412H12.668ZM58.024 6.492C56.766 4.792 54.25 2.31 52.176 0.575999H49.762C48.436 3.262 46.056 6.594 42.656 9.076C43.2 9.416 43.948 10.13 44.322 10.64C47.552 8.124 49.83 5.098 51.292 2.65C53.196 4.316 55.304 6.73 56.392 8.26L58.024 6.492ZM71.182 13.394C70.366 16.998 69.108 20.024 67.476 22.54C65.742 19.888 64.416 16.794 63.498 13.394H71.182ZM54.318 11.32V13.972H48.096V11.32H54.318ZM48.096 18.562V15.808H54.318V18.562H48.096ZM72.474 11.014L72.032 11.116H61.56V4.588H73.936V2.208H59.214V14.108C59.214 18.12 58.976 23.118 57.004 27.266C56.29 25.566 55.1 23.288 53.978 21.52L51.938 22.302C52.448 23.152 52.992 24.138 53.468 25.124C51.632 25.668 49.796 26.212 48.096 26.688V20.466H56.562V9.484H52.516V6.254H50.34V9.484H45.818V27.334C44.968 27.572 44.186 27.776 43.472 27.946L44.356 30.326C47.212 29.408 50.85 28.184 54.352 26.994C54.692 27.776 54.998 28.49 55.168 29.102L56.29 28.592C55.984 29.136 55.61 29.646 55.202 30.156C55.78 30.428 56.766 31.176 57.174 31.618C61.05 26.824 61.56 19.514 61.56 14.176C62.614 18.086 64.076 21.588 66.014 24.546C64.246 26.688 62.172 28.32 59.86 29.544C60.37 29.918 61.186 30.904 61.526 31.448C63.702 30.224 65.708 28.626 67.476 26.518C69.142 28.558 71.08 30.224 73.29 31.448C73.664 30.836 74.446 29.884 74.99 29.476C72.678 28.32 70.672 26.654 68.972 24.58C71.284 21.214 73.018 16.93 73.97 11.558L72.474 11.014ZM117.014 6.73H111.914V0.643998H109.534V6.73H104.978V8.974H117.014V6.73ZM113.24 26.994C114.226 22.914 115.348 16.08 116.028 10.946L113.614 10.47C113.206 15.332 112.22 22.37 111.268 26.484L113.24 26.994ZM109.568 26.28C109.534 22.642 108.786 16.08 107.766 10.844L105.76 11.252C106.712 16.386 107.358 23.084 107.426 26.892L109.568 26.28ZM93.214 6.39V20.296H89.644V6.39H93.214ZM95.39 4.112H87.502V25.498H89.644V22.608H95.39V4.112ZM104.604 17.202L104.196 15.094L101.408 16.182V9.688H104.264V7.478H101.408V0.643998H99.198V7.478H96.002V9.688H99.198V16.998C97.838 17.508 96.58 17.984 95.56 18.324L96.308 20.636C97.192 20.262 98.178 19.888 99.198 19.446V28.762C99.198 29.204 99.062 29.306 98.654 29.34C98.28 29.34 97.09 29.34 95.798 29.306C96.138 29.952 96.41 31.006 96.512 31.584C98.382 31.584 99.572 31.516 100.354 31.108C101.136 30.734 101.408 30.054 101.408 28.762V18.528L104.604 17.202ZM103.482 28.218V30.462H117.558V28.218H103.482ZM133.368 32.638C136.938 31.38 139.25 28.592 139.25 24.92C139.25 22.54 138.23 21.01 136.36 21.01C134.966 21.01 133.776 21.86 133.776 23.458C133.776 25.056 134.932 25.872 136.326 25.872C136.53 25.872 136.7 25.872 136.904 25.838C136.734 28.15 135.238 29.748 132.62 30.836L133.368 32.638ZM182.804 10.708C183.382 9.348 184.028 7.172 184.64 5.404L183.144 4.86C182.838 6.424 182.192 8.804 181.682 10.266L182.804 10.708ZM176.242 5.302C176.82 6.934 177.228 9.076 177.296 10.47L178.656 10.096C178.554 8.736 178.112 6.594 177.5 4.962L176.242 5.302ZM175.766 3.636H179.438V11.796H175.766V3.636ZM185.082 11.796H181.172V3.636H185.082V11.796ZM172.944 23.118C176.854 22.914 182.396 22.574 187.802 22.166L187.87 20.126C185.694 20.262 183.518 20.398 181.444 20.5V17.984H187.326V15.978H181.444V13.632H187.122V1.8H173.794V13.632H179.166V15.978H173.556V17.984H179.166V20.636C176.752 20.738 174.576 20.874 172.808 20.942L172.944 23.118ZM173.964 31.584C175.46 30.088 175.97 27.47 176.31 24.954L174.508 24.478C174.236 26.824 173.59 29.272 172.264 30.666L173.964 31.584ZM177.398 24.58C177.874 26.484 178.214 28.898 178.214 30.496L179.948 30.258C179.948 28.694 179.574 26.246 179.03 24.41L177.398 24.58ZM180.628 24.41C181.376 26.144 182.09 28.388 182.26 29.884L183.994 29.51C183.756 28.014 183.008 25.77 182.226 24.07L180.628 24.41ZM183.858 23.968C184.98 25.532 186.17 27.708 186.646 29.136L188.346 28.388C187.836 26.994 186.612 24.886 185.422 23.322L183.858 23.968ZM199.872 27.674H191.304V18.936H199.872V27.674ZM203.612 10.3V7.92H196.37V0.609999H193.888V16.59H188.992V31.55H191.304V29.952H199.872V31.414H202.252V16.59H196.37V10.3H203.612ZM235.368 11.558H229.452V8.022H235.368V11.558ZM235.368 17.27H229.452V13.7H235.368V17.27ZM235.368 23.05H229.452V19.378H235.368V23.05ZM227.004 25.26H245.908V23.05H237.782V19.378H244.412V17.27H237.782V13.7H244.48V11.558H237.782V8.022H245.33V5.846H238.122C238.836 4.486 239.55 2.888 240.196 1.46L237.51 0.881999C237.068 2.344 236.354 4.282 235.606 5.846H230.2C231.084 4.418 231.832 2.888 232.478 1.324L229.996 0.643998C228.296 4.928 225.372 8.974 222.074 11.524C222.652 12 223.604 12.952 224.012 13.462C225.032 12.578 226.052 11.524 227.004 10.402V25.26ZM223.468 6.934C222.414 5.268 220.068 2.956 217.994 1.392L216.056 2.82C218.13 4.452 220.408 6.798 221.428 8.498L223.468 6.934ZM222.448 13.87H215.75V16.25H220.068V24.954C218.538 26.382 216.804 27.81 215.376 28.864L216.702 31.278C218.368 29.816 219.932 28.388 221.428 26.926C223.536 29.578 226.596 30.768 231.05 30.938C234.858 31.108 242.032 31.04 245.84 30.87C245.942 30.122 246.35 28.966 246.656 28.388C242.576 28.66 234.756 28.762 231.016 28.592C227.038 28.456 224.046 27.3 222.448 24.784V13.87ZM289.292 17.066V14.584H275.284V8.158H286.776V5.676H275.284V0.542H272.666V5.676H261.582V8.158H272.666V14.584H258.964V17.066H269.606C268.416 20.296 266.546 24.444 264.914 27.368C263.18 27.436 261.582 27.504 260.154 27.538L260.528 30.19C266.682 29.884 275.998 29.476 284.838 28.966C285.484 30.02 286.062 31.006 286.47 31.856L288.952 30.53C287.422 27.572 284.124 23.118 281.098 19.82L278.752 20.942C280.214 22.608 281.812 24.58 283.172 26.552C277.902 26.824 272.496 27.062 267.77 27.266C269.47 24.274 271.34 20.364 272.802 17.066H289.292ZM326.148 19.922H311.392V17.576H326.148V19.922ZM311.392 28.32V25.804H326.148V28.32H311.392ZM326.148 24.036H311.392V21.656H326.148V24.036ZM331.962 13.224V11.116H314.146C314.554 10.3 314.928 9.45 315.268 8.634H329.99V6.594H315.982C316.254 5.744 316.526 4.928 316.764 4.078C321.626 3.806 326.25 3.364 329.65 2.65L328.052 0.813998C322.714 1.902 312.412 2.446 304.184 2.514C304.422 3.058 304.66 3.874 304.694 4.452C307.618 4.452 310.814 4.384 313.976 4.214C313.772 5.03 313.534 5.812 313.262 6.594H304.66V8.634H312.514C312.208 9.45 311.8 10.3 311.392 11.116H302.178V13.224H310.202C308.094 16.76 305.17 19.922 301.362 22.132C301.838 22.574 302.586 23.492 302.926 24.07C305.238 22.676 307.244 20.976 308.978 19.072V31.686H311.392V30.36H326.148V31.686H328.63V15.57H311.698C312.208 14.822 312.65 14.006 313.092 13.224H331.962ZM25.078 72.922H10.322V70.576H25.078V72.922ZM10.322 81.32V78.804H25.078V81.32H10.322ZM25.078 77.036H10.322V74.656H25.078V77.036ZM30.892 66.224V64.116H13.076C13.484 63.3 13.858 62.45 14.198 61.634H28.92V59.594H14.912C15.184 58.744 15.456 57.928 15.694 57.078C20.556 56.806 25.18 56.364 28.58 55.65L26.982 53.814C21.644 54.902 11.342 55.446 3.114 55.514C3.352 56.058 3.59 56.874 3.624 57.452C6.548 57.452 9.744 57.384 12.906 57.214C12.702 58.03 12.464 58.812 12.192 59.594H3.59V61.634H11.444C11.138 62.45 10.73 63.3 10.322 64.116H1.108V66.224H9.132C7.024 69.76 4.1 72.922 0.292 75.132C0.768 75.574 1.516 76.492 1.856 77.07C4.168 75.676 6.174 73.976 7.908 72.072V84.686H10.322V83.36H25.078V84.686H27.56V68.57H10.628C11.138 67.822 11.58 67.006 12.022 66.224H30.892ZM50.816 59.084V73.874H47.042V59.084H50.816ZM53.094 56.636H44.696V78.94H47.042V76.322H53.094V56.636ZM65.572 71.868V65.85H70.638V71.868H65.572ZM58.126 71.868V65.85H63.124V71.868H58.126ZM63.124 57.758V63.538H58.126V57.758H63.124ZM70.638 63.538H65.572V57.758H70.638V63.538ZM55.678 55.412V75.982H58.126V74.214H63.124V84.652H65.572V74.214H70.638V75.778H73.154V55.412H55.678ZM94.948 53.678C93.01 58.914 89.78 64.048 86.38 67.38C86.822 67.992 87.536 69.284 87.808 69.862C89.066 68.536 90.324 66.972 91.514 65.306V84.55H93.996V61.362C95.254 59.186 96.41 56.772 97.328 54.426L94.948 53.678ZM117.354 65.238H108.208V53.916H105.658V65.238H96.172V67.72H105.658V84.618H108.208V67.72H117.354V65.238ZM160.194 58.574V56.398H147.308V53.576H144.724V56.398H131.872V66.836C131.872 71.698 131.668 78.464 129.254 83.224C129.798 83.496 130.818 84.244 131.192 84.686C133.81 79.586 134.184 72.004 134.184 66.836V58.574H160.194ZM153.938 71.358V63.198H159.446V61.328H153.938V58.914H151.932V61.328H147.614V63.198H151.932V71.358H153.938ZM150.13 64.252H148.532V65.51C148.532 66.87 148.328 68.808 146.968 69.964C147.41 70.202 148.056 70.712 148.362 71.052C149.892 69.454 150.13 67.38 150.13 65.578V64.252ZM146.458 61.328H142.242V58.914H140.304V61.328H135.918V63.198H140.304V71.222H142.242V63.198H146.458V61.328ZM145.71 69.556V64.286H144.112V69.556H145.71ZM138.536 64.32H136.972V65.646C136.972 67.142 136.734 69.216 135.306 70.542C135.748 70.746 136.36 71.222 136.666 71.596C138.298 69.862 138.536 67.618 138.536 65.714V64.32ZM151.32 77.988C152.544 78.94 153.836 80.096 155.026 81.252C151.32 81.32 147.58 81.422 144.214 81.49C147.342 79.314 150.878 76.458 153.564 74.01L151.422 72.786C149.858 74.418 147.75 76.322 145.54 78.056C144.724 77.41 143.636 76.662 142.514 75.948C144.01 74.758 145.71 73.228 147.104 71.8L145.03 70.678C144.044 71.936 142.378 73.636 140.916 74.928C140.27 74.52 139.658 74.146 139.08 73.84L137.448 75.302C139.488 76.492 142.038 78.226 143.602 79.552C142.65 80.266 141.698 80.946 140.814 81.558C138.808 81.592 137.006 81.592 135.442 81.626L135.612 83.802C140.95 83.7 149.076 83.394 156.828 83.156C157.338 83.7 157.746 84.21 158.086 84.686L160.228 83.564C158.766 81.626 155.808 78.906 153.326 77.002L151.32 77.988ZM157.882 69.76C157.712 69.76 157.576 69.726 157.508 69.658C157.474 69.556 157.44 69.284 157.44 68.842V64.252H155.774V68.604C155.774 69.998 155.842 70.406 156.182 70.746C156.522 71.052 157.066 71.154 157.542 71.154H158.698C159.004 71.154 159.446 71.12 159.684 70.95C159.99 70.882 160.262 70.61 160.398 70.27C160.568 69.93 160.636 68.944 160.67 68.06C160.262 67.924 159.718 67.652 159.378 67.414C159.344 68.264 159.31 68.944 159.242 69.216C159.174 69.454 159.106 69.624 159.004 69.692C158.936 69.76 158.732 69.76 158.528 69.76H157.882ZM182.736 62.858C182.294 67.312 181.41 71.052 180.118 74.112C178.826 73.194 177.466 72.344 176.174 71.596C176.854 68.91 177.568 65.884 178.248 62.858H182.736ZM183.79 60.444L183.348 60.546H178.758C179.268 58.2 179.744 55.922 180.152 53.848L177.738 53.576C177.364 55.684 176.888 58.098 176.344 60.546H172.638V62.858H175.868C174.916 67.108 173.896 71.29 173.08 74.214L175.188 75.302L175.562 73.874C176.752 74.622 177.942 75.438 179.064 76.288C177.466 79.212 175.392 81.32 172.91 82.612C173.454 83.122 174.134 84.04 174.474 84.652C177.126 83.054 179.302 80.844 181.002 77.818C182.43 79.008 183.654 80.198 184.47 81.218L186 79.212C185.082 78.09 183.722 76.832 182.124 75.608C183.79 71.8 184.844 66.938 185.286 60.784L183.79 60.444ZM203.68 67.176H195.588V64.15C198.172 62.144 201.062 59.084 202.966 56.364L201.3 55.14L200.79 55.31H186.238V57.622H198.954C197.594 59.356 195.792 61.294 194.092 62.654H193.072V67.176H185.116V69.522H193.072V81.388C193.072 81.898 192.902 82.068 192.324 82.102C191.746 82.136 189.842 82.136 187.7 82.068C188.074 82.714 188.516 83.836 188.652 84.516C191.338 84.516 193.106 84.448 194.16 84.074C195.248 83.666 195.588 82.918 195.588 81.388V69.522H203.68V67.176ZM238.224 60.104C237.136 58.846 234.79 57.112 232.886 55.956L231.594 57.656C233.532 58.914 235.844 60.75 236.932 62.042L238.224 60.104ZM236.762 68.23C235.572 67.006 233.056 65.476 231.05 64.422L229.86 66.19C231.9 67.278 234.314 69.012 235.504 70.27L236.762 68.23ZM226.936 55.582C226.426 57.86 225.474 61.226 224.692 63.232L226.324 63.776C227.242 61.872 228.296 58.676 229.112 56.126L226.936 55.582ZM219.864 63.164C219.626 61.124 218.844 58.064 217.858 55.718L216.022 56.16C216.906 58.54 217.688 61.668 217.858 63.708L219.864 63.164ZM223.57 67.278H229.112V64.898H223.57V53.678H221.224V64.898H215.784V67.278H220.544C219.354 71.086 217.212 75.472 215.24 77.852C215.648 78.464 216.26 79.586 216.532 80.3C218.232 78.022 219.966 74.248 221.224 70.61V84.584H223.57V70.644C224.794 72.548 226.392 75.166 227.004 76.424L228.67 74.452C227.922 73.296 224.522 68.808 223.57 67.754V67.278ZM246.758 74.248L246.384 71.936L242.372 72.65V53.576H239.992V73.092L229.044 75.03L229.452 77.376L239.992 75.472V84.584H242.372V75.03L246.758 74.248ZM262.821 75.1768H260.048L259.832 57.8281H263.053L262.821 75.1768ZM259.716 80.4561C259.716 79.958 259.866 79.543 260.164 79.2109C260.474 78.8678 260.928 78.6963 261.526 78.6963C262.123 78.6963 262.577 78.8678 262.887 79.2109C263.197 79.543 263.352 79.958 263.352 80.4561C263.352 80.9541 263.197 81.3691 262.887 81.7012C262.577 82.0221 262.123 82.1826 261.526 82.1826C260.928 82.1826 260.474 82.0221 260.164 81.7012C259.866 81.3691 259.716 80.9541 259.716 80.4561Z" fill="#276A70"/>
</svg>
