<svg width="413" height="138" viewBox="0 0 413 138" fill="none" xmlns="http://www.w3.org/2000/svg">
<path d="M14.96 19.752V21.724H27.438V19.752H14.96ZM14.96 24.138V26.076H27.438V24.138H14.96ZM13.838 15.366V31.754H16.184V17.406H27.472V15.366H13.838ZM19.822 6.084V11.864H21.862V7.818H27.404V6.084H19.822ZM26.52 15.366V29.17C26.52 29.578 26.384 29.714 25.908 29.748C25.432 29.748 23.834 29.748 22.1 29.68C22.406 30.292 22.712 31.176 22.848 31.754C25.262 31.754 26.792 31.754 27.71 31.38C28.662 31.04 28.934 30.428 28.934 29.17V15.366H26.52ZM10.438 10.878V16.658H12.784V12.952H29.818V16.658H32.266V10.878H10.438ZM13.94 1.698V12H16.286V3.738H26.418V12H28.832V1.698H13.94ZM3.06 2.582C5.236 3.602 7.854 5.234 9.146 6.458L10.608 4.384C9.316 3.194 6.63 1.664 4.488 0.745999L3.06 2.582ZM1.258 11.83C3.468 12.748 6.154 14.278 7.48 15.434L8.942 13.326C7.582 12.204 4.828 10.742 2.652 9.926L1.258 11.83ZM2.278 29.612L4.488 31.244C6.358 28.082 8.602 23.764 10.268 20.16L8.33 18.596C6.494 22.472 4.012 26.994 2.278 29.612ZM43.996 22.676V24.614H59.5V22.676H43.996ZM43.078 6.288V8.26H60.044V6.288H43.078ZM50.456 3.194V28.218H52.802V3.194H50.456ZM43.044 28.286L43.418 30.496C47.736 30.054 53.89 29.34 59.67 28.66L59.636 26.654C53.55 27.3 47.192 27.912 43.044 28.286ZM46.206 16.318H57.222V18.834H46.206V16.318ZM46.206 12.17H57.222V14.618H46.206V12.17ZM44.064 10.402V20.602H59.398V10.402H44.064ZM58.174 0.779999C54.672 1.596 48.484 2.208 43.418 2.48C43.69 2.99 43.928 3.84 44.03 4.384C49.13 4.214 55.454 3.636 59.466 2.752L58.174 0.779999ZM59.806 8.396V10.776H72.08V8.396H59.806ZM71.094 8.396V9.008C70.72 22.778 70.346 27.674 69.496 28.728C69.19 29.17 68.85 29.272 68.306 29.272C67.626 29.272 66.13 29.238 64.464 29.102C64.872 29.782 65.144 30.836 65.212 31.55C66.776 31.652 68.408 31.652 69.36 31.55C70.38 31.448 71.06 31.142 71.672 30.258C72.794 28.796 73.134 24.036 73.508 9.688C73.508 9.348 73.542 8.396 73.542 8.396H71.094ZM63.92 0.881999C63.886 13.734 64.056 24.512 56.27 30.088C56.882 30.496 57.766 31.312 58.174 31.924C66.3 25.838 66.334 14.414 66.368 0.881999H63.92ZM98.26 19.752V21.724H110.738V19.752H98.26ZM98.26 24.138V26.076H110.738V24.138H98.26ZM97.138 15.366V31.754H99.484V17.406H110.772V15.366H97.138ZM103.122 6.084V11.864H105.162V7.818H110.704V6.084H103.122ZM109.82 15.366V29.17C109.82 29.578 109.684 29.714 109.208 29.748C108.732 29.748 107.134 29.748 105.4 29.68C105.706 30.292 106.012 31.176 106.148 31.754C108.562 31.754 110.092 31.754 111.01 31.38C111.962 31.04 112.234 30.428 112.234 29.17V15.366H109.82ZM93.738 10.878V16.658H96.084V12.952H113.118V16.658H115.566V10.878H93.738ZM97.24 1.698V12H99.586V3.738H109.718V12H112.132V1.698H97.24ZM86.36 2.582C88.536 3.602 91.154 5.234 92.446 6.458L93.908 4.384C92.616 3.194 89.93 1.664 87.788 0.745999L86.36 2.582ZM84.558 11.83C86.768 12.748 89.454 14.278 90.78 15.434L92.242 13.326C90.882 12.204 88.128 10.742 85.952 9.926L84.558 11.83ZM85.578 29.612L87.788 31.244C89.658 28.082 91.902 23.764 93.568 20.16L91.63 18.596C89.794 22.472 87.312 26.994 85.578 29.612ZM138.822 0.405999C136.884 1.324 133.484 2.31 130.526 2.922C130.798 3.432 131.138 4.214 131.24 4.724C134.402 4.146 138.074 3.228 140.726 2.14L138.822 0.405999ZM129.846 2.514V13.156H132.328V3.058L129.846 2.514ZM129.846 12.204V14.312H154.258V2.242H143.378V4.316H151.742V12.204H129.846ZM130.798 7.206V9.212H139.842V7.206H130.798ZM143.888 7.206V9.212H152.83V7.206H143.888ZM130.594 15.57V29.476L133.042 29V15.57H130.594ZM140.352 15.672V29.782L142.698 29.34V15.672H140.352ZM126.48 28.864L126.854 31.142C129.88 30.666 134.028 30.088 138.006 29.442L137.904 27.266C133.654 27.878 129.37 28.524 126.48 28.864ZM138.278 28.932L138.652 31.176C141.78 30.632 146.098 29.952 150.212 29.306L150.11 27.164C145.724 27.844 141.27 28.558 138.278 28.932ZM150.11 15.604C150.246 26.314 151.3 31.958 154.836 31.958C156.57 31.958 157.42 31.108 157.692 27.606C157.114 27.402 156.366 26.994 155.89 26.552C155.788 28.898 155.55 29.51 155.006 29.51C153.442 29.51 152.524 25.294 152.626 15.604H150.11ZM134.062 17.984C135.456 18.698 137.122 19.82 137.904 20.738L139.298 19.14C138.448 18.29 136.748 17.202 135.354 16.556L134.062 17.984ZM133.756 23.05C135.15 23.832 136.748 25.022 137.496 25.974L138.89 24.41C138.142 23.492 136.51 22.37 135.116 21.622L133.756 23.05ZM143.922 18.018C145.384 18.766 147.118 19.956 147.934 20.84L149.26 19.208C148.41 18.392 146.642 17.27 145.214 16.59L143.922 18.018ZM143.718 23.118C145.214 23.968 146.948 25.328 147.764 26.28L149.192 24.716C148.342 23.764 146.54 22.506 145.078 21.69L143.718 23.118ZM182.24 2.956V4.962H198.832V2.956H182.24ZM181.866 22.03V24.002H199.24V22.03H181.866ZM189.278 0.473998V18.8H191.522V0.473998H189.278ZM185.13 12.034H195.874V14.108H185.13V12.034ZM185.13 8.396H195.874V10.47H185.13V8.396ZM183.022 6.798V15.74H198.05V6.798H183.022ZM181.9 18.052L182.07 20.024C185.98 19.922 191.692 19.82 197.234 19.65L197.268 17.78C191.488 17.916 185.708 18.018 181.9 18.052ZM192.712 20.194V29.204C192.712 29.578 192.61 29.68 192.134 29.714C191.692 29.748 190.128 29.748 188.394 29.68C188.7 30.292 189.04 31.142 189.142 31.788C191.454 31.788 192.916 31.788 193.902 31.448C194.854 31.108 195.092 30.496 195.092 29.238V20.194H192.712ZM183.872 25.362C185.164 26.552 186.49 28.286 187.068 29.51L188.972 28.286C188.326 27.096 186.966 25.464 185.606 24.308L183.872 25.362ZM193.664 16.352C195.194 17.746 196.894 19.718 197.642 21.044L199.444 19.99C198.628 18.698 196.928 16.828 195.364 15.468L193.664 16.352ZM168.334 4.146V6.424H181.526V4.146H168.334ZM167.892 23.526V25.804H182.002V23.526H167.892ZM173.91 0.473998V9.756H176.256V0.473998H173.91ZM174.148 9.892V19.786H173.91V31.788H176.256V19.786H176.018V9.892H174.148ZM171.054 15.74H179.18V18.868H171.054V15.74ZM171.054 10.844H179.18V13.904H171.054V10.844ZM169.082 8.94V20.772H181.152V8.94H169.082ZM210.596 22.676V24.614H226.1V22.676H210.596ZM209.678 6.288V8.26H226.644V6.288H209.678ZM217.056 3.194V28.218H219.402V3.194H217.056ZM209.644 28.286L210.018 30.496C214.336 30.054 220.49 29.34 226.27 28.66L226.236 26.654C220.15 27.3 213.792 27.912 209.644 28.286ZM212.806 16.318H223.822V18.834H212.806V16.318ZM212.806 12.17H223.822V14.618H212.806V12.17ZM210.664 10.402V20.602H225.998V10.402H210.664ZM224.774 0.779999C221.272 1.596 215.084 2.208 210.018 2.48C210.29 2.99 210.528 3.84 210.63 4.384C215.73 4.214 222.054 3.636 226.066 2.752L224.774 0.779999ZM226.406 8.396V10.776H238.68V8.396H226.406ZM237.694 8.396V9.008C237.32 22.778 236.946 27.674 236.096 28.728C235.79 29.17 235.45 29.272 234.906 29.272C234.226 29.272 232.73 29.238 231.064 29.102C231.472 29.782 231.744 30.836 231.812 31.55C233.376 31.652 235.008 31.652 235.96 31.55C236.98 31.448 237.66 31.142 238.272 30.258C239.394 28.796 239.734 24.036 240.108 9.688C240.108 9.348 240.142 8.396 240.142 8.396H237.694ZM230.52 0.881999C230.486 13.734 230.656 24.512 222.87 30.088C223.482 30.496 224.366 31.312 224.774 31.924C232.9 25.838 232.934 14.414 232.968 0.881999H230.52ZM273.87 20.602V28.354C273.87 30.768 274.414 31.482 276.794 31.482C277.27 31.482 279.48 31.482 279.99 31.482C281.928 31.482 282.574 30.428 282.812 26.144C282.166 25.974 281.18 25.634 280.704 25.226C280.602 28.83 280.466 29.306 279.684 29.306C279.242 29.306 277.474 29.306 277.134 29.306C276.352 29.306 276.216 29.17 276.216 28.354V20.602H273.87ZM268.328 9.892H277.78V13.496H268.328V9.892ZM268.328 15.502H277.78V19.14H268.328V15.502ZM268.328 4.316H277.78V7.852H268.328V4.316ZM265.948 2.208V21.248H280.228V2.208H265.948ZM268.736 20.534C268.26 24.886 267.002 28.082 261.936 29.782C262.446 30.258 263.16 31.176 263.432 31.754C269.076 29.612 270.64 25.838 271.218 20.534H268.736ZM251.77 6.832V9.178H262.378V6.832H251.77ZM256.734 16.998V31.72H259.216V14.006L256.734 16.998ZM256.734 0.473998V7.988H259.216V0.473998H256.734ZM259.216 14.346L257.72 15.706C259.08 16.93 262.174 20.194 263.33 21.724L264.894 19.582C264.01 18.698 260.304 15.23 259.216 14.346ZM261.528 6.832V7.376C259.556 12.544 254.932 17.712 250.546 20.432C250.954 20.874 251.6 22.064 251.838 22.71C256.496 19.582 261.494 13.904 263.908 7.682L262.48 6.73L262.038 6.832H261.528ZM299.438 8.226V10.538H319.974V8.226H299.438ZM299.438 15.026V17.236H319.566V15.026H299.438ZM298.86 21.996V24.24H319.702V21.996H298.86ZM298.044 8.226V16.726C298.044 21.078 297.5 26.348 292.672 30.088C293.182 30.462 294.1 31.38 294.44 31.89C299.642 27.844 300.526 21.588 300.526 16.76V8.226H298.044ZM318.614 8.226V28.49C318.614 29.136 318.41 29.34 317.662 29.34C316.88 29.408 314.228 29.408 311.508 29.306C311.882 29.986 312.358 31.108 312.494 31.788C315.928 31.788 318.172 31.754 319.464 31.346C320.722 30.972 321.164 30.156 321.164 28.49V8.226H318.614ZM308.074 9.178V23.118H310.488V9.178H308.074ZM302.668 2.446V4.622H313.378V2.446H302.668ZM303.008 0.371998C301.274 3.772 298.044 7.988 293.454 11.082C294.066 11.456 294.882 12.306 295.29 12.918C300.118 9.416 303.518 4.894 305.762 0.847998L303.008 0.371998ZM312.528 2.446V2.922C311.746 4.724 310.148 7.342 308.72 8.872C309.264 9.178 310.08 9.688 310.556 10.062C312.12 8.396 314.058 5.744 315.214 3.466L313.514 2.344L313.072 2.446H312.528ZM338.538 32.638C342.108 31.414 344.42 28.626 344.42 24.954C344.42 22.574 343.4 21.01 341.496 21.01C340.136 21.01 338.912 21.86 338.912 23.458C338.912 25.09 340.068 25.906 341.462 25.906C342.108 25.906 342.788 25.736 343.264 25.124L341.428 22.54L342.074 25.43C342.074 27.98 340.544 29.714 337.756 30.87L338.538 32.638ZM395.862 0.473998V6.322H398.412V0.473998H395.862ZM387.872 5.166V11.796H390.286V7.444H404.6V11.762H407.082V5.166H387.872ZM394.706 8.668C393.278 13.462 390.966 20.126 389.3 24.002L391.646 24.784C393.278 20.704 395.658 14.074 397.222 9.042L394.706 8.668ZM387.532 14.108V16.42H407.456V14.108H387.532ZM401.54 15.502C400.418 24.41 395.794 28.014 386.376 29.578C386.818 30.122 387.498 31.176 387.668 31.788C397.63 29.714 402.696 25.702 404.26 15.638L401.54 15.502ZM390.83 23.254C396.372 25.124 402.764 28.66 405.79 31.72L407.456 29.612C404.294 26.518 397.8 23.152 392.292 21.384L390.83 23.254ZM375.802 18.528L376.482 21.01C379.644 20.092 383.724 18.8 387.6 17.576L387.294 15.264C383.078 16.488 378.726 17.78 375.802 18.528ZM376.244 7.308V9.688H387.26V7.308H376.244ZM380.97 0.473998V28.796C380.97 29.272 380.8 29.442 380.324 29.442C379.916 29.442 378.488 29.442 376.958 29.408C377.264 30.088 377.638 31.108 377.706 31.72C379.984 31.754 381.344 31.686 382.228 31.278C383.112 30.904 383.452 30.19 383.452 28.796V0.473998H380.97ZM192.957 53.474C191.461 56.092 188.503 59.118 184.253 61.26C184.797 61.634 185.545 62.45 185.885 62.994C190.475 60.478 193.535 57.214 195.507 53.916L192.957 53.474ZM192.141 56.432L190.645 58.54H200.403V56.432H192.141ZM199.519 56.432V56.84C197.275 62.79 191.155 66.632 184.865 68.162C185.307 68.672 185.953 69.624 186.191 70.236C193.025 68.264 199.383 64.218 202.069 57.078L200.437 56.296L199.995 56.432H199.519ZM188.605 60.954C190.441 62.11 192.685 63.912 193.705 65.136L195.405 63.708C194.317 62.45 192.107 60.75 190.237 59.662L188.605 60.954ZM194.759 66.258C193.093 69.25 189.693 72.65 184.695 74.996C185.239 75.37 185.987 76.186 186.327 76.764C191.631 74.044 195.167 70.406 197.343 66.7L194.759 66.258ZM193.807 69.488L192.277 71.664H201.933V69.488H193.807ZM201.185 69.488V69.896C198.771 77.172 191.835 81.116 184.151 82.578C184.593 83.122 185.171 84.108 185.443 84.754C193.671 82.884 200.913 78.702 203.803 70.1L202.171 69.386L201.695 69.488H201.185ZM189.353 74.588C191.529 75.88 194.045 77.818 195.235 79.246L197.037 77.648C195.813 76.254 193.263 74.35 191.087 73.16L189.353 74.588ZM178.337 56.262V84.652H180.819V56.262H178.337ZM172.761 63.028V65.442H185.103V63.028H172.761ZM178.473 63.946C177.249 68.162 174.529 73.466 172.081 76.186C172.523 76.764 173.135 77.818 173.373 78.532C175.991 75.37 178.711 69.42 180.071 64.626L178.473 63.946ZM183.369 53.95C180.887 55.106 176.399 56.058 172.557 56.704C172.863 57.282 173.203 58.098 173.339 58.676C177.283 58.132 182.043 57.18 185.171 55.922L183.369 53.95ZM180.717 67.414L179.527 68.434C180.581 69.624 183.131 72.854 183.947 74.248L185.443 72.242C184.763 71.392 181.567 68.162 180.717 67.414ZM215.125 75.676V77.614H230.629V75.676H215.125ZM214.207 59.288V61.26H231.173V59.288H214.207ZM221.585 56.194V81.218H223.931V56.194H221.585ZM214.173 81.286L214.547 83.496C218.865 83.054 225.019 82.34 230.799 81.66L230.765 79.654C224.679 80.3 218.321 80.912 214.173 81.286ZM217.335 69.318H228.351V71.834H217.335V69.318ZM217.335 65.17H228.351V67.618H217.335V65.17ZM215.193 63.402V73.602H230.527V63.402H215.193ZM229.303 53.78C225.801 54.596 219.613 55.208 214.547 55.48C214.819 55.99 215.057 56.84 215.159 57.384C220.259 57.214 226.583 56.636 230.595 55.752L229.303 53.78ZM230.935 61.396V63.776H243.209V61.396H230.935ZM242.223 61.396V62.008C241.849 75.778 241.475 80.674 240.625 81.728C240.319 82.17 239.979 82.272 239.435 82.272C238.755 82.272 237.259 82.238 235.593 82.102C236.001 82.782 236.273 83.836 236.341 84.55C237.905 84.652 239.537 84.652 240.489 84.55C241.509 84.448 242.189 84.142 242.801 83.258C243.923 81.796 244.263 77.036 244.637 62.688C244.637 62.348 244.671 61.396 244.671 61.396H242.223ZM235.049 53.882C235.015 66.734 235.185 77.512 227.399 83.088C228.011 83.496 228.895 84.312 229.303 84.924C237.429 78.838 237.463 67.414 237.497 53.882H235.049ZM259.767 85.638C263.337 84.414 265.649 81.626 265.649 77.954C265.649 75.574 264.629 74.01 262.725 74.01C261.365 74.01 260.141 74.86 260.141 76.458C260.141 78.09 261.297 78.906 262.691 78.906C263.337 78.906 264.017 78.736 264.493 78.124L262.657 75.54L263.303 78.43C263.303 80.98 261.773 82.714 258.985 83.87L259.767 85.638ZM297.779 55.684V57.996H315.221V55.684H297.779ZM298.799 71.868V74.18H314.235V71.868H298.799ZM305.293 67.822V81.524L307.809 81.15V67.822H305.293ZM297.405 81.15L297.813 83.7C302.335 83.088 309.033 82.136 315.357 81.252L315.289 78.872C308.727 79.756 301.825 80.674 297.405 81.15ZM297.711 64.932L297.915 67.346C301.961 67.108 307.775 66.802 313.351 66.462L313.419 64.218C307.571 64.524 301.587 64.796 297.711 64.932ZM308.557 60.784C310.597 63.198 312.875 66.496 313.861 68.57L315.901 67.346C314.915 65.306 312.535 62.11 310.461 59.73L308.557 60.784ZM303.661 56.908C302.913 59.594 301.451 63.572 300.261 65.986L302.505 66.53C303.763 64.184 305.225 60.444 306.415 57.452L303.661 56.908ZM316.717 57.554V76.39H319.165V57.554H316.717ZM324.741 54.426V81.32C324.741 81.932 324.571 82.102 323.959 82.136C323.279 82.136 321.171 82.17 318.893 82.068C319.267 82.85 319.641 84.04 319.777 84.754C322.531 84.754 324.605 84.686 325.727 84.244C326.849 83.836 327.257 83.054 327.257 81.286V54.426H324.741ZM354.219 55.616V57.554H367.309V55.616H354.219ZM348.541 71.324V73.194H354.117V71.324H348.541ZM358.707 71.29V73.262H364.623V71.29H358.707ZM343.305 59.73V61.77H367.921V59.73H343.305ZM353.063 53.474V60.886H355.613V53.474H353.063ZM346.161 64.49L346.297 66.258L364.147 65.068L364.011 63.368L346.161 64.49ZM353.063 61.328V66.734C353.063 69.114 354.049 69.624 357.721 69.624C358.537 69.624 364.657 69.624 365.473 69.624C368.057 69.624 368.839 69.012 369.111 66.36C368.465 66.258 367.547 66.02 367.003 65.68C366.901 67.482 366.595 67.788 365.201 67.788C363.943 67.788 358.809 67.788 357.857 67.788C355.817 67.788 355.477 67.584 355.477 66.734V61.328H353.063ZM341.945 59.73V68.094C341.945 72.548 341.673 78.804 338.953 83.292C339.497 83.53 340.551 84.346 340.959 84.788C343.883 80.062 344.359 72.956 344.359 68.094V59.73H341.945ZM367.105 59.73V60.104C366.629 61.77 365.915 63.776 365.235 65.034L367.377 65.68C368.159 64.286 369.043 62.076 369.723 60.138L367.955 59.628L367.513 59.73H367.105ZM357.619 71.29V73.976C357.619 75.744 357.211 77.852 354.933 79.552C355.375 79.824 356.225 80.606 356.497 81.014C359.149 79.042 359.727 76.288 359.727 74.044V71.29H357.619ZM348.881 68.604C347.827 71.834 345.889 74.792 343.509 76.73C343.985 77.104 344.767 77.852 345.073 78.226C347.521 76.084 349.731 72.718 350.921 69.08L348.881 68.604ZM363.399 71.29V77.172C363.399 78.906 363.535 79.45 363.977 79.858C364.419 80.232 365.133 80.402 365.745 80.402C366.085 80.402 366.901 80.402 367.241 80.402C367.751 80.402 368.363 80.3 368.703 80.13C369.111 79.926 369.417 79.586 369.587 79.076C369.757 78.634 369.859 77.206 369.927 75.982C369.349 75.812 368.635 75.472 368.227 75.098C368.193 76.322 368.159 77.274 368.091 77.716C368.023 78.124 367.887 78.328 367.751 78.396C367.649 78.498 367.343 78.532 367.105 78.532C366.867 78.532 366.425 78.532 366.221 78.532C366.017 78.532 365.847 78.498 365.745 78.396C365.643 78.294 365.609 77.92 365.609 77.342V71.29H363.399ZM353.471 71.324V71.664C352.179 77.954 348.201 81.592 343.203 83.088C343.645 83.53 344.155 84.346 344.393 84.89C349.901 82.952 354.083 79.076 355.579 71.63L354.287 71.256L353.879 71.324H353.471ZM348.473 73.228L346.773 73.84C349.187 82.714 354.083 84.346 361.597 84.346H369.655C369.791 83.734 370.131 82.714 370.471 82.17C369.043 82.204 362.787 82.204 361.733 82.204C355.239 82.204 350.513 80.912 348.473 73.228ZM396.379 72.276V74.622H408.959V72.276H396.379ZM388.219 73.126L386.213 73.976C389.375 82.578 395.427 84.312 403.825 84.312H411.169C411.305 83.598 411.747 82.408 412.121 81.796C410.625 81.83 405.083 81.864 403.961 81.83C396.685 81.83 390.837 80.504 388.219 73.126ZM384.445 57.452V59.798H408.687V57.452H384.445ZM381.487 64.524V66.904H411.203V64.524H381.487ZM394.951 53.508V65.748H397.569V53.508H394.951ZM394.985 65.816V81.524L397.603 82.408V65.816H394.985ZM386.791 68.978C386.315 73.976 384.683 79.96 380.535 83.156C381.079 83.53 381.997 84.312 382.439 84.788C386.791 81.354 388.695 74.928 389.477 69.284L386.791 68.978ZM17 125.276V127.622H29.58V125.276H17ZM8.84 126.126L6.834 126.976C9.996 135.578 16.048 137.312 24.446 137.312H31.79C31.926 136.598 32.368 135.408 32.742 134.796C31.246 134.83 25.704 134.864 24.582 134.83C17.306 134.83 11.458 133.504 8.84 126.126ZM5.066 110.452V112.798H29.308V110.452H5.066ZM2.108 117.524V119.904H31.824V117.524H2.108ZM15.572 106.508V118.748H18.19V106.508H15.572ZM15.606 118.816V134.524L18.224 135.408V118.816H15.606ZM7.412 121.978C6.936 126.976 5.304 132.96 1.156 136.156C1.7 136.53 2.618 137.312 3.06 137.788C7.412 134.354 9.316 127.928 10.098 122.284L7.412 121.978ZM50.456 121.57V137.822H52.904V123.61H67.728V137.822H70.278V121.57H50.456ZM43.622 117.082V119.19H73.644V117.082H43.622ZM46.104 112.526V114.566H71.672V112.526H46.104ZM52.122 125.922V127.724H68.816V125.922H52.122ZM52.122 130.138V131.906H68.816V130.138H52.122ZM51.884 134.422V136.462H68.816V134.422H51.884ZM69.7 106.712C64.294 107.834 53.924 108.31 45.628 108.378C45.866 108.922 46.104 109.806 46.172 110.384C54.57 110.35 65.008 109.84 71.332 108.582L69.7 106.712ZM55.76 109.058C53.958 116.572 49.98 124.018 42.772 128.166C43.282 128.642 44.03 129.594 44.37 130.138C51.986 125.616 56.134 117.83 58.412 109.602L55.76 109.058ZM92.106 121.57V137.822H94.554V123.61H109.378V137.822H111.928V121.57H92.106ZM85.272 117.082V119.19H115.294V117.082H85.272ZM87.754 112.526V114.566H113.322V112.526H87.754ZM93.772 125.922V127.724H110.466V125.922H93.772ZM93.772 130.138V131.906H110.466V130.138H93.772ZM93.534 134.422V136.462H110.466V134.422H93.534ZM111.35 106.712C105.944 107.834 95.574 108.31 87.278 108.378C87.516 108.922 87.754 109.806 87.822 110.384C96.22 110.35 106.658 109.84 112.982 108.582L111.35 106.712ZM97.41 109.058C95.608 116.572 91.63 124.018 84.422 128.166C84.932 128.642 85.68 129.594 86.02 130.138C93.636 125.616 97.784 117.83 100.062 109.602L97.41 109.058ZM129.064 109.704V112.05H134.266V126.33H129.064V128.71H136.646V109.704H129.064ZM127.568 109.704V131.974H129.948V109.704H127.568ZM139.638 108.65V132.314C139.638 136.156 140.862 137.074 144.67 137.074C145.554 137.074 152.082 137.074 153 137.074C156.57 137.074 157.386 135.51 157.794 130.852C157.08 130.716 156.06 130.308 155.448 129.866C155.176 133.742 154.836 134.694 152.898 134.694C151.538 134.694 145.86 134.694 144.772 134.694C142.528 134.694 142.154 134.286 142.154 132.348V108.65H139.638ZM140.862 108.65V111.03H153.952V126.534H156.434V108.65H140.862ZM140.794 122.012V124.358H154.87V122.012H140.794ZM146.778 109.5V122.76H149.124V109.5H146.778ZM172.142 128.166H170.204L169.354 110.724H172.992L172.142 128.166ZM169.048 133.164C169.048 132.325 169.252 131.736 169.66 131.396C170.068 131.056 170.567 130.886 171.156 130.886C171.723 130.886 172.21 131.056 172.618 131.396C173.049 131.736 173.264 132.325 173.264 133.164C173.264 133.98 173.049 134.569 172.618 134.932C172.21 135.295 171.723 135.476 171.156 135.476C170.567 135.476 170.068 135.295 169.66 134.932C169.252 134.569 169.048 133.98 169.048 133.164Z" fill="#276A70"/>
<path d="M32.878 57.724L26.69 82H20.842L17.544 69.25C17.476 69.0007 17.3853 68.6267 17.272 68.128C17.1813 67.6293 17.068 67.0853 16.932 66.496C16.8187 65.9067 16.7167 65.3513 16.626 64.83C16.5353 64.286 16.4673 63.8667 16.422 63.572C16.3993 63.8667 16.3313 64.286 16.218 64.83C16.1273 65.3513 16.0253 65.9067 15.912 66.496C15.7987 67.0627 15.6853 67.6067 15.572 68.128C15.4587 68.6267 15.368 69.012 15.3 69.284L12.036 82H6.188L0 57.724H5.066L8.16 70.984C8.25067 71.3693 8.35267 71.8453 8.466 72.412C8.57933 72.956 8.69267 73.534 8.806 74.146C8.91933 74.7353 9.02133 75.3133 9.112 75.88C9.22533 76.4467 9.30467 76.934 9.35 77.342C9.39533 76.9113 9.46333 76.424 9.554 75.88C9.64467 75.3133 9.74667 74.7467 9.86 74.18C9.97333 73.5907 10.0753 73.0467 10.166 72.548C10.2793 72.0267 10.3813 71.6187 10.472 71.324L14.008 57.724H18.87L22.406 71.324C22.474 71.6187 22.5647 72.0267 22.678 72.548C22.7913 73.0467 22.9047 73.5907 23.018 74.18C23.1313 74.7693 23.2333 75.3473 23.324 75.914C23.4147 76.458 23.4827 76.934 23.528 77.342C23.596 76.7753 23.698 76.1067 23.834 75.336C23.97 74.5427 24.1173 73.7493 24.276 72.956C24.4573 72.1627 24.6047 71.5053 24.718 70.984L27.812 57.724H32.878ZM57.0778 82L55.3098 76.22H46.4698L44.7018 82H39.1598L47.7278 57.622H54.0178L62.6198 82H57.0778ZM52.3178 66.258C52.2044 65.8727 52.0571 65.3853 51.8758 64.796C51.6944 64.2067 51.5131 63.606 51.3318 62.994C51.1504 62.382 51.0031 61.8493 50.8898 61.396C50.7764 61.8493 50.6178 62.416 50.4138 63.096C50.2324 63.7533 50.0511 64.388 49.8698 65C49.7111 65.5893 49.5864 66.0087 49.4958 66.258L47.7618 71.902H54.0858L52.3178 66.258ZM87.6584 75.268C87.6584 76.696 87.307 77.9427 86.6044 79.008C85.9017 80.0733 84.8817 80.9007 83.5444 81.49C82.2297 82.0567 80.6204 82.34 78.7164 82.34C77.8777 82.34 77.0504 82.2833 76.2344 82.17C75.441 82.0567 74.6704 81.898 73.9224 81.694C73.197 81.4673 72.5057 81.1953 71.8484 80.878V76.084C73.0044 76.5827 74.1944 77.0473 75.4184 77.478C76.665 77.886 77.9004 78.09 79.1244 78.09C79.963 78.09 80.6317 77.9767 81.1304 77.75C81.6517 77.5233 82.0257 77.2173 82.2524 76.832C82.5017 76.4467 82.6264 76.0047 82.6264 75.506C82.6264 74.894 82.411 74.3727 81.9804 73.942C81.5724 73.5113 81.017 73.1147 80.3144 72.752C79.6117 72.3667 78.807 71.9587 77.9004 71.528C77.3337 71.256 76.7217 70.9387 76.0644 70.576C75.407 70.1907 74.7724 69.726 74.1604 69.182C73.571 68.6153 73.0837 67.9353 72.6984 67.142C72.313 66.3487 72.1204 65.3967 72.1204 64.286C72.1204 62.8353 72.449 61.6 73.1064 60.58C73.7864 59.5373 74.7384 58.744 75.9624 58.2C77.209 57.656 78.671 57.384 80.3484 57.384C81.6177 57.384 82.819 57.5313 83.9524 57.826C85.1084 58.1207 86.3097 58.54 87.5564 59.084L85.8904 63.096C84.7797 62.6427 83.7824 62.2913 82.8984 62.042C82.0144 61.7927 81.1077 61.668 80.1784 61.668C79.5437 61.668 78.9997 61.77 78.5464 61.974C78.093 62.178 77.7417 62.4613 77.4924 62.824C77.2657 63.1867 77.1524 63.6173 77.1524 64.116C77.1524 64.6827 77.3224 65.17 77.6624 65.578C78.0024 65.9633 78.5124 66.3373 79.1924 66.7C79.8724 67.0627 80.7224 67.4933 81.7424 67.992C82.989 68.5813 84.043 69.1933 84.9044 69.828C85.7884 70.4627 86.4684 71.2107 86.9444 72.072C87.4204 72.9333 87.6584 73.9987 87.6584 75.268ZM119.849 69.624C119.849 72.344 119.328 74.622 118.285 76.458C117.242 78.294 115.724 79.6767 113.729 80.606C111.757 81.5353 109.377 82 106.589 82H99.7209V57.724H107.337C109.876 57.724 112.074 58.1773 113.933 59.084C115.814 59.9907 117.265 61.328 118.285 63.096C119.328 64.8413 119.849 67.0173 119.849 69.624ZM114.511 69.76C114.511 67.9693 114.25 66.496 113.729 65.34C113.208 64.184 112.426 63.334 111.383 62.79C110.363 62.2233 109.105 61.94 107.609 61.94H104.855V77.75H107.065C109.581 77.75 111.451 77.0813 112.675 75.744C113.899 74.4067 114.511 72.412 114.511 69.76ZM142.535 55.514V59.084H146.955V55.514H142.535ZM148.995 60.24V63.334H159.705V60.24H148.995ZM159.671 60.002V63.572H162.731V60.002H159.671ZM150.083 69.386V72.616H161.473V69.386H150.083ZM149.403 74.248V77.58H162.085V74.248H149.403ZM153.381 53.304V80.368H156.679V53.304H153.381ZM146.105 55.514V55.888C145.289 58.914 143.555 64.728 142.059 68.944L145.187 69.556C146.615 65.306 148.315 59.798 149.369 55.854L147.057 55.378L146.513 55.514H146.105ZM150.423 55.82V58.812H158.413V64.796H150.457V67.788H161.303V55.82H150.423ZM145.017 70.44L142.365 71.154C144.235 82.476 148.247 84.516 154.843 84.516H161.779C161.915 83.53 162.391 81.898 162.901 81.082C161.303 81.116 156.339 81.116 155.047 81.116C149.947 81.116 146.479 79.62 145.017 70.44ZM144.711 65.408L143.759 68.638H148.009V65.408H144.711ZM146.921 65.408V65.986C146.343 75.132 144.167 80.232 139.883 82.884C140.597 83.326 141.923 84.482 142.467 85.128C146.853 82.136 149.335 76.186 150.083 65.68L148.111 65.34L147.533 65.408H146.921ZM130.601 80.81L131.417 84.312C134.613 83.7 138.727 82.918 142.603 82.136L142.297 78.77C138.047 79.586 133.559 80.368 130.601 80.81ZM132.301 61.668V64.966H141.617V61.668H132.301ZM131.145 67.414V70.814H142.025V67.414H131.145ZM131.349 72.854C131.825 74.724 132.267 77.206 132.335 78.838L134.851 78.192C134.715 76.594 134.273 74.18 133.729 72.276L131.349 72.854ZM139.679 71.936C139.475 73.568 138.965 75.982 138.557 77.478L140.767 78.022C141.209 76.594 141.685 74.452 142.195 72.514L139.679 71.936ZM135.157 63.028V81.252L138.421 80.742V63.028H135.157ZM135.463 53.134C134.443 55.82 132.573 59.084 129.785 61.532C130.533 62.076 131.689 63.3 132.199 64.116C135.463 61.056 137.435 57.52 138.693 54.902V53.882H137.571V53.134H135.463ZM135.735 53.134V55.752H136.347C138.013 57.384 140.019 60.342 140.903 62.042L143.453 59.118C142.433 57.35 140.257 54.868 138.455 53.134H135.735Z" fill="#FEA30B"/>
</svg>
