<svg width="303" height="138" viewBox="0 0 303 138" fill="none" xmlns="http://www.w3.org/2000/svg">
<path d="M16.864 2.922C19.924 7.206 25.874 12.272 31.144 15.298C31.586 14.55 32.198 13.7 32.844 13.054C27.506 10.402 21.556 5.438 18.02 0.405999H15.402C12.784 4.826 7.106 10.232 1.258 13.462C1.802 14.006 2.516 14.89 2.856 15.502C8.602 12.136 14.076 7.07 16.864 2.922ZM5.372 20.602V22.88H28.56V20.602H5.372ZM6.902 12.986V15.298H27.234V12.986H6.902ZM2.584 28.49V30.802H31.552V28.49H2.584ZM15.538 13.938V29.782H18.224V13.938H15.538ZM62.05 2.48V31.754H64.532V4.894H72.25V2.48H62.05ZM43.928 4.214V6.492H60.18V4.214H43.928ZM43.044 13.632V15.978H60.622V13.632H43.044ZM50.762 0.575999V5.608H53.244V0.575999H50.762ZM46.036 7.682C46.75 9.416 47.328 11.728 47.498 13.224L49.776 12.68C49.572 11.184 48.926 8.906 48.178 7.206L46.036 7.682ZM55.794 6.968C55.386 8.702 54.57 11.218 53.89 12.782L55.93 13.326C56.678 11.83 57.494 9.552 58.242 7.546L55.794 6.968ZM46.24 27.504V29.782H57.426V27.504H46.24ZM45.322 18.936V31.754H47.702V21.214H56.27V31.584H58.718V18.936H45.322ZM71.57 2.48V3.296C70.55 5.982 68.714 10.674 66.98 14.176C70.414 17.168 71.4 19.718 71.434 21.86C71.434 23.118 71.196 24.104 70.448 24.546C70.04 24.784 69.564 24.92 68.986 24.954C68.306 24.988 67.32 24.954 66.334 24.886C66.776 25.6 67.014 26.688 67.048 27.402C68.034 27.436 69.156 27.47 70.006 27.368C70.89 27.232 71.638 26.994 72.25 26.62C73.44 25.804 73.916 24.206 73.916 22.132C73.882 19.684 73.066 16.998 69.632 13.836C71.196 10.708 72.964 6.764 74.358 3.568L72.488 2.378L72.08 2.48H71.57ZM91.766 16.284H84.762V18.562H89.318V26.144H91.766V16.284ZM91.766 24.988H89.624C87.958 26.45 86.02 27.946 84.49 28.966L85.748 31.414C87.516 29.952 89.148 28.524 90.746 27.062C92.888 29.714 96.016 30.87 100.47 31.04C104.244 31.176 111.52 31.108 115.26 30.972C115.396 30.224 115.77 29.102 116.076 28.558C112.03 28.796 104.176 28.864 100.402 28.762C96.458 28.626 93.432 27.47 91.766 24.988ZM86.326 2.446C88.4 3.602 90.78 5.37 91.902 6.696L93.67 4.962C92.514 3.636 90.066 1.936 88.026 0.881999L86.326 2.446ZM85 9.382C87.176 10.436 89.692 12.17 90.882 13.462L92.65 11.66C91.392 10.334 88.808 8.702 86.7 7.716L85 9.382ZM102.136 2.344V4.486H115.056V2.344H102.136ZM101.388 22.948V25.09H115.736V22.948H101.388ZM102.646 12.17V14.312H114.58V12.17H102.646ZM107.27 3.398V23.832H109.684V3.398H107.27ZM94.18 1.936C97.92 6.016 98.498 10.47 98.498 15.57C98.498 19.106 98.294 22.88 97.614 23.73C97.444 23.968 97.172 24.104 96.832 24.138C96.288 24.206 95.404 24.206 94.35 24.104C94.724 24.75 94.928 25.634 94.962 26.314C95.982 26.382 97.036 26.382 97.818 26.212C98.498 26.144 99.008 25.872 99.382 25.362C100.504 23.934 100.742 19.752 100.742 15.672C100.742 10.164 100.266 5.302 95.88 0.745999L94.18 1.936ZM99.858 0.677998C98.294 4.18 95.574 7.478 92.616 9.586C93.092 9.96 93.908 10.81 94.248 11.252C97.274 8.872 100.198 5.2 101.966 1.256L99.858 0.677998ZM98.464 10.912C97.24 13.53 94.69 16.556 92.548 18.086C93.092 18.494 93.704 19.31 94.044 19.82C96.254 17.95 98.804 14.652 100.13 11.898L98.464 10.912ZM132.668 10.334V12.646H151.164V10.334H132.668ZM126.854 16.59V19.004H157.012V16.59H126.854ZM135.796 18.256C135.218 23.798 133.756 27.708 126.106 29.612C126.65 30.122 127.33 31.142 127.602 31.788C135.898 29.476 137.802 24.886 138.516 18.256H135.796ZM144.398 18.052V27.64C144.398 30.36 145.214 31.142 148.342 31.142C149.022 31.142 152.932 31.142 153.612 31.142C156.332 31.142 157.08 29.952 157.352 25.294C156.672 25.09 155.584 24.682 155.04 24.274C154.938 28.184 154.7 28.796 153.408 28.796C152.524 28.796 149.294 28.796 148.614 28.796C147.186 28.796 146.948 28.626 146.948 27.606V18.052H144.398ZM140.522 0.473998V5.88H143.208V0.473998H140.522ZM127.636 4.112V11.32H130.22V6.526H153.544V11.32H156.23V4.112H127.636ZM169.048 5.2V7.682H198.39V5.2H169.048ZM182.172 0.473998V31.72H184.824V0.473998H182.172ZM182.478 15.57C179.418 20.738 173.536 25.702 167.858 28.014C168.436 28.524 169.252 29.544 169.66 30.19C175.406 27.504 181.288 22.234 184.62 16.42L182.478 15.57ZM184.688 15.638L182.546 16.522C185.844 22.336 191.624 27.64 197.472 30.258C197.914 29.544 198.73 28.524 199.376 27.98C193.494 25.736 187.68 20.84 184.688 15.638ZM173.57 13.802C175.202 15.23 177.242 17.27 178.296 18.494L180.03 16.76C178.976 15.536 176.868 13.598 175.27 12.238L173.57 13.802ZM174.998 8.498C173.978 12.884 171.836 16.59 168.742 18.902C169.354 19.31 170.34 20.126 170.748 20.568C173.91 17.95 176.29 13.904 177.48 8.94L174.998 8.498ZM189.924 13.87C192.236 15.74 195.296 18.358 196.758 19.99L198.56 18.222C197.03 16.658 193.902 14.108 191.624 12.374L189.924 13.87ZM191.114 8.498C190.366 12.306 188.734 15.638 186.252 17.712C186.864 18.018 187.952 18.732 188.428 19.14C190.842 16.76 192.678 13.19 193.562 8.906L191.114 8.498ZM209.372 18.46L210.12 20.908C213.384 19.99 217.668 18.698 221.646 17.508L221.34 15.162C217.022 16.42 212.432 17.712 209.372 18.46ZM209.78 7.308V9.722H221.306V7.308H209.78ZM214.676 0.473998V28.49C214.676 28.966 214.472 29.136 213.996 29.136C213.554 29.136 212.092 29.17 210.494 29.102C210.8 29.782 211.174 30.836 211.276 31.482C213.622 31.482 215.016 31.414 215.934 31.006C216.784 30.632 217.158 29.918 217.158 28.49V0.473998H214.676ZM221.714 10.062L221.986 12.51L240.244 10.538L239.972 8.158L221.714 10.062ZM231.2 2.548C232.866 4.044 234.906 6.186 235.79 7.614L237.83 6.152C236.878 4.758 234.838 2.684 233.138 1.256L231.2 2.548ZM226.304 0.575999C227.12 17.916 229.806 31.006 237.388 31.584C239.122 31.686 240.482 29.986 241.264 24.444C240.72 24.206 239.598 23.56 239.088 23.05C238.748 26.79 238.204 28.66 237.286 28.592C232.22 28.082 229.466 15.842 228.888 0.575999H226.304ZM236.402 13.19C233.58 19.616 227.46 25.872 220.694 28.558C221.408 29.068 222.224 29.884 222.7 30.564C229.33 27.572 235.45 21.146 238.51 14.482L236.402 13.19ZM273.802 2.684C275.808 4.452 278.12 6.9 279.14 8.532L281.248 7.036C280.126 5.472 277.746 3.058 275.74 1.358L273.802 2.684ZM251.77 10.504V12.952H282.064V10.504H251.77ZM251.26 20.5L252.008 23.05C256.292 22.098 262.31 20.704 267.886 19.412L267.682 17.1C261.698 18.392 255.306 19.752 251.26 20.5ZM259.08 3.908V28.422C259.08 29.034 258.876 29.204 258.264 29.204C257.652 29.238 255.646 29.272 253.47 29.17C253.844 29.918 254.286 31.074 254.422 31.754C257.244 31.788 259.046 31.686 260.134 31.278C261.222 30.87 261.63 30.122 261.63 28.456V3.908H259.08ZM265.54 0.847998C262.276 2.072 256.768 3.228 251.974 3.976C252.314 4.554 252.62 5.506 252.756 6.084C257.618 5.404 263.398 4.35 267.342 2.99L265.54 0.847998ZM268.94 0.745999C269.076 16.93 272.102 31.856 278.766 31.856C281.316 31.856 282.234 30.19 282.71 24.546C281.996 24.274 281.078 23.696 280.534 23.118C280.33 27.504 279.922 29.272 279.004 29.272C274.856 29.272 271.524 16.352 271.592 0.745999H268.94ZM278.154 14.516C275.128 20.262 269.518 25.498 263.466 28.422C264.112 29 264.826 29.816 265.234 30.462C271.49 27.164 277.1 21.69 280.432 15.468L278.154 14.516ZM296.888 32.638C300.458 31.414 302.77 28.626 302.77 24.954C302.77 22.574 301.75 21.01 299.846 21.01C298.486 21.01 297.262 21.86 297.262 23.458C297.262 25.09 298.418 25.906 299.812 25.906C300.458 25.906 301.138 25.736 301.614 25.124L299.778 22.54L300.424 25.43C300.424 27.98 298.894 29.714 296.106 30.87L296.888 32.638ZM12.92 55.786V58.166H32.742V55.786H12.92ZM27.37 56.976V81.524C27.37 82.204 27.098 82.408 26.384 82.442C25.636 82.476 23.12 82.476 20.434 82.408C20.774 83.088 21.182 84.074 21.318 84.72C24.82 84.754 26.894 84.72 28.118 84.346C29.308 83.972 29.818 83.292 29.818 81.524V56.976H27.37ZM15.232 62.994V65.204H21.454V73.126H15.232V75.336H23.732V62.994H15.232ZM14.076 62.994V77.92H16.32V62.994H14.076ZM2.72 54.936V84.754H5.032V57.248H10.642V54.936H2.72ZM10.03 54.936V55.616C9.316 57.928 8.058 61.838 6.8 64.932C9.282 67.618 9.894 69.998 9.894 71.868C9.894 72.888 9.69 73.84 9.18 74.214C8.874 74.418 8.534 74.486 8.092 74.52C7.548 74.588 6.902 74.554 6.12 74.486C6.494 75.132 6.732 76.118 6.766 76.73C7.514 76.764 8.364 76.764 9.044 76.696C9.758 76.594 10.336 76.39 10.812 76.05C11.764 75.37 12.172 73.908 12.172 72.072C12.172 69.964 11.594 67.482 9.112 64.66C10.268 61.94 11.526 58.608 12.512 55.82L10.846 54.834L10.472 54.936H10.03ZM55.828 65.782C54.23 70.576 51.272 77.206 48.858 81.388L51.204 82.136C53.72 78.022 56.678 71.664 58.82 66.53L55.828 65.782ZM44.676 80.606L45.016 83.292C51.408 83.02 60.928 82.51 69.836 82L69.904 79.552C60.792 79.994 50.898 80.402 44.676 80.606ZM62.356 73.228C65.382 76.832 68.918 81.796 70.516 84.89L73.1 83.496C71.4 80.402 67.898 75.676 64.804 72.106L62.356 73.228ZM52.394 54.46C50.422 59.492 47.056 64.388 43.316 67.448C44.03 67.856 45.22 68.774 45.764 69.284C49.368 65.918 52.938 60.716 55.216 55.242L52.394 54.46ZM64.566 54.426L62.05 55.48C64.668 60.24 68.918 66.02 72.08 69.25C72.59 68.604 73.542 67.618 74.222 67.074C71.094 64.252 66.81 58.88 64.566 54.426ZM85.442 57.86V60.274H115.226V57.86H85.442ZM93.738 69.998V72.208H109.718V69.998H93.738ZM91.936 64.218V84.72H94.452V66.496H109.31V64.218H91.936ZM108.732 64.218V81.524C108.732 82.034 108.528 82.204 107.95 82.238C107.338 82.238 105.264 82.272 102.986 82.17C103.36 82.884 103.734 83.938 103.836 84.652C106.76 84.652 108.664 84.652 109.752 84.244C110.908 83.836 111.214 83.054 111.214 81.558V64.218H108.732ZM96.56 53.44C94.724 60.274 90.712 67.482 84.626 71.664C85.136 72.174 85.918 73.058 86.258 73.636C92.752 69.08 96.832 61.532 99.144 54.052L96.56 53.44ZM93.738 75.744V77.954H109.718V75.744H93.738ZM136.544 69.964V72.106H145.792V77.784H136.544V79.926H148.172V69.964H136.544ZM135.422 69.964V81.966H137.802V69.964H135.422ZM129.268 59.832V61.736H138.72V59.832H129.268ZM144.942 59.832V61.736H154.564V59.832H144.942ZM153.442 54.902V81.286C153.442 81.932 153.238 82.136 152.592 82.136C151.946 82.17 149.702 82.204 147.458 82.102C147.832 82.816 148.274 84.006 148.376 84.72C151.368 84.72 153.34 84.686 154.496 84.278C155.584 83.836 155.992 83.02 155.992 81.32V54.902H153.442ZM129.472 54.902V56.976H137.938V64.83H129.472V66.904H140.352V54.902H129.472ZM154.768 54.902H143.412V66.904H154.768V64.864H145.86V56.942H154.768V54.902ZM128.044 54.902V84.754H130.56V54.902H128.044ZM172.448 61.09H179.078V63.674H172.448V61.09ZM172.448 56.738H179.078V59.288H172.448V56.738ZM170.17 54.902V65.578H181.458V54.902H170.17ZM168.13 68.094V70.066H183.464V68.094H168.13ZM183.26 55.14V57.044H198.764V55.14H183.26ZM174.93 68.706V80.3L177.106 81.66V68.706H174.93ZM176.086 73.738V75.676H182.886V73.738H176.086ZM189.992 55.616C189.686 57.078 189.108 59.186 188.564 60.58L190.468 61.022C191.08 59.764 191.76 57.826 192.406 56.092L189.992 55.616ZM186.898 65.918H195.024V68.468H186.898V65.918ZM186.898 70.236H195.024V72.854H186.898V70.236ZM186.898 61.566H195.024V64.082H186.898V61.566ZM184.586 59.696V74.724H197.404V59.696H184.586ZM187.408 75.336C186.116 76.9 183.906 78.43 181.798 79.416C182.274 79.79 183.124 80.606 183.498 80.98C185.606 79.824 188.088 77.886 189.584 75.982L187.408 75.336ZM170.51 71.936C170.34 76.118 169.796 80.708 167.722 83.19C168.266 83.564 169.014 84.312 169.354 84.822C171.768 81.932 172.448 76.832 172.652 71.936H170.51ZM172.108 75.268L170.51 75.846C173.332 82.884 178.806 84.006 187.476 84.006H198.526C198.662 83.326 199.07 82.34 199.444 81.796C197.438 81.864 189.006 81.864 187.476 81.864C179.826 81.864 174.522 81.116 172.108 75.268ZM192.168 76.254C194.004 77.512 196.282 79.484 197.37 80.844L199.24 79.654C198.118 78.362 195.874 76.458 193.902 75.268L192.168 76.254ZM209.78 72.038V74.18H240.72V72.038H209.78ZM210.596 54.936V57.18H239.87V54.936H210.596ZM221.578 68.468C219.47 71.8 216.308 76.356 214.132 79.11L216.546 79.926C218.722 77.138 221.85 72.684 224.06 69.148L221.578 68.468ZM231.778 72.786C229.058 79.416 222.394 81.83 210.256 82.476C210.664 83.054 211.072 83.972 211.242 84.72C223.992 83.768 231.234 80.98 234.226 73.5L231.778 72.786ZM215.968 78.77C224.604 80.368 232.934 82.68 238.136 84.822L239.666 82.748C234.396 80.674 225.658 78.396 217.26 76.9L215.968 78.77ZM219.878 55.786V67.652H222.292V55.786H219.878ZM227.8 55.786V67.652H230.214V55.786H227.8ZM214.676 62.178H235.892V66.802H214.676V62.178ZM212.296 60.104V68.91H238.442V60.104H212.296ZM261.494 69.964V72.106H270.742V77.784H261.494V79.926H273.122V69.964H261.494ZM260.372 69.964V81.966H262.752V69.964H260.372ZM254.218 59.832V61.736H263.67V59.832H254.218ZM269.892 59.832V61.736H279.514V59.832H269.892ZM278.392 54.902V81.286C278.392 81.932 278.188 82.136 277.542 82.136C276.896 82.17 274.652 82.204 272.408 82.102C272.782 82.816 273.224 84.006 273.326 84.72C276.318 84.72 278.29 84.686 279.446 84.278C280.534 83.836 280.942 83.02 280.942 81.32V54.902H278.392ZM254.422 54.902V56.976H262.888V64.83H254.422V66.904H265.302V54.902H254.422ZM279.718 54.902H268.362V66.904H279.718V64.864H270.81V56.942H279.718V54.902ZM252.994 54.902V84.754H255.51V54.902H252.994ZM15.81 106.61C14.688 111.608 12.716 116.504 10.2 119.666C10.778 120.04 11.798 120.856 12.24 121.298C14.858 117.83 17 112.594 18.326 107.154L15.81 106.61ZM15.232 121.026C14.28 125.106 12.648 129.152 10.54 131.77C11.152 132.076 12.24 132.756 12.75 133.164C14.824 130.308 16.66 125.99 17.714 121.536L15.232 121.026ZM15.504 113.002L14.518 115.382H30.804V113.002H15.504ZM20.774 113.988V134.626C20.774 135.068 20.638 135.204 20.196 135.204C19.72 135.204 18.258 135.238 16.66 135.17C17.034 135.918 17.408 137.04 17.578 137.754C19.686 137.754 21.148 137.686 22.066 137.244C23.018 136.836 23.324 136.088 23.324 134.626V113.988H20.774ZM25.772 121.536C27.642 125.106 29.342 129.9 29.886 133.028L32.3 132.212C31.722 129.05 30.022 124.358 28.05 120.788L25.772 121.536ZM30.056 113.002V113.376C29.716 115.62 29.274 118.476 28.9 120.176L31.11 120.584C31.552 118.748 32.13 115.824 32.606 113.308L30.838 112.934L30.396 113.002H30.056ZM8.976 106.576C7.072 111.744 3.876 116.844 0.51 120.142C0.986 120.72 1.7 122.08 1.972 122.658C5.644 118.85 9.146 113.104 11.39 107.324L8.976 106.576ZM5.44 115.348V137.686H7.888V112.968L7.82 112.934L5.44 115.348ZM47.6432 110.828L47.4273 128.177H44.6549L44.4225 110.828H47.6432ZM44.3229 133.456C44.3229 132.958 44.4723 132.537 44.7711 132.194C45.081 131.851 45.5348 131.68 46.1324 131.68C46.719 131.68 47.1673 131.851 47.4771 132.194C47.7981 132.537 47.9586 132.958 47.9586 133.456C47.9586 133.932 47.7981 134.341 47.4771 134.685C47.1673 135.028 46.719 135.199 46.1324 135.199C45.5348 135.199 45.081 135.028 44.7711 134.685C44.4723 134.341 44.3229 133.932 44.3229 133.456Z" fill="#276A70"/>
</svg>
